<svg id="svg3799" xmlns="http://www.w3.org/2000/svg" xmlns:xlink="http://www.w3.org/1999/xlink" viewBox="0 0 48 48"><defs><style>.cls-1,.cls-3,.cls-4{fill-rule:evenodd;}.cls-1{fill:url(#linear-gradient);}.cls-2{fill:url(#linear-gradient-2);}.cls-3{fill:url(#New_Gradient_Swatch);}.cls-4{fill:url(#New_Gradient_Swatch-2);}</style><linearGradient id="linear-gradient" x1="54.82" y1="-828.65" x2="102.82" y2="-828.65" gradientTransform="matrix(1, 0, 0, -1, -54.82, -804.65)" gradientUnits="userSpaceOnUse"><stop offset="0" stop-color="#ec1e27"/><stop offset="1" stop-color="#9d1f60"/></linearGradient><linearGradient id="linear-gradient-2" x1="6.52" y1="16.08" x2="8.88" y2="16.08" gradientTransform="matrix(1, 0, 0, -1, 0, 50)" xlink:href="#linear-gradient"/><linearGradient id="New_Gradient_Swatch" x1="13.02" y1="27.79" x2="36.85" y2="27.79" gradientTransform="matrix(1, 0, 0, 1, 0, 0)" xlink:href="#linear-gradient"/><linearGradient id="New_Gradient_Swatch-2" x1="15.15" y1="13.26" x2="34.71" y2="13.26" gradientTransform="matrix(1, 0, 0, 1, 0, 0)" xlink:href="#linear-gradient"/></defs><path class="cls-1" d="M24,0A24,24,0,1,0,48,24h0A24,24,0,0,0,24,0Zm0,1A23,23,0,1,1,1,24H1A23,23,0,0,1,24,1Z"/><ellipse class="cls-2" cx="7.7" cy="33.92" rx="1.18" ry="1.19"/><path class="cls-3" d="M18.17,18.83H35.25a1.55,1.55,0,0,1,1.6,1.5v1.85H13V20.33a1.54,1.54,0,0,1,1.59-1.5Zm18.68,4.68V35.25a1.57,1.57,0,0,1-1.6,1.51H14.61A1.56,1.56,0,0,1,13,35.25V23.51ZM16,32.59l.31-1.71a7.88,7.88,0,0,0,1.81.24c.44,0,.87,0,1.3-.06v-.52l-1-.08a3,3,0,0,1-1.84-.61,2,2,0,0,1-.5-1.45,2.26,2.26,0,0,1,.61-1.83,3.33,3.33,0,0,1,2.07-.49,12.29,12.29,0,0,1,2.63.26L21.16,28a11.23,11.23,0,0,0-1.63-.15,7.18,7.18,0,0,0-1,.05v.51l.79.07a3.37,3.37,0,0,1,2,.65,1.85,1.85,0,0,1,.55,1.41,2.82,2.82,0,0,1-.19,1.11,1.77,1.77,0,0,1-.44.68,1.67,1.67,0,0,1-.73.36,5.77,5.77,0,0,1-.83.15c-.24,0-.55,0-.95,0A11.72,11.72,0,0,1,16,32.58Zm6.57,0,.31-1.71a7.88,7.88,0,0,0,1.81.24c.44,0,.87,0,1.3-.06v-.52l-1-.08a3,3,0,0,1-1.84-.61,2,2,0,0,1-.5-1.45,2.26,2.26,0,0,1,.61-1.83,3.29,3.29,0,0,1,2.06-.49,12.16,12.16,0,0,1,2.63.26L27.73,28a11.1,11.1,0,0,0-1.63-.15,7.18,7.18,0,0,0-1,.05v.5l.79.08a3.45,3.45,0,0,1,2,.64,1.88,1.88,0,0,1,.55,1.42,3,3,0,0,1-.19,1.11,2,2,0,0,1-.44.68,1.79,1.79,0,0,1-.73.36,5.77,5.77,0,0,1-.83.15l-1,0a11.72,11.72,0,0,1-2.64-.27Zm11.23.11H29.45V26.23h2.19v4.82h2.19V32.7Z"/><path class="cls-4" d="M31.69,18.83V17.26a6.67,6.67,0,0,0-2-4.77,6.78,6.78,0,0,0-9.2-.3l-.32.3a6.67,6.67,0,0,0-2,4.77v1.57h-3V17.26A9.48,9.48,0,0,1,18,10.52a9.89,9.89,0,0,1,13.43-.41c.15.13.29.27.43.41a9.42,9.42,0,0,1,2.85,6.74v1.57Z"/></svg>