<svg id="svg3799" xmlns="http://www.w3.org/2000/svg" xmlns:xlink="http://www.w3.org/1999/xlink" viewBox="0 0 311.43 311.35"><defs><style>.cls-1{fill:url(#linear-gradient);}.cls-2{fill:url(#linear-gradient-2);}.cls-3{fill:url(#linear-gradient-3);}.cls-4{fill:url(#linear-gradient-4);}.cls-5{fill:url(#linear-gradient-5);}.cls-6{fill:url(#linear-gradient-6);}.cls-7{fill:url(#linear-gradient-7);}.cls-8{fill:url(#linear-gradient-8);}.cls-9{fill:url(#linear-gradient-9);}.cls-10{fill:#fcfcfc;}.cls-11{fill:#fff;}</style><linearGradient id="linear-gradient" x1="149.57" y1="-143.74" x2="461" y2="-143.74" gradientTransform="translate(-149.57 298.48)" gradientUnits="userSpaceOnUse"><stop offset="0" stop-color="#ec1e27"/><stop offset="1" stop-color="#9d1f60"/></linearGradient><linearGradient id="linear-gradient-2" x1="43.31" y1="421.26" x2="268.13" y2="421.26" gradientTransform="matrix(1, 0, 0, -1, 0, 576)" xlink:href="#linear-gradient"/><linearGradient id="linear-gradient-3" x1="236.91" y1="431.76" x2="238" y2="431.76" gradientTransform="matrix(1, 0, 0, -1, -3.57, 570.48)" xlink:href="#linear-gradient"/><linearGradient id="linear-gradient-4" x1="242.11" y1="431.25" x2="242.11" y2="431.25" gradientTransform="matrix(1, 0, 0, -1, -3.57, 570.48)" xlink:href="#linear-gradient"/><linearGradient id="linear-gradient-5" x1="239.5" y1="426.75" x2="239.5" y2="426.75" gradientTransform="matrix(1, 0, 0, -1, -3.57, 570.48)" xlink:href="#linear-gradient"/><linearGradient id="linear-gradient-6" x1="808.13" y1="65.19" x2="1119.68" y2="65.19" gradientTransform="matrix(-0.34, -0.94, -0.94, 0.34, 544.73, 1039.65)" xlink:href="#linear-gradient"/><linearGradient id="linear-gradient-7" x1="895.34" y1="265.83" x2="896.43" y2="265.83" gradientTransform="matrix(-0.34, -0.94, 0.94, -0.34, 168.83, 1020.68)" xlink:href="#linear-gradient"/><linearGradient id="linear-gradient-8" x1="900.54" y1="266.34" x2="900.54" y2="266.34" gradientTransform="matrix(-0.34, -0.94, 0.94, -0.34, 168.83, 1020.68)" xlink:href="#linear-gradient"/><linearGradient id="linear-gradient-9" x1="898.38" y1="270.87" x2="898.38" y2="270.87" gradientTransform="matrix(-0.34, -0.94, 0.94, -0.34, 168.83, 1020.68)" xlink:href="#linear-gradient"/></defs><title>hostinglelo-cheap-ssd-web-hosting</title><g id="Ikony_ciemne_tlo" data-name="Ikony ciemne tlo"><g id="CPANEL"><path id="OBRYS_KOLO" data-name="OBRYS KOLO" class="cls-1" d="M155.71,309.48C69.86,309.48,0,240.06,0,154.74S69.86,0,155.71,0a2.93,2.93,0,0,1,0,5.86h0C73.11,5.86,5.9,72.65,5.9,154.74S73.11,303.62,155.71,303.62s149.82-66.79,149.82-148.88a3,3,0,0,1,5.9,0C311.43,240.06,241.57,309.48,155.71,309.48Z"/><ellipse class="cls-2" cx="155.72" cy="154.74" rx="112.41" ry="111.7"/><path class="cls-3" d="M234.44,138.17a2.91,2.91,0,0,0-1.1,1.1"/><path class="cls-4" d="M238.54,139.2v.07"/><path class="cls-5" d="M235.93,143.73"/></g></g><g id="Ikony_ciemne_tlo-2" data-name="Ikony ciemne tlo-2"><g id="CPANEL-2"><path id="OBRYS_KOLO-2" data-name="OBRYS KOLO-2" class="cls-6" d="M301.15,102.89c29.33,80.68-12,170.05-92.24,199.2S39.62,289.29,10.29,208.6a2.93,2.93,0,0,1,5.51-2h0c28.21,77.63,114,118,191.1,89.94,74.79-27.18,116.65-114.88,88.75-191.65-28.22-77.63-114-118-191.11-89.95a3,3,0,0,1-2-5.55C182.71-19.75,271.82,22.19,301.15,102.89Z"/><path class="cls-7" d="M113.25,87.41a3,3,0,0,0,1.41.66"/><path class="cls-8" d="M112.82,83.21h.07"/><path class="cls-9" d="M118,84.11"/></g></g><path class="cls-10" d="M102.44,154.4a20.93,20.93,0,0,0,4.62,1.74,23.79,23.79,0,0,0,5.88.78q5.52,0,5.52-3.3,0-2.46-6.36-4.62a22.91,22.91,0,0,1-8.28-4.74,10.16,10.16,0,0,1-3.12-7.44,11,11,0,0,1,4.32-9q4.44-3.66,11.94-3.66a31.48,31.48,0,0,1,6.3.6,21.45,21.45,0,0,1,4.62,1.44l-2.28,8.7a5.5,5.5,0,0,0-.72-.3,7,7,0,0,0-.84-.3,11.5,11.5,0,0,0-2-.66,21,21,0,0,0-5.22-.66q-5.1,0-5.1,3,0,2,7.26,4.74,10.5,3.9,10.5,12.18a11.21,11.21,0,0,1-4.2,9.06q-4.56,3.84-13,3.84a31.47,31.47,0,0,1-6.9-.78,21.75,21.75,0,0,1-5-1.68Z"/><path class="cls-10" d="M136.1,154.4a20.93,20.93,0,0,0,4.62,1.74,23.79,23.79,0,0,0,5.88.78q5.52,0,5.52-3.3,0-2.46-6.36-4.62a22.91,22.91,0,0,1-8.28-4.74,10.16,10.16,0,0,1-3.12-7.44,11,11,0,0,1,4.32-9q4.44-3.66,11.94-3.66a31.48,31.48,0,0,1,6.3.6,21.45,21.45,0,0,1,4.62,1.44l-2.28,8.7a5.5,5.5,0,0,0-.72-.3,7,7,0,0,0-.84-.3,11.5,11.5,0,0,0-2-.66,21,21,0,0,0-5.22-.66q-5.1,0-5.1,3,0,2,7.26,4.74,10.5,3.9,10.5,12.18A11.21,11.21,0,0,1,159,162q-4.56,3.84-13,3.84A31.47,31.47,0,0,1,139,165a21.75,21.75,0,0,1-5-1.68Z"/><path class="cls-10" d="M180.26,123.68h1.32q14.4,0,20.22,7.62,3.78,4.92,3.78,12.54,0,12.6-9,18.36a24,24,0,0,1-5.46,2.28,31,31,0,0,1-6.66,1.32l-2.64.24-.06-.06v-8.52l.06-.06H182a11.52,11.52,0,0,0,9.12-4.08,14.31,14.31,0,0,0,2.64-8.7v-.9q0-6-4-9.24a12,12,0,0,0-7.56-2.28,19.34,19.34,0,0,0-3.36.24V166l-.12.06h-.6a64.23,64.23,0,0,1-10.38-.72l-.06-.06V124.64q0-.18,4.44-.66Q176.24,123.68,180.26,123.68Z"/><path class="cls-11" d="M106,183.08H99.1v-1.43l1.44-1.23c.48-.41.93-.82,1.34-1.22a12.8,12.8,0,0,0,1.8-2,3,3,0,0,0,.49-1.62,1.55,1.55,0,0,0-.53-1.24,2.16,2.16,0,0,0-1.46-.45,4.86,4.86,0,0,0-1.34.22,5.56,5.56,0,0,0-1.42.67h-.07v-1.43a6.51,6.51,0,0,1,1.3-.44,6.69,6.69,0,0,1,1.57-.2,3.63,3.63,0,0,1,2.45.76,2.54,2.54,0,0,1,.89,2,3.83,3.83,0,0,1-.15,1.09,3.52,3.52,0,0,1-.43.95,6.73,6.73,0,0,1-.63.83c-.24.28-.53.58-.87.91-.49.48-1,.94-1.51,1.39l-1.45,1.25H106Z"/><path class="cls-11" d="M116,172.9l-3.51,5,3.51,5.15h-1.57l-2.77-4.19-2.85,4.19h-1.47l3.54-5.09-3.46-5.09H109l2.74,4.14,2.8-4.14Z"/><path class="cls-11" d="M130.44,179a6.92,6.92,0,0,1-.24,1.93,3.08,3.08,0,0,1-.8,1.37,3.14,3.14,0,0,1-1.23.76,5.06,5.06,0,0,1-1.64.24,4.91,4.91,0,0,1-1.66-.25,3.07,3.07,0,0,1-1.2-.75,3.18,3.18,0,0,1-.8-1.35,6.83,6.83,0,0,1-.24-1.95V172.9H124v6.16a5.66,5.66,0,0,0,.12,1.31,2.38,2.38,0,0,0,.38.86,1.84,1.84,0,0,0,.81.67,3.56,3.56,0,0,0,2.49,0,1.87,1.87,0,0,0,.82-.68,2.55,2.55,0,0,0,.38-.89,6.16,6.16,0,0,0,.11-1.25V172.9h1.35Z"/><path class="cls-11" d="M139.47,183.08H133V172.9h1.35v9h5.09Z"/><path class="cls-11" d="M146.92,174.1h-3.64v9h-1.35v-9h-3.64v-1.2h8.63Z"/><path class="cls-11" d="M156.71,183.08H155l-3.4-4.05h-1.91v4.05h-1.35V172.9h2.85a8.18,8.18,0,0,1,1.53.12,3.17,3.17,0,0,1,1.11.43,2.53,2.53,0,0,1,.87.88,2.68,2.68,0,0,1,.31,1.34,3,3,0,0,1-.56,1.84,3.3,3.3,0,0,1-1.52,1.12Zm-3.17-7.31a1.87,1.87,0,0,0-.15-.78,1.26,1.26,0,0,0-.51-.57,1.91,1.91,0,0,0-.7-.28,5.19,5.19,0,0,0-1-.08h-1.59v3.85H151a4.69,4.69,0,0,0,1.12-.12,1.66,1.66,0,0,0,.81-.42,1.76,1.76,0,0,0,.46-.66A2.78,2.78,0,0,0,153.54,175.77Z"/><path class="cls-11" d="M166,183.08H164.6l-1-2.84h-4.4l-1,2.84h-1.37l3.71-10.18h1.8Zm-2.85-4-1.79-5-1.79,5Z"/><path class="cls-11" d="M179,174.1h-5.14V177h4.42v1.2h-4.42v4.9h-1.36V172.9H179Z"/><path class="cls-11" d="M187.9,183.08h-1.44l-1-2.84h-4.4l-1,2.84h-1.38l3.71-10.18h1.8Zm-2.86-4-1.78-5-1.79,5Z"/><path class="cls-11" d="M196.77,180.17a2.78,2.78,0,0,1-1.05,2.16,4,4,0,0,1-1.28.69,5.56,5.56,0,0,1-1.75.24,8.62,8.62,0,0,1-2-.2,10.53,10.53,0,0,1-1.79-.61v-1.69h.1a6,6,0,0,0,1.78,1,6,6,0,0,0,1.91.35,3.41,3.41,0,0,0,1.95-.48,1.43,1.43,0,0,0,.7-1.25,1.34,1.34,0,0,0-.33-1,2.17,2.17,0,0,0-1-.5,10.3,10.3,0,0,0-1.11-.23c-.4-.06-.82-.13-1.26-.22a3.73,3.73,0,0,1-2-1,2.69,2.69,0,0,1,.43-3.91,4.43,4.43,0,0,1,2.74-.81,9.32,9.32,0,0,1,2,.2,9.47,9.47,0,0,1,1.58.51V175h-.09a4.79,4.79,0,0,0-1.53-.82,5.85,5.85,0,0,0-1.94-.32,3.07,3.07,0,0,0-1.75.45,1.36,1.36,0,0,0-.66,1.16,1.44,1.44,0,0,0,.33,1,2.28,2.28,0,0,0,1.16.55c.29.06.7.14,1.24.23s1,.19,1.37.28a3.56,3.56,0,0,1,1.71.91A2.41,2.41,0,0,1,196.77,180.17Z"/><path class="cls-11" d="M206.21,174.1h-3.64v9h-1.35v-9h-3.64v-1.2h8.63Z"/></svg>