<svg id="svg3799" xmlns="http://www.w3.org/2000/svg" xmlns:xlink="http://www.w3.org/1999/xlink" viewBox="0 0 48 48"><defs><style>.cls-1{fill-rule:evenodd;fill:url(#linear-gradient);}.cls-2{fill:#f9f7f7;}.cls-3{fill:url(#linear-gradient-2);}.cls-4{fill:url(#linear-gradient-3);}.cls-5{fill:url(#linear-gradient-4);}</style><linearGradient id="linear-gradient" x1="54.82" y1="-86.65" x2="102.82" y2="-86.65" gradientTransform="matrix(1, 0, 0, -1, -54.82, -62.65)" gradientUnits="userSpaceOnUse"><stop offset="0" stop-color="#ec1e27"/><stop offset="1" stop-color="#9d1f60"/></linearGradient><linearGradient id="linear-gradient-2" x1="12.61" y1="21.29" x2="35.42" y2="21.29" gradientTransform="matrix(1, 0, 0, 1, 0, 0)" xlink:href="#linear-gradient"/><linearGradient id="linear-gradient-3" x1="22" y1="14.72" x2="22.44" y2="14.72" gradientTransform="matrix(1, 0, 0, 1, 0, 0)" xlink:href="#linear-gradient"/><linearGradient id="linear-gradient-4" x1="23.31" y1="14.67" x2="23.8" y2="14.67" gradientTransform="matrix(1, 0, 0, 1, 0, 0)" xlink:href="#linear-gradient"/></defs><title>reseller</title><path class="cls-1" d="M24,0A24,24,0,1,0,48,24h0A24,24,0,0,0,24,0Zm0,1A23,23,0,1,1,1,24H1A23,23,0,0,1,24,1Zm1.65,12a7.5,7.5,0,1,0,7.5,7.5h0A7.5,7.5,0,0,0,25.65,13Z"/><circle class="cls-2" cx="24.86" cy="20.48" r="10.56"/><path class="cls-3" d="M35.24,29.65a1.84,1.84,0,0,0-.47-.34l-.24-.13L34.21,29a2.43,2.43,0,0,1-.32-.26,1.88,1.88,0,0,1-.31-.4,3.36,3.36,0,0,1-.21-.56,3,3,0,0,1-.12-.78.88.88,0,0,0-.24.66,2.08,2.08,0,0,0,.23,1,1.18,1.18,0,0,0,.74.66,3.34,3.34,0,0,1,.77.33.79.79,0,0,1,.38.39c0,.15,0,.31-.28.48a4.12,4.12,0,0,1-1.15.5,10.78,10.78,0,0,0-1.56.59,11.36,11.36,0,0,0-1.34.92,2.26,2.26,0,0,1-1.27.49,1.31,1.31,0,0,1-1.1-.45,1.64,1.64,0,0,1-.27-1.39,6.15,6.15,0,0,0,0-2.7A2.55,2.55,0,0,1,28,27.14c.09-.39.23-.61.42-.68s.4.08.62.42l.13.27a3.25,3.25,0,0,0,.17.28l.21.21a.78.78,0,0,0,.33.19,2.21,2.21,0,0,0,.48.07,1.9,1.9,0,0,0,1.52-.66c.13-.17.27-.33.4-.49a.72.72,0,0,1,.36-.26c.11,0,.21-.12.3-.31a2.23,2.23,0,0,0,.18-.76,4.5,4.5,0,0,0-.08-1.17,11.56,11.56,0,0,0-.89-2.64,7.91,7.91,0,0,0-1.49-2.26,7.52,7.52,0,0,1-2-3,8.27,8.27,0,0,1-.45-3,4,4,0,0,0-.44-2,3.79,3.79,0,0,0-2.7-2.25,6.17,6.17,0,0,0-1.59-.19A3.59,3.59,0,0,0,22,9.19a3.22,3.22,0,0,0-1.59,1.45A4.69,4.69,0,0,0,20,12.73q.06,2.75.24,4.29a10.4,10.4,0,0,1-1.86,2.69,3.7,3.7,0,0,0-.59.75,8,8,0,0,0-.45.84c-.11.25-.25.61-.44,1.08s-.32.8-.4,1a3.69,3.69,0,0,1-.33.58,3.87,3.87,0,0,0-.36.65,2,2,0,0,0-.15.72,2.08,2.08,0,0,0,0,.52c0,.22.12.29.23.21.45-.31,1-.13,1.69.55A29.65,29.65,0,0,1,20.16,30c.1.16.2.32.3.5a3.74,3.74,0,0,1,.28.72,2.22,2.22,0,0,1,.11.81,1,1,0,0,1-.34.67,1.7,1.7,0,0,1-1,.38,2.74,2.74,0,0,1-.83,0c-.32-.07-.74-.17-1.24-.32s-.87-.25-1.11-.31l-1.49-.28c-.64-.11-1.06-.2-1.26-.25s-.53-.21-.56-.36a1.17,1.17,0,0,1,.21-.67,1.76,1.76,0,0,0,.26-.67,1.06,1.06,0,0,0,0-.31.79.79,0,0,0-.07-.23,1.73,1.73,0,0,0-.12-.25,2.45,2.45,0,0,1-.12-.25c-.18-.39-.21-.65-.08-.79s.31-.17.65-.14A2,2,0,0,0,15,28a1.11,1.11,0,0,0,.48-1.46,1.13,1.13,0,0,1-.18.7,2,2,0,0,1-.63.49,2.18,2.18,0,0,1-.9.16,1.6,1.6,0,0,0-.85.2.45.45,0,0,0-.16.37,1.53,1.53,0,0,0,.07.51c.05.17.1.36.15.58a2,2,0,0,1,.06.56,3.91,3.91,0,0,1-.27.75,1.18,1.18,0,0,0-.11.92.74.74,0,0,0,.26.27,1.72,1.72,0,0,0,.5.2l.59.13.75.12.76.14a15.87,15.87,0,0,1,2.19.59,7.2,7.2,0,0,0,1.67.43,1.71,1.71,0,0,0,.8-.16,3.6,3.6,0,0,0,.65-.39,2.79,2.79,0,0,1,.8-.42,3.77,3.77,0,0,1,1.2-.21l.87,0,.85,0H26.5a2,2,0,0,1,.7.13.67.67,0,0,1,.33.27,2.39,2.39,0,0,0,.25.36,1.32,1.32,0,0,0,.44.32,2.85,2.85,0,0,0,1.34.2,1.79,1.79,0,0,0,1-.27,13,13,0,0,1,1.13-.88A8.3,8.3,0,0,1,33,31.74l.41-.18.47-.21.48-.23a4.19,4.19,0,0,0,.45-.26,2.55,2.55,0,0,0,.35-.27.67.67,0,0,0,.23-.3.65.65,0,0,0,0-.31A.55.55,0,0,0,35.24,29.65Zm-8-13.37.06,0,.06.06.09.09.1.11a.67.67,0,0,0,.14.11.72.72,0,0,0,.22.08.36.36,0,0,1,.2.07.27.27,0,0,1,.09.15.34.34,0,0,1-.05.28.22.22,0,0,1-.22.11,1.15,1.15,0,0,1-.58-.43C27.1,16.63,27.06,16.43,27.2,16.28Zm-1.86-5.37a.4.4,0,0,0,.09-.14.25.25,0,0,0,0-.17.28.28,0,0,1,0-.18.18.18,0,0,1,.17-.11.63.63,0,0,1,.36.21l.14.08.14.1a.13.13,0,0,1,0,.07.2.2,0,0,1-.13.1l-.23,0a.24.24,0,0,0-.13,0,.72.72,0,0,0-.23.12l-.16.13a.13.13,0,0,1-.12,0c0-.06-.06-.1-.05-.12A.77.77,0,0,1,25.34,10.91ZM18.09,21.26a1,1,0,0,0,.15-.18,1.05,1.05,0,0,0,.08-.18.84.84,0,0,1,.07-.18.08.08,0,0,1,.09,0s0,0,0,0l0,0v.05a.43.43,0,0,0,0,.05s0,0,0,.06a.46.46,0,0,0,0,.09.94.94,0,0,1,0,.09.67.67,0,0,1-.19.25c-.08.08-.15.11-.19.1S18,21.35,18.09,21.26Zm9.8,8.53a10.26,10.26,0,0,1-.2,1.25c-.12.53-.19.89-.22,1.06q-.31,0-.36-.21a.88.88,0,0,1,.09-.52,5.52,5.52,0,0,0,.35-1.27q0-.64-.15-.72c-.11-.08-.28.06-.51.41A3.44,3.44,0,0,1,24.23,31a2.89,2.89,0,0,1-2.48-.5.3.3,0,0,0-.3,0,.49.49,0,0,0-.2.13s0,.05,0,.09l.14.16a1.34,1.34,0,0,1,.16.22c.39.63.36,1.06-.1,1.28a3.47,3.47,0,0,0-.11-1,2.48,2.48,0,0,0-.42-.74,6.78,6.78,0,0,1-.43-.62,1,1,0,0,0,.68-.32.84.84,0,0,0,.21-.59.77.77,0,0,0-.26-.53c-.09-.08-.56-.43-1.4-1.06a14,14,0,0,1-1.56-1.25s-.16-.13-.36-.27a1.16,1.16,0,0,1-.37-.39,2.34,2.34,0,0,1-.15-2.3l.06-.06c.05,0,.05.07,0,.24a2.57,2.57,0,0,0-.06.78,1.84,1.84,0,0,0,.54,1.3c.21.19.36.18.44,0a2.06,2.06,0,0,0,.08-.82,7.76,7.76,0,0,1,0-1,6.8,6.8,0,0,1,.71-1.95c.4-.78.71-1.19.94-1.25a1.07,1.07,0,0,1-.17-.87,2.31,2.31,0,0,1,.31-.8,7.49,7.49,0,0,0,.45-.77,1.72,1.72,0,0,0,.22-.78.46.46,0,0,1,0-.14c0-.08.15,0,.37.31a3.57,3.57,0,0,0,.95,1,.82.82,0,0,0,.73,0,6.18,6.18,0,0,0,1-.59,6.42,6.42,0,0,1,1-.61l.14-.06.15-.07.14-.06.12-.07.09-.06.06-.07a.25.25,0,0,0,0-.07.18.18,0,0,0-.13-.15.44.44,0,0,0-.26,0l-.37.16-.45.24a4.59,4.59,0,0,1-.5.24,4.29,4.29,0,0,1-.54.19,2.21,2.21,0,0,1-.54.1,1.44,1.44,0,0,1-1-.3,1.07,1.07,0,0,1-.26-.27s0,0,.14,0a4.29,4.29,0,0,0,1.18,0A4.71,4.71,0,0,0,24,16.76l.68-.27a7,7,0,0,1,.85-.3.45.45,0,0,0,.25-.13.19.19,0,0,0,0-.17.19.19,0,0,0-.1-.12c-.11,0-.21,0-.3.11a.69.69,0,0,1-.31.25l-.44.18-.52.14-.35.1a5.33,5.33,0,0,1-1.52.21,1.89,1.89,0,0,1-.54-.09.78.78,0,0,1-.27-.18,2.33,2.33,0,0,0-.24-.27,2.16,2.16,0,0,0-.38-.27.19.19,0,0,1-.11-.25.73.73,0,0,1,.23-.37l.31-.17a1.33,1.33,0,0,0,.41-.33,1.64,1.64,0,0,1,.47-.4s0-.14,0-.3a1.14,1.14,0,0,0-.14-.54.46.46,0,0,0-.41-.29.55.55,0,0,0-.51.19A.78.78,0,0,0,21,14a.93.93,0,0,0,.14.47c.08.13.16.2.23.2s.15,0,.11.11a.41.41,0,0,1-.24.19c-.07,0-.15,0-.24-.19a2.05,2.05,0,0,1-.24-1,2,2,0,0,1,.24-.82.67.67,0,0,1,.63-.38.8.8,0,0,1,.67.47,2.49,2.49,0,0,1,.24,1.25c0,.06.11.08.23.07a2,2,0,0,1,.5,0,.72.72,0,0,1,.44.14.63.63,0,0,0,0-.2c-.18-1.17.27-1.78,1.34-1.86a2.49,2.49,0,0,1,.4.11,1.66,1.66,0,0,1,.36.2,1.11,1.11,0,0,1,.31.43,2.59,2.59,0,0,1,.2.69v.51c0,.29-.06.46-.19.5a.52.52,0,0,1-.45,0c-.09-.07-.08-.19,0-.37a1,1,0,0,0-.06-.8.71.71,0,0,0-.77-.41.58.58,0,0,0-.54.37,1.28,1.28,0,0,0-.12.71c0,.23.09.35.17.35a3.56,3.56,0,0,1,.53.23,3.09,3.09,0,0,0,.67.24c.39.08.61.19.67.35a1.14,1.14,0,0,1-.07.68,1.47,1.47,0,0,0-.09.74,1.53,1.53,0,0,0,.22.56,3.23,3.23,0,0,0,.36.45,3.47,3.47,0,0,1,.44.78,8.48,8.48,0,0,1,.46,1.42l.12.1a1.37,1.37,0,0,1,.19.21,2.44,2.44,0,0,1,.23.34,4,4,0,0,1,.3.62c.1.28.2.6.29,1a6.41,6.41,0,0,1,.17,1.48A4,4,0,0,0,29,25c.08.21.27.3.58.26a.75.75,0,0,0,.75-.58,4.88,4.88,0,0,0-.81-3.85,3.9,3.9,0,0,0-.86-1.14,3.4,3.4,0,0,1,1.08,1,4,4,0,0,1,.71,1.43s0,.17.08.36.07.32.07.35,0,.13.06.28a1.68,1.68,0,0,1,.06.31s0,.13,0,.27a1,1,0,0,1,0,.31c0,.07,0,.17,0,.29a1.9,1.9,0,0,1-.08.36c0,.12-.07.25-.11.38.55.23.83.42.83.59a1.87,1.87,0,0,0-.9-.32,2,2,0,0,0-1.09.15.78.78,0,0,0-.52.73,1,1,0,0,0-.76.25,1.46,1.46,0,0,0-.35,1,7.25,7.25,0,0,0,.11,1.34A4.05,4.05,0,0,1,27.89,29.79Zm-6.28-16s-.05,0-.07-.08,0-.12.13-.1a.34.34,0,0,1,.17.21.62.62,0,0,1,0,.41s0,0,0,0-.15-.09-.12-.27S21.71,13.77,21.61,13.77Zm3.88.22,0,0q-.12.08-.12,0c0-.25-.13-.39-.27-.43l-.06,0c-.07,0,0-.09.11-.09s.07,0,.13,0a.46.46,0,0,1,.17.17A.5.5,0,0,1,25.49,14Z"/><path class="cls-4" d="M22,14.79c0,.06,0,.08.08.07s.08,0,.12-.13a.29.29,0,0,1,.24-.15h-.15C22.1,14.61,22,14.68,22,14.79Z"/><path class="cls-5" d="M23.31,14.63a.25.25,0,0,1,.26.06c.07.07.13.1.17.09s.07-.07,0-.13S23.55,14.52,23.31,14.63Z"/></svg>