<svg id="Layer_1" data-name="Layer 1" xmlns="http://www.w3.org/2000/svg" xmlns:xlink="http://www.w3.org/1999/xlink" viewBox="0 0 571.84 100.4"><defs><style>.cls-1{fill:url(#linear-gradient);}.cls-2{fill:none;}.cls-3{fill:url(#New_Gradient_Swatch_1);}.cls-4{fill:#fcfcfc;}.cls-5{fill:url(#New_Gradient_Swatch_1-2);}.cls-6{fill:url(#New_Gradient_Swatch_1-3);}.cls-7{fill:url(#New_Gradient_Swatch_1-4);}.cls-8{fill:url(#New_Gradient_Swatch_1-5);}.cls-9{fill:url(#New_Gradient_Swatch_1-6);}.cls-10{fill:url(#New_Gradient_Swatch_1-7);}.cls-11{fill:url(#New_Gradient_Swatch_1-8);}.cls-12{fill:url(#New_Gradient_Swatch_1-9);}</style><linearGradient id="linear-gradient" x1="141.9" y1="124" x2="141.9" y2="124" gradientTransform="matrix(1, 0, 0, -1, -7, 154)" gradientUnits="userSpaceOnUse"><stop offset="0.02" stop-color="#672783"/><stop offset="1" stop-color="#a21a59"/></linearGradient><linearGradient id="New_Gradient_Swatch_1" x1="2.96" y1="46" x2="145" y2="46" gradientUnits="userSpaceOnUse"><stop offset="0" stop-color="#ec1e27"/><stop offset="1" stop-color="#9d1f60"/></linearGradient><linearGradient id="New_Gradient_Swatch_1-2" x1="110" y1="64.07" x2="145.89" y2="64.07" xlink:href="#New_Gradient_Swatch_1"/><linearGradient id="New_Gradient_Swatch_1-3" x1="110" y1="54.49" x2="145.9" y2="54.49" xlink:href="#New_Gradient_Swatch_1"/><linearGradient id="New_Gradient_Swatch_1-4" x1="110" y1="44.38" x2="145.89" y2="44.38" xlink:href="#New_Gradient_Swatch_1"/><linearGradient id="New_Gradient_Swatch_1-5" x1="110" y1="74.27" x2="145.89" y2="74.27" xlink:href="#New_Gradient_Swatch_1"/><linearGradient id="New_Gradient_Swatch_1-6" x1="411.37" y1="51.15" x2="417.88" y2="51.15" xlink:href="#New_Gradient_Swatch_1"/><linearGradient id="New_Gradient_Swatch_1-7" x1="427" y1="57.85" x2="459.75" y2="57.85" xlink:href="#New_Gradient_Swatch_1"/><linearGradient id="New_Gradient_Swatch_1-8" x1="468.85" y1="51.15" x2="475.36" y2="51.15" xlink:href="#New_Gradient_Swatch_1"/><linearGradient id="New_Gradient_Swatch_1-9" x1="484.5" y1="57.83" x2="519.65" y2="57.83" xlink:href="#New_Gradient_Swatch_1"/></defs><title>hlogo</title><g id="Warstwa_2" data-name="Warstwa 2"><g id="Warstwa_1-2" data-name="Warstwa 1-2"><path class="cls-1" d="M134.9,30" transform="translate(-2.96 1)"/></g></g><rect class="cls-2" x="97.34" y="17.2" width="474.5" height="83.2"/><path id="MobileMe" class="cls-3" d="M145,65.57A27.67,27.67,0,0,1,117.12,93H30.87a27.4,27.4,0,0,1-4.38-54.52,16.73,16.73,0,0,1-.26-3A17.52,17.52,0,0,1,43.89,18.13a17.73,17.73,0,0,1,11.42,4.13C60.79,10.1,67.82-1,87.55-1c23.92,0,35.26,18.15,35.26,37.31a20.87,20.87,0,0,1-.09,2.38A27.56,27.56,0,0,1,145,65.57Z" transform="translate(-2.96 1)"/><circle class="cls-4" cx="121.67" cy="59.83" r="33.63"/><path class="cls-5" d="M129.82,62.26h-3.75a41.72,41.72,0,0,1-12.49-2A14,14,0,0,1,110,58.57v6.84c2,2.16,8.9,4.16,18,4.16s15.9-2,17.94-4.16V58.57a14.26,14.26,0,0,1-3.61,1.72A41.82,41.82,0,0,1,129.82,62.26Z" transform="translate(-2.96 1)"/><path class="cls-6" d="M110,49v6.84c1.89,2,7.92,3.87,16,4.13h3.9c8.08-.26,14.11-2.12,16-4.13V49c-3.5,2.47-10.9,3.75-17.9,3.75S113.49,51.47,110,49Z" transform="translate(-2.96 1)"/><path class="cls-7" d="M145.79,44.42c-.8-3.13-7-6.22-17.84-6.22s-17,3.07-17.84,6.19a.66.66,0,0,0-.11.36v1.68c2,2.15,8.84,4.14,18,4.14s15.9-2,17.94-4.14V44.75A.64.64,0,0,0,145.79,44.42Z" transform="translate(-2.96 1)"/><path class="cls-8" d="M110,68v6a.72.72,0,0,0,.08.32c.85,3.57,8.44,6.22,17.87,6.22s17-2.64,17.85-6.19a.73.73,0,0,0,.09-.35V68c-3,2.12-9.08,3.78-17.94,3.78S113,70.15,110,68Z" transform="translate(-2.96 1)"/><path d="M163.27,76.3V26h6.51V43.39a17.14,17.14,0,0,1,11.49-4q13.81,0,13.82,13.74V76.3h-6.5V53q0-8.23-8.2-8.23-5.58,0-10.61,4.68V76.3Z" transform="translate(-2.96 1)"/><path d="M203.88,57.84q0-18.45,17.58-18.45T239,57.84q0,18.43-17.58,18.43T203.88,57.84ZM221.46,71q11.07,0,11.07-13.33,0-13-11.07-13t-11.08,13Q210.38,71,221.46,71Z" transform="translate(-2.96 1)"/><path d="M247.47,74.54V68.92A42.54,42.54,0,0,0,260.62,71q8.82,0,8.83-5.28c0-3.28-2.06-4.92-6.16-4.92H258q-12,0-11.95-10.9,0-10.55,15.36-10.54a50,50,0,0,1,13.11,1.75v5.63a42.32,42.32,0,0,0-13.11-2.11q-9.21,0-9.21,5.27c0,3.28,1.93,4.93,5.8,4.93h5.27Q276,54.86,276,65.75q0,10.56-15.33,10.55A50.28,50.28,0,0,1,247.47,74.54Z" transform="translate(-2.96 1)"/><path d="M284.74,33.41h4.08l1.4,6h10v5.27h-9v21.2c0,3.44,1.49,5.17,4.47,5.17h4.5V76.3H294q-9.28,0-9.28-10Z" transform="translate(-2.96 1)"/><path d="M315.68,26v6.15h-6.51V26Zm0,13.36V76.3h-6.51V39.39Z" transform="translate(-2.96 1)"/><path d="M326.93,76.3V39.39h4.39l1.16,4.71a19,19,0,0,1,12.45-4.71q13.81,0,13.81,13.74V76.3h-6.5V53q0-8.23-8.19-8.23-5.6,0-10.62,4.68V76.3Z" transform="translate(-2.96 1)"/><path d="M400.47,76.3q0,13.36-17,13.36A38.28,38.28,0,0,1,371.4,87.9V82.63a39.17,39.17,0,0,0,12.16,1.76Q394,84.39,394,76.3V74.54a22.78,22.78,0,0,1-9,1.76q-17.5,0-17.51-18.67,0-18.24,18.46-18.24a68.4,68.4,0,0,1,14.48,1.51ZM394,45.64a34.75,34.75,0,0,0-8.26-.84Q374,44.8,374,57.56q0,13.11,11.14,13.12a20,20,0,0,0,8.9-1.9Z" transform="translate(-2.96 1)"/><path class="cls-9" d="M417.88,26V76.3h-6.51V26Z" transform="translate(-2.96 1)"/><path class="cls-10" d="M444,39.39q15.75,0,15.75,15.57a39.75,39.75,0,0,1-.32,4.75H433.52Q433.52,71,446.74,71a40.58,40.58,0,0,0,11.18-1.41v5.27A43.21,43.21,0,0,1,446,76.3q-19,0-19-18.88Q427,39.39,444,39.39Zm-10.48,14.9h20q-.21-9.7-9.49-9.7Q434.15,44.59,433.52,54.29Z" transform="translate(-2.96 1)"/><path class="cls-11" d="M475.36,26V76.3h-6.51V26Z" transform="translate(-2.96 1)"/><path class="cls-12" d="M484.5,57.84q0-18.45,17.57-18.45t17.58,18.45q0,18.43-17.58,18.43T484.5,57.84ZM502.07,71q11.08,0,11.08-13.33,0-13-11.08-13T491,57.7Q491,71,502.07,71Z" transform="translate(-2.96 1)"/></svg>