<svg id="svg3799" xmlns="http://www.w3.org/2000/svg" xmlns:xlink="http://www.w3.org/1999/xlink" viewBox="0 0 311.43 311.35"><defs><style>.cls-1{fill:url(#linear-gradient);}.cls-2{fill:url(#linear-gradient-2);}.cls-3{fill:url(#linear-gradient-3);}.cls-4{fill:url(#linear-gradient-4);}.cls-5{fill:url(#linear-gradient-5);}.cls-6{fill:url(#linear-gradient-6);}.cls-7{fill:url(#linear-gradient-7);}.cls-8{fill:url(#linear-gradient-8);}.cls-9{fill:url(#linear-gradient-9);}.cls-10{fill:#fff;}</style><linearGradient id="linear-gradient" x1="149.57" y1="-143.74" x2="461" y2="-143.74" gradientTransform="translate(-149.57 298.48)" gradientUnits="userSpaceOnUse"><stop offset="0" stop-color="#ec1e27"/><stop offset="1" stop-color="#9d1f60"/></linearGradient><linearGradient id="linear-gradient-2" x1="43.31" y1="421.26" x2="268.13" y2="421.26" gradientTransform="matrix(1, 0, 0, -1, 0, 576)" xlink:href="#linear-gradient"/><linearGradient id="linear-gradient-3" x1="236.91" y1="431.76" x2="238" y2="431.76" gradientTransform="matrix(1, 0, 0, -1, -3.57, 570.48)" xlink:href="#linear-gradient"/><linearGradient id="linear-gradient-4" x1="242.11" y1="431.25" x2="242.11" y2="431.25" gradientTransform="matrix(1, 0, 0, -1, -3.57, 570.48)" xlink:href="#linear-gradient"/><linearGradient id="linear-gradient-5" x1="239.5" y1="426.75" x2="239.5" y2="426.75" gradientTransform="matrix(1, 0, 0, -1, -3.57, 570.48)" xlink:href="#linear-gradient"/><linearGradient id="linear-gradient-6" x1="808.13" y1="65.19" x2="1119.68" y2="65.19" gradientTransform="matrix(-0.34, -0.94, -0.94, 0.34, 544.73, 1039.65)" xlink:href="#linear-gradient"/><linearGradient id="linear-gradient-7" x1="895.34" y1="265.83" x2="896.43" y2="265.83" gradientTransform="matrix(-0.34, -0.94, 0.94, -0.34, 168.83, 1020.68)" xlink:href="#linear-gradient"/><linearGradient id="linear-gradient-8" x1="900.54" y1="266.34" x2="900.54" y2="266.34" gradientTransform="matrix(-0.34, -0.94, 0.94, -0.34, 168.83, 1020.68)" xlink:href="#linear-gradient"/><linearGradient id="linear-gradient-9" x1="898.38" y1="270.87" x2="898.38" y2="270.87" gradientTransform="matrix(-0.34, -0.94, 0.94, -0.34, 168.83, 1020.68)" xlink:href="#linear-gradient"/></defs><title>cheapest-reseller-hosting-india</title><g id="Ikony_ciemne_tlo" data-name="Ikony ciemne tlo"><g id="CPANEL"><path id="OBRYS_KOLO" data-name="OBRYS KOLO" class="cls-1" d="M155.71,309.48C69.86,309.48,0,240.06,0,154.74S69.86,0,155.71,0a2.93,2.93,0,0,1,0,5.86h0C73.11,5.86,5.9,72.65,5.9,154.74S73.11,303.62,155.71,303.62s149.82-66.79,149.82-148.88a3,3,0,0,1,5.9,0C311.43,240.06,241.57,309.48,155.71,309.48Z"/><ellipse class="cls-2" cx="155.72" cy="154.74" rx="112.41" ry="111.7"/><path class="cls-3" d="M234.44,138.17a2.91,2.91,0,0,0-1.1,1.1"/><path class="cls-4" d="M238.54,139.2v.07"/><path class="cls-5" d="M235.93,143.73"/></g></g><g id="Ikony_ciemne_tlo-2" data-name="Ikony ciemne tlo-2"><g id="CPANEL-2"><path id="OBRYS_KOLO-2" data-name="OBRYS KOLO-2" class="cls-6" d="M301.15,102.89c29.33,80.68-12,170.05-92.24,199.2S39.62,289.29,10.29,208.6a2.93,2.93,0,0,1,5.51-2h0c28.21,77.63,114,118,191.1,89.94,74.79-27.18,116.65-114.88,88.75-191.65-28.22-77.63-114-118-191.11-89.95a3,3,0,0,1-2-5.55C182.71-19.75,271.82,22.19,301.15,102.89Z"/><path class="cls-7" d="M113.25,87.41a3,3,0,0,0,1.41.66"/><path class="cls-8" d="M112.82,83.21h.07"/><path class="cls-9" d="M118,84.11"/></g></g><path class="cls-10" d="M164.62,146.79c1.8-8.4-2.3-8.68-2.3-8.68a5.65,5.65,0,0,0-2.25-2.05,7.82,7.82,0,0,0-4.58-1,7.32,7.32,0,0,0-1.83.34h0a8.19,8.19,0,0,0-2,1,10.38,10.38,0,0,0-2.08,1.67,8.24,8.24,0,0,0-2.25,3.84,7.34,7.34,0,0,0,.19,4.31c-.72-.06-1.61.34-.79,3.16.6,2.08,1.14,2.64,1.58,2.67.48,3,2.12,6.81,7.39,7.22,5.18-.19,6.76-4,7.3-6.88.44.28,1.14.12,1.93-2.58C165.57,147.68,165.16,147,164.62,146.79Z"/><path class="cls-10" d="M217.94,144.86a14.05,14.05,0,0,0-13.36,9.52l-19.8-1.92a28.34,28.34,0,0,0-11.66-22.66l13.71-22.62a13.74,13.74,0,1,0-9.6-13.08,13.52,13.52,0,0,0,4.45,10L168,126.77A29.37,29.37,0,0,0,137,131l-11.12-10.32a13.49,13.49,0,0,0,2-7.1A13.92,13.92,0,1,0,121.73,125l11.12,10.32a27.92,27.92,0,0,0-6,17.26,28.53,28.53,0,0,0,.69,6.17l-23.94,7.84a14,14,0,0,0-12-6.69,13.76,13.76,0,1,0,14,13.76,11.41,11.41,0,0,0-.1-1.46l24-7.84A29,29,0,0,0,155.84,181a30.9,30.9,0,0,0,3.51-.22l4.42,19a13.74,13.74,0,0,0-8,12.46,14,14,0,1,0,14-13.76h-.12l-4.43-19a28.62,28.62,0,0,0,19-21.16l19.8,1.92a14,14,0,1,0,13.9-15.41ZM174.16,167c-.22-1.86-1-3.93-3.41-4.52a28.9,28.9,0,0,1-8.31-3.72l-2.9,9-.54,1.7v0l-.47,1.43L157,166.59c3.88-5.3-1-5.11-1-5.11s-4.9-.22-1.05,5.11l-1.54,4.31-.48-1.46-3.44-10.72a28.9,28.9,0,0,1-8.31,3.72c-2.4.59-3.19,2.69-3.41,4.52a22.61,22.61,0,0,1-5.18-14.38,23.38,23.38,0,0,1,46.75,0A22.47,22.47,0,0,1,174.16,167Z"/></svg>