<svg id="Layer_1" data-name="Layer 1" xmlns="http://www.w3.org/2000/svg" xmlns:xlink="http://www.w3.org/1999/xlink" viewBox="0 0 40.7 41.8"><defs><style>.cls-1{fill:url(#New_Gradient_Swatch);}.cls-2{fill:url(#New_Gradient_Swatch-2);}</style><linearGradient id="New_Gradient_Swatch" x1="9.64" y1="24.3" x2="38.87" y2="24.3" gradientUnits="userSpaceOnUse"><stop offset="0" stop-color="#ec1e27"/><stop offset="1" stop-color="#9d1f60"/></linearGradient><linearGradient id="New_Gradient_Swatch-2" x1="3.87" y1="24.27" x2="44.57" y2="24.27" xlink:href="#New_Gradient_Swatch"/></defs><g id="Page-1"><g id="centOS"><path id="Shape" class="cls-1" d="M38.87,22.38H29.24c2.17-2.25,4.54-4.63,6.85-7.09.68.7,1.63,1.75,2.78,3.09v4ZM12.62,15.15l6.92,7.16H9.64V18.17C10.59,17.19,11.6,16.13,12.62,15.15Zm7,11.08c-2.44,2.53-4.82,4.91-7.12,7.37-.89-1-1.77-2-2.85-3.23V26.23Zm2.78,13.05H18.12L15.33,36.4c2.38-2.38,4.75-4.77,7.06-7.15v10Zm6.65-13h9.83v3.93c-1.08,1.05-2.1,2.1-3,3.09C33.58,30.93,31.34,28.55,29,26.23Zm-6.65-6.87c-2.24-2.39-4.61-4.77-7-7.29.82-.78,1.77-1.69,3-2.74h4v10ZM32.77,36.54c-.68.63-1.7,1.62-2.92,2.74H26.19V29.67c2,2.1,4.34,4.49,6.58,6.87ZM26.12,9.33h3.93L33,12.14l-6.85,7.08Z" transform="translate(-3.87 -3.37)"/><path class="cls-2" d="M24.56,27.07a10.28,10.28,0,0,1,.27,1.41v12.2h3.8c-1.63,1.61-3.12,3.09-4.55,4.49-1.22-1.33-2.78-3-4.2-4.49h3.73c0-.63.07-1,.07-1.47V28.48a10,10,0,0,1,.2-1.41Zm-3-2.52a9.26,9.26,0,0,1-1.35.28H8.28V28.9L3.87,24.34c1.36-1.4,2.85-2.88,4.34-4.42v3.79c.54,0,.95.07,1.36.07H20.22a8.25,8.25,0,0,1,1.29.21c0,.21.06.35.06.56Zm14.18,10.8c1-.91,2-1.82,3-2.88v6.74H32.29c.88-1,1.7-2,2.58-3-.41-.42-.68-.77-.95-1l-7.19-7.43c-.34-.36-.54-.78-.88-1.2.88-.56,1.22,0,1.56.35,2.44,2.53,4.88,5.05,7.39,7.58a5.12,5.12,0,0,1,1,.84ZM23.68,7.86H19.81c1.49-1.55,2.92-3.09,4.27-4.49,1.36,1.4,2.79,2.94,4.28,4.49H24.83c0,.63-.07,1-.07,1.47V20a11.83,11.83,0,0,1-.27,1.54c-1-.21-.81-.84-.81-1.33V7.86Zm-11,5.26c-1,1-2,1.89-3,3V9.4h6.51c-.88,1-1.7,1.89-2.65,2.88a10.67,10.67,0,0,0,.82.91c2.51,2.59,5,5.19,7.46,7.85.27.35.54.7.81,1.12-.88.57-1.15-.07-1.56-.42L13.5,14ZM44.57,24.27c-1.36,1.4-2.85,2.94-4.34,4.56v-4H28.29a9.34,9.34,0,0,1-1.36-.21v-.49a10.78,10.78,0,0,1,1.36-.21H40.16V19.78c1.56,1.47,3,2.95,4.41,4.49ZM26.26,22.52c-.48-.92.06-1.2.4-1.55l7.53-7.78c.27-.28.54-.56.88-1-.88-.92-1.69-1.83-2.64-2.88h6.44v6.59c-1-1-2-2-3-2.94a13.75,13.75,0,0,0-1,1l-7.53,7.78A3.16,3.16,0,0,1,26.26,22.52Zm-13.64,13c2.24-2.38,4.48-4.63,6.65-6.87l2-2.11a1.47,1.47,0,0,1,1.09-.35c-.54,1.55-1.76,2.39-2.78,3.44s-2.11,2.17-3.12,3.23-2.11,2.17-3.26,3.29c.88,1,1.76,1.9,2.71,3H9.57v-6.6C10.65,33.6,11.54,34.51,12.62,35.56Z" transform="translate(-3.87 -3.37)"/></g></g></svg>