<svg id="Layer_1" data-name="Layer 1" xmlns="http://www.w3.org/2000/svg" xmlns:xlink="http://www.w3.org/1999/xlink" viewBox="0 0 44.92 44.56"><defs><style>.cls-1{fill:url(#New_Gradient_Swatch);}.cls-2{opacity:0.35;fill:url(#New_Gradient_Swatch-2);}.cls-2,.cls-3{isolation:isolate;}.cls-3{opacity:0.75;fill:url(#New_Gradient_Swatch-3);}</style><linearGradient id="New_Gradient_Swatch" x1="1.48" y1="24.28" x2="46.39" y2="24.28" gradientUnits="userSpaceOnUse"><stop offset="0" stop-color="#ec1e27"/><stop offset="1" stop-color="#9d1f60"/></linearGradient><linearGradient id="New_Gradient_Swatch-2" x1="17.33" y1="16.82" x2="43.55" y2="16.82" xlink:href="#New_Gradient_Swatch"/><linearGradient id="New_Gradient_Swatch-3" x1="21.83" y1="20.05" x2="34.2" y2="20.05" xlink:href="#New_Gradient_Swatch"/></defs><g id="Page-1"><g id="CoreOS"><path id="Shape" class="cls-1" d="M23.94,2A22.4,22.4,0,0,0,1.48,24.28,22.46,22.46,0,1,0,23.94,2Zm8.61,26.47c-.18,0-.36.09-.46.09a29.74,29.74,0,0,1-5,.36,19.4,19.4,0,0,1-2.29.09c-.73,0-1.56-.09-2.29-.09-1.83-.09-3.39-.27-4.95-.36-.09-1.1-.18-2.37-.28-3.55V21.55A22.56,22.56,0,0,1,17.61,18c0-.28.09-.46.09-.73,1-7.28,3.76-12.55,7.15-12.55A18.78,18.78,0,0,1,43.64,23.28c0,2.27-4.58,4.37-11.09,5.19Z" transform="translate(-1.48 -2)"/><path class="cls-2" d="M24.85,4.73c-3.39,0-6.14,5.27-7.15,12.55,0,.27-.09.45-.09.73a23.46,23.46,0,0,0-.28,3.54v3.37c.1,1.18.19,2.45.28,3.55a42.64,42.64,0,0,0,4.95.36c.73,0,1.56.09,2.29.09a19.4,19.4,0,0,0,2.29-.09c1.75-.09,3.4-.18,5-.36a3.4,3.4,0,0,0,.46-.1c6.42-.91,11-2.91,11-5.18A18.63,18.63,0,0,0,24.85,4.73ZM32.37,25.1a16.86,16.86,0,0,1-4.77,1.09c-.91.09-1.83.18-2.75.18a26.46,26.46,0,0,1-2.75-.18c-.09-.91-.18-1.82-.18-2.73a15.92,15.92,0,0,1,.27-2.91,27,27,0,0,1,.46-2.91c.46-2.18,1.38-3.54,2.29-3.54a9.24,9.24,0,0,1,7.15,3.36l.55.82a9.43,9.43,0,0,1,1.65,5.27c-.09.46-.82,1.1-1.92,1.55Z" transform="translate(-1.48 -2)"/><path id="Path" class="cls-3" d="M32,17.28a9.41,9.41,0,0,0-7.15-3.37c-.91,0-1.83,1.37-2.29,3.55a15.11,15.11,0,0,0-.46,2.91,15.92,15.92,0,0,0-.27,2.91A26.07,26.07,0,0,0,22,26c.92.09,1.83.18,2.75.18A24.72,24.72,0,0,0,27.51,26a15.42,15.42,0,0,0,4.77-1.09c1.1-.46,1.92-1.09,1.92-1.73a9.43,9.43,0,0,0-1.65-5.27c-.09,0-.36-.37-.55-.64Z" transform="translate(-1.48 -2)"/></g></g></svg>