<svg id="Layer_1" data-name="Layer 1" xmlns="http://www.w3.org/2000/svg" xmlns:xlink="http://www.w3.org/1999/xlink" viewBox="0 0 41.07 43.2"><defs><style>.cls-1{fill:url(#New_Gradient_Swatch);}</style><linearGradient id="New_Gradient_Swatch" x1="3.15" y1="24.81" x2="44.23" y2="24.81" gradientUnits="userSpaceOnUse"><stop offset="0" stop-color="#ec1e27"/><stop offset="1" stop-color="#9d1f60"/></linearGradient></defs><g id="Page-1"><g id="Debian"><path id="Path" class="cls-1" d="M26.59,46.41c-7.4-2.34-11.84-5.26-16.68-11.75a19.4,19.4,0,0,1-3.29-11A16.71,16.71,0,0,1,14.84,9.33,20.18,20.18,0,0,1,31.11,7.22a14.3,14.3,0,0,1,9.28,9.27,10.27,10.27,0,0,1-5.83,12.4,11.87,11.87,0,0,1-8.8.59,8.57,8.57,0,0,1-5.34-5.33A6.13,6.13,0,0,1,25,16.27c7.47-2.19,11.42,8.24,2.46,9.12,4,1.24,8.14-2.41,7.4-6.2,0-3.65-5.1-7.37-10.77-5.91a10.76,10.76,0,0,0-5.42,3.28A9.15,9.15,0,0,0,17,24.88a11.63,11.63,0,0,0,7.4,7.44,15.92,15.92,0,0,0,11.75-.73,13.31,13.31,0,0,0,7.56-15.91,16,16,0,0,0-4.11-7,19.62,19.62,0,0,0-7.4-4.45,24.35,24.35,0,0,0-19.39,2.4c-6.33,3.87-9.86,11.17-9.61,17A22.47,22.47,0,0,0,7,36.19c5.5,7.52,11.83,9.85,19.64,10.22" transform="translate(-3.15 -3.21)"/></g></g></svg>