<svg id="Layer_1" data-name="Layer 1" xmlns="http://www.w3.org/2000/svg" xmlns:xlink="http://www.w3.org/1999/xlink" viewBox="0 0 48 48"><defs><style>.cls-1{fill:url(#New_Gradient_Swatch);}.cls-2{fill:url(#New_Gradient_Swatch-2);}.cls-3{opacity:0.6;isolation:isolate;fill:url(#New_Gradient_Swatch-3);}</style><linearGradient id="New_Gradient_Swatch" y1="24" x2="48" y2="24" gradientUnits="userSpaceOnUse"><stop offset="0" stop-color="#ec1e27"/><stop offset="1" stop-color="#9d1f60"/></linearGradient><linearGradient id="New_Gradient_Swatch-2" x1="8.4" y1="25.7" x2="36.43" y2="25.7" xlink:href="#New_Gradient_Swatch"/><linearGradient id="New_Gradient_Swatch-3" x1="3.27" y1="25.75" x2="42.1" y2="25.75" xlink:href="#New_Gradient_Swatch"/></defs><g id="Page-1"><g id="Fedora"><path id="Shape" class="cls-1" d="M24,0A23.94,23.94,0,0,0,0,24V45.7A2.26,2.26,0,0,0,2.3,48H24A24,24,0,0,0,24,0Zm7.2,28.4H25.3v6.3A11.22,11.22,0,0,1,14.2,45.1a11.46,11.46,0,0,1-7.9-3.2c-.2-.2-.3-.3-.3-.4-6-7.5-1.6-18,7.5-18.3l3.1-.2h3.3V17.3A11.14,11.14,0,0,1,31,6.2a11.4,11.4,0,0,1,7.8,3.1,4.23,4.23,0,0,1,.5.7,11,11,0,0,1,2.8,7.3A10.78,10.78,0,0,1,31.2,28.4Z"/><path class="cls-2" d="M34.6,13.1a4.82,4.82,0,0,0-3.7-1.5,5.44,5.44,0,0,0-4,1.7,5.61,5.61,0,0,0-1.7,4v5.1a.54.54,0,0,0,.5.5h2.7a1.08,1.08,0,0,1,.6.1h1.7a5.81,5.81,0,0,0,5.7-5.7,4.75,4.75,0,0,0-1.8-4.2M14.1,28.4a5.44,5.44,0,0,0-4,1.7,5.61,5.61,0,0,0-1.7,4,5.49,5.49,0,0,0,1.4,3.7c.1.1.3.2.3.3A5.61,5.61,0,0,0,14,39.8a5.74,5.74,0,0,0,5.7-5.6V29.1a.54.54,0,0,0-.5-.5H16.4a2.39,2.39,0,0,1-.9-.2Z"/><path class="cls-3" d="M5.6,40.1v-.5a3,3,0,0,1,1.9-2.2H8.8a4.18,4.18,0,0,1,1,.4,5.57,5.57,0,0,1,.3-7.7,5.61,5.61,0,0,1,4-1.7h1.5a2.62,2.62,0,0,1-1.7-2.5A2.74,2.74,0,0,1,16.6,23H13.5C4.5,23.5,0,33.9,6,41.5a4.67,4.67,0,0,1-.4-1.4ZM39.3,10a2.38,2.38,0,0,1,.3,1.2v.1A2.69,2.69,0,0,1,36.9,14a4.07,4.07,0,0,1-2.2-1,5.73,5.73,0,0,1,1.9,4.2,5.44,5.44,0,0,1-1.7,4,5.61,5.61,0,0,1-4,1.7H29.2a2.89,2.89,0,0,1,2.1,2.6v.1a2.69,2.69,0,0,1-2.7,2.7h2.7a10.74,10.74,0,0,0,10.8-11A11.43,11.43,0,0,0,39.3,10Z"/></g></g></svg>