<svg id="Layer_1" data-name="Layer 1" xmlns="http://www.w3.org/2000/svg" xmlns:xlink="http://www.w3.org/1999/xlink" viewBox="0 0 44.21 39.4"><defs><style>.cls-1{fill:url(#New_Gradient_Swatch);}.cls-2{fill:url(#New_Gradient_Swatch-2);}</style><linearGradient id="New_Gradient_Swatch" x1="1.89" y1="24" x2="41.17" y2="24" gradientUnits="userSpaceOnUse"><stop offset="0" stop-color="#ec1e27"/><stop offset="1" stop-color="#9d1f60"/></linearGradient><linearGradient id="New_Gradient_Swatch-2" x1="28.31" y1="13.64" x2="46.11" y2="13.64" xlink:href="#New_Gradient_Swatch"/></defs><g id="Page-1"><g id="FreeBSD"><path id="Shape" class="cls-1" d="M14.31,9.29a76.71,76.71,0,0,0-12.42-5A74.19,74.19,0,0,0,6,18.08,19.34,19.34,0,0,1,14.31,9.29ZM39.73,23a4.43,4.43,0,0,1-3.4,1.35,9.58,9.58,0,0,1-6.12-2.79,11.45,11.45,0,0,1-3.06-4.48A4.79,4.79,0,0,1,28,12.25,17,17,0,0,1,30.63,10,18.32,18.32,0,0,0,23.4,8.53a19,19,0,0,0-5.78.93,3.3,3.3,0,0,1-.85.25,3.6,3.6,0,0,1-.85.34,18.22,18.22,0,0,0-9.18,9.81,4.17,4.17,0,0,0-.34.93l-.25,1A22.55,22.55,0,0,0,5.64,26a17.77,17.77,0,0,0,35.53,0,16.19,16.19,0,0,0-.51-4.14A4.27,4.27,0,0,1,39.73,23Z" transform="translate(-1.89 -4.3)"/><path id="Path" class="cls-2" d="M29.1,13.35c-1.7,1.86-.51,4.82,2.13,7.27A8.23,8.23,0,0,0,36.41,23a3,3,0,0,0,2.38-.93l1.36-1.87.51-.84a7.42,7.42,0,0,0,.43-.85c3.06-5.75,5-14.2,5-14.2A80.67,80.67,0,0,0,33.52,10a5.72,5.72,0,0,1-.76.43l-.68.42a15.08,15.08,0,0,0-3,2.54Z" transform="translate(-1.89 -4.3)"/></g></g></svg>