<svg id="Layer_1" data-name="Layer 1" xmlns="http://www.w3.org/2000/svg" xmlns:xlink="http://www.w3.org/1999/xlink" viewBox="0 0 42.37 42.04"><defs><style>.cls-1{fill:url(#New_Gradient_Swatch);}.cls-2{fill:url(#New_Gradient_Swatch-2);}.cls-3{fill:url(#New_Gradient_Swatch-3);}</style><linearGradient id="New_Gradient_Swatch" x1="2.82" y1="17.84" x2="45.1" y2="17.84" gradientUnits="userSpaceOnUse"><stop offset="0" stop-color="#ec1e27"/><stop offset="1" stop-color="#9d1f60"/></linearGradient><linearGradient id="New_Gradient_Swatch-2" x1="11.21" y1="27.79" x2="42.44" y2="27.79" xlink:href="#New_Gradient_Swatch"/><linearGradient id="New_Gradient_Swatch-3" x1="20.33" y1="21.83" x2="45.18" y2="21.83" xlink:href="#New_Gradient_Swatch"/></defs><g id="Page-1"><g id="ubuntu"><path id="Shape" class="cls-1" d="M7.34,19.87a4.45,4.45,0,0,1,4.51,4.31,4.45,4.45,0,0,1-4.51,4.3,4.45,4.45,0,0,1-4.52-4.3,4.41,4.41,0,0,1,4.52-4.31ZM27.83,7.19a15.37,15.37,0,0,1,3.23.31V8A6,6,0,0,0,37.27,14a6.49,6.49,0,0,0,3.64-1.07A15.14,15.14,0,0,1,45.1,22.1l-7.1.23C37.44,17.41,33,14,27.75,14a10,10,0,0,0-4.11.85L20.17,9A15.6,15.6,0,0,1,27.83,7.19Z" transform="translate(-2.82 -3.27)"/><path class="cls-2" d="M37.92,36.7A4.31,4.31,0,1,1,33.4,41a4.51,4.51,0,0,1,4.52-4.31Zm-20,.69a17.22,17.22,0,0,1-6.54-8.3,5.67,5.67,0,0,0,2.74-5A6,6,0,0,0,11.21,19a16,16,0,0,1,6.54-8.76L21.46,16a9.57,9.57,0,0,0-.08,15.45l-3.47,5.91Z" transform="translate(-2.82 -3.27)"/><path class="cls-3" d="M45.18,24.94a16.87,16.87,0,0,1-4.76,10.3,7.31,7.31,0,0,0-2.82-.69,6.15,6.15,0,0,0-6.22,5.53,16.39,16.39,0,0,1-3.39.31,18.46,18.46,0,0,1-7.66-1.69l3.47-5.84a11.73,11.73,0,0,0,4,.77,10.14,10.14,0,0,0,10.25-8.76l7.1.07ZM37.6,3.27a4.46,4.46,0,0,1,4.52,4.31,4.53,4.53,0,0,1-9,0A4.46,4.46,0,0,1,37.6,3.27Z" transform="translate(-2.82 -3.27)"/></g></g></svg>