<svg id="svg3799" xmlns="http://www.w3.org/2000/svg" xmlns:xlink="http://www.w3.org/1999/xlink" viewBox="0 0 48 48"><defs><style>.cls-1{fill-rule:evenodd;fill:url(#New_Gradient_Swatch);}.cls-2{fill:url(#linear-gradient);}.cls-3{fill:url(#linear-gradient-2);}.cls-4{fill:url(#New_Gradient_Swatch-2);}.cls-5{fill:url(#New_Gradient_Swatch-3);}.cls-6{fill:url(#New_Gradient_Swatch-4);}.cls-7{fill:url(#New_Gradient_Swatch-5);}.cls-8{fill:url(#New_Gradient_Swatch-6);}.cls-9{fill:url(#New_Gradient_Swatch-7);}</style><linearGradient id="New_Gradient_Swatch" x1="54.82" y1="878.65" x2="102.82" y2="878.65" gradientTransform="translate(-54.82 -854.65)" gradientUnits="userSpaceOnUse"><stop offset="0" stop-color="#ec1e27"/><stop offset="1" stop-color="#9d1f60"/></linearGradient><linearGradient id="linear-gradient" x1="22" y1="35.28" x2="22.44" y2="35.28" gradientTransform="matrix(1, 0, 0, -1, 0, 50)" xlink:href="#New_Gradient_Swatch"/><linearGradient id="linear-gradient-2" x1="23.31" y1="35.32" x2="23.8" y2="35.32" gradientTransform="matrix(1, 0, 0, -1, 0, 50)" xlink:href="#New_Gradient_Swatch"/><linearGradient id="New_Gradient_Swatch-2" x1="8.4" y1="13.92" x2="40.18" y2="13.92" gradientTransform="matrix(1, 0, 0, 1, 0, 0)" xlink:href="#New_Gradient_Swatch"/><linearGradient id="New_Gradient_Swatch-3" x1="12.52" y1="14.51" x2="14.88" y2="14.51" gradientTransform="matrix(1, 0, 0, 1, 0, 0)" xlink:href="#New_Gradient_Swatch"/><linearGradient id="New_Gradient_Swatch-4" x1="12.52" y1="22.82" x2="14.88" y2="22.82" gradientTransform="matrix(1, 0, 0, 1, 0, 0)" xlink:href="#New_Gradient_Swatch"/><linearGradient id="New_Gradient_Swatch-5" x1="8.4" y1="22.82" x2="40.18" y2="22.82" gradientTransform="matrix(1, 0, 0, 1, 0, 0)" xlink:href="#New_Gradient_Swatch"/><linearGradient id="New_Gradient_Swatch-6" x1="12.52" y1="31.13" x2="14.88" y2="31.13" gradientTransform="matrix(1, 0, 0, 1, 0, 0)" xlink:href="#New_Gradient_Swatch"/><linearGradient id="New_Gradient_Swatch-7" x1="8.4" y1="32.91" x2="40.18" y2="32.91" gradientTransform="matrix(1, 0, 0, 1, 0, 0)" xlink:href="#New_Gradient_Swatch"/></defs><path class="cls-1" d="M24,0A24,24,0,1,0,48,24h0A24,24,0,0,0,24,0Zm0,1A23,23,0,1,1,1,24H1A23,23,0,0,1,24,1Z"/><path class="cls-2" d="M22,14.79c0,.06,0,.08.08.07s.08,0,.12-.13a.28.28,0,0,1,.24-.15h-.15C22.1,14.61,22,14.68,22,14.79Z"/><path class="cls-3" d="M23.31,14.63a.25.25,0,0,1,.26.06c.07.07.13.1.17.09s.07-.07,0-.13S23.55,14.52,23.31,14.63Z"/><path class="cls-4" d="M38.76,9.76H9.82A1.43,1.43,0,0,0,8.4,11.19v6.64a1.94,1.94,0,0,0,0,.24H40.16a1.94,1.94,0,0,0,0-.24V11.19A1.42,1.42,0,0,0,38.76,9.76ZM13.7,16.88a2.38,2.38,0,1,1,2.35-2.37A2.37,2.37,0,0,1,13.7,16.88Zm13-.59a.6.6,0,1,1,.58-.59A.59.59,0,0,1,26.65,16.29Zm1.17-2.37a.6.6,0,0,1-.59-.6.59.59,0,0,1,.59-.59.58.58,0,0,1,.59.59A.59.59,0,0,1,27.82,13.92ZM29,16.29a.6.6,0,0,1,0-1.19.6.6,0,0,1,0,1.19Zm1.18-2.37a.59.59,0,0,1-.59-.6.59.59,0,1,1,1.17,0A.59.59,0,0,1,30.18,13.92Zm1.17,2.37a.6.6,0,1,1,.59-.59A.59.59,0,0,1,31.35,16.29Zm1.18-2.37a.6.6,0,0,1-.59-.6.59.59,0,0,1,1.18,0A.6.6,0,0,1,32.53,13.92Zm1.18,2.37a.6.6,0,0,1,0-1.19.6.6,0,0,1,0,1.19Zm1.17-2.37a.59.59,0,0,1-.58-.6.59.59,0,1,1,1.17,0A.59.59,0,0,1,34.88,13.92Zm1.18,2.37a.6.6,0,1,1,.59-.59A.59.59,0,0,1,36.06,16.29Zm1.18-2.37a.59.59,0,0,1-.59-.6.58.58,0,0,1,.59-.59.59.59,0,0,1,.59.59A.6.6,0,0,1,37.24,13.92Z"/><ellipse class="cls-5" cx="13.7" cy="14.51" rx="1.18" ry="1.19"/><ellipse class="cls-6" cx="13.7" cy="22.82" rx="1.18" ry="1.19"/><path class="cls-7" d="M8.42,19.26a1.94,1.94,0,0,0,0,.24v6.64a1.94,1.94,0,0,0,0,.24H40.16a1.94,1.94,0,0,0,0-.24V19.5a1.94,1.94,0,0,0,0-.24Zm5.28,5.93a2.37,2.37,0,1,1,2.35-2.37A2.37,2.37,0,0,1,13.7,25.19Zm13-.59a.58.58,0,0,1-.59-.59.59.59,0,1,1,1.17,0A.58.58,0,0,1,26.65,24.6Zm1.17-2.37a.6.6,0,0,1,0-1.19.6.6,0,0,1,0,1.19ZM29,24.6a.58.58,0,0,1-.59-.59.59.59,0,0,1,.59-.6.6.6,0,0,1,.59.6A.59.59,0,0,1,29,24.6Zm1.18-2.37a.6.6,0,1,1,.58-.6A.59.59,0,0,1,30.18,22.23Zm1.17,2.37a.59.59,0,0,1-.59-.59.6.6,0,0,1,.59-.6.59.59,0,0,1,.59.6A.58.58,0,0,1,31.35,24.6Zm1.18-2.37a.6.6,0,1,1,.59-.6A.6.6,0,0,1,32.53,22.23Zm1.18,2.37a.58.58,0,0,1-.59-.59.59.59,0,0,1,.59-.6.6.6,0,0,1,.59.6A.59.59,0,0,1,33.71,24.6Zm1.17-2.37a.6.6,0,1,1,.59-.6A.59.59,0,0,1,34.88,22.23Zm1.18,2.37a.59.59,0,0,1-.59-.59.6.6,0,0,1,.59-.6.59.59,0,0,1,.59.6A.58.58,0,0,1,36.06,24.6Zm1.18-2.37a.6.6,0,1,1,.59-.6A.6.6,0,0,1,37.24,22.23Z"/><ellipse class="cls-8" cx="13.7" cy="31.13" rx="1.18" ry="1.19"/><path class="cls-9" d="M8.42,27.57a1.94,1.94,0,0,0,0,.24v6.64a1.43,1.43,0,0,0,1.42,1.43h.35a2.36,2.36,0,1,0,4.71,0H33.71a2.35,2.35,0,1,0,4.7,0h.35a1.42,1.42,0,0,0,1.42-1.43V27.81a1.94,1.94,0,0,0,0-.24Zm28.82,1.78a.6.6,0,1,1-.59.59A.59.59,0,0,1,37.24,29.35Zm-1.18,2.37a.59.59,0,0,1,.59.6.58.58,0,0,1-.59.59.59.59,0,0,1-.59-.59A.6.6,0,0,1,36.06,31.72Zm-1.18-2.37a.6.6,0,1,1-.58.59A.59.59,0,0,1,34.88,29.35ZM12.52,37.07a1.18,1.18,0,0,1-1.18-1.19H13.7A1.18,1.18,0,0,1,12.52,37.07Zm1.18-3.56a2.38,2.38,0,1,1,2.35-2.38A2.38,2.38,0,0,1,13.7,33.51Zm13-.6a.58.58,0,0,1-.59-.59.59.59,0,1,1,1.17,0A.58.58,0,0,1,26.65,32.91Zm1.17-2.37a.6.6,0,0,1,0-1.19.6.6,0,0,1,0,1.19ZM29,32.91a.58.58,0,0,1-.59-.59.59.59,0,0,1,.59-.6.6.6,0,0,1,.59.6A.59.59,0,0,1,29,32.91Zm1.18-2.37a.6.6,0,1,1,.58-.6A.59.59,0,0,1,30.18,30.54Zm1.17,2.37a.59.59,0,0,1-.59-.59.6.6,0,0,1,.59-.6.59.59,0,0,1,.59.6A.58.58,0,0,1,31.35,32.91Zm1.18-2.37a.6.6,0,1,1,.59-.6A.6.6,0,0,1,32.53,30.54Zm.59,1.78a.59.59,0,0,1,.59-.6.6.6,0,0,1,.59.6.59.59,0,0,1-.59.59A.58.58,0,0,1,33.12,32.32Zm2.94,4.75a1.18,1.18,0,0,1-1.18-1.19h2.36A1.18,1.18,0,0,1,36.06,37.07Z"/></svg>