<svg id="svg3799" xmlns="http://www.w3.org/2000/svg" xmlns:xlink="http://www.w3.org/1999/xlink" viewBox="0 0 48 48"><defs><style>.cls-1{fill-rule:evenodd;fill:url(#New_Gradient_Swatch);}.cls-2{fill:url(#New_Gradient_Swatch-2);}.cls-3{fill:url(#New_Gradient_Swatch-3);}.cls-4{fill:url(#New_Gradient_Swatch-4);}.cls-5{fill:url(#linear-gradient);}.cls-6{fill:url(#linear-gradient-2);}.cls-7{fill:url(#linear-gradient-3);}.cls-8{fill:url(#linear-gradient-4);}.cls-9{fill:url(#linear-gradient-5);}.cls-10{opacity:0.6;isolation:isolate;fill:url(#linear-gradient-6);}.cls-11{fill:url(#linear-gradient-7);}.cls-12{fill:url(#linear-gradient-8);}.cls-13{fill:url(#linear-gradient-9);}</style><linearGradient id="New_Gradient_Swatch" x1="54.82" y1="878.65" x2="102.82" y2="878.65" gradientTransform="translate(-54.82 -854.65)" gradientUnits="userSpaceOnUse"><stop offset="0" stop-color="#ec1e27"/><stop offset="1" stop-color="#9d1f60"/></linearGradient><linearGradient id="New_Gradient_Swatch-2" x1="17.56" y1="23.54" x2="29.53" y2="23.54" gradientTransform="matrix(1, 0, 0, 1, 0, 0)" xlink:href="#New_Gradient_Swatch"/><linearGradient id="New_Gradient_Swatch-3" x1="17.56" y1="19.47" x2="29.53" y2="19.47" gradientTransform="matrix(1, 0, 0, 1, 0, 0)" xlink:href="#New_Gradient_Swatch"/><linearGradient id="New_Gradient_Swatch-4" x1="17.56" y1="27.62" x2="29.53" y2="27.62" gradientTransform="matrix(1, 0, 0, 1, 0, 0)" xlink:href="#New_Gradient_Swatch"/><linearGradient id="linear-gradient" x1="294.22" y1="-340.93" x2="302.13" y2="-340.93" gradientTransform="matrix(1, 0, 0, -1, -285.87, -327.37)" xlink:href="#New_Gradient_Swatch"/><linearGradient id="linear-gradient-2" x1="292.66" y1="-340.92" x2="303.67" y2="-340.92" gradientTransform="matrix(1, 0, 0, -1, -285.87, -327.37)" xlink:href="#New_Gradient_Swatch"/><linearGradient id="linear-gradient-3" x1="313.63" y1="-339.07" x2="323.6" y2="-339.07" gradientTransform="matrix(1, 0, 0, -1, -285.15, -327.21)" xlink:href="#New_Gradient_Swatch"/><linearGradient id="linear-gradient-4" x1="290.97" y1="-359.07" x2="300.88" y2="-359.07" gradientTransform="matrix(1, 0, 0, -1, -282, -324)" xlink:href="#New_Gradient_Swatch"/><linearGradient id="linear-gradient-5" x1="292.7" y1="-359.42" x2="298.49" y2="-359.42" gradientTransform="matrix(1, 0, 0, -1, -282, -324)" xlink:href="#New_Gradient_Swatch"/><linearGradient id="linear-gradient-6" x1="291.64" y1="-359.43" x2="299.66" y2="-359.43" gradientTransform="matrix(1, 0, 0, -1, -282, -324)" xlink:href="#New_Gradient_Swatch"/><linearGradient id="linear-gradient-7" x1="313.3" y1="-359.26" x2="324.65" y2="-359.26" gradientTransform="matrix(1, 0, 0, -1, -284.82, -327.27)" xlink:href="#New_Gradient_Swatch"/><linearGradient id="linear-gradient-8" x1="315.55" y1="-362.08" x2="323.93" y2="-362.08" gradientTransform="matrix(1, 0, 0, -1, -284.82, -327.27)" xlink:href="#New_Gradient_Swatch"/><linearGradient id="linear-gradient-9" x1="318" y1="-360.39" x2="324.67" y2="-360.39" gradientTransform="matrix(1, 0, 0, -1, -284.82, -327.27)" xlink:href="#New_Gradient_Swatch"/></defs><path class="cls-1" d="M24,0A24,24,0,1,0,48,24h0A24,24,0,0,0,24,0Zm0,1A23,23,0,1,1,1,24H1A23,23,0,0,1,24,1Z"/><path class="cls-2" d="M17.56,22.34v2.4a1,1,0,0,0,.16.54H29.37a1,1,0,0,0,.16-.54v-2.4a1,1,0,0,0-.16-.53H17.72A1,1,0,0,0,17.56,22.34Zm10.38,1.31a.2.2,0,1,1-.2.2A.2.2,0,0,1,27.94,23.65Zm-.4-.62a.21.21,0,0,1,.2.21.2.2,0,1,1-.4,0A.21.21,0,0,1,27.54,23Zm-.4.62a.2.2,0,1,1-.2.2A.2.2,0,0,1,27.14,23.65Zm-.4-.62a.21.21,0,0,1,.2.21.2.2,0,1,1-.4,0A.21.21,0,0,1,26.74,23Zm-.4.62a.2.2,0,1,1-.2.2A.2.2,0,0,1,26.34,23.65Zm-.4-.62a.21.21,0,0,1,.2.21.2.2,0,1,1-.4,0A.21.21,0,0,1,25.94,23Zm-.4.62a.2.2,0,1,1-.2.2A.2.2,0,0,1,25.54,23.65Zm-.4-.62a.21.21,0,0,1,.2.21.2.2,0,0,1-.4,0A.21.21,0,0,1,25.14,23Zm-.4.62a.2.2,0,1,1-.2.2A.2.2,0,0,1,24.74,23.65Zm-.4-.62a.21.21,0,0,1,.2.21.2.2,0,0,1-.4,0A.21.21,0,0,1,24.34,23Zm-4.69-.4a.92.92,0,1,1-.89.91A.9.9,0,0,1,19.65,22.63Z"/><path class="cls-3" d="M29.37,21.4a1,1,0,0,0,.16-.53v-2.4a.93.93,0,0,0-.92-.94H18.48a.93.93,0,0,0-.92.94v2.4a1,1,0,0,0,.16.53Zm-1.43-1.63a.21.21,0,0,1,.2.21.2.2,0,0,1-.4,0A.21.21,0,0,1,27.94,19.77Zm-.4-.61a.2.2,0,0,1,.2.21.2.2,0,0,1-.4,0A.2.2,0,0,1,27.54,19.16Zm-.4.61a.21.21,0,0,1,.2.21.2.2,0,0,1-.4,0A.21.21,0,0,1,27.14,19.77Zm-.4-.61a.2.2,0,0,1,.2.21.2.2,0,0,1-.4,0A.2.2,0,0,1,26.74,19.16Zm-.4.61a.21.21,0,0,1,.2.21.2.2,0,0,1-.4,0A.21.21,0,0,1,26.34,19.77Zm-.4-.61a.2.2,0,0,1,.2.21.2.2,0,1,1-.4,0A.2.2,0,0,1,25.94,19.16Zm-.4.61a.21.21,0,0,1,.2.21.2.2,0,0,1-.4,0A.21.21,0,0,1,25.54,19.77Zm-.4-.61a.2.2,0,0,1,.2.21.2.2,0,0,1-.4,0A.2.2,0,0,1,25.14,19.16Zm-.4.61a.21.21,0,0,1,.2.21.2.2,0,0,1-.4,0A.21.21,0,0,1,24.74,19.77Zm-.4-.61a.2.2,0,0,1,.2.21.2.2,0,0,1-.4,0A.2.2,0,0,1,24.34,19.16Zm-4.69-.4a.92.92,0,1,1-.89.91A.9.9,0,0,1,19.65,18.76Z"/><path class="cls-4" d="M17.72,25.68a1,1,0,0,0-.16.54v2.4a.93.93,0,0,0,.92.94H28.61a.93.93,0,0,0,.92-.94v-2.4a1,1,0,0,0-.16-.54Zm1.93,2.65a.92.92,0,1,1,.9-.91A.9.9,0,0,1,19.65,28.33Zm4.69-1a.2.2,0,1,1,.2-.2A.2.2,0,0,1,24.34,27.31Zm.4.62a.21.21,0,0,1-.2-.21.2.2,0,0,1,.4,0A.21.21,0,0,1,24.74,27.93Zm.4-.62a.2.2,0,1,1,.2-.2A.2.2,0,0,1,25.14,27.31Zm.4.62a.21.21,0,0,1-.2-.21.2.2,0,0,1,.4,0A.21.21,0,0,1,25.54,27.93Zm.4-.62a.2.2,0,1,1,.2-.2A.2.2,0,0,1,25.94,27.31Zm.4.62a.21.21,0,0,1-.2-.21.2.2,0,1,1,.4,0A.21.21,0,0,1,26.34,27.93Zm.4-.62a.2.2,0,1,1,.2-.2A.2.2,0,0,1,26.74,27.31Zm.4.62a.21.21,0,0,1-.2-.21.2.2,0,0,1,.4,0A.21.21,0,0,1,27.14,27.93Zm.4-.62a.2.2,0,1,1,.2-.2A.2.2,0,0,1,27.54,27.31Zm.4.62a.21.21,0,0,1-.2-.21.2.2,0,0,1,.4,0A.21.21,0,0,1,27.94,27.93Z"/><g id="Page-1"><g id="centOS"><path id="Shape" class="cls-5" d="M16.26,13.07H13.65c.59-.56,1.23-1.16,1.86-1.78.18.17.44.44.75.78Zm-7.1-1.82L11,13.06H8.35V12C8.61,11.77,8.88,11.5,9.16,11.25ZM11.05,14c-.66.64-1.3,1.24-1.93,1.86l-.77-.81V14Zm.75,3.29H10.64l-.75-.73,1.91-1.8v2.52Zm1.8-3.27h2.66v1c-.29.26-.57.52-.81.77-.62-.59-1.23-1.19-1.86-1.78Zm-1.8-1.73c-.6-.61-1.25-1.21-1.89-1.84.22-.2.48-.43.81-.69H11.8v2.52Zm2.81,4.31-.79.69h-1V14.91Zm-1.8-6.85h1.06l.8.7-1.85,1.79Z"/><path class="cls-6" d="M12.39,14.25c0,.12,0,.24.07.36v3.07h1l-1.23,1.13-1.14-1.13h1c0-.16,0-.25,0-.37v-2.7c0-.12,0-.24,0-.36Zm-.81-.63a2.41,2.41,0,0,1-.37.07H8v1L6.79,13.57,8,12.45v1l.37,0h2.88a1.34,1.34,0,0,1,.35.05s0,.09,0,.14Zm3.83,2.72c.27-.23.54-.46.81-.73v1.7H14.48l.7-.75c-.11-.11-.19-.2-.26-.26L13,14.43c-.09-.09-.14-.19-.23-.3.23-.14.33,0,.42.09l2,1.91a1.39,1.39,0,0,1,.27.21ZM12.15,9.42H11.1c.4-.39.79-.78,1.16-1.13.37.35.75.74,1.16,1.13h-1c0,.16,0,.25,0,.37v2.68a2.66,2.66,0,0,1-.07.39c-.27,0-.22-.21-.22-.33Zm-3,1.32c-.27.25-.54.48-.81.76V9.8h1.76c-.24.26-.46.48-.72.73l.23.23c.68.65,1.35,1.31,2,2a2.27,2.27,0,0,1,.21.28c-.23.14-.31,0-.42-.11L9.39,11Zm8.63,2.81c-.37.35-.77.74-1.17,1.15v-1H13.4l-.37,0v-.13l.37,0h3.21v-1C17,12.79,17.42,13.16,17.8,13.55Zm-5-.44c-.13-.23,0-.3.11-.39l2-2a2,2,0,0,0,.24-.25c-.24-.23-.46-.46-.71-.73h1.74v1.66l-.81-.74a2.16,2.16,0,0,0-.27.25l-2,2A.84.84,0,0,1,12.85,13.11ZM9.16,16.38c.6-.6,1.21-1.16,1.8-1.73l.54-.53a.42.42,0,0,1,.29-.09,2.42,2.42,0,0,1-.75.87l-.85.81c-.27.27-.57.55-.88.83.24.25.48.48.74.76H8.33V15.63c.29.27.53.5.83.76Z"/></g></g><g id="Page-1-2" data-name="Page-1"><g id="Debian"><path id="Path" class="cls-7" d="M34.16,17.29a7.17,7.17,0,0,1-4-2.95,5,5,0,0,1-.8-2.77,4.22,4.22,0,0,1,2-3.6,4.75,4.75,0,0,1,3.95-.53,3.55,3.55,0,0,1,2.26,2.33,2.62,2.62,0,0,1-1.42,3.12A2.79,2.79,0,0,1,34,13a2.1,2.1,0,0,1-1.3-1.33,1.56,1.56,0,0,1,1-1.94l.16,0c1.81-.55,2.77,2.08.59,2.3a1.43,1.43,0,0,0,1.8-1.56A2,2,0,0,0,33.56,9a2.64,2.64,0,0,0-1.32.83,2.37,2.37,0,0,0-.41,2.09,2.89,2.89,0,0,0,1.8,1.87,3.79,3.79,0,0,0,2.86-.18,3.38,3.38,0,0,0,1.83-4,3.92,3.92,0,0,0-1-1.76,4.67,4.67,0,0,0-1.79-1.12,5.76,5.76,0,0,0-4.72.6,5.13,5.13,0,0,0-2.33,4.27,5.83,5.83,0,0,0,.92,3.16,5.64,5.64,0,0,0,4.78,2.57"/></g></g><g id="Page-1-3" data-name="Page-1"><g id="Fedora"><path id="Shape-2" data-name="Shape" class="cls-8" d="M13.92,30.15A4.91,4.91,0,0,0,9,35v4.48a.47.47,0,0,0,.45.47h4.5a4.92,4.92,0,1,0,0-9.84ZM15.41,36H14.19v1.29a2.3,2.3,0,0,1-2.29,2.13,2.35,2.35,0,0,1-1.63-.65s-.06-.06-.06-.08a2.25,2.25,0,0,1,1.54-3.76l.65,0h.68V33.7a2.29,2.29,0,0,1,2.29-2.28,2.34,2.34,0,0,1,1.61.64.71.71,0,0,1,.1.14,2.19,2.19,0,0,1,.58,1.5A2.21,2.21,0,0,1,15.5,36Z"/><path class="cls-9" d="M16.11,32.83a1,1,0,0,0-.76-.3,1.1,1.1,0,0,0-.83.35,1.14,1.14,0,0,0-.35.82v1a.11.11,0,0,0,.11.1h.55l.13,0h.35a1.2,1.2,0,0,0,1.18-1.16,1,1,0,0,0-.38-.87M11.88,36a1.2,1.2,0,0,0-1.18,1.17,1.13,1.13,0,0,0,.29.76s.06,0,.06.06a1.16,1.16,0,0,0,.81.35A1.19,1.19,0,0,0,13,37.16v-1a.13.13,0,0,0-.11-.1h-.58a.39.39,0,0,1-.18,0Z"/><path class="cls-10" d="M10.12,38.37v-.1a.63.63,0,0,1,.4-.45h.26a.49.49,0,0,1,.21.08,1.14,1.14,0,0,1,.06-1.58,1.18,1.18,0,0,1,.83-.35h.31a.52.52,0,0,1-.35-.51.57.57,0,0,1,.53-.6h-.62a2.28,2.28,0,0,0-1.54,3.8A1,1,0,0,1,10.12,38.37Zm7-6.17a.42.42,0,0,1,.07.24v0a.56.56,0,0,1-.56.55h0a.81.81,0,0,1-.46-.21,1.2,1.2,0,0,1,.4.86,1.2,1.2,0,0,1-1.18,1.17H15a.6.6,0,0,1,.43.54v0a.55.55,0,0,1-.55.55h.55a2.2,2.2,0,0,0,2.23-2.19V33.7A2.28,2.28,0,0,0,17.08,32.2Z"/></g></g><g id="Page-1-4" data-name="Page-1"><g id="ubuntu"><path id="Shape-3" data-name="Shape" class="cls-11" d="M29.69,32.57a1.22,1.22,0,1,1-1.21,1.22,1.2,1.2,0,0,1,1.21-1.22ZM35.19,29a4.28,4.28,0,0,1,.87.09v.14a1.66,1.66,0,0,0,1.61,1.7h.06a1.65,1.65,0,0,0,1-.31,4.43,4.43,0,0,1,1.13,2.6l-1.91.07a2.68,2.68,0,0,0-2.75-2.36,2.45,2.45,0,0,0-1.1.24l-.94-1.66A4.06,4.06,0,0,1,35.19,29Z"/><path class="cls-12" d="M37.9,37.33A1.21,1.21,0,0,1,39,38.61a1.16,1.16,0,1,1-2.31-.06,1.24,1.24,0,0,1,1.21-1.22Zm-5.37.2a4.89,4.89,0,0,1-1.76-2.35,1.64,1.64,0,0,0,.74-1.42,1.71,1.71,0,0,0-.78-1.44,4.53,4.53,0,0,1,1.75-2.48l1,1.63a2.82,2.82,0,0,0-.58,3.79,3.13,3.13,0,0,0,.56.59l-.93,1.67Z"/><path class="cls-13" d="M39.85,34a5,5,0,0,1-1.28,2.92,2,2,0,0,0-.76-.2,1.7,1.7,0,0,0-1.67,1.57,4.6,4.6,0,0,1-.91.09,4.85,4.85,0,0,1-2-.48l.93-1.65a3,3,0,0,0,1.07.21A2.76,2.76,0,0,0,37.93,34l1.91,0Zm-2-6.13A1.22,1.22,0,0,1,39,29.09a1.24,1.24,0,0,1-1.35,1.13,1.27,1.27,0,0,1-1.07-1.13A1.23,1.23,0,0,1,37.81,27.87Z"/></g></g></svg>