<svg id="Layer_1" data-name="Layer 1" xmlns="http://www.w3.org/2000/svg" xmlns:xlink="http://www.w3.org/1999/xlink" viewBox="0 0 1920 1083.96"><defs><style>.cls-1{fill:#00ff7f;}.cls-2{fill:url(#New_Gradient_Swatch_2);}.cls-3,.cls-5,.cls-7{fill:#fff;}.cls-3,.cls-4{opacity:0.01;isolation:isolate;}.cls-6{opacity:0.35;}.cls-7{stroke:#555;stroke-width:20px;}.cls-8{fill:#fcfcfc;}</style><linearGradient id="New_Gradient_Swatch_2" x1="866.77" y1="563.48" x2="867.33" y2="562.48" gradientTransform="matrix(1920, 0, 0, -1080, -1663773, 608557)" gradientUnits="userSpaceOnUse"><stop offset="0" stop-color="#ec1e27"/><stop offset="1" stop-color="#9d1f60"/></linearGradient></defs><title>how-to-earn-money-from-website-blogging</title><rect class="cls-1" width="1920" height="1080"/><rect class="cls-2" width="1920" height="1080"/><path class="cls-3" d="M5,5H7V6H6V7H7V8H5ZM4,3H8V4H9V9H8v1H4V9H3V4H4V9H8V4H4Zm7,1h1V6h1V4h1V6H13V7h1V9H13V7H12V9H11V7h1V6H11Zm4,0h5V9H19V5H18V9H17V5H16V9H15Zm6,0h3L23,5H22V8h1V5l1-1V9H22v2H21Zm4-2h1V8h1V9H25Zm3,2h3L30,5H29V6h1V5l1-1V7H29V8h2V9H28Zm4,4h1V9H32Zm2-4h3V5H35V8h2V9H34Zm4,0h3V9H38l1-1h1V5H39V8L38,9Zm4,0h5V9H46V5H45V9H44V5H43V9H42Z"/><g class="cls-4"><path class="cls-5" d="M22.45,1067.6a8.45,8.45,0,0,1-8.45,8.45,8.13,8.13,0,0,1-6-2.47,8.44,8.44,0,0,1,0-11.95,8.13,8.13,0,0,1,6-2.47,8.13,8.13,0,0,1,6,2.47A8.14,8.14,0,0,1,22.45,1067.6Zm-1.14,0a7.1,7.1,0,0,0-2.14-5.19,7,7,0,0,0-5.17-2.17,7,7,0,0,0-5.17,2.17,7.38,7.38,0,0,0,0,10.39A7,7,0,0,0,14,1075a7,7,0,0,0,5.17-2.17A7.14,7.14,0,0,0,21.31,1067.6Zm-3.88,3.88a9.85,9.85,0,0,1-1.62.57,6.3,6.3,0,0,1-1.54.19,4.94,4.94,0,0,1-3.5-1.2,5.28,5.28,0,0,1,0-6.94,4.83,4.83,0,0,1,3.48-1.26,6.59,6.59,0,0,1,1.71.23,11.44,11.44,0,0,1,1.45.51v1.77h-.16a6,6,0,0,0-1.35-.73,4.38,4.38,0,0,0-1.7-.35,2.8,2.8,0,0,0-2.16.84,3.45,3.45,0,0,0-.77,2.44A3.53,3.53,0,0,0,12,1070a2.79,2.79,0,0,0,2.19.85,4.47,4.47,0,0,0,1.58-.29,6.17,6.17,0,0,0,1.47-.79h.16Z"/><path class="cls-5" d="M42.28,1074H40l-3.1-4.19L33.76,1074H31.62l4.26-5.44-4.22-5.47H34l3.08,4.12,3.08-4.12h2.15L38,1068.46Z"/><path class="cls-5" d="M60.59,1074H58.76v-6.21c0-.47,0-.92-.07-1.36a2.76,2.76,0,0,0-.27-1,1.52,1.52,0,0,0-.64-.64,2.77,2.77,0,0,0-1.21-.21,3.47,3.47,0,0,0-1.54.38,10.21,10.21,0,0,0-1.55,1c0,.15,0,.33.05.53s0,.39,0,.59v7H51.71v-6.21c0-.48,0-.94-.06-1.37a2.71,2.71,0,0,0-.27-1,1.44,1.44,0,0,0-.64-.63,2.8,2.8,0,0,0-1.21-.21,3.36,3.36,0,0,0-1.51.37,8.58,8.58,0,0,0-1.51.95V1074H44.67v-10.91h1.84v1.21a8.28,8.28,0,0,1,1.71-1.11,4.2,4.2,0,0,1,1.82-.4,3.58,3.58,0,0,1,1.89.47,2.82,2.82,0,0,1,1.16,1.3,9.07,9.07,0,0,1,2-1.36,4.83,4.83,0,0,1,2-.41,3.16,3.16,0,0,1,2.65,1.09,4.8,4.8,0,0,1,.85,3Z"/><path class="cls-5" d="M73.73,1068.41a7.46,7.46,0,0,1-.38,2.43,5.49,5.49,0,0,1-1.08,1.86,4.42,4.42,0,0,1-1.52,1.12,4.48,4.48,0,0,1-1.85.39,6.14,6.14,0,0,1-1.54-.18,6.51,6.51,0,0,1-1.4-.58V1078H64.13v-14.93H66v1.14a7.29,7.29,0,0,1,1.65-1,4.77,4.77,0,0,1,2-.41,3.61,3.61,0,0,1,3.07,1.49A6.85,6.85,0,0,1,73.73,1068.41Zm-1.9,0a5.26,5.26,0,0,0-.67-3,2.34,2.34,0,0,0-2.07-1,4,4,0,0,0-1.59.34,7.29,7.29,0,0,0-1.54.9V1072a8,8,0,0,0,1.35.48,6,6,0,0,0,1.27.12,2.93,2.93,0,0,0,2.39-1A4.66,4.66,0,0,0,71.83,1068.46Z"/><path class="cls-5" d="M78.44,1074H76.61v-15.2h1.83Z"/><path class="cls-5" d="M91.21,1068.74h-8a4.68,4.68,0,0,0,.3,1.75,3.18,3.18,0,0,0,.83,1.22,3.26,3.26,0,0,0,1.21.71,5,5,0,0,0,1.54.23,6.2,6.2,0,0,0,2.24-.44,5.37,5.37,0,0,0,1.6-.88H91v2a16.22,16.22,0,0,1-1.89.65,7.53,7.53,0,0,1-2,.26,5.85,5.85,0,0,1-4.24-1.47,5.51,5.51,0,0,1-1.53-4.17,6,6,0,0,1,1.46-4.25,5,5,0,0,1,3.85-1.57,4.41,4.41,0,0,1,3.4,1.29,5.17,5.17,0,0,1,1.2,3.66Zm-1.79-1.41a3.28,3.28,0,0,0-.73-2.24,2.82,2.82,0,0,0-2.18-.79,3.19,3.19,0,0,0-2.35.87,3.4,3.4,0,0,0-1,2.16Z"/><path class="cls-5" d="M97,1074H94.65v-2.78H97Z"/><path class="cls-5" d="M109.33,1073.32a11.72,11.72,0,0,1-1.74.68,6.27,6.27,0,0,1-1.75.24,6.54,6.54,0,0,1-2.17-.34,4.4,4.4,0,0,1-1.69-1.05,4.64,4.64,0,0,1-1.1-1.78,7.11,7.11,0,0,1-.4-2.51,5.81,5.81,0,0,1,1.47-4.2,5.18,5.18,0,0,1,3.89-1.52,6.81,6.81,0,0,1,1.84.26,9.45,9.45,0,0,1,1.65.65v2h-.1a7,7,0,0,0-1.73-1,4.82,4.82,0,0,0-1.74-.35,3.09,3.09,0,0,0-2.47,1,5.69,5.69,0,0,0,0,6.11,3.05,3.05,0,0,0,2.49,1.06,4.92,4.92,0,0,0,1.13-.14,5.76,5.76,0,0,0,1-.38c.26-.14.51-.29.75-.44a4.42,4.42,0,0,0,.55-.4h.1Z"/><path class="cls-5" d="M121,1068.55a6.13,6.13,0,0,1-1.36,4.21,5.14,5.14,0,0,1-7.34,0,7.15,7.15,0,0,1,0-8.42,5.12,5.12,0,0,1,7.34,0A6.13,6.13,0,0,1,121,1068.55Zm-1.89,0a5,5,0,0,0-.83-3.15,3.12,3.12,0,0,0-4.63,0,5,5,0,0,0-.82,3.15,4.91,4.91,0,0,0,.83,3.11,3,3,0,0,0,4.61,0A4.92,4.92,0,0,0,119.09,1068.55Z"/><path class="cls-5" d="M139.74,1074h-1.83v-6.21c0-.47,0-.92-.07-1.36a2.76,2.76,0,0,0-.27-1,1.52,1.52,0,0,0-.64-.64,2.77,2.77,0,0,0-1.21-.21,3.47,3.47,0,0,0-1.54.38,10.21,10.21,0,0,0-1.55,1c0,.15,0,.33.05.53s0,.39,0,.59v7h-1.83v-6.21c0-.48,0-.94-.07-1.37a2.71,2.71,0,0,0-.27-1,1.44,1.44,0,0,0-.64-.63,2.77,2.77,0,0,0-1.21-.21,3.36,3.36,0,0,0-1.51.37,8.58,8.58,0,0,0-1.51.95V1074h-1.84v-10.91h1.84v1.21a8.28,8.28,0,0,1,1.71-1.11,4.22,4.22,0,0,1,1.83-.4,3.57,3.57,0,0,1,1.88.47,2.82,2.82,0,0,1,1.16,1.3,9.07,9.07,0,0,1,2-1.36,4.86,4.86,0,0,1,2-.41,3.16,3.16,0,0,1,2.65,1.09,4.8,4.8,0,0,1,.85,3Z"/></g><g class="cls-4"><path class="cls-5" d="M1810.81,22h-2.31l-3.1-4.19L1802.29,22h-2.14l4.25-5.44-4.21-5.47h2.31l3.08,4.12,3.08-4.12h2.15l-4.29,5.37Z"/><path class="cls-5" d="M1829.12,22h-1.83V15.79c0-.47,0-.92-.07-1.36a2.76,2.76,0,0,0-.27-1,1.52,1.52,0,0,0-.64-.64,2.77,2.77,0,0,0-1.21-.21,3.54,3.54,0,0,0-1.55.38,10.66,10.66,0,0,0-1.54,1c0,.15,0,.33,0,.53s0,.39,0,.59v7h-1.84V15.79c0-.48,0-.94-.06-1.37a2.71,2.71,0,0,0-.27-1,1.44,1.44,0,0,0-.64-.63,2.8,2.8,0,0,0-1.21-.21,3.33,3.33,0,0,0-1.51.37,8.58,8.58,0,0,0-1.51.95V22h-1.84V11.09H1815V12.3a8.28,8.28,0,0,1,1.71-1.11,4.2,4.2,0,0,1,1.82-.4,3.58,3.58,0,0,1,1.89.47,2.82,2.82,0,0,1,1.16,1.3,9.07,9.07,0,0,1,2-1.36,4.83,4.83,0,0,1,2-.41,3.16,3.16,0,0,1,2.65,1.09,4.8,4.8,0,0,1,.85,3Z"/><path class="cls-5" d="M1842.26,16.41a7.46,7.46,0,0,1-.38,2.43,5.49,5.49,0,0,1-1.08,1.86,4.42,4.42,0,0,1-1.52,1.12,4.48,4.48,0,0,1-1.85.39,6.14,6.14,0,0,1-1.54-.18,6.31,6.31,0,0,1-1.4-.58V26h-1.83V11.09h1.83v1.14a7.29,7.29,0,0,1,1.65-1,4.77,4.77,0,0,1,1.95-.41,3.62,3.62,0,0,1,3.07,1.49A6.85,6.85,0,0,1,1842.26,16.41Zm-1.9.05a5.26,5.26,0,0,0-.67-3,2.34,2.34,0,0,0-2.07-1,4,4,0,0,0-1.59.34,7.29,7.29,0,0,0-1.54.9V20a8.25,8.25,0,0,0,1.34.48,6.19,6.19,0,0,0,1.28.12,2.93,2.93,0,0,0,2.39-1A4.72,4.72,0,0,0,1840.36,16.46Z"/><path class="cls-5" d="M1847,22h-1.83V6.8H1847Z"/><path class="cls-5" d="M1859.74,16.74h-8a4.68,4.68,0,0,0,.3,1.75,3.18,3.18,0,0,0,.83,1.22,3.26,3.26,0,0,0,1.21.71,5,5,0,0,0,1.54.23,6.2,6.2,0,0,0,2.24-.44,5.37,5.37,0,0,0,1.6-.88h.1v2a16.22,16.22,0,0,1-1.89.65,7.59,7.59,0,0,1-2,.26,5.85,5.85,0,0,1-4.24-1.47,5.51,5.51,0,0,1-1.53-4.17,6,6,0,0,1,1.46-4.25,5,5,0,0,1,3.85-1.57,4.41,4.41,0,0,1,3.4,1.29,5.17,5.17,0,0,1,1.2,3.66ZM1858,15.33a3.28,3.28,0,0,0-.73-2.24,2.82,2.82,0,0,0-2.18-.79,3.19,3.19,0,0,0-2.35.87,3.4,3.4,0,0,0-1,2.16Z"/><path class="cls-5" d="M1865.52,22h-2.34V19.22h2.34Z"/><path class="cls-5" d="M1877.86,21.32a11.72,11.72,0,0,1-1.74.68,6.27,6.27,0,0,1-1.75.24,6.54,6.54,0,0,1-2.17-.34,4.4,4.4,0,0,1-1.69-1,4.65,4.65,0,0,1-1.11-1.78,7.35,7.35,0,0,1-.39-2.51,5.81,5.81,0,0,1,1.47-4.2,5.18,5.18,0,0,1,3.89-1.52,6.81,6.81,0,0,1,1.84.26,9.45,9.45,0,0,1,1.65.65v2h-.1a7,7,0,0,0-1.73-1,4.86,4.86,0,0,0-1.74-.35,3.09,3.09,0,0,0-2.47,1.05,4.62,4.62,0,0,0-.9,3.08,4.58,4.58,0,0,0,.88,3,3.05,3.05,0,0,0,2.49,1.06,4.92,4.92,0,0,0,1.13-.14,5.76,5.76,0,0,0,1-.38c.26-.14.51-.29.75-.44a4.42,4.42,0,0,0,.55-.4h.1Z"/><path class="cls-5" d="M1889.51,16.55a6.08,6.08,0,0,1-1.37,4.21,5.13,5.13,0,0,1-7.33,0,6.13,6.13,0,0,1-1.37-4.21,6.13,6.13,0,0,1,1.37-4.21,5.11,5.11,0,0,1,7.33,0A6.08,6.08,0,0,1,1889.51,16.55Zm-1.89,0a5,5,0,0,0-.83-3.15,3.12,3.12,0,0,0-4.63,0,5,5,0,0,0-.82,3.15,5,5,0,0,0,.83,3.11,3,3,0,0,0,4.61,0A4.92,4.92,0,0,0,1887.62,16.55Z"/><path class="cls-5" d="M1908.27,22h-1.83V15.79c0-.47,0-.92-.07-1.36a2.76,2.76,0,0,0-.27-1,1.52,1.52,0,0,0-.64-.64,2.77,2.77,0,0,0-1.21-.21,3.47,3.47,0,0,0-1.54.38,10.21,10.21,0,0,0-1.55,1c0,.15,0,.33,0,.53s0,.39,0,.59v7h-1.84V15.79c0-.48,0-.94-.06-1.37a2.71,2.71,0,0,0-.27-1,1.44,1.44,0,0,0-.64-.63,2.8,2.8,0,0,0-1.21-.21,3.36,3.36,0,0,0-1.51.37,8.58,8.58,0,0,0-1.51.95V22h-1.84V11.09h1.84V12.3a8.28,8.28,0,0,1,1.71-1.11,4.2,4.2,0,0,1,1.82-.4,3.58,3.58,0,0,1,1.89.47,2.82,2.82,0,0,1,1.16,1.3,9.07,9.07,0,0,1,2-1.36,4.86,4.86,0,0,1,2-.41,3.16,3.16,0,0,1,2.65,1.09,4.8,4.8,0,0,1,.85,3Z"/></g><g id="a" class="cls-6"><path class="cls-7" d="M1736.18,1062.6a.81.81,0,0,1,.64.27.9.9,0,0,1,.27.67,1,1,0,0,1-.27.67,9.1,9.1,0,0,1-2.5,1.49,8.32,8.32,0,0,1-2.9.52,7.84,7.84,0,0,1-5.85-2.44,8.29,8.29,0,0,1,5.85-14.14,8.18,8.18,0,0,1,5.4,2,.95.95,0,0,1,.06,1.38.9.9,0,0,1-.64.27.8.8,0,0,1-.58-.21,6.29,6.29,0,0,0-4.24-1.59,6.43,6.43,0,0,0,0,12.86,6.59,6.59,0,0,0,2.26-.42,6.72,6.72,0,0,0,2-1.16.87.87,0,0,1,.58-.18Zm7.13-4.67a11.92,11.92,0,0,1-11.92,11.92,11.92,11.92,0,0,1-12-11.92,11.94,11.94,0,0,1,23.87,0Zm-11.92-10.67a10.69,10.69,0,0,0-7.56,18.23,10.43,10.43,0,0,0,7.56,3.14,10.67,10.67,0,0,0,0-21.34Zm28.56,11.19-5.67-6.8a.83.83,0,0,1-.21-.61.85.85,0,0,1,.27-.64.9.9,0,0,1,.67-.27.87.87,0,0,1,.64.27l5.52,6.59,5.49-6.59a1,1,0,0,1,.67-.27.92.92,0,0,1,.94.94,1,1,0,0,1-.21.61l-5.7,6.8,5.73,6.86a1,1,0,0,1,.18.58.9.9,0,0,1-.27.67.92.92,0,0,1-.67.27.76.76,0,0,1-.61-.27l-5.55-6.62-5.55,6.62a.76.76,0,0,1-.61.27.9.9,0,0,1-.67-.27.89.89,0,0,1-.27-.64.87.87,0,0,1,.18-.55Zm12.56,7.44a.88.88,0,0,1-.28.67.89.89,0,0,1-.67.27.9.9,0,0,1-.64-.27.89.89,0,0,1-.27-.64V1051.1a.85.85,0,0,1,.27-.64.9.9,0,0,1,.64-.27.94.94,0,0,1,1,1v1a7.09,7.09,0,0,1,4.63-1.92,6.24,6.24,0,0,1,4.57,1.92,1,1,0,1,0,2,0,6.48,6.48,0,0,1,9.18,0,6.29,6.29,0,0,1,1.89,4.57V1066a.88.88,0,0,1-.28.67.89.89,0,0,1-.67.27.9.9,0,0,1-.64-.27.89.89,0,0,1-.27-.64v-9.27a4.4,4.4,0,0,0-1.37-3.26,4.44,4.44,0,0,0-3.26-1.37,4.51,4.51,0,0,0-3.27,1.37,4.44,4.44,0,0,0-1.37,3.26V1066a.92.92,0,0,1-1.58.67.86.86,0,0,1-.28-.64v-9.27a4.33,4.33,0,0,0-1.34-3.26,4.62,4.62,0,0,0-7.89,3.26Zm26.24-7.41a6.56,6.56,0,0,0,6.49,6.49,6.21,6.21,0,0,0,4.57-1.89,6.46,6.46,0,0,0-4.57-11,6.14,6.14,0,0,0-4.57,1.92,6.24,6.24,0,0,0-1.92,4.57Zm0,14.57a.9.9,0,0,1-.27.67,1,1,0,0,1-.64.24,1,1,0,0,1-.67-.24.85.85,0,0,1-.25-.67v-14.54a7.92,7.92,0,0,1,2.44-5.88,8.32,8.32,0,0,1,14.2,5.88,7.89,7.89,0,0,1-2.43,5.88,8.32,8.32,0,0,1-11.77,0l-.61-.57Zm17.31-29.14a.81.81,0,0,1,.28-.64.87.87,0,0,1,.64-.27.9.9,0,0,1,.67.27.89.89,0,0,1,.27.64V1065h1.53a.94.94,0,0,1,.94,1,.9.9,0,0,1-.27.67.92.92,0,0,1-.67.27H1817a.87.87,0,0,1-.64-.27.86.86,0,0,1-.28-.64Zm21.83,13.66a6.93,6.93,0,0,0-1.86-3.66,6.48,6.48,0,0,0-9.18,0,7.07,7.07,0,0,0-1.89,3.66Zm-1.71,5.67a.9.9,0,0,1,.67.27,1,1,0,0,1,.24.67,1,1,0,0,1-.21.64,8.31,8.31,0,1,1,2.9-6.31,1,1,0,0,1-1,1H1825a7.08,7.08,0,0,0,1.89,3.65,6.55,6.55,0,0,0,6.86,1.53,7.18,7.18,0,0,0,1.89-1.13,1.05,1.05,0,0,1,.58-.21Zm9.36,2a1.54,1.54,0,0,1-.46,1.1,1.41,1.41,0,0,1-1.1.45,1.5,1.5,0,0,1-1.09-.45,1.6,1.6,0,0,1-.43-1.1,1.58,1.58,0,0,1,.43-1.1,1.5,1.5,0,0,1,1.09-.46,1.42,1.42,0,0,1,1.1.46A1.43,1.43,0,0,1,1845.54,1065.28Zm15.69-2.07a.94.94,0,0,1,.64,1.61,8.57,8.57,0,0,1-2.53,1.49,8.22,8.22,0,0,1-2.89.52,8.32,8.32,0,1,1,0-16.64,8.61,8.61,0,0,1,2.93.52,8.25,8.25,0,0,1,2.49,1.49,1.11,1.11,0,0,1,.22.34.66.66,0,0,1,.12.39.82.82,0,0,1-.27.64.89.89,0,0,1-.67.28.77.77,0,0,1-.58-.22,6.49,6.49,0,1,0-4.24,11.4,6.5,6.5,0,0,0,2.25-.42,6.8,6.8,0,0,0,2-1.16.84.84,0,0,1,.54-.18Zm20.21-4.73a8,8,0,0,1-2.44,5.88,8.3,8.3,0,1,1,2.44-5.88Zm-8.32-6.49a6.5,6.5,0,0,0-6.49,6.49,6.11,6.11,0,0,0,1.89,4.57,6.25,6.25,0,0,0,4.6,1.92,6.32,6.32,0,0,0,4.57-1.89,6.46,6.46,0,0,0-4.57-11Zm12.5,13.9a.88.88,0,0,1-.28.67.89.89,0,0,1-.67.27.9.9,0,0,1-.64-.27.89.89,0,0,1-.27-.64V1051.1a.85.85,0,0,1,.27-.64.9.9,0,0,1,.64-.27.94.94,0,0,1,.95,1v1a7.09,7.09,0,0,1,4.63-1.92,6.24,6.24,0,0,1,4.57,1.92,10.37,10.37,0,0,1,1,1.16,7.91,7.91,0,0,1,1-1.16,6.48,6.48,0,0,1,9.18,0,6.29,6.29,0,0,1,1.89,4.57V1066a.88.88,0,0,1-.28.67.89.89,0,0,1-.67.27.9.9,0,0,1-.64-.27.89.89,0,0,1-.27-.64v-9.27a4.4,4.4,0,0,0-1.37-3.26,4.44,4.44,0,0,0-3.26-1.37,4.51,4.51,0,0,0-3.27,1.37,4.44,4.44,0,0,0-1.37,3.26V1066a.93.93,0,0,1-1.86,0v-9.27a4.33,4.33,0,0,0-1.34-3.26,4.6,4.6,0,0,0-6.55,0,4.42,4.42,0,0,0-1.34,3.26Z"/></g><path class="cls-8" d="M870.12,444.07c-2.92,1.17-5.81,2.33-8.71,3.45a26.57,26.57,0,0,0,1,7.69l9.41-3.64A19.25,19.25,0,0,1,870.12,444.07Z"/><path class="cls-8" d="M759.74,354.31V494.85l74.33-28.7a43.71,43.71,0,0,1-4.76-20.48c0-28.87,25.38-58,56.71-72.58s56.72,3.92,56.72,33.84c0,14.76-6.66,29.57-17.34,42.46v33.69c28.93-8.76,57.93-9.58,86.89,15.2v-144C928.08,282.33,843.9,426.29,759.74,354.31Z"/><path class="cls-8" d="M883.69,385v6.16a35.42,35.42,0,0,0-15.41,12.18c-3.68,5.24-5.51,10.17-5.51,14.86,0,5.26,1.7,8.72,5.1,10.31s8.68,1.53,15.83-.27V447l4.69-1.79v-17.8c4.11-.71,7-.83,8.77-.35,3,.76,4.52,3,4.52,6.91a16.23,16.23,0,0,1-1.5,6.69l8.11-3.12c.29-.11.54-.16.8-.25a29.56,29.56,0,0,0,1.47-9.1c0-5.68-2.22-9.14-6.65-10.26-2.74-.66-7.9-.41-15.52.87V396.2c4.52-1.79,7.82-1.56,9.89.72a8.93,8.93,0,0,1,2,5.24q4.34-1.76,8.65-3.47c-.19-5.17-2-8.67-5.5-10.47s-8.54-1.48-15.1.88v-6.05Zm0,34.84c-3.71.9-6.62.93-8.79.09s-3.24-2.78-3.24-5.81a16.76,16.76,0,0,1,2.76-8.41c1.84-3.08,4.94-5.62,9.27-7.63Z"/><path class="cls-8" d="M934.48,526.32h-8.11v97.27c0,8.79-7.63,18.92-17,22.58L731.09,715H934.48c9.4,0,17-7.19,17-16V542.31C951.51,533.49,943.88,526.32,934.48,526.32Z"/><path class="cls-8" d="M900.94,449.62,705.73,525c-9.4,3.63-17,13.73-17,22.56v156.7c0,8.81,7.62,13.07,17,9.41L900.94,638.3c9.42-3.63,17-13.76,17-22.62V459C918,450.22,910.36,446,900.94,449.62ZM883.36,558.8c-6.89,2.16-12.46-1.35-12.46-7.82s5.57-13.43,12.46-15.59,12.46,1.35,12.46,7.84S890.25,556.65,883.36,558.8Z"/><path class="cls-8" d="M972.23,515.76V609c54.47,46.59,109-46.59,163.47,0V515.76C1081.2,469.17,1026.7,562.38,972.23,515.76ZM1054,596.82c-20.28,9.43-36.72-2.54-36.72-21.91,0-18.7,16.45-37.58,36.72-47s36.7,2.52,36.7,21.91C1090.67,568.53,1074.25,587.4,1054,596.82Z"/><path class="cls-8" d="M1065.56,556.94c-1.75-.41-5.11-.29-10.06.54V542.9c3-1.16,5.1-1,6.45.44a6,6,0,0,1,1.31,3.4c1.84-.78,3.73-1.53,5.6-2.23-.12-3.33-1.29-5.6-3.56-6.75s-5.55-1-9.8.56v-3.93c-1,.45-2,.88-3,1.31v4a22.94,22.94,0,0,0-10,7.92q-3.56,5.08-3.56,9.6c0,3.42,1.08,5.66,3.3,6.7s5.61,1,10.23-.18V580c-3.61,1.26-6.06,1-7.38-.69-.76-1-1.22-2.75-1.4-5.42-1.86.77-3.74,1.52-5.65,2.22,0,3.45.59,6,1.79,7.51,2.22,2.88,6.44,3.23,12.61,1v5.8c1-.41,2-.87,3-1.28v-5.84a37.66,37.66,0,0,0,8.85-6.13,18.4,18.4,0,0,0,5.54-13.53C1069.89,559.9,1068.45,557.66,1065.56,556.94Zm-13.09,1.26a9.81,9.81,0,0,1-5.7.06c-1.4-.51-2.11-1.76-2.11-3.74a10.76,10.76,0,0,1,1.78-5.44,13.23,13.23,0,0,1,6-4.93C1052.47,548.84,1052.47,553.51,1052.47,558.2Zm10.58,13.73a14.93,14.93,0,0,1-7.55,6.91V563.07a16.36,16.36,0,0,1,5.73-.27c1.93.49,2.94,2,2.94,4.49A10.92,10.92,0,0,1,1063.05,571.93Z"/><path class="cls-8" d="M1075.24,391v58.88c34.42,29.45,68.83-29.41,103.25,0V391C1144.07,361.55,1109.66,420.46,1075.24,391Zm51.63,51.19c-12.8,6-23.2-1.6-23.2-13.81,0-11.81,10.4-23.74,23.2-29.69s23.19,1.6,23.19,13.84C1150.06,424.33,1139.68,436.24,1126.87,442.19Z"/><path class="cls-8" d="M1134.2,417c-1.12-.29-3.24-.2-6.39.34V408.1c1.86-.73,3.2-.64,4.07.29a3.73,3.73,0,0,1,.83,2.16c1.16-.49,2.38-.95,3.54-1.44-.06-2.1-.81-3.52-2.25-4.24s-3.53-.62-6.19.32v-2.46c-.62.28-1.25.54-1.89.82v2.52a15.06,15.06,0,0,0-6.33,5,10.64,10.64,0,0,0-2.24,6.07c0,2.18.69,3.55,2.09,4.21s3.55.62,6.47-.13v10.34c-2.27.79-3.81.64-4.66-.43a6.71,6.71,0,0,1-.88-3.45c-1.17.48-2.38.95-3.57,1.41,0,2.19.35,3.77,1.12,4.77,1.39,1.8,4,2,8,.59v3.67c.64-.29,1.27-.54,1.91-.83v-3.66a23.33,23.33,0,0,0,5.6-3.91,11.6,11.6,0,0,0,3.5-8.54C1136.92,418.87,1136,417.43,1134.2,417Zm-8.28.8a6.7,6.7,0,0,1-3.61.06,2.23,2.23,0,0,1-1.34-2.39,7,7,0,0,1,1.13-3.46,8.23,8.23,0,0,1,3.79-3.1C1125.92,411.87,1125.92,414.83,1125.92,417.8Zm6.67,8.67a9.48,9.48,0,0,1-4.76,4.34v-9.95a10,10,0,0,1,3.61-.15c1.22.32,1.84,1.25,1.84,2.85A6.38,6.38,0,0,1,1132.59,426.47Z"/></svg>