<svg id="Layer_1" data-name="Layer 1" xmlns="http://www.w3.org/2000/svg" xmlns:xlink="http://www.w3.org/1999/xlink" viewBox="0 0 1920 1083.96"><defs><style>.cls-1{fill:#00ff7f;}.cls-2{fill:url(#New_Gradient_Swatch_2);}.cls-3,.cls-5,.cls-7{fill:#fff;}.cls-3,.cls-4{opacity:0.01;isolation:isolate;}.cls-6{opacity:0.35;}.cls-7{stroke:#555;stroke-width:20px;}.cls-8{fill:#fcfcfc;}</style><linearGradient id="New_Gradient_Swatch_2" x1="866.77" y1="563.48" x2="867.33" y2="562.48" gradientTransform="matrix(1920, 0, 0, -1080, -1663773, 608557)" gradientUnits="userSpaceOnUse"><stop offset="0" stop-color="#ec1e27"/><stop offset="1" stop-color="#9d1f60"/></linearGradient></defs><title>things-to-know-about-shared-hosting-for-beginner</title><rect class="cls-1" width="1920" height="1080"/><rect class="cls-2" width="1920" height="1080"/><path class="cls-3" d="M5,5H7V6H6V7H7V8H5ZM4,3H8V4H9V9H8v1H4V9H3V4H4V9H8V4H4Zm7,1h1V6h1V4h1V6H13V7h1V9H13V7H12V9H11V7h1V6H11Zm4,0h5V9H19V5H18V9H17V5H16V9H15Zm6,0h3L23,5H22V8h1V5l1-1V9H22v2H21Zm4-2h1V8h1V9H25Zm3,2h3L30,5H29V6h1V5l1-1V7H29V8h2V9H28Zm4,4h1V9H32Zm2-4h3V5H35V8h2V9H34Zm4,0h3V9H38l1-1h1V5H39V8L38,9Zm4,0h5V9H46V5H45V9H44V5H43V9H42Z"/><g class="cls-4"><path class="cls-5" d="M22.45,1067.6a8.45,8.45,0,0,1-8.45,8.45,8.13,8.13,0,0,1-6-2.47,8.44,8.44,0,0,1,0-11.95,8.13,8.13,0,0,1,6-2.47,8.13,8.13,0,0,1,6,2.47A8.14,8.14,0,0,1,22.45,1067.6Zm-1.14,0a7.1,7.1,0,0,0-2.14-5.19,7,7,0,0,0-5.17-2.17,7,7,0,0,0-5.17,2.17,7.38,7.38,0,0,0,0,10.39A7,7,0,0,0,14,1075a7,7,0,0,0,5.17-2.17A7.14,7.14,0,0,0,21.31,1067.6Zm-3.88,3.88a9.85,9.85,0,0,1-1.62.57,6.3,6.3,0,0,1-1.54.19,4.94,4.94,0,0,1-3.5-1.2,5.28,5.28,0,0,1,0-6.94,4.83,4.83,0,0,1,3.48-1.26,6.59,6.59,0,0,1,1.71.23,11.44,11.44,0,0,1,1.45.51v1.77h-.16a6,6,0,0,0-1.35-.73,4.38,4.38,0,0,0-1.7-.35,2.8,2.8,0,0,0-2.16.84,3.45,3.45,0,0,0-.77,2.44A3.53,3.53,0,0,0,12,1070a2.79,2.79,0,0,0,2.19.85,4.47,4.47,0,0,0,1.58-.29,6.17,6.17,0,0,0,1.47-.79h.16Z"/><path class="cls-5" d="M42.28,1074H40l-3.1-4.19L33.76,1074H31.62l4.26-5.44-4.22-5.47H34l3.08,4.12,3.08-4.12h2.15L38,1068.46Z"/><path class="cls-5" d="M60.59,1074H58.76v-6.21c0-.47,0-.92-.07-1.36a2.76,2.76,0,0,0-.27-1,1.52,1.52,0,0,0-.64-.64,2.77,2.77,0,0,0-1.21-.21,3.47,3.47,0,0,0-1.54.38,10.21,10.21,0,0,0-1.55,1c0,.15,0,.33.05.53s0,.39,0,.59v7H51.71v-6.21c0-.48,0-.94-.06-1.37a2.71,2.71,0,0,0-.27-1,1.44,1.44,0,0,0-.64-.63,2.8,2.8,0,0,0-1.21-.21,3.36,3.36,0,0,0-1.51.37,8.58,8.58,0,0,0-1.51.95V1074H44.67v-10.91h1.84v1.21a8.28,8.28,0,0,1,1.71-1.11,4.2,4.2,0,0,1,1.82-.4,3.58,3.58,0,0,1,1.89.47,2.82,2.82,0,0,1,1.16,1.3,9.07,9.07,0,0,1,2-1.36,4.83,4.83,0,0,1,2-.41,3.16,3.16,0,0,1,2.65,1.09,4.8,4.8,0,0,1,.85,3Z"/><path class="cls-5" d="M73.73,1068.41a7.46,7.46,0,0,1-.38,2.43,5.49,5.49,0,0,1-1.08,1.86,4.42,4.42,0,0,1-1.52,1.12,4.48,4.48,0,0,1-1.85.39,6.14,6.14,0,0,1-1.54-.18,6.51,6.51,0,0,1-1.4-.58V1078H64.13v-14.93H66v1.14a7.29,7.29,0,0,1,1.65-1,4.77,4.77,0,0,1,2-.41,3.61,3.61,0,0,1,3.07,1.49A6.85,6.85,0,0,1,73.73,1068.41Zm-1.9,0a5.26,5.26,0,0,0-.67-3,2.34,2.34,0,0,0-2.07-1,4,4,0,0,0-1.59.34,7.29,7.29,0,0,0-1.54.9V1072a8,8,0,0,0,1.35.48,6,6,0,0,0,1.27.12,2.93,2.93,0,0,0,2.39-1A4.66,4.66,0,0,0,71.83,1068.46Z"/><path class="cls-5" d="M78.44,1074H76.61v-15.2h1.83Z"/><path class="cls-5" d="M91.21,1068.74h-8a4.68,4.68,0,0,0,.3,1.75,3.18,3.18,0,0,0,.83,1.22,3.26,3.26,0,0,0,1.21.71,5,5,0,0,0,1.54.23,6.2,6.2,0,0,0,2.24-.44,5.37,5.37,0,0,0,1.6-.88H91v2a16.22,16.22,0,0,1-1.89.65,7.53,7.53,0,0,1-2,.26,5.85,5.85,0,0,1-4.24-1.47,5.51,5.51,0,0,1-1.53-4.17,6,6,0,0,1,1.46-4.25,5,5,0,0,1,3.85-1.57,4.41,4.41,0,0,1,3.4,1.29,5.17,5.17,0,0,1,1.2,3.66Zm-1.79-1.41a3.28,3.28,0,0,0-.73-2.24,2.82,2.82,0,0,0-2.18-.79,3.19,3.19,0,0,0-2.35.87,3.4,3.4,0,0,0-1,2.16Z"/><path class="cls-5" d="M97,1074H94.65v-2.78H97Z"/><path class="cls-5" d="M109.33,1073.32a11.72,11.72,0,0,1-1.74.68,6.27,6.27,0,0,1-1.75.24,6.54,6.54,0,0,1-2.17-.34,4.4,4.4,0,0,1-1.69-1.05,4.64,4.64,0,0,1-1.1-1.78,7.11,7.11,0,0,1-.4-2.51,5.81,5.81,0,0,1,1.47-4.2,5.18,5.18,0,0,1,3.89-1.52,6.81,6.81,0,0,1,1.84.26,9.45,9.45,0,0,1,1.65.65v2h-.1a7,7,0,0,0-1.73-1,4.82,4.82,0,0,0-1.74-.35,3.09,3.09,0,0,0-2.47,1,5.69,5.69,0,0,0,0,6.11,3.05,3.05,0,0,0,2.49,1.06,4.92,4.92,0,0,0,1.13-.14,5.76,5.76,0,0,0,1-.38c.26-.14.51-.29.75-.44a4.42,4.42,0,0,0,.55-.4h.1Z"/><path class="cls-5" d="M121,1068.55a6.13,6.13,0,0,1-1.36,4.21,5.14,5.14,0,0,1-7.34,0,7.15,7.15,0,0,1,0-8.42,5.12,5.12,0,0,1,7.34,0A6.13,6.13,0,0,1,121,1068.55Zm-1.89,0a5,5,0,0,0-.83-3.15,3.12,3.12,0,0,0-4.63,0,5,5,0,0,0-.82,3.15,4.91,4.91,0,0,0,.83,3.11,3,3,0,0,0,4.61,0A4.92,4.92,0,0,0,119.09,1068.55Z"/><path class="cls-5" d="M139.74,1074h-1.83v-6.21c0-.47,0-.92-.07-1.36a2.76,2.76,0,0,0-.27-1,1.52,1.52,0,0,0-.64-.64,2.77,2.77,0,0,0-1.21-.21,3.47,3.47,0,0,0-1.54.38,10.21,10.21,0,0,0-1.55,1c0,.15,0,.33.05.53s0,.39,0,.59v7h-1.83v-6.21c0-.48,0-.94-.07-1.37a2.71,2.71,0,0,0-.27-1,1.44,1.44,0,0,0-.64-.63,2.77,2.77,0,0,0-1.21-.21,3.36,3.36,0,0,0-1.51.37,8.58,8.58,0,0,0-1.51.95V1074h-1.84v-10.91h1.84v1.21a8.28,8.28,0,0,1,1.71-1.11,4.22,4.22,0,0,1,1.83-.4,3.57,3.57,0,0,1,1.88.47,2.82,2.82,0,0,1,1.16,1.3,9.07,9.07,0,0,1,2-1.36,4.86,4.86,0,0,1,2-.41,3.16,3.16,0,0,1,2.65,1.09,4.8,4.8,0,0,1,.85,3Z"/></g><g class="cls-4"><path class="cls-5" d="M1810.81,22h-2.31l-3.1-4.19L1802.29,22h-2.14l4.25-5.44-4.21-5.47h2.31l3.08,4.12,3.08-4.12h2.15l-4.29,5.37Z"/><path class="cls-5" d="M1829.12,22h-1.83V15.79c0-.47,0-.92-.07-1.36a2.76,2.76,0,0,0-.27-1,1.52,1.52,0,0,0-.64-.64,2.77,2.77,0,0,0-1.21-.21,3.54,3.54,0,0,0-1.55.38,10.66,10.66,0,0,0-1.54,1c0,.15,0,.33,0,.53s0,.39,0,.59v7h-1.84V15.79c0-.48,0-.94-.06-1.37a2.71,2.71,0,0,0-.27-1,1.44,1.44,0,0,0-.64-.63,2.8,2.8,0,0,0-1.21-.21,3.33,3.33,0,0,0-1.51.37,8.58,8.58,0,0,0-1.51.95V22h-1.84V11.09H1815V12.3a8.28,8.28,0,0,1,1.71-1.11,4.2,4.2,0,0,1,1.82-.4,3.58,3.58,0,0,1,1.89.47,2.82,2.82,0,0,1,1.16,1.3,9.07,9.07,0,0,1,2-1.36,4.83,4.83,0,0,1,2-.41,3.16,3.16,0,0,1,2.65,1.09,4.8,4.8,0,0,1,.85,3Z"/><path class="cls-5" d="M1842.26,16.41a7.46,7.46,0,0,1-.38,2.43,5.49,5.49,0,0,1-1.08,1.86,4.42,4.42,0,0,1-1.52,1.12,4.48,4.48,0,0,1-1.85.39,6.14,6.14,0,0,1-1.54-.18,6.31,6.31,0,0,1-1.4-.58V26h-1.83V11.09h1.83v1.14a7.29,7.29,0,0,1,1.65-1,4.77,4.77,0,0,1,1.95-.41,3.62,3.62,0,0,1,3.07,1.49A6.85,6.85,0,0,1,1842.26,16.41Zm-1.9.05a5.26,5.26,0,0,0-.67-3,2.34,2.34,0,0,0-2.07-1,4,4,0,0,0-1.59.34,7.29,7.29,0,0,0-1.54.9V20a8.25,8.25,0,0,0,1.34.48,6.19,6.19,0,0,0,1.28.12,2.93,2.93,0,0,0,2.39-1A4.72,4.72,0,0,0,1840.36,16.46Z"/><path class="cls-5" d="M1847,22h-1.83V6.8H1847Z"/><path class="cls-5" d="M1859.74,16.74h-8a4.68,4.68,0,0,0,.3,1.75,3.18,3.18,0,0,0,.83,1.22,3.26,3.26,0,0,0,1.21.71,5,5,0,0,0,1.54.23,6.2,6.2,0,0,0,2.24-.44,5.37,5.37,0,0,0,1.6-.88h.1v2a16.22,16.22,0,0,1-1.89.65,7.59,7.59,0,0,1-2,.26,5.85,5.85,0,0,1-4.24-1.47,5.51,5.51,0,0,1-1.53-4.17,6,6,0,0,1,1.46-4.25,5,5,0,0,1,3.85-1.57,4.41,4.41,0,0,1,3.4,1.29,5.17,5.17,0,0,1,1.2,3.66ZM1858,15.33a3.28,3.28,0,0,0-.73-2.24,2.82,2.82,0,0,0-2.18-.79,3.19,3.19,0,0,0-2.35.87,3.4,3.4,0,0,0-1,2.16Z"/><path class="cls-5" d="M1865.52,22h-2.34V19.22h2.34Z"/><path class="cls-5" d="M1877.86,21.32a11.72,11.72,0,0,1-1.74.68,6.27,6.27,0,0,1-1.75.24,6.54,6.54,0,0,1-2.17-.34,4.4,4.4,0,0,1-1.69-1,4.65,4.65,0,0,1-1.11-1.78,7.35,7.35,0,0,1-.39-2.51,5.81,5.81,0,0,1,1.47-4.2,5.18,5.18,0,0,1,3.89-1.52,6.81,6.81,0,0,1,1.84.26,9.45,9.45,0,0,1,1.65.65v2h-.1a7,7,0,0,0-1.73-1,4.86,4.86,0,0,0-1.74-.35,3.09,3.09,0,0,0-2.47,1.05,4.62,4.62,0,0,0-.9,3.08,4.58,4.58,0,0,0,.88,3,3.05,3.05,0,0,0,2.49,1.06,4.92,4.92,0,0,0,1.13-.14,5.76,5.76,0,0,0,1-.38c.26-.14.51-.29.75-.44a4.42,4.42,0,0,0,.55-.4h.1Z"/><path class="cls-5" d="M1889.51,16.55a6.08,6.08,0,0,1-1.37,4.21,5.13,5.13,0,0,1-7.33,0,6.13,6.13,0,0,1-1.37-4.21,6.13,6.13,0,0,1,1.37-4.21,5.11,5.11,0,0,1,7.33,0A6.08,6.08,0,0,1,1889.51,16.55Zm-1.89,0a5,5,0,0,0-.83-3.15,3.12,3.12,0,0,0-4.63,0,5,5,0,0,0-.82,3.15,5,5,0,0,0,.83,3.11,3,3,0,0,0,4.61,0A4.92,4.92,0,0,0,1887.62,16.55Z"/><path class="cls-5" d="M1908.27,22h-1.83V15.79c0-.47,0-.92-.07-1.36a2.76,2.76,0,0,0-.27-1,1.52,1.52,0,0,0-.64-.64,2.77,2.77,0,0,0-1.21-.21,3.47,3.47,0,0,0-1.54.38,10.21,10.21,0,0,0-1.55,1c0,.15,0,.33,0,.53s0,.39,0,.59v7h-1.84V15.79c0-.48,0-.94-.06-1.37a2.71,2.71,0,0,0-.27-1,1.44,1.44,0,0,0-.64-.63,2.8,2.8,0,0,0-1.21-.21,3.36,3.36,0,0,0-1.51.37,8.58,8.58,0,0,0-1.51.95V22h-1.84V11.09h1.84V12.3a8.28,8.28,0,0,1,1.71-1.11,4.2,4.2,0,0,1,1.82-.4,3.58,3.58,0,0,1,1.89.47,2.82,2.82,0,0,1,1.16,1.3,9.07,9.07,0,0,1,2-1.36,4.86,4.86,0,0,1,2-.41,3.16,3.16,0,0,1,2.65,1.09,4.8,4.8,0,0,1,.85,3Z"/></g><g id="a" class="cls-6"><path class="cls-7" d="M1736.18,1062.6a.81.81,0,0,1,.64.27.9.9,0,0,1,.27.67,1,1,0,0,1-.27.67,9.1,9.1,0,0,1-2.5,1.49,8.32,8.32,0,0,1-2.9.52,7.84,7.84,0,0,1-5.85-2.44,8.29,8.29,0,0,1,5.85-14.14,8.18,8.18,0,0,1,5.4,2,.95.95,0,0,1,.06,1.38.9.9,0,0,1-.64.27.8.8,0,0,1-.58-.21,6.29,6.29,0,0,0-4.24-1.59,6.43,6.43,0,0,0,0,12.86,6.59,6.59,0,0,0,2.26-.42,6.72,6.72,0,0,0,2-1.16.87.87,0,0,1,.58-.18Zm7.13-4.67a11.92,11.92,0,0,1-11.92,11.92,11.92,11.92,0,0,1-12-11.92,11.94,11.94,0,0,1,23.87,0Zm-11.92-10.67a10.69,10.69,0,0,0-7.56,18.23,10.43,10.43,0,0,0,7.56,3.14,10.67,10.67,0,0,0,0-21.34Zm28.56,11.19-5.67-6.8a.83.83,0,0,1-.21-.61.85.85,0,0,1,.27-.64.9.9,0,0,1,.67-.27.87.87,0,0,1,.64.27l5.52,6.59,5.49-6.59a1,1,0,0,1,.67-.27.92.92,0,0,1,.94.94,1,1,0,0,1-.21.61l-5.7,6.8,5.73,6.86a1,1,0,0,1,.18.58.9.9,0,0,1-.27.67.92.92,0,0,1-.67.27.76.76,0,0,1-.61-.27l-5.55-6.62-5.55,6.62a.76.76,0,0,1-.61.27.9.9,0,0,1-.67-.27.89.89,0,0,1-.27-.64.87.87,0,0,1,.18-.55Zm12.56,7.44a.88.88,0,0,1-.28.67.89.89,0,0,1-.67.27.9.9,0,0,1-.64-.27.89.89,0,0,1-.27-.64V1051.1a.85.85,0,0,1,.27-.64.9.9,0,0,1,.64-.27.94.94,0,0,1,1,1v1a7.09,7.09,0,0,1,4.63-1.92,6.24,6.24,0,0,1,4.57,1.92,1,1,0,1,0,2,0,6.48,6.48,0,0,1,9.18,0,6.29,6.29,0,0,1,1.89,4.57V1066a.88.88,0,0,1-.28.67.89.89,0,0,1-.67.27.9.9,0,0,1-.64-.27.89.89,0,0,1-.27-.64v-9.27a4.4,4.4,0,0,0-1.37-3.26,4.44,4.44,0,0,0-3.26-1.37,4.51,4.51,0,0,0-3.27,1.37,4.44,4.44,0,0,0-1.37,3.26V1066a.92.92,0,0,1-1.58.67.86.86,0,0,1-.28-.64v-9.27a4.33,4.33,0,0,0-1.34-3.26,4.62,4.62,0,0,0-7.89,3.26Zm26.24-7.41a6.56,6.56,0,0,0,6.49,6.49,6.21,6.21,0,0,0,4.57-1.89,6.46,6.46,0,0,0-4.57-11,6.14,6.14,0,0,0-4.57,1.92,6.24,6.24,0,0,0-1.92,4.57Zm0,14.57a.9.9,0,0,1-.27.67,1,1,0,0,1-.64.24,1,1,0,0,1-.67-.24.85.85,0,0,1-.25-.67v-14.54a7.92,7.92,0,0,1,2.44-5.88,8.32,8.32,0,0,1,14.2,5.88,7.89,7.89,0,0,1-2.43,5.88,8.32,8.32,0,0,1-11.77,0l-.61-.57Zm17.31-29.14a.81.81,0,0,1,.28-.64.87.87,0,0,1,.64-.27.9.9,0,0,1,.67.27.89.89,0,0,1,.27.64V1065h1.53a.94.94,0,0,1,.94,1,.9.9,0,0,1-.27.67.92.92,0,0,1-.67.27H1817a.87.87,0,0,1-.64-.27.86.86,0,0,1-.28-.64Zm21.83,13.66a6.93,6.93,0,0,0-1.86-3.66,6.48,6.48,0,0,0-9.18,0,7.07,7.07,0,0,0-1.89,3.66Zm-1.71,5.67a.9.9,0,0,1,.67.27,1,1,0,0,1,.24.67,1,1,0,0,1-.21.64,8.31,8.31,0,1,1,2.9-6.31,1,1,0,0,1-1,1H1825a7.08,7.08,0,0,0,1.89,3.65,6.55,6.55,0,0,0,6.86,1.53,7.18,7.18,0,0,0,1.89-1.13,1.05,1.05,0,0,1,.58-.21Zm9.36,2a1.54,1.54,0,0,1-.46,1.1,1.41,1.41,0,0,1-1.1.45,1.5,1.5,0,0,1-1.09-.45,1.6,1.6,0,0,1-.43-1.1,1.58,1.58,0,0,1,.43-1.1,1.5,1.5,0,0,1,1.09-.46,1.42,1.42,0,0,1,1.1.46A1.43,1.43,0,0,1,1845.54,1065.28Zm15.69-2.07a.94.94,0,0,1,.64,1.61,8.57,8.57,0,0,1-2.53,1.49,8.22,8.22,0,0,1-2.89.52,8.32,8.32,0,1,1,0-16.64,8.61,8.61,0,0,1,2.93.52,8.25,8.25,0,0,1,2.49,1.49,1.11,1.11,0,0,1,.22.34.66.66,0,0,1,.12.39.82.82,0,0,1-.27.64.89.89,0,0,1-.67.28.77.77,0,0,1-.58-.22,6.49,6.49,0,1,0-4.24,11.4,6.5,6.5,0,0,0,2.25-.42,6.8,6.8,0,0,0,2-1.16.84.84,0,0,1,.54-.18Zm20.21-4.73a8,8,0,0,1-2.44,5.88,8.3,8.3,0,1,1,2.44-5.88Zm-8.32-6.49a6.5,6.5,0,0,0-6.49,6.49,6.11,6.11,0,0,0,1.89,4.57,6.25,6.25,0,0,0,4.6,1.92,6.32,6.32,0,0,0,4.57-1.89,6.46,6.46,0,0,0-4.57-11Zm12.5,13.9a.88.88,0,0,1-.28.67.89.89,0,0,1-.67.27.9.9,0,0,1-.64-.27.89.89,0,0,1-.27-.64V1051.1a.85.85,0,0,1,.27-.64.9.9,0,0,1,.64-.27.94.94,0,0,1,.95,1v1a7.09,7.09,0,0,1,4.63-1.92,6.24,6.24,0,0,1,4.57,1.92,10.37,10.37,0,0,1,1,1.16,7.91,7.91,0,0,1,1-1.16,6.48,6.48,0,0,1,9.18,0,6.29,6.29,0,0,1,1.89,4.57V1066a.88.88,0,0,1-.28.67.89.89,0,0,1-.67.27.9.9,0,0,1-.64-.27.89.89,0,0,1-.27-.64v-9.27a4.4,4.4,0,0,0-1.37-3.26,4.44,4.44,0,0,0-3.26-1.37,4.51,4.51,0,0,0-3.27,1.37,4.44,4.44,0,0,0-1.37,3.26V1066a.93.93,0,0,1-1.86,0v-9.27a4.33,4.33,0,0,0-1.34-3.26,4.6,4.6,0,0,0-6.55,0,4.42,4.42,0,0,0-1.34,3.26Z"/></g><path class="cls-8" d="M1148.41,710.61a37.17,37.17,0,0,0-8.84-7c-.58-.37-2.14-1.28-4.7-2.7s-4.62-2.67-6.15-3.72a42.73,42.73,0,0,1-6-5.42,33.2,33.2,0,0,1-5.85-8.14,65.13,65.13,0,0,1-4.15-11.56,70,70,0,0,1-2.28-16.13c-2.66,2.27-4.14,6.8-4.42,13.56a45.65,45.65,0,0,0,4.28,20.69q4.71,10.57,14.13,13.71a70.51,70.51,0,0,1,14.71,6.7c3.7,2.39,6.09,5.09,7.14,8.14s-.72,6.33-5.29,9.85-11.9,7-22,10.43q-20.85,7.14-29.56,12.13t-25.55,19q-11.42,9.42-24.27,10.14a23.48,23.48,0,0,1-20.84-9.42q-8-10.14-5.14-28.7,5.43-35.68-.28-55.67-4.56-15.71-2-27.69t8-14q5.4-2,11.7,8.55c.37,1,1.24,2.81,2.56,5.57a38.17,38.17,0,0,0,3.29,5.85,52.63,52.63,0,0,0,3.86,4.43,14.14,14.14,0,0,0,6.42,3.86,39.64,39.64,0,0,0,9,1.43,33.31,33.31,0,0,0,17.41-4q7.71-4.28,11.57-9.56c2.56-3.53,5.14-6.9,7.7-10.14s4.81-5,6.71-5.43c2.09-.38,4-2.47,5.71-6.28s2.86-9.09,3.43-15.84a99.79,99.79,0,0,0-1.42-24.13q-4.29-24.84-17-54.53t-28.41-46.54q-28.26-30-38-62.24-10-34-8.56-61.1,1.43-19.41-8.42-42.11t-26.13-34.69q-10.27-7.71-25.4-11.85a106.6,106.6,0,0,0-30.27-3.85q-18.55,0-29.69,6-22.85,12.29-30.26,29.84t-6.86,43.25q1.15,56.54,4.57,88.51-4,14.83-35.4,55.67a70.1,70.1,0,0,0-11.14,15.42,161.64,161.64,0,0,0-8.56,17.41q-3.15,7.71-8.43,22.27t-7.56,20.55a73.81,73.81,0,0,1-6.28,12,81.16,81.16,0,0,0-6.86,13.41,44.88,44.88,0,0,0-2.85,14.85,47.94,47.94,0,0,0,.57,10.85q1.14,6.85,4.28,4.28Q793.56,626.81,813,648q13.69,14.84,48.25,69.09,2.85,4.86,5.71,10.43a80.1,80.1,0,0,1,5.42,14.84,51.58,51.58,0,0,1,2.14,16.7q-.42,7.44-6.56,13.71t-18.42,8a47.32,47.32,0,0,1-15.84-1.15q-9.28-2-23.56-6.56T789,766.72q-10-2.29-28.41-5.85t-24.13-5.29q-9.71-2.57-10.56-7.42-.85-4,4-13.7t4.85-14a22.85,22.85,0,0,0-.29-6.28,23.63,23.63,0,0,0-1.28-4.86c-.48-1.14-1.28-2.85-2.43-5.14a44.71,44.71,0,0,1-2.28-5.13q-5.15-12-1.43-16.28,2.57-3.72,12.28-2.86,14.55,1.44,23.69-4.28,15.13-9.42,9.14-30.27,0,9.71-3.43,14.56t-12,10q-4.85,2.85-17.13,3.43t-16.27,4q-2.85,2.57-3,7.71a36.21,36.21,0,0,0,1.29,10.42q1.42,5.28,2.85,12.13A44.37,44.37,0,0,1,725.6,719q-.29,3.15-5.14,15.56t-2,19a14,14,0,0,0,4.85,5.58,31.56,31.56,0,0,0,9.56,4.14Q739,765,744.16,766t14.27,2.56q9.14,1.57,14.56,2.71a294.55,294.55,0,0,1,41.69,12.28q23.4,8.57,31.69,8.85a31.5,31.5,0,0,0,15.27-3.29A55,55,0,0,0,874.06,781q5.13-4.57,15.27-8.57a65.69,65.69,0,0,1,22.7-4.28q5.72-.28,16.56-.71t16.27-.43q24.55,0,37.12.28,8.57.3,13.42,2.72c3.23,1.61,5.33,3.47,6.28,5.56a36.54,36.54,0,0,0,4.72,7.28,24.49,24.49,0,0,0,8.41,6.71q10.85,5.15,25.41,4.14t19.41-5.57a279.69,279.69,0,0,1,21.56-18.27,150.26,150.26,0,0,1,24.41-16q2.28-1.15,7.71-3.72t9.13-4.43q3.7-1.86,9-4.71a74.23,74.23,0,0,0,8.57-5.29,81,81,0,0,0,6.7-5.56,15,15,0,0,0,4.43-6.28,16.29,16.29,0,0,0,.71-6.43Q1151.56,714.18,1148.41,710.61Zm-153-275.95c.57-.37,1-.52,1.14-.42a5.55,5.55,0,0,1,1.14,1.14l1.57,1.86c.48.56,1.14,1.33,2,2.28a11.78,11.78,0,0,0,2.7,2.28,10.76,10.76,0,0,0,4.15,1.57,8.42,8.42,0,0,1,3.71,1.43,5.73,5.73,0,0,1,1.86,3.28,8,8,0,0,1-1,5.71,4.13,4.13,0,0,1-4.15,2.29q-5.14-1.15-11.13-9T995.39,434.66ZM960,323.75a9.19,9.19,0,0,0,1.71-3,6.58,6.58,0,0,0,.15-3.58,6.24,6.24,0,0,1,.28-3.71,3.58,3.58,0,0,1,3.29-2.14c1.71,0,4,1.43,6.85,4.29q.86.57,2.7,1.71a10.71,10.71,0,0,1,2.57,2,2.43,2.43,0,0,1,.72,1.42,3.59,3.59,0,0,1-2.57,2,15.48,15.48,0,0,1-4.28.57,5.74,5.74,0,0,0-2.57.29,14.27,14.27,0,0,0-4.28,2.57c-1.33,1.14-2.38,2-3.14,2.57a1.75,1.75,0,0,1-2.29,0c-.76-1.15-1-2-.85-2.43A14.42,14.42,0,0,1,960,323.75ZM821.8,537.45a28.24,28.24,0,0,0,2.86-3.71,17.2,17.2,0,0,0,1.57-3.85,22.72,22.72,0,0,1,1.28-3.57,1.39,1.39,0,0,1,1.72-.86c.37-.1.66.09.85.57l.29.71v.86a5.75,5.75,0,0,1-.15,1.14,5.28,5.28,0,0,1-.42,1.29,7.64,7.64,0,0,0-.57,1.71c-.19.76-.38,1.43-.58,2a14.32,14.32,0,0,1-3.56,5.14q-2.43,2.28-3.57,2C820.37,540.5,820.47,539.35,821.8,537.45Zm186.71,176.16a208.68,208.68,0,0,1-3.85,25.69q-3.28,16.56-4.15,22c-4-.19-6.28-1.67-6.85-4.43s0-6.32,1.72-10.7q6.27-19.14,6.56-26.27.59-13.14-2.85-14.84-3.15-2.29-9.71,8.56-12.57,20.55-50.54,24.84Q904.6,743,891.45,728.16a5.46,5.46,0,0,0-5.71-.71,8.14,8.14,0,0,0-3.71,2.7c-.18.38,0,1,.58,1.72s1.47,1.9,2.71,3.42a25.38,25.38,0,0,1,3,4.58q11.15,19.41-2,26.26,0-13.12-2-20.12t-8-15.42a129.93,129.93,0,0,1-8.28-12.71c5.71-.56,10-2.76,13-6.56A17.72,17.72,0,0,0,885,699a15.7,15.7,0,0,0-5-10.85q-2.56-2.57-26.55-21.84T823.8,640.51q-1.15-1.14-6.86-5.71t-7.14-8Q796.68,598,807,579.42l1.14-1.43c.95-.19,1,1.52.28,5.14a56.78,56.78,0,0,0-1.14,16q1.14,18,10.28,26.83,6,6,8.28-.85,1.71-2.29,1.57-16.85t.43-19.7q2.28-16.27,13.56-40.25t17.85-25.7a24.31,24.31,0,0,1-3.29-18,49.89,49.89,0,0,1,6-16.56q4.14-6.85,8.42-15.85t4.28-16.13a10,10,0,0,1,.29-2.85q.86-2.58,7.14,6.27,12,17.72,18,20.85,6.27,3.42,14-.29t19-12.27a127.81,127.81,0,0,1,19.27-12.56,21.1,21.1,0,0,0,2.72-1.29c1.23-.66,2.18-1.14,2.84-1.43s1.52-.71,2.57-1.28,1.85-1.05,2.42-1.43a17.93,17.93,0,0,0,1.72-1.29,4,4,0,0,0,1.14-1.42,3.57,3.57,0,0,0,.29-1.29c-.39-1.71-1.19-2.76-2.43-3.14s-2.91-.14-5,.72a66.89,66.89,0,0,0-7,3.42q-3.84,2.15-8.56,4.86t-9.56,5a80.41,80.41,0,0,1-10.28,4,42.52,42.52,0,0,1-10.28,2q-12,.28-19.12-6.28c-3-2.86-4.66-4.66-4.86-5.43s.67-.94,2.57-.57q15.42,2,22.56.57,7.43-1.12,20-6.56c1.72-.76,6-2.62,13-5.57a170.51,170.51,0,0,1,16.13-6.14q3.43-.85,4.71-2.71a4.1,4.1,0,0,0,.86-3.43,4,4,0,0,0-1.86-2.42c-2.09-1.14-4-.38-5.7,2.28-1,1.72-3,3.38-6,5a55.18,55.18,0,0,1-8.43,3.71q-3.84,1.29-9.85,3c-4,1.14-6.18,1.81-6.56,2q-15.7,4.84-29.12,4.28A31,31,0,0,1,891,442.52a11.16,11.16,0,0,1-5.28-3.71,43,43,0,0,0-4.57-5.42,31.05,31.05,0,0,0-7.14-5.57c-1.9-.95-2.61-2.67-2.14-5.14a16.24,16.24,0,0,1,4.43-7.71q.28-.29,5.85-3.57t7.85-6.71c1.71-2.66,4.66-5.43,8.85-8.28a42.32,42.32,0,0,0,.43-6.28A24.52,24.52,0,0,0,896.6,379q-2.86-6-7.71-6-6.85-.28-9.71,4a17.16,17.16,0,0,0-2.57,10.56,21,21,0,0,0,2.71,9.56c1.62,2.76,3.1,4.15,4.43,4.15q3.13-.3,2,2.28a7.77,7.77,0,0,1-4.57,4c-1.34.37-2.81-.91-4.43-3.86A38.17,38.17,0,0,1,873,393a40.94,40.94,0,0,1-1-10.56,43.28,43.28,0,0,1,4.71-17q4.15-8.13,11.85-7.85,8,.29,12.85,9.71T906,393c.57,1.34,2.05,1.81,4.43,1.43a42.22,42.22,0,0,1,9.42-.14c3.9.28,6.7,1.28,8.42,3,.19,0,.29-1.43.29-4.28q-5.15-36,25.41-38.26a41.66,41.66,0,0,1,7.7,2.14,26.27,26.27,0,0,1,6.71,4.29,22.66,22.66,0,0,1,6,8.71,63.5,63.5,0,0,1,3.86,14.27v10.56q0,9.13-3.72,10.28-6,2-8.55-.14t.56-7.57q2.87-7.12-1.14-16.56t-14.56-8.56q-7.14.28-10.28,7.71a28.32,28.32,0,0,0-2.28,14.56c.57,4.76,1.61,7.23,3.14,7.42q1.71.29,10.14,4.57t12.7,5.14q11.15,2.28,12.71,7.13t-1.29,14.14q-2.85,9.29-1.7,15.27a33,33,0,0,0,4.28,11.42,80,80,0,0,0,6.71,9.43q3.57,4.27,8.42,16a185.32,185.32,0,0,1,8.85,29.41c.18.19.9.86,2.14,2a29.21,29.21,0,0,1,3.71,4.28c1.24,1.71,2.71,4,4.43,7a80.22,80.22,0,0,1,5.57,13,189.81,189.81,0,0,1,5.56,19.7,137,137,0,0,1,3.29,30.55q.13,17.42,2.28,23.84t11,5.28q11.13-.57,14.27-12,9.42-33.12-15.42-79.37-9.42-18-16.27-23.7,10,5.72,20.56,21.42t13.41,29.4c.19,1,.72,3.48,1.57,7.57s1.33,6.47,1.42,7.14.48,2.62,1.14,5.85a41.28,41.28,0,0,1,1,6.28c0,1,.1,2.81.29,5.57a26.66,26.66,0,0,1-.14,6.42c-.29,1.53-.57,3.58-.86,6.14a46.94,46.94,0,0,1-1.43,7.43c-.65,2.37-1.37,5-2.13,7.85q15.69,6.85,15.7,12-6-4.86-17.14-6.41a35.33,35.33,0,0,0-20.69,3q-9.57,4.58-9.86,15.13-10.28,0-14.56,5.14-6.27,7.41-6.56,20.13a152.27,152.27,0,0,0,2.14,27.68Q1009.09,707.62,1008.51,713.61ZM888.89,382.7a2.67,2.67,0,0,1-1.42-1.71c0-1.71.85-2.38,2.57-2,1.14.38,2.24,1.81,3.28,4.28a15,15,0,0,1,.71,8.57.74.74,0,0,1-.85.85q-3.15,0-2.29-5.7Q891.75,382.7,888.89,382.7Zm74,4.57-.57.86c-1.52.95-2.27,1.14-2.27.57q-1.15-7.71-5.15-8.85l-1.14-.57c-1.33-1.15-.67-1.81,2-2,.57-.19,1.43.09,2.57.85a11.28,11.28,0,0,1,4.57,9.14Z"/><path class="cls-8" d="M896.31,403.83c0,1.14.48,1.62,1.44,1.43.76,0,1.56-.91,2.42-2.72a5.07,5.07,0,0,1,4.42-3h-2.85C898.12,400.12,896.31,401.54,896.31,403.83Z"/><path class="cls-8" d="M921.16,400.4a4.69,4.69,0,0,1,5,1.29c1.43,1.43,2.53,2.05,3.29,1.85a1.68,1.68,0,0,0,.85-2.56Q928,397.26,921.16,400.4Z"/></svg>