<svg viewBox="-0.5 -0.5 400 400" xmlns="http://www.w3.org/2000/svg" height="400" width="400"><path d="M295.8186 137.50338000000002a119.358855 119.358855 0 0 0 -23.786385000000003 10.61739l-3.7246650000000003 -8.341095000000001c-21.871185 5.137125000000001 -43.15185 21.827295000000003 -55.556760000000004 40.057605a45.567795000000004 45.567795000000004 0 0 0 18.32607 23.02629 120.6975 120.6975 0 0 0 -0.648375 25.051215000000003c14.391930000000002 0.08379 28.77588 0.756105 43.16781 0.8817900000000001 4.56855 0.039900000000000005 30.290085 -0.031920000000000004 36.109500000000004 0.84987 -1.197 -8.025885 4.06581 -13.927095000000001 9.67974 -17.60388a170.87973 170.87973 0 0 0 -4.34511 -5.695725 22.322055000000002 22.322055000000002 0 0 1 3.9780300000000004 -8.121645A39.13392 39.13392 0 0 1 341.60385 182.94150000000002c1.9211850000000001 1.8294150000000002 3.6069600000000004 3.9161850000000005 5.33463 5.927145 0.815955 -2.340135 1.8134550000000003 -4.626405 2.5935 -6.9825 -9.003435 -15.132075 -29.865150000000003 -34.587315000000004 -53.71338 -44.382765Zm-16.285185000000002 45.19473c-0.185535 6.00096 -0.5586000000000001 13.456275000000002 -0.66234 18.9525a2.9925 2.9925 0 0 1 -2.96058 3.0922500000000004c-0.628425 0.017955 -15.01437 0.47481 -18.88068 0.165585a4.123665000000001 4.123665000000001 0 0 1 -3.764565 -4.1097c-0.039900000000000005 -6.334125 0.24738000000000002 -12.41289 0.62244 -18.71709a4.159575 4.159575 0 0 1 4.075785000000001 -3.92217c6.222405000000001 -0.11571000000000001 11.513145 0.17556 17.62782 0.385035a4.06581 4.06581 0 0 1 3.94212 4.15359Z" fill="#14bef0" stroke-width="1"></path><path d="M273.380835 120.87306000000001a5.24286 5.24286 0 0 0 8.161545 -0.7820400000000001 5.905200000000001 5.905200000000001 0 0 0 0.9017400000000001 -2.84886 0.72219 0.72219 0 1 0 -1.410465 -0.30723 6.745095 6.745095 0 0 1 -1.2648300000000001 1.741635 4.31319 4.31319 0 0 1 -5.5221599999999995 1.067325c-0.855855 -0.46084500000000006 -1.5301650000000002 0.44289 -0.86583 1.12917Z" fill="#191919" stroke-width="1"></path><path d="M270.308535 113.22024c0.45885000000000004 0.189525 0.9216900000000001 0.357105 1.3645800000000001 0.5605950000000001a0.72219 0.72219 0 0 1 -0.399 1.3965c-1.406475 -0.18753 -3.4054650000000004 -0.021945 -3.229905 -1.48029a22.80285 22.80285 0 0 1 2.6733000000000002 -10.296194999999999 0.71022 0.71022 0 0 1 1.34064 0.4668300000000001 71.095815 71.095815 0 0 1 -1.629915 8.78997l-0.1197 0.5625899999999999Z" fill="#191919" stroke-width="1"></path><path d="M277.18131 105.12054a1.52817 2.084775 0 1 0 3.05634 0 1.52817 2.084775 0 1 0 -3.05634 0Z" fill="#191919" stroke-width="1"></path><path d="M268.35543 183.829275a4.68825 4.68825 0 0 0 -4.335135 0.5426400000000001 3.3915 3.3915 0 0 0 -1.197 2.479785 3.6947400000000004 3.6947400000000004 0 0 0 6.33213 2.6573400000000005 3.537135 3.537135 0 0 0 -0.7999950000000001 -5.679765000000001Z" fill="#191919" stroke-width="1"></path><path d="M271.76289 197.83218000000002a5.859315 5.859315 0 0 0 -6.63936 -4.648350000000001 7.6887300000000005 7.6887300000000005 0 0 0 -4.554585 3.8703000000000003 1.21695 1.21695 0 0 0 1.0872750000000002 1.8513600000000001c2.284275 -0.11371500000000001 2.394 0.177555 9.3765 -0.13566000000000003a0.71421 0.71421 0 0 0 0.73017 -0.93765Z" fill="#191919" stroke-width="1"></path><path d="M229.43896500000002 154.70028c0.47082 -1.3486200000000002 1.653855 -4.420920000000001 2.2922550000000004 -6.248340000000001 4.5466050000000005 -12.993435 5.25483 -18.499635 8.2593 -22.401855 2.140635 -2.7790350000000004 4.60845 -3.2239200000000006 8.55456 -3.5750400000000004a0.724185 0.724185 0 0 0 -0.09775500000000001 -1.44438c-5.985 0.25137000000000004 -9.3765 0.728175 -12.512640000000001 7.325640000000001 -1.0074750000000001 2.1266700000000003 -6.30819 18.794895 -6.922650000000001 21.3465a78.213975 78.213975 0 0 0 -0.947625 4.63638 0.71022 0.71022 0 0 0 1.374555 0.361095Z" fill="#191919" stroke-width="1"></path><path d="M311.90628 202.195245c0.636405 0.528675 1.1371499999999999 1.0773000000000001 1.6917600000000002 0.628425 1.179045 -0.971565 -4.801965 -8.907675 -6.14859 -7.968030000000001 -1.538145 1.05336 3.006465 6.130635 4.45683 7.339605Z" fill="#191919" stroke-width="1"></path><path d="M331.15803 206.10744a15.938055 15.938055 0 0 0 -5.819415 3.4573350000000005 53.922855000000006 53.922855000000006 0 0 0 -5.0014650000000005 -5.386500000000001 0.71022 0.71022 0 0 0 -1.10922 0.8897700000000001 48.324885 48.324885 0 0 0 4.237380000000001 5.927145c-5.883255 4.975530000000001 -12.237330000000002 11.704665 -10.374 19.21584a0.724185 0.724185 0 0 0 1.41645 -0.30324c-0.798 -5.19897 3.5311500000000002 -10.52163 7.32165 -14.178465000000001 5.60595 -5.416425 5.985 -4.45683 10.102680000000001 -8.408925a0.724185 0.724185 0 0 0 -0.7740600000000001 -1.21296Z" fill="#191919" stroke-width="1"></path><path d="M342.555465 186.506565a58.619085 58.619085 0 0 1 4.00995 5.408445c6.23637 9.069270000000001 12.181470000000001 15.612870000000001 7.846335 25.757445a24.52254 24.52254 0 0 1 -6.415920000000001 9.15306 0.72219 0.72219 0 0 0 0.97356 1.06932 26.268165 26.268165 0 0 0 7.495215000000001 -9.294705c4.805955 -10.136595000000002 -0.5167050000000001 -17.857245000000002 -7.20993 -26.878635000000003a37.581810000000004 37.581810000000004 0 0 0 -5.695725 -6.2244 0.712215 0.712215 0 0 0 -1.003485 1.00947Z" fill="#191919" stroke-width="1"></path><path d="M232.842435 200.459595c0.18354 -0.7042349999999999 0.399 -1.3705650000000003 0.57057 -2.07879 0.44488500000000003 -1.8314100000000002 2.4119550000000003 -13.167 2.679285 -15.479205000000002 0.16359 -1.3965 -0.8398950000000001 -1.8174450000000002 -1.42044 -2.6373900000000003a0.72219 0.72219 0 0 0 -1.25286 0.72219c0.27531000000000005 0.6104700000000001 0.8897700000000001 1.242885 0.798 1.5501150000000001a80.71570500000001 80.71570500000001 0 0 0 -2.882775 16.410870000000003c0.013965000000000002 0.4668300000000001 0.049875 0.911715 0.085785 1.37655a0.712215 0.712215 0 0 0 1.4224350000000001 0.13566000000000003Z" fill="#191919" stroke-width="1"></path><path d="M303.93226500000003 144.084885a168.850815 168.850815 0 0 0 -14.473725 16.305135c-1.095255 -0.8897700000000001 -2.1785400000000004 -1.7955 -3.261825 -2.7012300000000002 7.044345000000001 -8.179499999999999 8.861790000000001 -9.506175 17.538045 -19.47918a0.712215 0.712215 0 0 0 -1.00947 -0.9975 164.354085 164.354085 0 0 0 -18.383925 18.938535 60.885405 60.885405 0 0 0 -8.714160000000001 -6.350085 0.71022 0.71022 0 0 0 -0.8398950000000001 1.147125c2.084775 1.78353 2.180535 2.0907600000000004 8.00394 7.038360000000001a152.07885000000002 152.07885000000002 0 0 0 -11.997930000000002 16.74204 0.72219 0.72219 0 0 0 1.197 0.798c3.30372 -4.801965 9.2169 -11.952045 12.632340000000001 -15.989925000000001q2.128665 1.7955 4.283265 3.53514a1.2069750000000001 1.2069750000000001 0 0 0 0.911715 0.257355c0.819945 -0.10573500000000001 0.365085 -0.11371500000000001 5.017425 -5.87328 0.16159500000000002 -0.1995 9.53211 -11.66676 10.164525 -12.390945000000002a0.724185 0.724185 0 0 0 -1.067325 -0.979545Z" fill="#191919" stroke-width="1"></path><path d="M270.64968 149.59108500000002c-0.381045 0.117705 -0.7381500000000001 0.21945 -1.1211900000000001 0.357105a42.210210000000004 42.210210000000004 0 0 0 -7.26579 4.389c-0.07980000000000001 -9.889215 0.22743000000000002 -3.6987300000000003 -0.07581 -14.14854a0.71022 0.71022 0 0 0 -1.41645 -0.09975 69.252435 69.252435 0 0 0 -0.9157050000000001 16.1595c-0.8897700000000001 0.798 -1.310715 1.226925 -1.901235 1.8134550000000003a0.724185 0.724185 0 0 0 0.8817900000000001 1.147125c0.35910000000000003 -0.21147000000000002 0.720195 -0.416955 1.08129 -0.620445a135.53830499999998 135.53830499999998 0 0 0 1.64388 16.692165000000003 0.72219 0.72219 0 0 0 1.4364000000000001 -0.15561c0 -0.1995 -0.6384000000000001 -14.842800000000002 -0.696255 -17.955000000000002 1.2927600000000001 -0.82992 2.423925 -1.609965 3.6867600000000005 -2.4418800000000003a23.85222 23.85222 0 0 0 5.370540000000001 -3.8982300000000003 0.712215 0.712215 0 0 0 -0.708225 -1.238895Z" fill="#191919" stroke-width="1"></path><path d="M169.63684500000002 159.99900000000002a18.21834 18.21834 0 0 1 1.745625 3.8643150000000004c0.8079750000000001 2.603475 0.23142000000000001 4.103715 -0.532665 7.62888A13.524105 13.524105 0 0 0 170.801925 179.55a6.39597 6.39597 0 0 0 4.359075000000001 3.553095 0.72219 0.72219 0 0 0 0.500745 -1.3566000000000003c-3.94611 -1.8174450000000002 -3.4114500000000003 -5.448345 -2.4438750000000002 -9.727620000000002 1.0912650000000002 -4.83588 2.1945 -8.646329999999999 -2.48178 -12.929595a0.712215 0.712215 0 0 0 -1.0992450000000002 0.9097200000000001Z" fill="#191919" stroke-width="1"></path><path d="M163.88326500000002 182.82180000000002a76.753635 76.753635 0 0 0 -9.051315 -3.31569 0.712215 0.712215 0 0 1 0.36907500000000004 -1.374555 76.438425 76.438425 0 0 1 9.921135 2.9466150000000004c0.57855 0.22743000000000002 0.399 0.27331500000000003 2.144625 4.389 5.42241 12.819870000000002 11.63484 26.50956 23.718555 35.25564a26.57739 26.57739 0 0 0 20.90361 5.36256 32.700044999999996 32.700044999999996 0 0 0 14.310135 -5.815425 0.72219 0.72219 0 0 1 0.8957550000000001 1.135155 35.20776 35.20776 0 0 1 -14.85477 6.701205000000001c-24.021795 4.586505 -40.374810000000004 -22.192380000000004 -48.356805 -45.284505Z" fill="#191919" stroke-width="1"></path><path d="m213.68046 191.57187 -2.735145 2.116695c-5.187 -4.460820000000001 -20.199375 -16.82583 -29.789340000000003 -24.091620000000002a0.712215 0.712215 0 0 0 -0.94164 1.067325c0.97755 0.9975 2.882775 2.9925 4.468800000000001 4.418925 3.3915 3.08427 15.229830000000002 12.821865 24.245235 19.461225000000002a10.85679 10.85679 0 0 0 -1.7955 1.633905c-0.798 0.9097200000000001 -1.2648300000000001 1.35261 -0.8957550000000001 1.893255s0.9975 0.22942500000000002 1.685775 -0.049875a31.66065 31.66065 0 0 0 6.69522 -5.352585 0.724185 0.724185 0 0 0 -0.93765 -1.09725Z" fill="#191919" stroke-width="1"></path><path d="M155.59803 172.326105A27.93 27.93 0 0 0 162.2733 174.762a0.72219 0.72219 0 1 0 0.484785 -1.3625850000000002 20.05374 20.05374 0 0 0 -6.763050000000001 -2.4358950000000004c-0.971565 -0.07581 -1.258845 0.9017400000000001 -0.39700500000000005 1.3625850000000002Z" fill="#191919" stroke-width="1"></path><path d="M158.70225 165.84235500000003a15.269730000000001 15.269730000000001 0 0 0 5.35857 2.6713050000000003 0.724185 0.724185 0 1 0 0.616455 -1.30872 18.49365 18.49365 0 0 0 -5.330640000000001 -2.631405c-0.9615900000000001 -0.209475 -1.38852 0.612465 -0.6443850000000001 1.26882Z" fill="#191919" stroke-width="1"></path><path d="M163.25484 161.65884a16.05576 16.05576 0 0 0 4.89972 3.7905 0.72219 0.72219 0 1 0 0.85785 -1.163085 20.04576 20.04576 0 0 0 -4.871790000000001 -3.7346400000000006c-0.899745 -0.412965 -1.48029 0.321195 -0.88578 1.1072250000000001Z" fill="#191919" stroke-width="1"></path><path d="M281.660085 127.53237000000001c-0.285285 0.15162 -0.56658 0.27331500000000003 -0.851865 0.41895a21.79338 21.79338 0 0 1 -6.60744 2.627415c-7.046340000000001 0.23341500000000004 -9.60393 -9.8952 -9.312660000000001 -17.013360000000002 0.27531000000000005 -6.73113 0.22344000000000003 -6.06879 0.616455 -10.374a0.71022 0.71022 0 0 0 -1.3965 -0.241395c-0.07182 0.285285 -0.04389 0.399 -0.1995 0.496755a5.187 5.187 0 0 0 -4.5885 4.007955c-1.143135 4.125660000000001 1.7057250000000002 9.075255000000002 3.1820250000000003 9.318645000000002 0.43092 7.080255 3.577035 15.610875000000002 10.70118 16.003890000000002l0.45685500000000007 8.365034999999999a0.724185 0.724185 0 0 0 1.44837 -0.03391500000000001c-0.011970000000000001 -3.229905 0.189525 -4.97154 0.22543500000000002 -8.396955a11.10417 11.10417 0 0 0 3.233895 -0.943635 12.1695 12.1695 0 0 0 3.99 -3.1161900000000005 0.724185 0.724185 0 0 0 -0.89775 -1.1191950000000002Z" fill="#191919" stroke-width="1"></path><path d="M260.3475 129.142335c-1.258845 -0.1995 -5.125155 -0.12568500000000002 -6.409935000000001 1.02543 -3.6428700000000003 -2.84088 1.2608400000000002 -8.5386 3.3915 -12.319125a6.473775000000001 6.473775000000001 0 0 0 3.7007250000000003 1.1211900000000001 0.72219 0.72219 0 0 0 0.11571000000000001 -1.44039c-3.5511000000000004 -0.676305 -5.803455 -5.47827 -4.788 -9.422385a7.46529 7.46529 0 0 1 2.51769 -3.8124450000000003 0.712215 0.712215 0 0 0 -0.58254 -1.298745c-5.5161750000000005 1.43241 -5.853330000000001 9.775500000000001 -2.21844 13.765500000000001 -4.710195000000001 3.88227 -8.692215000000001 12.58845 -2.9665650000000006 15.191925000000001 0.057855000000000004 3.07629 6.062805000000001 4.023915 8.807925000000001 2.0209349999999997 2.2683150000000003 -1.637895 1.12917 -4.412940000000001 -1.56807 -4.8318900000000005Z" fill="#191919" stroke-width="1"></path><path d="M272.86812000000003 239.134665a5.0014650000000005 5.0014650000000005 0 0 0 -0.16359 7.24185 5.224905000000001 5.224905000000001 0 0 0 7.41741 0.011970000000000001 5.109195000000001 5.109195000000001 0 0 0 -0.081795 -7.3475850000000005 5.885250000000001 5.885250000000001 0 0 0 -7.1720250000000005 0.093765Zm5.623905000000001 1.45635a2.9925 2.9925 0 0 1 -0.081795 4.0857600000000005 2.8588350000000005 2.8588350000000005 0 0 1 -4.019925000000001 0.013965000000000002c-2.6852700000000005 -2.6134500000000003 1.16508 -7.6209 4.111695 -4.09374Z" fill="#191919" stroke-width="1"></path><path d="M285.97527 271.457655a144.38613 144.38613 0 0 0 25.935000000000002 1.8154500000000002 0.724185 0.724185 0 0 0 0.039900000000000005 -1.446375c-8.46678 -0.8458800000000001 -19.130055000000002 -2.37405 -25.91106 -1.7955a0.712215 0.712215 0 0 0 -0.06384000000000001 1.426425Z" fill="#191919" stroke-width="1"></path><path d="M141.283905 159.40050000000002a9.14109 9.14109 0 0 1 2.31021 0.44488500000000003c2.7271650000000003 0.983535 2.9925 3.4373850000000004 1.8354000000000001 6.120660000000001 -1.82343 4.239375 -2.7511050000000004 2.793 -3.591 8.494710000000001 -0.4389 2.97255 -0.72219 6.266295 -2.563575 8.61042a0.72219 0.72219 0 0 1 -1.18503 -0.827925c2.1945 -3.56706 0.44688000000000005 -9.8154 3.29175 -14.070735 0.784035 -1.171065 2.82093 -4.24935 2.152605 -5.500215000000001 -0.25935 -0.484785 -1.0374 -0.6723150000000001 -1.5840300000000003 -0.7680750000000001 -1.3965 -0.241395 -2.012955 -0.015960000000000002 -2.4339 -0.7860300000000001a39.219705 39.219705 0 0 1 -3.7386300000000006 -8.628375 0.712215 0.712215 0 0 1 1.3027350000000002 -0.57456c0.145635 0.26334 4.035885 7.180005 4.2034650000000005 7.48524Z" fill="#191919" stroke-width="1"></path><path d="M133.69093500000002 160.18653a2.80497 1.406475 76.258 1 0 2.73315 -0.6683250000000001 2.80497 1.406475 76.258 1 0 -2.73315 0.6683250000000001Z" fill="#191919" stroke-width="1"></path><path d="M389.003055 141.084405c-0.22743000000000002 -5.187 -2.4438750000000002 -17.801385 -10.01091 -21.406350000000003a12.466755 12.466755 0 0 0 -5.603955000000001 -1.23291c-26.060685000000003 0.843885 -46.38774 -0.98553 -74.239935 1.197a0.712215 0.712215 0 0 0 0.08778 1.42044c20.983410000000003 -0.9296700000000001 49.745325 0.532665 74.223975 -0.1995 3.8443650000000003 -0.117705 9.26478 2.731155 9.633855 7.411425a44.92939500000001 44.92939500000001 0 0 1 -0.9975 8.704185c-1.2349050000000001 7.98 -17.410365000000002 77.6055 -20.598375 89.761035a0.724185 0.724185 0 0 0 1.3965 0.381045c4.389 -15.491175 20.305110000000003 -79.131675 22.409835 -95.10564 2.4937500000000004 6.68724 1.538145 14.763000000000002 0.297255 21.705600000000004 -1.65984 9.34857 -15.419355000000001 68.90330999999999 -18.62133 78.61497 -2.264325 6.864795 -5.09523 12.1695 -10.42986 16.52259 2.6433750000000003 -4.526655000000001 3.83838 -10.3341 4.987500000000001 -15.395415h0.365085a0.724185 0.724185 0 0 0 0 -1.44837c-0.9576 -0.468825 -149.770635 -2.276295 -149.970135 -2.27829a1.197 1.197 0 0 0 -1.197 0.96558c-3.513195 17.3565 2.152605 23.523045000000003 18.437790000000003 24.767924999999998 0.1995 0.013965000000000002 -0.399 0.46284000000000003 46.084500000000006 0.031920000000000004 1.6359 4.909695 2.802975 8.905680000000002 4.788 14.02086 -5.107200000000001 2.04687 -11.172 3.5590800000000002 -16.610370000000003 5.187a1.197 1.197 0 0 0 0.26134500000000005 2.3541c4.406955 0.30723 10.218390000000001 0.9336600000000002 16.041795 1.6239299999999999 24.524535 2.90472 24.00384 3.4154400000000003 24.759945000000002 3.02043 0.1995 -0.10773 15.948030000000001 -7.92414 16.1595 -8.023890000000002 2.663325 -1.30872 2.62143 -4.7141850000000005 1.21695 -7.3435950000000005 -1.913205 -3.549105 -3.6588300000000005 -6.8867400000000005 -5.7855 -10.417890000000002 29.982855 0.608475 29.647695000000002 0.18354 30.723000000000003 0 5.21493 -0.9336600000000002 13.23483 -6.932625000000001 16.70214 -11.788455a43.225665000000006 43.225665000000006 0 0 0 5.5161750000000005 -11.08422c3.99 -11.409405000000001 17.342535 -69.64146000000001 18.89664 -78.91023000000001a68.055435 68.055435 0 0 0 1.0753050000000002 -13.05528Zm-68.8275 126.129885c0.756105 1.5042300000000002 1.1132100000000003 3.876285 -0.41895 4.574535000000001 -2.555595 1.17705 -15.826335 7.553070000000001 -16.02783 7.656810000000001 -9.51216 -1.406475 -23.387385000000002 -3.253845 -33.40428 -4.235385000000001a92.39443500000002 92.39443500000002 0 0 0 11.640825000000001 -4.01793 1.131165 1.131165 0 0 0 0.5985 -1.482285c-1.7635800000000001 -3.9600750000000002 -4.01394 -9.90318 -5.72166 -14.216370000000001 12.470745 -0.08778 25.24074 0.145635 37.506 0.399 2.0149500000000002 3.569055 4.08177 7.826385 5.81742 11.321625000000001Zm26.308065 -13.266750000000002c-3.126165 0.504735 -36.9873 -0.6603450000000001 -57.49789500000001 -0.8398950000000001 -5.70171 -0.049875 -53.94879000000001 0.37705500000000003 -59.632545 -0.057855000000000004 -14.55153 -1.10922 -19.301625 -5.87328 -16.456755 -20.883660000000003 9.937095000000001 0.165585 -41.609715 -0.26334 147.149205 1.29675a70.16016 70.16016 0 0 1 -3.6069600000000004 11.78247c-2.767065 6.16056 -6.00096 8.059800000000001 -9.965025 8.70219Z" fill="#191919" stroke-width="1"></path><path d="M32.221245 263.95047000000005c2.86881 -3.591 6.936615 -12.698175 8.179499999999999 -15.03432a0.724185 0.724185 0 0 0 -1.197 -0.798 51.74232 51.74232 0 0 0 -8.22339 15.162 0.71022 0.71022 0 0 0 1.24089 0.67032Z" fill="#191919" stroke-width="1"></path><path d="M158.11771500000003 309.44046000000003c4.01793 3.48726 7.271775000000001 7.658805 12.369000000000002 10.443825a39.43317 39.43317 0 0 0 42.399735 -2.4837750000000005c6.936615 -4.788 11.788455 -11.032350000000001 17.86722 -16.0398 6.934620000000001 -5.717670000000001 9.388470000000002 -4.933635 8.83386 -6.298215000000001a0.728175 0.728175 0 0 0 -0.943635 -0.399c-11.036340000000001 4.389 -18.172455 14.699160000000001 -27.102075000000003 20.773935a38.066595 38.066595 0 0 1 -39.963840000000005 2.394c-4.3111950000000006 -2.236395 -8.406930000000001 -6.128640000000001 -12.55254 -9.48423a0.712215 0.712215 0 0 0 -0.9077250000000001 1.0932600000000001Z" fill="#191919" stroke-width="1"></path><path d="M232.64293500000002 286.94484a28.62027 28.62027 0 0 1 6.67527 0.798 0.724185 0.724185 0 1 0 0.504735 -1.3566000000000003 10.854795000000001 10.854795000000001 0 0 0 -7.24584 -0.8538600000000001c-1.10922 0.29925 -0.6723150000000001 1.502235 0.065835 1.41246Z" fill="#191919" stroke-width="1"></path><path d="M233.40303 292.67847a31.748430000000003 31.748430000000003 0 0 1 6.042855 -1.04139 0.724185 0.724185 0 0 0 -0.08778 -1.44438 12.726105 12.726105 0 0 0 -6.27627 1.0992450000000002c-1.02543 0.5226900000000001 -0.41895 1.5640800000000001 0.321195 1.386525Z" fill="#191919" stroke-width="1"></path><path d="M242.12916 283.172295c-11.892195000000001 -7.964040000000001 -25.6557 -8.179499999999999 -39.395265 -4.231395a419.54850000000005 419.54850000000005 0 0 1 -5.707695000000001 -7.32165 0.71022 0.71022 0 0 0 -1.18104 0.7880250000000001c2.9925 5.15109 7.638855 12.929595 12.09768 16.851765a0.72219 0.72219 0 0 0 1.1012400000000002 -0.935655c-0.468825 -0.73017 -0.89775 -1.48428 -1.3965 -2.2383900000000003 -0.8598450000000001 -1.3167000000000002 -2.204475 -3.082275 -3.573045 -5.07927a51.616635 51.616635 0 0 1 28.101570000000002 -0.51471c8.321145000000001 2.37006 9.3366 4.9476 10.16253 3.680775a0.73017 0.73017 0 0 0 -0.209475 -0.999495Z" fill="#191919" stroke-width="1"></path><path d="M13.045305 263.84274000000005c-4.833885 8.78997 -4.339125 21.9849 4.21743 28.564410000000002a0.724185 0.724185 0 0 0 0.951615 -1.0892700000000002c-7.100205000000001 -7.07826 -6.61542 -17.254755 -3.85434 -26.9325a0.71022 0.71022 0 0 0 -1.3147050000000002 -0.5426400000000001Z" fill="#191919" stroke-width="1"></path><path d="M324.87777 298.78716000000003c-0.2394 5.568045000000001 -6.2004600000000005 9.697695 -11.269755 12.00192 -5.64186 2.563575 -12.941565 3.9501000000000004 -18.437790000000003 1.13316 -14.206395000000002 -7.281750000000001 5.338620000000001 -30.10056 24.592365 -21.117075000000003a9.194955 9.194955 0 0 1 5.1151800000000005 7.981995000000001Zm-11.47923 -7.99596c-14.431830000000001 -1.1132100000000003 -27.028260000000003 13.875225 -17.123085 18.98043 6.48774 3.3456150000000004 17.08518 -0.34513499999999997 22.7829 -4.841865 5.013435 -3.9560850000000003 5.48625 -9.204930000000001 0.399 -12.478725a13.55403 13.55403 0 0 0 -6.058815 -1.65984Z" fill="#191919" stroke-width="1"></path><path d="M309.78759 295.45351500000004a2.547615 1.78353 0 1 0 5.09523 0 2.547615 1.78353 0 1 0 -5.09523 0Z" fill="#191919" stroke-width="1"></path><path d="M283.0905 284.812185c-13.91313 -2.22243 -22.190385 -2.3760450000000004 -41.41021500000001 -4.327155a0.71022 0.71022 0 0 1 0.121695 -1.41645c7.407435 0.5246850000000001 25.87116 0.73017 42.78477 3.529155a1.21296 1.21296 0 0 1 1.00947 1.3206900000000001c-0.399 4.01793 0.189525 5.49822 -0.798 6.14061 -12.123615000000001 7.960050000000001 -31.49706 19.373445 -33.394305 20.65623a1.04139 1.04139 0 0 1 -1.0593450000000002 0.23541 118.7823 118.7823 0 0 0 -17.374455 -2.92467 0.72219 0.72219 0 0 1 0.16359 -1.4364000000000001 129.0765 129.0765 0 0 1 17.3166 2.26233c3.7605750000000002 -2.567565 25.478145 -15.882195000000001 32.504535 -20.482665 0.045885 -1.0334100000000002 0.073815 -2.6094600000000003 0.13566000000000003 -3.557085Z" fill="#191919" stroke-width="1"></path><path d="M249.72013500000003 301.793625c4.4847600000000005 -1.725675 15.561 -9.526125 27.104070000000004 -14.667240000000001a0.724185 0.724185 0 0 1 0.612465 1.310715c-8.602440000000001 4.24935 -25.65969 16.271220000000003 -27.84222 15.760500000000002 0.1995 0.081795 -7.07427 -0.9975 -7.275765 -1.0374 -2.5935 -0.399 -6.1465950000000005 -1.1052300000000002 -7.325640000000001 -1.282785a0.712215 0.712215 0 0 1 0.11172000000000001 -1.418445 99.404865 99.404865 0 0 1 14.61537 1.3346550000000001Z" fill="#191919" stroke-width="1"></path><path d="M246.81741000000002 287.33586a16.32309 16.32309 0 0 0 4.27329 0.317205c0.9975 -0.04389 1.139145 -1.0992450000000002 0.22543500000000002 -1.430415a14.397915 14.397915 0 0 0 -4.301220000000001 -0.9276750000000001c-0.798 0.09975 -1.14114 0.1995 -1.242885 0.7720650000000001s0.18753 0.94164 1.0453800000000002 1.26882Z" fill="#191919" stroke-width="1"></path><path d="M255.95850000000004 288.167775a9.89919 9.89919 0 0 0 5.81742 0.5985c1.011465 -0.189525 1.1012400000000002 -0.9975 0.21945 -1.430415 -3.999975 -1.981035 -8.390970000000001 -0.35910000000000003 -6.0368699999999995 0.831915Z" fill="#191919" stroke-width="1"></path><path d="M248.523135 292.88196c0.9975 0.023940000000000003 1.230915 -0.9975 0.33117 -1.4084699999999999a9.72363 9.72363 0 0 0 -4.1416200000000005 -1.02942c-0.71022 0.15760500000000002 -1.1032350000000002 0.1995 -1.197 0.7740600000000001 -0.26932500000000004 1.538145 3.4453650000000002 1.62792 5.0074499999999995 1.66383Z" fill="#191919" stroke-width="1"></path><path d="M252.63483000000002 293.737815a4.973535 4.973535 0 0 0 4.2553350000000005 0.7600950000000001c0.827925 -0.15162 1.1132100000000003 -0.798 0.361095 -1.3965 -2.21844 -1.769565 -6.150585 -0.99351 -4.61643 0.636405Z" fill="#191919" stroke-width="1"></path><path d="M127.035615 278.24863500000004a52.416630000000005 52.416630000000005 0 0 0 8.5785 12.590445 77.55363000000001 77.55363000000001 0 0 0 10.72113 10.808910000000001 0.72219 0.72219 0 0 0 0.9975 -1.04139c-11.806410000000001 -12.99942 -12.742065 -15.19392 -19.106115000000003 -23.120055a0.71022 0.71022 0 0 0 -1.191015 0.76209Z" fill="#191919" stroke-width="1"></path><path d="M181.13004 244.81443000000002c-11.144070000000001 -12.087705000000001 -29.218770000000003 -25.705575 -43.03215 -34.69704l-73.36413 1.52817c-20.358975 8.55855 -38.812725 28.716030000000003 -50.860530000000004 46.45956A79.143645 79.143645 0 0 0 29.925 268.20979500000004a137.0565 137.0565 0 0 0 -9.408420000000001 29.966895000000005c-0.520695 2.53764 -0.492765 5.13513 -0.9336600000000002 7.664790000000001l133.607145 3.086265c12.444810000000002 -16.64628 28.175385 -30.75891 43.0122 -45.20271a122.15784000000001 122.15784000000001 0 0 0 -15.072225 -18.910605Zm-121.72492500000001 -24.101595c-15.535065000000001 11.770500000000002 -24.648225000000004 22.126545 -35.80227000000001 34.5135a0.71022 0.71022 0 0 1 -1.1191950000000002 -0.8778c7.5411 -11.050305 20.97144 -24.277155000000004 36.071595 -34.80078a0.72219 0.72219 0 0 1 0.84987 1.16508Z" fill="#14bef0" stroke-width="1"></path><path d="M154.542675 193.062135c-9.260790000000002 3.45933 -17.394405 -2.4139500000000003 -18.7929 -11.339580000000002 -0.68628 -4.3730400000000005 0.12369000000000001 -5.807445 -1.1211900000000001 -6.184500000000001a1.01346 1.01346 0 0 0 -1.1032350000000002 0.357105 5.11119 5.11119 0 0 1 -3.90621 1.809465c-3.8164350000000002 0.065835 -5.043360000000001 -4.043865 -3.026415 -6.932625000000001a4.766055 4.766055 0 0 1 4.5446100000000005 -2.1226800000000003 1.155105 1.155105 0 0 0 0.9975 -0.349125c0.63441 -0.6723150000000001 0.26134500000000005 -0.74214 -1.2768000000000002 -9.123135000000001a138.602625 138.602625 0 0 1 -0.764085 -4.53264 23.60085 23.60085 0 0 0 11.29569 -12.582465000000001 1.197 1.197 0 0 0 -0.15760500000000002 -1.1012400000000002c-3.824415 -5.29074 -6.701205000000001 -10.727115 -12.530595 -14.433825 -11.172 -7.100205000000001 -29.17089 -7.315665 -38.9025 2.2264200000000005a23.1819 23.1819 0 0 0 -4.4289000000000005 6.755070000000001c-6.832875 1.42842 -10.782975 7.838355 -12.065760000000001 14.701155 -3.062325 16.386930000000003 1.96707 38.693025 -9.127125000000001 49.649565a5.0074499999999995 5.0074499999999995 0 0 1 -5.42241 1.7615850000000002 1.179045 1.179045 0 0 0 -1.5740550000000002 1.3965c5.340615000000001 20.6283 34.240185000000004 25.42029 56.3388 19.49115 15.387435000000002 -4.12965 33.494055 -14.296170000000002 41.912955000000004 -28.40481a0.7182000000000001 0.7182000000000001 0 0 0 -0.8897700000000001 -1.04139Zm-75.253395 -16.939545c-0.45087000000000005 2.394 -2.479785 2.394 -2.25435 -0.42693000000000003 0.019950000000000002 -0.23541 0.18354 -2.308215 0.1995 -2.635395 0.13566000000000003 -1.83939 2.27031 -1.7955 2.280285 0.065835a25.8153 25.8153 0 0 1 -0.22543500000000002 2.99649Zm8.452815000000001 -35.750400000000006C78.62295 146.63250000000002 81.396 156.29827500000002 79.813965 166.61043a0.72219 0.72219 0 0 1 -1.44039 -0.121695c0.16957500000000003 -9.318645000000002 -2.2723050000000002 -23.008335 8.70618 -27.37539a0.712215 0.712215 0 0 1 0.66234 1.258845Z" fill="#191919" stroke-width="1"></path><path d="M300.07592999999997 96.33855c2.527665 -5.7436050000000005 -0.9975 -14.008890000000001 -7.227885000000001 -15.712620000000001a14.900655000000002 14.900655000000002 0 0 0 -8.534609999999999 -5.9171700000000005c-11.020380000000001 -2.9925 -22.693125000000002 5.187 -28.1295 15.41337a23.830275 23.830275 0 0 0 -3.118185 8.283240000000001 1.210965 1.210965 0 0 0 0.64239 1.171065c6.783 3.5231700000000004 14.681205 1.65585 21.647745000000004 -1.48428a42.032655 42.032655 0 0 0 5.252835 -2.5935 15.58095 15.58095 0 0 0 8.083739999999999 7.4632950000000005c-2.44986 4.853835 -2.13066 10.55754 1.8493650000000001 14.134575 -0.724185 1.01346 -3.170055 4.301220000000001 -3.07629 5.187a80.256855 80.256855 0 0 0 0.5246850000000001 15.46923 0.724185 0.724185 0 0 0 1.446375 -0.03391500000000001c0.277305 -5.01942 0.26334 -2.94861 0.30523500000000003 -9.01341 0.08778 -8.52663 -0.14763 -5.121165 1.65585 -9.02139a15.385440000000001 15.385440000000001 0 0 0 0.5985 -1.5082200000000001c6.384 3.86631 12.901665 -1.566075 13.314630000000001 -10.603425000000001 0.205485 -4.4308950000000005 -1.22892 -9.316650000000001 -5.23488 -11.233845Zm-19.716585 -17.93505a32.38683 32.38683 0 0 0 -15.670725000000001 8.50269 0.712215 0.712215 0 0 1 -1.1211900000000001 -0.8758050000000001c2.248365 -4.31319 8.512665000000002 -8.752065 16.584435000000003 -9.059295a0.724185 0.724185 0 0 1 0.20748 1.43241Zm22.70709 27.93a14.006895 14.006895 0 0 1 -2.683275 8.528625000000002c-2.571555 3.192 -6.010935 -1.44039 -6.338115 -2.1546000000000003a10.773000000000001 10.773000000000001 0 0 1 0.744135 -10.374c3.684765 -5.775525 8.361045 -4.067805000000001 8.277255 3.999975Z" fill="#191919" stroke-width="1"></path><path d="M278.871075 201.64263c0.10374 -5.488245 0.476805 -12.943560000000002 0.66234 -18.9525a4.063815 4.063815 0 0 0 -3.94212 -4.16157c-6.114675 -0.209475 -11.405415 -0.500745 -17.62782 -0.385035a4.159575 4.159575 0 0 0 -4.075785000000001 3.92217c-0.37506 6.304200000000001 -0.66234 12.382965 -0.62244 18.71709a4.123665000000001 4.123665000000001 0 0 0 3.764565 4.1097c3.86631 0.309225 18.252254999999998 -0.14763 18.88068 -0.165585a2.9925 2.9925 0 0 0 2.96058 -3.08427Zm-1.426425 0a1.446375 1.446375 0 0 1 -1.5221850000000001 1.3965c-14.988435 -0.61446 -16.358999999999998 -0.313215 -18.699135 -0.51471a1.741635 1.741635 0 0 1 -1.55211 -1.74363c-0.03591 -6.174525000000001 0.277305 -12.369000000000002 0.6304200000000001 -18.567465000000002a1.7516100000000001 1.7516100000000001 0 0 1 1.71171 -1.653855c5.446350000000001 -0.117705 11.65479 0.13566000000000003 17.516099999999998 0.25536000000000003a1.8573450000000002 1.8573450000000002 0 0 1 1.82343 1.8473700000000002c-0.015960000000000002 3.8703000000000003 -0.109725 18.958485 0.09177 18.988410000000002Z" fill="#191919" stroke-width="1"></path></svg>