<svg viewBox="-0.5 -0.5 400 400" xmlns="http://www.w3.org/2000/svg" height="400" width="400"><path d="M51.732345 151.75566a1.5501150000000001 1.5501150000000001 0 0 0 1.0453800000000002 2.104725 28.879620000000003 28.879620000000003 0 0 1 5.11119 1.7735550000000002 1.5580950000000002 1.5580950000000002 0 0 0 1.941135 -0.5366550000000001c6.9465900000000005 -10.1745 -2.663325 -35.431200000000004 -20.081670000000003 -34.36188a53.388195 53.388195 0 0 0 -17.031315000000003 5.947095 0.716205 0.716205 0 0 1 -0.798 -1.197c7.934115 -6.23637 17.406375 -6.635370000000001 18.20637 -6.05682 -0.22344000000000003 -0.86583 -1.1172000000000002 -4.55658 -1.326675 -5.53413a1.596 1.596 0 0 0 -1.66383 -1.2488700000000001A35.449155 35.449155 0 0 0 17.474205 120.09900000000002a1.582035 1.582035 0 0 0 -0.5526150000000001 1.596l1.596 6.95856a37.107000000000006 37.107000000000006 0 0 0 -7.259805 19.900125C10.9326 152.180595 14.364 154.66038 16.187430000000003 157.206a39.750375000000005 39.750375000000005 0 0 0 9.177 9.775500000000001c5.16705 3.577035 6.8308800000000005 2.80497 9.450315000000002 2.394a46.30794 46.30794 0 0 0 12.614385000000002 -3.81045 0.72618 0.72618 0 0 1 0.72618 1.258845 23.169930000000004 23.169930000000004 0 0 1 -14.93457 4.27329c1.697745 6.122655 3.8443650000000003 12.111645 5.595975000000001 18.21834 1.47231 5.077275 1.43241 7.824390000000001 4.442865 8.947575 2.9007300000000003 1.0872750000000002 6.621405 -0.69825 9.576 -1.418445 2.695245 -0.65436 5.99697 -1.1511149999999999 6.892725 -4.103715 1.0872750000000002 -3.628905 -1.02942 -8.31915 -2.180535 -11.708655 -2.116695 -6.250335000000001 -3.2039700000000004 -12.530595 -4.987500000000001 -18.964470000000002a1.13316 1.13316 0 0 0 -0.313215 -1.218945 10.7331 10.7331 0 0 1 -2.5316549999999998 -2.822925 1.0453800000000002 1.0453800000000002 0 0 0 -1.64787 -0.30723 16.073715 16.073715 0 1 1 -10.773000000000001 -28.15743 15.942045 15.942045 0 0 1 14.437815 22.194375Z" fill="#14bef0" stroke-width="1"></path><path d="M237.02196000000004 122.86407c-0.46483500000000005 1.218945 -2.88876 4.706205000000001 -2.5017300000000002 8.496705a7.07427 7.07427 0 0 0 3.5750400000000004 5.316675c1.011465 0.9975 2.47779 -0.6583500000000001 1.42842 -1.5760500000000002a8.33112 8.33112 0 0 1 -1.8373950000000001 -4.07379c-0.18753 -1.8054750000000002 0.576555 -2.82891 1.378545 -7.547085a1.067325 1.067325 0 0 0 -2.0428800000000003 -0.616455Z" fill="#191919" stroke-width="1"></path><path d="M258.87519000000003 177.79041c-1.2768000000000002 0.57855 -2.5536000000000003 1.00947 -3.8304 1.470315 -5.903205000000001 2.084775 -9.83136 2.647365 -15.724590000000001 -0.6902699999999999 -11.98596 -6.800955 -14.226345000000002 -26.733 -15.213870000000002 -40.424685000000004a69.5457 69.5457 0 0 1 -0.61446 -13.204905 1.05735 1.05735 0 0 0 -2.092755 -0.313215 70.668885 70.668885 0 0 0 -0.101745 13.659765000000002c0.728175 17.941035000000003 4.3790249999999995 41.154855000000005 22.00485 44.97927 1.2887700000000002 5.564055000000001 2.27031 8.93361 3.8304 14.449785000000002a1.039395 1.039395 0 0 0 1.2748050000000002 0.7860300000000001 1.071315 1.071315 0 0 0 0.7660800000000001 -1.298745c-0.740145 -3.08427 -2.571555 -11.938080000000001 -2.8348950000000004 -13.270740000000002a18.962475 18.962475 0 0 0 9.881235000000002 -1.889265 24.185385 24.185385 0 0 0 3.7266600000000003 -2.394 1.06932 1.06932 0 1 0 -1.071315 -1.8593400000000002Z" fill="#191919" stroke-width="1"></path><path d="M246.11118000000002 109.04869500000001a9.394454999999999 9.394454999999999 0 0 1 2.1945 -1.15311 9.576 9.576 0 0 1 4.953585 -0.5386500000000001 11.728605 11.728605 0 0 1 2.603475 0.45885000000000004 1.1251799999999998 1.1251799999999998 0 0 0 1.48029 -0.45885000000000004 1.1032350000000002 1.1032350000000002 0 0 0 -0.45885000000000004 -1.446375c-6.9825 -4.987500000000001 -14.19243 1.498245 -12.30516 3.253845a1.10922 1.10922 0 0 0 1.5321600000000002 -0.11571000000000001Z" fill="#191919" stroke-width="1"></path><path d="M225.02403 116.06710500000001a15.527085000000001 15.527085000000001 0 0 0 5.51418 -0.955605 1.0733100000000002 1.0733100000000002 0 1 0 0.153615 -2.14263 6.018915 6.018915 0 0 0 -5.0034600000000005 0.16359 6.344100000000001 6.344100000000001 0 0 0 -1.430415 0.94962 1.0633350000000001 1.0633350000000001 0 0 0 0.7660800000000001 1.985025Z" fill="#191919" stroke-width="1"></path><path d="M256.37346 145.37166a187.42227 187.42227 0 0 1 -19.249755 5.52615c0.385035 3.509205 1.159095 7.335615000000001 3.7286550000000003 9.733604999999999a17.97495 17.97495 0 0 1 14.749035000000001 -5.141115 20.460720000000002 20.460720000000002 0 0 0 0.7720650000000001 -10.118640000000001Z" fill="#14bef0" stroke-width="1"></path><path d="M258.05724000000004 143.70184500000002a20.518575000000002 20.518575000000002 0 0 1 0.96957 9.26478c-1.981035 15.96 -20.67219 17.968965 -24.40284 2.236395a32.09157 32.09157 0 0 1 -0.716205 -5.442360000000001 1.5720600000000002 1.5720600000000002 0 0 1 1.2768000000000002 -1.641885c5.771535 -0.9975 15.898155000000001 -3.6448650000000002 21.546000000000003 -5.1191699999999996a1.1132100000000003 1.1132100000000003 0 0 1 1.326675 0.70224Zm-1.68378 1.669815a187.16890500000002 187.16890500000002 0 0 1 -19.249755 5.52615 21.396375 21.396375 0 0 0 1.5840300000000003 6.649335000000001 8.44683 8.44683 0 0 0 14.55153 1.995 17.693655 17.693655 0 0 0 3.114195 -14.170485000000001Z" fill="#191919" stroke-width="1"></path><path d="M203.448105 106.622775c7.24584 2.902725 12.49269 -0.756105 17.338545000000003 -6.840855 5.4663 -6.8628 9.177 -16.045785 21.49413 -15.46923a32.56039500000001 32.56039500000001 0 0 1 14.49966 4.6543350000000006 1.06932 1.06932 0 1 0 1.1231849999999999 -1.8214350000000001 41.59176 41.59176 0 0 0 -8.831865 -4.450845c-8.155560000000001 -2.77704 -16.26723 -1.77156 -22.413825 4.315185 -6.767040000000001 6.701205000000001 -11.938080000000001 21.456225000000003 -22.453725000000002 17.6358a1.0593450000000002 1.0593450000000002 0 0 0 -0.756105 1.9770450000000002Z" fill="#191919" stroke-width="1"></path><path d="M286.083 104.58388500000001a16.28718 16.28718 0 0 0 1.7356500000000001 -10.116645c-1.885275 -12.708150000000002 -14.038815000000001 -13.699665000000001 -22.669185 -18.723075a126.44310000000002 126.44310000000002 0 0 0 -13.121115000000001 -7.581 24.233265000000003 24.233265000000003 0 0 0 -20.676180000000002 0.38304000000000005c-10.144575 5.153085000000001 -10.91265 14.433825 -18.00687 20.83179a10.751055000000001 10.751055000000001 0 0 1 -9.727620000000002 2.818935 1.05735 1.05735 0 0 0 -0.412965 2.0748 12.88371 12.88371 0 0 0 11.784465 -3.014445c7.02639 -5.943105 8.778 -15.479205000000002 17.741535000000002 -19.959975000000004a21.3465 21.3465 0 0 1 18.072705 -0.22743000000000002 129.73684500000002 129.73684500000002 0 0 1 12.768 7.423395c5.05533 2.93664 11.28372 4.410945 15.826335 7.66878a13.47822 13.47822 0 0 1 3.676785 17.925075 1.442385 1.442385 0 0 0 0.30723 1.8553500000000003 17.669715 17.669715 0 0 1 6.50769 17.851260000000003c-4.0279050000000005 -6.358065 -14.9625 -6.783 -15.239805 -5.264805 -0.6842850000000001 3.94212 -1.139145 7.7007 -1.326675 10.112655 -8.911665 -6.541605000000001 -10.9725 -15.191925000000001 -4.95159 -24.959445a1.5840300000000003 1.5840300000000003 0 0 0 -0.6643350000000001 -2.25435c-12.813885 -5.807445 -22.238265000000002 -11.357535 -35.177835 -3.090255 -8.33511 5.484255 -15.838305 22.920555000000004 -26.278140000000004 19.576935000000002a1.0593450000000002 1.0593450000000002 0 0 0 -0.6842850000000001 1.995c12.211395000000001 4.442865 21.3066 -14.338065000000002 28.6482 -18.966465 10.9725 -6.95856 19.138035000000002 -2.6852700000000005 30.581355000000002 2.627415 -6.184500000000001 11.71863 -2.31021 21.76146 9.037350000000002 28.51254a1.326675 1.326675 0 0 0 1.995 -1.0753050000000002 87.398955 87.398955 0 0 1 0.77007 -10.95654 14.0049 14.0049 0 0 1 9.390465 3.25185c4.788 4.279275 1.629915 12.237330000000002 -9.087225 13.605900000000002a1.596 1.596 0 0 0 -1.3805399999999999 1.5461250000000002c-0.09975 11.08422 -4.091745 29.013285 -10.374 37.99677 -0.851865 1.254855 1.657845 9.91515 3.7286550000000003 17.933055000000003a1.0733100000000002 1.0733100000000002 0 0 0 2.092755 -0.476805c-1.214955 -5.75757 -2.56557 -11.393445000000002 -3.166065 -16.24728a64.239 64.239 0 0 0 8.991465 -23.279655 1.083285 1.083285 0 0 0 0.504735 -0.4389 70.41153 70.41153 0 0 0 7.24983 -11.541075000000001 34.314 34.314 0 0 0 2.8867650000000005 -6.651330000000001 10.727115 10.727115 0 0 0 3.61893 -8.83386c3.676785 -7.511175000000001 1.1571 -16.49067 -4.97154 -22.332030000000003Zm-5.258820000000001 38.086545c-0.7660800000000001 1.374555 -2.703225 4.83588 -2.89674 5.196975a74.579085 74.579085 0 0 0 0.700245 -8.05182 22.014825000000002 22.014825000000002 0 0 0 4.424910000000001 -1.3206900000000001c-0.005985000000000001 0.019950000000000002 -1.510215 2.8069650000000004 -2.224425 4.175535Z" fill="#191919" stroke-width="1"></path><path d="M249.20742 123.1314a2.80896 5.360565 0 1 0 5.61792 0 2.80896 5.360565 0 1 0 -5.61792 0Z" fill="#191919" stroke-width="1"></path><path d="M226.741725 129.258045a2.80896 5.360565 0 1 0 5.61792 0 2.80896 5.360565 0 1 0 -5.61792 0Z" fill="#191919" stroke-width="1"></path><path d="M193.860135 224.90832000000003c-10.192455 4.69224 -7.3017 18.020834999999998 -2.57355 16.1595a1.0593450000000002 1.0593450000000002 0 0 1 0.798 1.95909c-8.536605 3.6588300000000005 -13.23084 -17.10513 2.793 -21.841260000000002a1.5740550000000002 1.5740550000000002 0 0 1 2.0109600000000003 1.446375c0.688275 16.871715000000002 4.74012 39.463095 21.468194999999998 36.640170000000005a1.0753050000000002 1.0753050000000002 0 1 1 0.399 2.112705c-18.439785 3.6727950000000003 -23.874165 -17.607870000000002 -24.895605 -36.47658Z" fill="#191919" stroke-width="1"></path><path d="M183.20484 223.58763000000002a25.34847 25.34847 0 0 1 12.514635 -11.39544 1.0733100000000002 1.0733100000000002 0 0 0 -0.5685749999999999 -2.0708100000000003 17.97894 17.97894 0 0 0 -4.758075 1.48029 19.333545 19.333545 0 0 0 -7.407435 6.63936 14.134575 14.134575 0 0 0 -1.7955 4.71618 1.0593450000000002 1.0593450000000002 0 0 0 2.0149500000000002 0.6304200000000001Z" fill="#191919" stroke-width="1"></path><path d="M183.44424 212.01663000000002a20.472690000000004 20.472690000000004 0 0 1 2.655345 -3.4533450000000006A22.1445 22.1445 0 0 1 193.116 203.49c1.3426350000000002 -0.692265 2.6852700000000005 -1.3965 4.115685000000001 -1.9750500000000002a1.0733100000000002 1.0733100000000002 0 0 0 -0.61845 -2.056845 29.611785 29.611785 0 0 0 -4.73214 1.270815 19.551000000000002 19.551000000000002 0 0 0 -8.117655000000001 5.887245 14.71512 14.71512 0 0 0 -2.26233 4.55658 1.0593450000000002 1.0593450000000002 0 0 0 1.94313 0.843885Z" fill="#191919" stroke-width="1"></path><path d="M170.31913500000002 200.15835c7.790475 -3.620925 25.3365 -12.498675 33.609765 -10.683225000000002 6.16056 1.3566000000000003 9.71964 8.708175 12.450795 14.385945000000001 1.981035 4.111695 16.388925 35.880075 18.994395000000004 41.731410000000004a1.055355 1.055355 0 1 0 1.93914 -0.831915c-6.02889 -15.199905000000001 -9.990960000000001 -25.214805 -18.072705 -42.272055 -3.21993 -6.783 -7.2897300000000005 -14.521605000000001 -14.649285 -16.081695 -10.208415 -2.164575 -27.177885 7.910175 -35.185815000000005 11.84232a1.05735 1.05735 0 0 0 0.9137100000000001 1.909215Z" fill="#191919" stroke-width="1"></path><path d="M6.864795 195.96087a28.426755000000004 28.426755000000004 0 0 0 4.7121900000000005 1.717695 41.106975000000006 41.106975000000006 0 0 0 9.91515 1.067325 38.5035 38.5035 0 0 0 4.95159 -0.57456 1.0733100000000002 1.0733100000000002 0 0 0 -0.15760500000000002 -2.140635 156.26037 156.26037 0 0 1 -18.76896 -2.08278 1.05735 1.05735 0 0 0 -0.6523650000000001 2.012955Z" fill="#191919" stroke-width="1"></path><path d="M2.74512 178.48267500000003a27.774390000000004 27.774390000000004 0 0 0 4.43688 3.2119500000000003 35.830200000000005 35.830200000000005 0 0 0 10.276245 3.7146900000000005 34.012755 34.012755 0 0 0 5.442360000000001 0.4389 1.0753050000000002 1.0753050000000002 0 0 0 0.209475 -2.13864 73.769115 73.769115 0 0 1 -19.152 -6.960555 1.0593450000000002 1.0593450000000002 0 0 0 -1.21296 1.7336550000000002Z" fill="#191919" stroke-width="1"></path><path d="M2.248365 160.44189a23.726535000000002 23.726535000000002 0 0 0 3.81444 4.40895A31.902045 31.902045 0 0 0 16.1595 170.50467a49.807170000000006 49.807170000000006 0 0 0 5.5181700000000005 1.3965 1.0733100000000002 1.0733100000000002 0 0 0 0.5985 -2.05884c-1.741635 -0.67032 -3.3915 -1.430415 -5.03538 -2.1585900000000002A41.13291 41.13291 0 0 1 7.98 162.48676500000002a41.059095 41.059095 0 0 1 -4.1097 -3.3915 1.05735 1.05735 0 0 0 -1.621935 1.3466250000000002Z" fill="#191919" stroke-width="1"></path><path d="M8.815904999999999 143.58813a38.633175 38.633175 0 0 0 2.03091 5.985 50.673 50.673 0 0 0 6.66729 10.70916 45.655575000000006 45.655575000000006 0 0 0 4.446855 4.4887500000000005 1.0753050000000002 1.0753050000000002 0 0 0 1.5481200000000002 -1.4902650000000002 114.969855 114.969855 0 0 1 -12.708150000000002 -20.406855 1.055355 1.055355 0 0 0 -1.985025 0.71421Z" fill="#191919" stroke-width="1"></path><path d="M52.931340000000006 153.77859a18.354 18.354 0 0 1 5.12316 2.6054700000000004 13.17897 13.17897 0 0 1 6.184500000000001 9.645825c0.5985 5.073285 -1.995 13.791435000000002 -3.684765 18.611355000000003a1.0733100000000002 1.0733100000000002 0 0 0 2.0109600000000003 0.75012c2.13066 -5.31867 5.715675000000001 -12.135585 4.833885 -19.73055a14.856765000000001 14.856765000000001 0 0 0 -7.846335 -11.63484 19.122075000000002 19.122075000000002 0 0 0 -6.136620000000001 -2.308215 1.05735 1.05735 0 0 0 -0.484785 2.060835Z" fill="#191919" stroke-width="1"></path><path d="M33.37236000000001 208.52538a27.531000000000002 27.531000000000002 0 0 1 -11.267759999999999 -5.332635000000001 1.0593450000000002 1.0593450000000002 0 0 1 1.143135 -1.781535 76.394535 76.394535 0 0 0 11.712645000000002 4.27728 1.566075 1.566075 0 0 1 1.09725 1.027425l2.4159450000000002 7.670775000000001a1.0733100000000002 1.0733100000000002 0 0 1 -1.9551 0.8877750000000001 35.923965 35.923965 0 0 1 -3.146115 -6.749085Z" fill="#191919" stroke-width="1"></path><path d="M251.09868000000003 214.9014a156.445905 156.445905 0 0 1 25.47615 -20.678175000000003c5.25084 -3.33564 11.42337 0.365085 16.9575 1.31271 41.895 7.19796 59.62257 27.100080000000002 75.664365 64.923285 8.432865000000001 19.87818 16.60239 40.277055000000004 21.597870000000004 60.877425a1.0792950000000001 1.0792950000000001 0 0 1 -2.0947500000000003 0.520695c-5.623905000000001 -21.460215 -13.667745 -40.237155 -22.310085 -60.205110000000005 -15.898155000000001 -36.72994500000001 -32.37087 -55.881945 -73.366125 -63.028035 -5.05533 -0.8817900000000001 -10.984470000000002 -4.21344 -14.806890000000001 -1.7955a168.4179 168.4179 0 0 0 -26.752950000000002 21.571935000000003 1.3566000000000003 1.3566000000000003 0 0 1 -2.2463699999999998 -0.53466 104.907075 104.907075 0 0 0 -5.76954 -15.519105000000001 1057.1425199999999 1057.1425199999999 0 0 0 -15.826335 9.04932 1.0633350000000001 1.0633350000000001 0 0 1 -1.1231849999999999 -1.7955c2.22243 -1.4224350000000001 13.398420000000002 -8.089725 16.795905 -9.992955000000002a1.24089 1.24089 0 0 1 1.685775 0.44688000000000005 76.829445 76.829445 0 0 1 6.118665000000001 14.84679Z" fill="#191919" stroke-width="1"></path><path d="M235.62945000000002 227.01703500000002a82.62891 82.62891 0 0 1 11.63883 -7.451325 1.0733100000000002 1.0733100000000002 0 0 1 1.1251799999999998 1.8294150000000002c-1.9152 1.230915 -11.525115000000001 8.5785 -13.27473 9.986970000000001a1.5800400000000001 1.5800400000000001 0 0 1 -2.5536000000000003 -1.175055 86.55507000000001 86.55507000000001 0 0 1 1.2768000000000002 -21.05922 1.06932 1.06932 0 0 1 1.17306 -0.93765 1.02942 1.02942 0 0 1 0.919695 1.16508c-0.06982500000000001 1.673805 -0.420945 13.76151 -0.30523500000000003 17.641785000000002Z" fill="#191919" stroke-width="1"></path><path d="M269.17138500000004 230.488335c6.904695 -7.684740000000001 17.067225 -20.468700000000002 20.77992 -29.946945a1.06533 1.06533 0 1 1 1.995 0.76209c-4.510695 12.666255000000001 -11.602920000000001 21.496125000000003 -21.290640000000003 32.261145a1.5501150000000001 1.5501150000000001 0 0 1 -1.995 0.28728c-6.0867450000000005 -3.768555 -10.99644 -8.133615 -16.847775000000002 -12.384960000000001a1.0593450000000002 1.0593450000000002 0 0 1 1.175055 -1.7635800000000001c7.084245000000001 4.40097 12.347055000000001 8.325135000000001 16.18344 10.78497Z" fill="#191919" stroke-width="1"></path><path d="M249.15754500000003 222.476415a26.74896 26.74896 0 0 0 -0.71421 3.6747900000000002 33.3564 33.3564 0 0 0 0.1995 11.245815 1.0733100000000002 1.0733100000000002 0 0 0 2.144625 -0.09775500000000001 69.902805 69.902805 0 0 0 0.46084500000000006 -14.669235 1.0493700000000001 1.0493700000000001 0 0 0 -2.0907600000000004 -0.153615Z" fill="#191919" stroke-width="1"></path><path d="M330.745065 325.897215c-1.14114 -1.0892700000000002 -2.232405 -2.2344000000000004 -3.3535950000000003 -3.3516 -4.550595 -13.82535 -7.9161600000000005 -25.242735000000003 -14.26026 -39.243645a1.05735 1.05735 0 0 0 -1.378545 -0.5985 1.09725 1.09725 0 0 0 -0.612465 1.3685700000000003c0.764085 2.248365 11.884215000000001 33.8352 12.111645 34.375845000000005 -46.752825 -46.164300000000004 -43.584765000000004 -48.37476 -72.25491000000001 -77.97856500000002a1.6119600000000003 1.6119600000000003 0 0 0 -2.0428800000000003 -0.1995c-13.514130000000002 9.208919999999999 -24.879645 21.871185 -36.34690500000001 33.789315a1.5580950000000002 1.5580950000000002 0 0 0 -0.1995 1.89924c6.184500000000001 10.236345000000002 14.19243 19.495140000000003 21.290640000000003 29.428245 9.51216 13.15104 19.52307 28.08162 29.765400000000003 40.32693a1.055355 1.055355 0 0 0 1.633905 -1.3346550000000001c-12.50466 -15.574965000000002 -23.291625000000003 -33.218745 -33.924974999999996 -47.44708500000001a134.46300000000002 134.46300000000002 0 0 1 9.613905 -9.839340000000002c1.8693150000000003 2.527665 12.618375 16.92558 14.30415 19.313595a1.05735 1.05735 0 0 0 1.48029 0.321195 1.1132100000000003 1.1132100000000003 0 0 0 0.30723 -1.48428 196.074585 196.074585 0 0 0 -13.795425000000002 -20.36895c5.853330000000001 -5.558070000000001 19.85424 -17.6358 21.707595 -19.17594a1.071315 1.071315 0 0 0 -1.326675 -1.6797900000000001 189.21777000000003 189.21777000000003 0 0 0 -22.270185 18.338040000000003c-1.995 -2.6413800000000003 -12.728100000000001 -16.572465 -14.278215000000001 -18.62133a170.394945 170.394945 0 0 1 22.713075 -20.089650000000002c14.08071 14.459760000000001 29.69757 33.442185 44.21319 49.04508 11.53908 12.219375000000001 24.18738 23.828280000000003 35.433195 34.73694a1.0633350000000001 1.0633350000000001 0 0 0 1.470315 -1.5301650000000002Zm-91.83783 -41.31645a83.06781 83.06781 0 0 0 -9.177 10.447815c-4.92366 -6.5455950000000005 -9.71565 -12.768 -14.02086 -19.674690000000002 3.1680600000000005 -3.29574 6.362055000000001 -6.669285 9.615900000000002 -10.014899999999999 5.097225000000001 8.017905 7.71666 11.47923 13.58196 19.241775Z" fill="#191919" stroke-width="1"></path><path d="M237.183555 267.858675a5.35857 5.35857 0 0 0 10.711155 0c-0.185535 -6.447840000000001 -10.527615 -6.43587 -10.711155 0Zm5.386500000000001 -3.162075a3.154095 3.154095 0 0 1 3.0184349999999998 3.162075 2.93265 2.93265 0 0 1 -3.0184349999999998 2.767065 2.9925 2.9925 0 0 1 -3.0603300000000004 -2.767065 3.1481100000000004 3.1481100000000004 0 0 1 3.050355 -3.162075Z" fill="#191919" stroke-width="1"></path><path d="M49.76328 223.557705a5.35857 5.35857 0 0 0 10.711155 0c-0.18354 -6.447840000000001 -10.52562 -6.43587 -10.711155 0Zm5.386500000000001 -3.162075a3.1521000000000003 3.1521000000000003 0 0 1 3.0184349999999998 3.162075 2.9306550000000002 2.9306550000000002 0 0 1 -3.0184349999999998 2.767065 2.9925 2.9925 0 0 1 -3.0603300000000004 -2.767065 3.1481100000000004 3.1481100000000004 0 0 1 3.050355 -3.162075Z" fill="#191919" stroke-width="1"></path><path d="M56.04753 242.991a5.35857 5.35857 0 0 0 10.71315 0c-0.185535 -6.44385 -10.527615 -6.4318800000000005 -10.71315 0Zm5.386500000000001 -3.162075A3.154095 3.154095 0 0 1 64.4385 242.991a2.934645 2.934645 0 0 1 -3.02043 2.767065 2.9925 2.9925 0 0 1 -3.0603300000000004 -2.767065 3.150105 3.150105 0 0 1 3.066315 -3.1580850000000003Z" fill="#191919" stroke-width="1"></path><path d="M251.09469 287.79072a5.35857 5.35857 0 0 0 10.71315 0c-0.185535 -6.447840000000001 -10.527615 -6.43587 -10.71315 0Zm5.376525 -3.162075a3.1560900000000003 3.1560900000000003 0 0 1 3.02043 3.162075 2.93265 2.93265 0 0 1 -3.02043 2.767065 2.9925 2.9925 0 0 1 -3.0603300000000004 -2.767065 3.150105 3.150105 0 0 1 3.0603300000000004 -3.162075Z" fill="#191919" stroke-width="1"></path><path d="M215.920845 348.46465500000005c-3.48726 -8.736105 -7.279755000000001 -17.565975 -10.573500000000001 -26.51754 -6.852825 -18.58941 -5.322660000000001 -18.000885 -6.9825 -24.961440000000003 -1.7955 -7.768530000000001 -3.591 -13.167 -4.27728 -15.477210000000001a1.0593450000000002 1.0593450000000002 0 0 0 -2.07879 0.399 99.24327000000001 99.24327000000001 0 0 0 5.16705 21.4263c-22.32804 10.066770000000002 -62.060460000000006 20.1495 -86.098215 24.863685 -11.467260000000001 2.256345 -21.661710000000003 5.212935 -32.843685 1.52817 -24.221295 -7.98 -29.56191 -43.121925 -39.117960000000004 -70.98409500000001 -1.3306650000000002 -3.880275 -2.5137 -7.872270000000001 -3.61893 -11.808405 3.712695 -2.124675 9.127125000000001 -4.941615 12.95553 -6.848835 6.198465000000001 18.068715 7.108185000000001 19.05225 9.727620000000002 26.150460000000002a1.0733100000000002 1.0733100000000002 0 0 0 2.02692 -0.71022c-4.514685 -14.51163 -5.7855 -17.897145000000002 -8.875755 -26.846715000000003a182.552475 182.552475 0 0 1 27.592845 -10.40592 1.0733100000000002 1.0733100000000002 0 0 0 -0.48678 -2.0907600000000004 104.43226500000002 104.43226500000002 0 0 0 -28.145460000000003 9.47625c-0.6663300000000001 -1.93914 -5.586 -15.84429 -6.401955 -18.11061a337.25475000000006 337.25475000000006 0 0 1 32.700044999999996 -11.463270000000001c3.7905 11.002425 8.03187 20.965455000000002 11.872245 31.550925 1.76757 4.873785000000001 9.422385 28.362915 9.873255 28.211295 5.47827 -1.7077200000000001 75.98556 -26.212305 81.20847 -27.93a1.0733100000000002 1.0733100000000002 0 0 0 -0.62244 -2.05485 538.70586 538.70586 0 0 0 -19.800375000000003 5.915175c-4.365060000000001 1.4084699999999999 -56.94927 20.388900000000003 -59.524815000000004 21.3465 -3.34761 -8.67027 -5.739615 -17.492160000000002 -8.843835 -26.310060000000004 -3.8922450000000004 -11.044319999999999 -8.379000000000001 -21.893130000000003 -11.98197 -32.871615000000006a1.374555 1.374555 0 0 0 -1.69974 -0.88578c-3.9640650000000006 1.17705 -7.926135 2.37405 -11.87025 3.624915 -0.44688000000000005 -2.076795 -1.16907 -6.932625000000001 -3.05235 -6.51168 -2.340135 0.5246850000000001 -0.1995 5.2867500000000005 0.7880250000000001 7.23786a207.53985 207.53985 0 0 0 -35.710499999999996 14.74305 1.538145 1.538145 0 0 0 -0.798 1.45236 33.047175 33.047175 0 0 0 0.9336600000000002 5.6318850000000005c0.049875 0.1995 6.2024550000000005 22.99437 8.778 30.523500000000002 7.84434 22.942500000000003 12.426855000000002 48.83361000000001 26.575395 63.494865000000004 15.535065000000001 16.121595 32.606280000000005 11.253795 48.961290000000005 8.007930000000002 24.86568 -4.95558 62.800605000000004 -14.72709 85.83886500000001 -25.184880000000003 4.02591 14.782950000000001 10.679235 29.194830000000003 16.43481 43.173795a1.05735 1.05735 0 0 0 1.97106 -0.784035Zm-186.33300000000003 -124.08900000000001c3.99 -2.1546000000000003 8.077755000000002 -4.111695 12.223365 -5.92116 1.7955 6.783 2.731155 10.05081 5.6278950000000005 18.647265a105.82278 105.82278 0 0 0 -12.546555 7.654815000000001c-4.4308950000000005 -16.085685 -4.927650000000001 -16.987425 -5.30271 -20.38491Z" fill="#191919" stroke-width="1"></path><path d="M36.36885 143.614065a60.272940000000006 60.272940000000006 0 0 1 4.498725 -5.60196 1.0733100000000002 1.0733100000000002 0 0 1 1.7356500000000001 1.2628350000000002c-0.9097200000000001 1.4902650000000002 -1.741635 3.02043 -2.6653200000000004 4.51668s-1.901235 2.93664 -2.8428750000000003 4.389a1.596 1.596 0 0 1 -2.854845 -0.45486000000000004 82.132155 82.132155 0 0 1 -2.75709 -11.636835000000001 1.0593450000000002 1.0593450000000002 0 0 1 2.0428800000000003 -0.55461 82.271805 82.271805 0 0 1 2.8428750000000003 8.07975Z" fill="#191919" stroke-width="1"></path><path d="M41.24463 192.99430500000003c-1.474305 0.38703000000000004 -3.90621 0.5586000000000001 -4.987500000000001 2.05884a8.07975 8.07975 0 0 0 -0.28129499999999996 5.723655000000001c1.63989 6.79896 5.8014600000000005 6.184500000000001 12.349050000000002 4.09374a102.90409500000001 102.90409500000001 0 0 0 11.533095 -4.16955 11.471250000000001 11.471250000000001 0 0 0 4.642365 -2.6932500000000004c2.072805 -2.5316549999999998 1.46034 -10.874744999999999 -3.28776 -10.447815a8.62638 8.62638 0 0 0 -2.42991 0.6822900000000001 1.0733100000000002 1.0733100000000002 0 0 0 0.7800450000000001 1.995 6.150585 6.150585 0 0 1 1.502235 -0.349125c0.9097200000000001 -0.08778 1.1172000000000002 0.21945 1.3965 0.9975a8.30319 8.30319 0 0 1 0.13765500000000003 4.279275c-0.18354 0.748125 -0.357105 1.0912650000000002 -1.454355 1.64388a130.074 130.074 0 0 1 -18.3141 6.3141750000000005 4.614435 4.614435 0 0 1 -2.44587 -0.177555 1.7516100000000001 1.7516100000000001 0 0 1 -0.648375 -0.71022 10.58946 10.58946 0 0 1 -1.466325 -5.03937c0.021945 -1.051365 -0.03391500000000001 -1.051365 3.549105 -2.16657a1.05735 1.05735 0 0 0 -0.57456 -2.0349Z" fill="#191919" stroke-width="1"></path><path d="M118.54888500000001 101.623305a1.0773000000000001 1.0773000000000001 0 0 0 -0.9975 -0.9017400000000001c-16.015860000000004 -0.82992 -31.34943 -1.929165 -47.241600000000005 -0.468825a0.9975 0.9975 0 0 0 -0.716205 0.399c-0.317205 0.42294000000000004 -9.30069 12.335085000000001 -9.663780000000001 13.599915000000001 -6.597465000000001 2.9226750000000004 -7.040355 0.14763 -11.401425 -1.322685a9.711660000000002 9.711660000000002 0 0 0 -7.7445900000000005 1.13316 0.716205 0.716205 0 0 0 0.540645 1.326675c7.618905000000001 -2.515695 8.209425000000001 1.68378 12.927600000000002 2.1945a9.8154 9.8154 0 0 0 6.50769 -2.072805c4.476780000000001 2.5935 8.90967 5.615925 13.50216 8.48274 0.34114500000000003 0.21147000000000002 32.43471 0.29526 43.963815000000004 0.44289a1.0493700000000001 1.0493700000000001 0 0 0 1.05735 -1.0613400000000002c-0.101745 -7.227885000000001 0.416955 -14.467740000000001 -0.73416 -21.751485000000002Zm-1.3685700000000003 20.714085c-3.99 -0.023940000000000003 -42.339885 0.31920000000000004 -42.339885 0.31920000000000004C70.623 119.8995 66.32178 116.8272 62.044500000000006 114.21375c2.75709 -4.059825000000001 5.961060000000001 -8.179499999999999 8.88972 -11.97 14.918610000000001 -1.24488 30.651180000000004 -0.21346500000000002 45.631635 0.580545a152.85690000000002 152.85690000000002 0 0 1 0.61446 19.513095000000003Z" fill="#191919" stroke-width="1"></path><path d="M79.26534000000001 111.49855500000001c0.061845000000000004 -1.3486200000000002 0.17556 -2.687265 0.28728 -4.0318950000000005a0.728175 0.728175 0 0 1 1.454355 0.037905l0.29127 6.89871a1.0453800000000002 1.0453800000000002 0 0 1 -1.8373950000000001 0.69825 98.32557000000001 98.32557000000001 0 0 1 -3.4054650000000004 -4.189500000000001l-0.38304000000000005 4.929645000000001a0.716205 0.716205 0 0 1 -1.430415 0.023940000000000003 56.259 56.259 0 0 1 -0.085785 -7.818405 1.0613400000000002 1.0613400000000002 0 0 1 1.889265 -0.5985Z" fill="#191919" stroke-width="1"></path><path d="M90.814395 109.89657c0.62244 4.147605 -3.2658150000000004 7.7805 -5.933130000000001 5.2288950000000005a5.386500000000001 5.386500000000001 0 0 1 2.33415 -8.5785 3.509205 3.509205 0 0 1 3.59898 3.3496050000000004Zm-3.221925 -1.94313c-2.80896 1.5341550000000002 -2.13066 5.985 -0.6683250000000001 5.84934 1.3346550000000001 -0.129675 3.192 -3.596985 0.6683250000000001 -5.84934Z" fill="#191919" stroke-width="1"></path><path d="M101.04076500000001 106.215795c3.0463649999999998 -0.1995 3.5231700000000004 4.686255000000001 2.3022299999999998 7.55706 -1.0473750000000002 2.4678150000000003 -3.6269100000000005 3.764565 -5.655825 2.05086a3.81843 3.81843 0 0 1 -1.3486200000000002 -2.88477c0.09576000000000001 -5.252835 3.82641 -7.840350000000001 4.702215000000001 -6.72315Zm-2.5935 6.72315a1.68777 1.68777 0 0 0 0.61845 1.24089c1.0194450000000002 0.847875 2.124675 -0.508725 2.54163 -1.78353a6.4897350000000005 6.4897350000000005 0 0 0 0.015960000000000002 -4.3111950000000006c-0.9316650000000001 -1.22493 -3.229905 0.297255 -3.1760400000000004 4.853835Z" fill="#191919" stroke-width="1"></path><path d="M107.45868 106.957935a30.607290000000003 30.607290000000003 0 0 0 -0.69426 8.56254 0.728175 0.728175 0 0 0 1.44438 0.173565 19.361475000000002 19.361475000000002 0 0 0 0.6802950000000001 -8.696205 0.716205 0.716205 0 0 0 -1.430415 -0.039900000000000005Z" fill="#191919" stroke-width="1"></path><path d="M92.69967000000001 111.73995000000001c0.43092 0.23541 0.37905 0.34314 1.055355 0.309225s0.6304200000000001 -0.16758 0.98553 -0.36907500000000004a0.728175 0.728175 0 0 0 0.015960000000000002 -1.454355 1.3965 1.3965 0 0 0 -1.0932600000000001 -0.32718 1.25685 1.25685 0 0 0 -1.02543 0.399 0.716205 0.716205 0 0 0 0.061845000000000004 1.442385Z" fill="#191919" stroke-width="1"></path><path d="M59.221575 59.716335c37.02520500000001 -2.8588350000000005 118.44714 -3.740625 155.576085 -5.356575a0.5985 0.5985 0 0 0 0.5625899999999999 -0.5985 0.628425 0.628425 0 0 0 -0.61446 -0.5586000000000001c-8.718150000000001 0.313215 -121.42368 3.002475 -127.64209500000001 3.3516 -9.342585 0.5246850000000001 -18.663225 1.238895 -27.97389 2.024925a0.572565 0.572565 0 0 0 0.09177 1.1371499999999999Z" fill="#191919" stroke-width="1"></path><path d="M270.907035 55.159755000000004c30.768885 -2.793 95.85177 -4.610445 115.181325 -4.91568a0.58254 0.58254 0 1 0 0 -1.163085c-42.91245000000001 0.31920000000000004 -72.86937 0.676305 -115.28307000000001 4.937625000000001a0.572565 0.572565 0 0 0 0.101745 1.14114Z" fill="#191919" stroke-width="1"></path><path d="M100.25473500000001 150.265395a142.018065 142.018065 0 0 0 24.538500000000003 -0.88578c17.514105 -1.649865 8.738100000000001 -0.66234 84.98700000000001 -3.3117a0.58254 0.58254 0 0 0 -0.03591 -1.163085c-70.35367500000001 1.7955 -68.582115 1.1172000000000002 -85.10869500000001 2.86083a151.62 151.62 0 0 1 -24.291120000000003 1.3566000000000003 0.572565 0.572565 0 0 0 -0.08977500000000001 1.143135Z" fill="#191919" stroke-width="1"></path><path d="M301.183155 144.248475c21.184905 -1.0753050000000002 66.650955 0.09775500000000001 95.21935500000001 0a0.58254 0.58254 0 1 0 0 -1.16508c-36.48057000000001 -0.29127 -59.33928 -2.40996 -95.3211 0.015960000000000002a0.57456 0.57456 0 0 0 0.101745 1.14912Z" fill="#191919" stroke-width="1"></path><path d="M120.523935 222.78165c-0.17157 -6.22041 0.1995 -14.763000000000002 0.077805 -19.086165a0.572565 0.572565 0 0 1 1.14513 -0.05187c0.5685749999999999 10.884720000000002 0.285285 15.237810000000001 0.512715 19.999875000000003a0.84189 0.84189 0 0 1 -0.253365 0.640395c-0.399 0.399 -0.4389 0.177555 -3.64686 0.18753 -7.03437 0.023940000000000003 -7.279755000000001 0.293265 -7.738605000000001 -0.1995 -0.357105 -0.37905 -0.1995 -0.26134500000000005 -0.09975 -4.526655000000001 0.38703000000000004 -16.05576 -0.16359 -16.293165000000002 0.831915 -16.28319a0.58254 0.58254 0 0 1 0.57456 0.5985c-0.013965000000000002 6.082755000000001 0.47481 10.244325 0.1995 18.786915 2.8329 -0.005985000000000001 5.5221599999999995 -0.15960000000000002 8.396955 -0.065835Z" fill="#14bef0" stroke-width="1"></path><path d="M166.47277499999998 128.96478000000002c-0.16957500000000003 -6.22041 0.1995 -14.763000000000002 0.077805 -19.086165a0.57456 0.57456 0 0 1 1.147125 -0.053865c0.56658 10.884720000000002 0.28329 15.239805 0.512715 19.999875000000003a0.843885 0.843885 0 0 1 -0.253365 0.64239c-0.399 0.399 -0.4389 0.177555 -3.648855 0.18753 -7.03437 0.021945 -7.279755000000001 0.293265 -7.736610000000001 -0.1995 -0.357105 -0.37905 -0.1995 -0.26134500000000005 -0.09975 -4.526655000000001 0.38703000000000004 -16.05576 -0.165585 -16.293165000000002 0.82992 -16.28319a0.584535 0.584535 0 0 1 0.576555 0.5985c-0.015960000000000002 6.082755000000001 0.47481 10.244325 0.1995 18.786915 2.8309050000000004 -0.0039900000000000005 5.5221599999999995 -0.153615 8.394960000000001 -0.065835Z" fill="#14bef0" stroke-width="1"></path><path d="M318.97656 130.81614000000002c-0.16957500000000003 -6.222405000000001 0.1995 -14.763000000000002 0.077805 -19.088160000000002a0.572565 0.572565 0 0 1 1.14513 -0.05187c0.5685749999999999 10.884720000000002 0.285285 15.239805 0.51471 19.999875000000003a0.8458800000000001 0.8458800000000001 0 0 1 -0.25536000000000003 0.64239c-0.399 0.399 -0.4389 0.17556 -3.64686 0.185535 -7.03437 0.023940000000000003 -7.279755000000001 0.293265 -7.738605000000001 -0.1995 -0.357105 -0.37905 -0.1995 -0.26134500000000005 -0.09975 -4.526655000000001 0.389025 -16.057755 -0.16359 -16.29516 0.831915 -16.28319a0.580545 0.580545 0 0 1 0.57456 0.58653c-0.013965000000000002 6.08475 0.47481 10.24632 0.1995 18.788909999999998 2.8348950000000004 0.0019950000000000002 5.524155 -0.14763 8.396955 -0.053865Z" fill="#14bef0" stroke-width="1"></path><path d="M113.65315500000001 161.87031000000002c0.756105 9.238845000000001 0.532665 13.566 0.86982 19.892145000000003a0.58254 0.58254 0 0 1 -1.163085 0.06982500000000001c-1.669815 -22.649235 -1.570065 -21.045255 -1.2748050000000002 -21.370440000000002 0.399 -0.42693000000000003 0.48678 -0.18354 3.2458650000000002 -0.399 5.651835000000001 -0.46483500000000005 6.296220000000001 -0.979545 6.868785000000001 -0.45685500000000007a0.85785 0.85785 0 0 1 0.28329 0.6384000000000001c-0.019950000000000002 2.0987400000000003 -0.009975000000000001 18.10263 0.057855000000000004 21.045255a0.572565 0.572565 0 0 1 -1.14513 0.03591c-0.30523500000000003 -6.880755 -0.636405 -9.3765 -0.628425 -20.135535 -2.3800350000000003 0.253365 -4.640370000000001 0.604485 -7.11417 0.6802950000000001Z" fill="#14bef0" stroke-width="1"></path><path d="M159.60000000000002 68.05344000000001c0.7541100000000001 9.238845000000001 0.5306700000000001 13.566 0.8678250000000001 19.892145000000003a0.58254 0.58254 0 0 1 -1.16109 0.06982500000000001c-1.67181 -22.649235 -1.5720600000000002 -21.045255 -1.2748050000000002 -21.372435 0.38703000000000004 -0.424935 0.484785 -0.181545 3.2458650000000002 -0.399 5.64984 -0.46483500000000005 6.296220000000001 -0.97755 6.866790000000001 -0.45486000000000004a0.85785 0.85785 0 0 1 0.28329 0.6384000000000001c-0.017955 2.0987400000000003 0 18.10263 0.057855000000000004 21.04326a0.572565 0.572565 0 0 1 -1.14513 0.037905c-0.30324 -6.880755 -0.636405 -9.3765 -0.62643 -20.135535 -2.3760450000000004 0.257355 -4.638375000000001 0.59451 -7.11417 0.6802950000000001Z" fill="#14bef0" stroke-width="1"></path><path d="M312.10578 69.90480000000001c0.756105 9.238845000000001 0.532665 13.566 0.86982 19.892145000000003a0.58254 0.58254 0 0 1 -1.163085 0.06982500000000001c-1.669815 -22.649235 -1.570065 -21.045255 -1.27281 -21.372435 0.38703000000000004 -0.42693000000000003 0.484785 -0.181545 3.24387 -0.399 5.651835000000001 -0.46483500000000005 6.296220000000001 -0.979545 6.868785000000001 -0.45486000000000004a0.85785 0.85785 0 0 1 0.28329 0.6384000000000001c-0.017955 2.0987400000000003 0 18.100635 0.057855000000000004 21.04326a0.572565 0.572565 0 0 1 -1.14513 0.03591c-0.30324 -6.878760000000001 -0.636405 -9.3765 -0.62643 -20.133540000000004 -2.38203 0.253365 -4.642365 0.600495 -7.1161650000000005 0.6802950000000001Z" fill="#14bef0" stroke-width="1"></path><path d="M116.61573000000001 182.62629a8.80593 8.80593 0 0 0 -9.28473 8.43087 9.302685 9.302685 0 0 0 18.567465000000002 0 8.807925000000001 8.807925000000001 0 0 0 -9.282734999999999 -8.43087Zm0 1.155105a7.535115 7.535115 0 0 1 7.638855 7.275765 7.670775000000001 7.670775000000001 0 0 1 -15.2817 0 7.531125 7.531125 0 0 1 7.642845 -7.275765Z" fill="#14bef0" stroke-width="1"></path><path d="M162.546615 88.81141500000001a8.809920000000002 8.809920000000002 0 0 0 -9.282734999999999 8.43087 9.302685 9.302685 0 0 0 18.56946 0 8.809920000000002 8.809920000000002 0 0 0 -9.286725 -8.43087Zm0 1.155105a7.53312 7.53312 0 0 1 7.63686 7.275765 7.66878 7.66878 0 0 1 -15.279705 0 7.531125 7.531125 0 0 1 7.642845 -7.267785Z" fill="#14bef0" stroke-width="1"></path><path d="M315.04840500000006 90.66277500000001a8.80593 8.80593 0 0 0 -9.282734999999999 8.428875 9.302685 9.302685 0 0 0 18.56946 0 8.809920000000002 8.809920000000002 0 0 0 -9.286725 -8.428875Zm0 1.15311a7.53711 7.53711 0 0 1 7.63686 7.275765 7.66878 7.66878 0 0 1 -15.279705 0 7.53312 7.53312 0 0 1 7.642845 -7.275765Z" fill="#14bef0" stroke-width="1"></path><path d="M164.605455 192.50553000000002c-2.8069650000000004 -3.99 -3.4992300000000003 -9.564029999999999 0.41895 -12.1695 5.985 -3.99 19.213845000000003 0.7600950000000001 12.369000000000002 10.35006a0.580545 0.580545 0 0 0 0.939645 0.6842850000000001c5.15907 -6.916665000000001 1.322685 -12.630345000000002 -5.60994 -13.915125 -9.837345000000001 -1.825425 -15.995910000000002 6.517665 -9.043335 15.724590000000001a0.57456 0.57456 0 0 0 0.9256800000000001 -0.6743100000000001Z" fill="#14bef0" stroke-width="1"></path><path d="M167.23087500000003 157.471335c0.2394 10.008915000000002 -0.021945 13.264755000000001 0 18.998385a0.57456 0.57456 0 0 1 -1.14912 0.019950000000000002c-0.5985 -21.364455 -0.798 -20.16147 -0.317205 -20.59638s0.49476000000000003 -0.11371500000000001 3.4673100000000003 -0.03591c6.04884 0.15960000000000002 6.783 -0.31122 7.315665 0.289275 0.468825 0.528675 0.015960000000000002 0.011970000000000001 -0.321195 8.74209a106.610805 106.610805 0 0 1 -0.847875 11.317635000000001 0.580545 0.580545 0 0 1 -1.15311 -0.14364c0.5167050000000001 -4.47279 0.165585 -12.674235 0.73416 -18.50562 -2.5815300000000003 0 -5.185005 0.12568500000000002 -7.728630000000001 -0.085785Z" fill="#14bef0" stroke-width="1"></path><path d="M173.166 220.09239000000002c0.081795 -0.8897700000000001 0.6643350000000001 -6.10869 0.847875 -7.834365000000001a0.580545 0.580545 0 0 1 1.1571 0.09775500000000001l-0.448875 8.636355a0.81396 0.81396 0 0 1 -0.84189 0.76209c-6.302205 -0.21546 -8.891715 0.97356 -8.92962 -0.55461 -0.22543500000000002 -9.177 -0.648375 -8.285235 -0.285285 -18.531555a0.572565 0.572565 0 0 1 1.143135 0.025935c-0.019950000000000002 2.37804 0.696255 13.765500000000001 0.82593 17.56797 2.248365 -0.13965000000000002 4.291245 -0.2394 6.531630000000001 -0.16957500000000003Z" fill="#14bef0" stroke-width="1"></path><path d="M106.3335 96.41037c2.86881 -2.8628250000000004 8.221395000000001 -4.51269 11.435340000000002 -1.645875 2.40597 2.1466200000000004 1.68378 4.263315 2.8069650000000004 4.023915a0.5985 0.5985 0 0 0 0.45087000000000005 -0.6902699999999999c-1.5720600000000002 -8.44284 -11.08821 -8.179499999999999 -15.561 -2.44587a0.572565 0.572565 0 0 0 0.8678250000000001 0.7581Z" fill="#14bef0" stroke-width="1"></path><path d="M109.108545 88.977c-0.039900000000000005 -2.683275 0.13965000000000002 -7.531125 0.31122 -10.54557 0.15960000000000002 -2.78103 -0.45885000000000004 -7.381500000000001 1.0214400000000001 -9.821385000000001a3.509205 3.509205 0 0 1 6.184500000000001 0.724185c2.08278 5.40645 0.5187 13.081215000000002 0.16758 19.385415000000002a0.580545 0.580545 0 0 0 1.159095 0.077805c0.44688000000000005 -5.935125 2.6972400000000003 -13.641810000000001 0.27132000000000006 -20.071695000000002a5.21493 5.21493 0 0 0 -9.2568 -0.9975c-1.7755500000000002 2.9466150000000004 -1.055355 7.581 -1.15311 10.63734 -0.14763 4.5885 0.065835 8.11167 0.14763 10.643325a0.572565 0.572565 0 0 0 1.147125 -0.031920000000000004Z" fill="#14bef0" stroke-width="1"></path><path d="M366.63711 91.444815c5.739615 2.124675 7.01043 8.01192 4.389 13.167 -4.762065000000001 9.3765 -16.971465000000002 7.2358649999999995 -18.072705 -2.9186850000000004 -0.835905 -7.6348650000000005 5.304705 -13.352535 13.683705000000002 -10.248315Zm-12.047805 10.044825000000001c1.16508 8.5785 10.916640000000001 10.11066 14.9625 2.344125 2.220435 -4.2673049999999995 1.406475 -9.11715 -3.421425 -11.10816 -7.375515000000001 -3.042375 -12.428850000000002 2.236395 -11.541075000000001 8.764035Z" fill="#14bef0" stroke-width="1"></path><path d="M356.27308500000004 89.677245c1.2369 -13.67373 -0.21147000000000002 -16.57845 1.071315 -19.082175 1.131165 -2.731155 9.30468 -3.2119500000000003 10.773000000000001 -0.44089500000000004 2.7511050000000004 5.187 1.4643300000000001 14.25627 1.1231849999999999 20.215335 -0.11571000000000001 0.728175 1.0453800000000002 0.9077250000000001 1.175055 0.09775500000000001 0.6523650000000001 -6.61542 2.28228 -15.092175000000001 -0.7660800000000001 -21.105105000000002 -2.0488649999999997 -4.041869999999999 -12.059775 -3.561075 -13.835325 0.504735 -1.055355 2.02692 -0.6603450000000001 4.855830000000001 -0.612465 7.144095 0.049875 2.44986 0.12768000000000002 8.80194 -0.101745 12.5685a0.5985 0.5985 0 0 0 1.17306 0.09775500000000001Z" fill="#14bef0" stroke-width="1"></path><path d="M367.1997 132.398175a24.538500000000003 24.538500000000003 0 0 0 0.5107200000000001 -11.770500000000002c-1.1191950000000002 -8.5785 -1.5341550000000002 -9.45231 -0.5625899999999999 -9.536100000000001a0.5586000000000001 0.5586000000000001 0 0 1 0.612465 0.5306700000000001c0.61845 6.471780000000001 3.604965 14.938560000000003 1.0214400000000001 21.416325 -1.3167000000000002 3.29973 -6.998460000000001 2.527665 -10.31415 1.05735 -3.48726 -1.5481200000000002 -2.499735 -2.5775400000000004 -2.499735 -6.653325000000001 0 -1.254855 -0.12768000000000002 -7.581 -0.10374 -9.47226 0.093765 -6.872775 0.13765500000000003 -6.922650000000001 0.7660800000000001 -6.89472a0.5985 0.5985 0 0 1 0.5625899999999999 0.5985c-0.07980000000000001 4.83588 0.399 11.736585 0.45885000000000004 15.734565 0 0.37107 -0.101745 1.701735 -0.101745 2.86881 0 0.57057 -0.153615 1.47231 0.101745 1.3585950000000002 0 -0.021945 0 -0.047880000000000006 -0.05187 -0.07182 0.9955050000000001 1.40448 8.59446 3.3974850000000005 9.599940000000002 0.83391Z" fill="#14bef0" stroke-width="1"></path><path d="M364.237125 167.66578500000003a16.05576 16.05576 0 0 0 -2.2962450000000003 -0.93765 0.584535 0.584535 0 0 1 0.357105 -1.111215c16.127580000000002 4.807950000000001 9.27276 26.1345 -3.99 22.607340000000004 -14.170485000000001 -3.764565 -7.8024450000000005 -23.898105 5.92914 -20.558475Zm1.1231849999999999 0.648375c0 0.46284000000000003 -0.32718 0.75012 -0.71421 0.6463800000000001 -12.349050000000002 -3.3256650000000003 -18.048765000000003 14.364 -5.923155 17.59989 10.140585000000002 2.6972400000000003 16.001895 -12.111645 6.637365 -18.246270000000003Z" fill="#14bef0" stroke-width="1"></path><path d="M321.69774 169.63684500000002a0.6244350000000001 0.6244350000000001 0 0 0 0.520695 -0.51471c0.84189 -5.933130000000001 1.9371450000000001 -16.003890000000002 -1.7356500000000001 -20.694135 -1.135155 -1.44837 -4.476780000000001 -0.5985 -6.28026 -0.1995 -5.386500000000001 1.258845 -6.5835 4.550595 -6.278265 9.729615 0.15162 2.0947500000000003 0.5605950000000001 4.35309 0.66234 6.597465000000001a0.5985 0.5985 0 0 0 1.175055 -0.025935c0 -7.0603050000000005 -2.2922550000000004 -13.041315 4.849845 -14.63133a13.965 13.965 0 0 1 4.0857600000000005 -0.53466c0.047880000000000006 0 0.399 0.057855000000000004 0.399 0.10773 3.2239200000000006 4.189500000000001 2.33415 14.296170000000002 1.941135 19.52307a11.806410000000001 11.806410000000001 0 0 0 -5.412435 -2.659335c-12.147555000000002 -2.6373900000000003 -14.078715 15.379455 -3.062325 18.298140000000004a0.580545 0.580545 0 0 0 0.357105 -1.1032350000000002c-9.089220000000001 -2.78103 -7.477260000000001 -17.715600000000002 2.2962450000000003 -15.51312 11.571 2.5017300000000002 7.926135 17.733555 -1.22493 15.898155000000001a0.58254 0.58254 0 1 0 -0.25536000000000003 1.1371499999999999c8.704185 2.0628300000000004 13.6857 -9.165030000000002 7.962045000000001 -15.415365000000001Z" fill="#14bef0" stroke-width="1"></path><path d="M309.250935 188.06067000000002a16.9575 16.9575 0 0 0 0.101745 7.427385 0.5985 0.5985 0 0 0 1.175055 -0.093765 31.73646 31.73646 0 0 0 -0.153615 -7.31367c0.11371500000000001 -0.700245 -1.1231849999999999 -0.83391 -1.1231849999999999 -0.019950000000000002Z" fill="#14bef0" stroke-width="1"></path><path d="M321.65784 190.15941a30.078615000000003 30.078615000000003 0 0 0 -0.5625899999999999 9.177c-0.11571000000000001 0.728175 1.055355 0.8877750000000001 1.175055 0.07980000000000001a33.87111 33.87111 0 0 0 0.5625899999999999 -8.037855c0 -0.36708 -0.05187 -0.72618 -0.05187 -1.095255 0.121695 -0.7581 -1.1231849999999999 -0.8678250000000001 -1.1231849999999999 -0.12369000000000001Z" fill="#14bef0" stroke-width="1"></path><path d="M353.26063500000004 154.426965c0 0.23142000000000001 -0.16159500000000002 2.495745 -0.049875 6.635370000000001 0.08977500000000001 3.421425 0.1995 6.844845 0.1995 7.152075a0.5625899999999999 0.5625899999999999 0 1 1 -1.1231849999999999 0.08379 98.116095 98.116095 0 0 1 -0.6643350000000001 -14.250285 1.4763000000000002 1.4763000000000002 0 0 1 0.357105 -0.7182000000000001c3.8563350000000005 -3.740625 11.447310000000002 -3.42741 16.797900000000002 -2.695245a0.798 0.798 0 0 1 0.71421 0.883785c-0.049875 1.12917 -0.71421 12.231345000000001 -0.815955 14.118615 0 0.82194 -1.2369 0.700245 -1.1231849999999999 -0.013965000000000002 -0.11571000000000001 -5.386500000000001 0.021945 -8.604435 0.25536000000000003 -13.426350000000001 -4.468800000000001 -0.5446350000000001 -11.158035 -0.7381500000000001 -14.54754 2.2304100000000004Z" fill="#14bef0" stroke-width="1"></path><path d="M355.251645 208.44159000000002a3.6588300000000005 3.6588300000000005 0 0 0 0.971565 0.6244350000000001 24.903585000000003 24.903585000000003 0 0 0 5.717670000000001 2.008965c0.8458800000000001 0.18753 3.591 0.67032 4.0837650000000005 -0.03391500000000001 3.16407 -4.44486 1.641885 -14.25228 1.378545 -20.22132 -0.121695 -0.7660800000000001 1.1231849999999999 -0.835905 1.1231849999999999 -0.07980000000000001 0.5306700000000001 6.310185 2.647365 15.592920000000001 -1.071315 21.254730000000002 -1.7216850000000001 2.62143 -9.34059 0.05187 -12.049800000000001 -1.42842 -1.54014 -0.84189 -1.781535 -1.3047300000000002 -1.93914 -2.51769a105.034755 105.034755 0 0 1 0.508725 -15.734565 0.5985 0.5985 0 0 1 1.175055 0.109725c-0.153615 1.41246 -0.34114500000000003 12.418875 -0.049875 15.108135 0.039900000000000005 0.38304000000000005 0.15162 0.82194 0.15162 0.9097200000000001Z" fill="#14bef0" stroke-width="1"></path></svg>