<svg viewBox="-0.5 -0.5 400 400" xmlns="http://www.w3.org/2000/svg" height="400" width="400"><path d="M253.24530000000001 198.94140000000002H180.90261c-12.428850000000002 0 -14.298165000000001 15.259755 -0.97755 15.44529s71.25342 0.65037 73.32024000000001 0.65037c1.2887700000000002 0 0.8079750000000001 -16.09566 0 -16.09566Z" fill="#14bef0" stroke-width="1"></path><path d="M321.62392500000004 160.91470500000003a13.42236 13.42236 0 0 0 -12.315135000000001 -13.322610000000001c-7.581 -0.708225 -173.028345 -0.31122 -181.77841500000002 0s-12.857775000000002 6.24435 -13.22286 11.53908c-0.257355 3.7226700000000004 -0.5526150000000001 14.02884 1.0613400000000002 14.02884 4.8279000000000005 0 203.42416500000002 0.5027400000000001 205.77427500000002 0.5386500000000001 1.38453 0.019950000000000002 0.48079500000000003 -11.379480000000001 0.48079500000000003 -12.783960000000002ZM282.154845 166.5825c-7.900200000000001 0 -8.622390000000001 -12.3291 -0.4389 -12.3291a6.184500000000001 6.184500000000001 0 1 1 0.4389 12.3291Zm20.981415 0a6.184500000000001 6.184500000000001 0 1 1 -0.452865 -12.3291c8.137605 -0.005985000000000001 8.847825 12.3291 0.452865 12.3291Z" fill="#14bef0" stroke-width="1"></path><path d="M320.97355500000003 219.08691000000002a234.77758500000002 234.77758500000002 0 0 0 0.33915000000000006 -41.0571c-0.13765500000000003 -1.741635 -2.82891 -1.414455 -2.6892600000000004 0.32718 0.9137100000000001 11.323620000000002 1.197 34.740930000000006 -1.0613400000000002 46.284s-10.533600000000002 10.066770000000002 -19.664715 10.1745l-156.74715 1.83939c-28.011795000000003 0.32718 -24.456705000000003 -1.3965 -24.78987 -58.128315 0 -1.2468750000000002 -2.120685 -1.2748050000000002 -2.1945 0 -0.44089500000000004 7.7445900000000005 -0.776055 39.42718500000001 0.49476000000000003 47.341350000000006 2.56557 15.96 18.553500000000003 13.50615 31.556910000000002 13.3665l146.965665 -1.685775c16.86174 -0.185535 25.785375000000002 2.4079650000000004 27.79035 -18.46173Z" fill="#191919" stroke-width="1"></path><path d="M258.07320000000004 199.13890500000002a1.0334100000000002 1.0334100000000002 0 0 0 0.085785 2.0668200000000003c13.74555 0.736155 27.662670000000002 -0.149625 41.310465 0.636405 4.855830000000001 0.28129499999999996 7.156065000000001 2.36607 7.381500000000001 4.57254 0.6463800000000001 6.5436 -10.519635 5.797470000000001 -14.364 5.89722h-33.8352c-1.713705 0 -1.596 2.8109550000000003 0.11371500000000001 2.793 11.720625 -0.09576000000000001 23.433270000000004 -0.24538500000000002 35.137935 -0.297255 5.586 -0.025935 15.920100000000001 -0.1995 15.373470000000001 -8.379000000000001 -0.44289 -6.653325000000001 -8.309175 -7.03437 -13.250790000000002 -7.07826 -11.98995 -0.10573500000000001 -26.541480000000004 -0.6723150000000001 -37.95288 -0.21147000000000002Z" fill="#191919" stroke-width="1"></path><path d="M146.103825 188.06865c-0.31122 -0.9216900000000001 -1.64388 -0.6523650000000001 -1.953105 0.09775500000000001 -0.61446 1.498245 -0.764085 13.22286 -0.835905 15.403395000000002 -1.7955 -1.41645 -3.573045 -2.822925 -5.386500000000001 -4.16157 -0.34114500000000003 -0.253365 -3.229905 -0.253365 0.141645 3.0723000000000003a35.17584000000001 35.17584000000001 0 0 0 6.539610000000001 5.09523c1.175055 0.297255 5.7855 -4.9476 6.824895 -5.9171700000000005 2.519685 -2.3521050000000003 0.399 -3.2279100000000005 -0.36907500000000004 -3.0723000000000003a28.21329 28.21329 0 0 0 -4.969545 4.247355000000001c0 -2.703225 0.708225 -12.742065 0 -14.836815000000001Z" fill="#191919" stroke-width="1"></path><path d="M130.14981 215.984685c-1.596 -0.065835 -1.5361500000000001 -5.187 -1.62792 -6.469785 -0.30523500000000003 -4.247355000000001 2.27829 -2.1506100000000004 2.27829 -2.1506100000000004 0.736155 0.798 0.6802950000000001 5.35059 0.6523650000000001 6.32814a161.75061000000002 161.75061000000002 0 0 1 27.082125 0.25536000000000003c-0.241395 -2.8329 -1.0473750000000002 -6.68325 0.9615900000000001 -6.824895s1.629915 2.6892600000000004 1.657845 5.01144c0.025935 2.0947500000000003 0.508725 4.696230000000001 -0.891765 4.67229 -10.178490000000002 -0.173565 -20.06172 -0.40698 -30.11253 -0.82194Z" fill="#191919" stroke-width="1"></path><path d="M197.73642 110.04819c-0.580545 -0.835905 -5.155080000000001 -6.783 -6.469785 -6.653325000000001 -3.6548400000000005 0.33316500000000004 -20.570445 5.733630000000001 -18.814845 8.267280000000001 2.61744 10.503675 7.259805 29.462160000000004 8.11167 31.782345 0.353115 0.963585 1.8274200000000003 0.4668300000000001 1.68378 -0.508725 -1.015455 -6.89871 -5.5062 -23.175915000000003 -7.758555 -31.443195a82.076295 82.076295 0 0 1 16.80588 -5.7855c1.68378 1.8693150000000003 3.341625 3.708705 5.01144 5.663805 2.6054700000000004 1.93914 50.673 -12.742065 55.524840000000005 -14.0448 9.177 29.404305000000004 9.32463 35.17584000000001 13.109145 43.12392 0.4788 0.9975 1.78353 0.22543500000000002 1.65585 -0.69426 -3.4693050000000003 -11.864265000000001 -8.22339 -33.66762000000001 -13.27872 -44.08950000000001 -0.94962 -1.9790400000000001 -55.5807 14.635320000000002 -55.5807 14.381955Z" fill="#191919" stroke-width="1"></path><path d="M212.92635 60.737775000000006c5.017425 4.438875 22.274175 25.87914 25.709565 31.81227 0.53466 0.9216900000000001 -0.9336600000000002 1.63989 -1.514205 0.891765 -7.05831 -9.07725 -10.916640000000001 -15.742545000000002 -24.69012 -30.876615 -19.253745000000002 13.194930000000001 -36.582315 30.24021 -39.35736000000001 29.248695s-6.4278900000000005 -1.641885 -9.047325 -2.4638250000000004a95.05377 95.05377 0 0 0 -11.720625 11.509155000000002c1.91121 1.995 16.632315000000002 18.894645 18.0348 21.364455 0.57456 1.0074750000000001 -0.7860300000000001 2.2463699999999998 -1.52817 1.3167000000000002 -11.710650000000001 -14.691180000000001 -19.72656 -21.595875 -18.58941 -23.5011 1.7955 -3.006465 9.669765000000002 -10.74507 12.5685 -12.033840000000001 0.41097 -1.88328 8.961540000000001 1.41645 10.3341 1.981035 0.0039900000000000005 -0.1995 37.88505 -30.93447 39.80025 -29.248695Z" fill="#191919" stroke-width="1"></path><path d="M135.61411500000003 101.000865c0.25536000000000003 -2.1945 3.4393800000000003 -17.342535 4.855830000000001 -17.893155l8.013915 -2.42193c1.414455 -3.8363850000000004 14.326095 -38.15038500000001 15.570975 -37.905 5.025405 0.959595 36.508500000000005 13.78545 39.215715 15.828330000000001 0.8079750000000001 0.5985 0.253365 1.95909 -0.692265 1.6139550000000003 -12.071745000000002 -4.389 -26.162430000000004 -11.43933 -37.88505 -15.275715000000002 -0.38304000000000005 2.024925 -14.270235 36.977325 -14.563500000000001 37.27458000000001 -1.41645 1.41645 -6.513675000000001 1.969065 -8.67825 2.535645 -0.141645 2.447865 -2.9745450000000004 12.31713 -3.7805250000000004 15.345540000000002l6.794970000000001 1.741635c1.0334100000000002 0.4668300000000001 0.891765 2.236395 -0.381045 2.0947500000000003 0.823935 0 -8.624385000000002 -1.6159500000000002 -8.470770000000002 -2.9386350000000006Z" fill="#191919" stroke-width="1"></path><path d="M93.99243 91.544565c-1.41645 0.4668300000000001 -5.899215 5.903205000000001 -5.663805 7.247835a72.24493500000001 72.24493500000001 0 0 0 4.8279000000000005 16.39491c0.6643350000000001 1.5201900000000002 31.6407 -8.267280000000001 35.27958 -9.286725a1.06533 1.06533 0 0 0 -0.381045 -2.096745 259.77294 259.77294 0 0 0 -33.326474999999995 9.3765 121.952355 121.952355 0 0 1 -4.3750350000000005 -14.25627c0.919695 -1.175055 5.80545 -6.384 5.663805 -7.333620000000001a6953.5326000000005 6953.5326000000005 0 0 0 -8.72214 -40.049625c12.742065 -2.180535 26.020785 -5.386500000000001 38.8626 -7.872270000000001 0.692265 6.399960000000001 5.420415 25.115055 8.492715 37.905 0.16758 0.69426 1.4084699999999999 0.21346500000000002 1.41645 -0.4668300000000001 0.05586000000000001 -4.247355000000001 -7.303695 -32.8776 -8.80593 -38.874570000000006 -0.5605950000000001 -2.2383900000000003 -38.222205 6.5835 -41.366325 7.60095 -2.61744 0.855855 6.850830000000001 36.809745 8.055810000000001 41.749365000000004Z" fill="#191919" stroke-width="1"></path><path d="M83.55858 128.890965c-12.484710000000002 -9.015405000000001 -33.627720000000004 -23.792370000000002 -47.271525000000004 -30.268140000000002 -2.82492 -1.34064 -18.248265 29.60181 -18.80088 34.94043 0 3.02841 26.07864 16.758000000000003 31.840200000000003 19.040280000000003 0.09975 2.9745450000000004 0.18354 5.947095 0.28329 8.919645000000001 0.5985 1.41645 6.312180000000001 4.251345 7.956060000000001 4.686255000000001 6.904695 1.8274200000000003 9.52812 2.50572 10.1745 0.580545 6.8887350000000005 -20.865705000000002 16.17147 -37.643655 15.818355000000002 -37.899015Zm-17.54004 36.97932a43.341375000000006 43.341375000000006 0 0 1 -14.411880000000002 -4.95558c0.16957500000000003 -1.2748050000000002 0.21147000000000002 -9.44433 -1.2887700000000002 -10.22238 -10.92861 -5.6658 -20.259225 -10.80093 -30.93447 -17.25675 5.49423 -14.270235 9.91116 -20.159475 17.07321 -32.390820000000005 15.475215 9.40044 30.014775 17.809365 44.8875 28.610295 -3.716685 6.6034500000000005 -13.528095 29.14695 -15.325590000000002 36.215235Z" fill="#191919" stroke-width="1"></path><path d="M62.704845000000006 187.94097000000002c-17.54004 -0.5566050000000001 -36.482565 -1.1371499999999999 -54.038565000000006 -0.72219 -3.553095 0.08379 2.41794 35.133945000000004 3.624915 38.74689 0.528675 1.5840300000000003 28.101570000000002 0.963585 33.821235 0.09975A14.563500000000001 14.563500000000001 0 0 0 49.875 231.69930000000002c1.0194450000000002 0.7800450000000001 17.498145 0.798 17.837295 -1.3446300000000002 -3.6727950000000003 -24.71805 -2.84088 -42.34587 -5.0074499999999995 -42.413700000000006Zm-11.4114 41.895c-0.692265 -0.935655 -3.90621 -5.9171700000000005 -4.7700450000000005 -5.961060000000001 -10.872750000000002 0.325185 -21.617820000000002 0.424935 -32.476605 0.608475a239.799 239.799 0 0 1 -4.5446100000000005 -35.3913l51.870000000000005 0.798c0.9975 12.742065 2.16657 26.417790000000004 3.92217 38.988285Z" fill="#191919" stroke-width="1"></path><path d="M95.7201 274.32646500000004c-9.177 -10.6533 -22.80285 -28.981365 -23.94 -28.46865a407.265285 407.265285 0 0 0 -45.132885 23.287635c-3.7905 2.312205 15.096165000000001 27.600825000000004 19.040280000000003 31.145940000000003 2.543625 2.284275 24.592365 -13.63383 28.498575000000002 -16.0398a20.16147 20.16147 0 0 0 7.319655000000001 4.00596c1.2369 0.357105 15.630825000000002 -12.285210000000001 14.214375 -13.931085ZM81.795 285.85158c-4.64436 -1.5580950000000002 -7.32963 -4.4847600000000005 -8.494710000000001 -3.7386300000000006 -8.756055000000002 5.611935000000001 -16.88967 11.142075 -27.082125 16.847775000000002a165.77253 165.77253 0 0 1 -18.112605000000002 -28.837725000000002c14.509635 -8.494710000000001 28.809795000000005 -14.61138 43.63065 -21.675675000000002 3.1022250000000002 4.4887500000000005 17.556 22.892625 21.831285 26.389860000000002A353.468115 353.468115 0 0 1 81.795 285.85158Z" fill="#191919" stroke-width="1"></path><path d="M157.04839500000003 312.239445c-3.517185 -2.667315 -30.324 -13.266750000000002 -37.21872 -14.709135000000002 -2.0109600000000003 -0.420945 -27.15195 43.15983 -25.66767 44.34087a103.14150000000001 103.14150000000001 0 0 0 34.770855 16.720095c2.8329 0.724185 15.760500000000002 -28.24521 17.468220000000002 -31.939950000000003 1.785525 0 3.99 -0.4389 5.7855 -0.452865 1.8753 -0.424935 6.360060000000001 -12.821865 4.861815 -13.959015Zm-5.386500000000001 12.1695c-1.5561 0.09975 -6.67926 -0.2394 -7.148085000000001 0.764085C139.65 335.55899999999997 134.46300000000002 345.82128 129.385725 356.1075c-14.1645 -4.247355000000001 -20.670195000000003 -7.561050000000001 -33.198795 -15.134070000000001 0 0 16.987425 -31.840200000000003 24.067680000000003 -41.338395000000006 7.331625 2.50572 28.765905000000004 11.325614999999999 35.221725000000006 13.80141 -1.2887700000000002 3.6588300000000005 -2.575545 7.29771 -3.8084550000000004 10.964520000000002Z" fill="#191919" stroke-width="1"></path><path d="M244.87827000000001 333.37647c-0.5226900000000001 -3.85035 -1.0334100000000002 -9.30069 -1.5561 -13.137075000000001 -0.94962 -2.336145 -16.097655000000003 0.21945 -36.271095 0.21147000000000002 -2.35011 0 1.2608400000000002 44.34087 1.50024 49.013160000000006 3.1441200000000005 3.192 32.831715 1.62792 32.801790000000004 -2.224425l-2.5935 -28.893585c2.635395 -1.7556 5.185005 -3.1580850000000003 6.118665000000001 -4.969545Zm-8.025885 4.70022 2.180535 28.710045a129.276 129.276 0 0 1 -28.7679 1.78353c-0.25536000000000003 -15.076215000000001 -2.180535 -30.37986 -1.67181 -46.166295 10.888710000000001 -0.08379 21.603855000000003 -0.325185 32.817750000000004 -1.1032350000000002 0.21147000000000002 1.430415 1.6139550000000003 11.467260000000001 1.1032350000000002 12.00591 0 0.45685500000000007 -3.9760350000000004 2.0209349999999997 -5.661810000000001 4.7700450000000005Z" fill="#191919" stroke-width="1"></path><path d="M314.745165 302.043c1.414455 -2.56158 2.13066 -3.708705 2.052855 -4.742115 -0.093765 -1.24488 -7.53312 -11.66676 -8.67825 -11.02836 -5.097225000000001 2.8309050000000004 -17.286675 14.681205 -20.349 18.898635000000002 -0.11371500000000001 2.6613300000000004 17.384430000000002 33.001290000000004 19.45125 33.693555 0.9975 3.7107000000000006 19.080180000000002 -14.992425 19.00038 -16.09566 -0.11172000000000001 -1.374555 -10.24632 -18.555495 -11.477235 -20.726055Zm-6.455820000000001 34.99629a249.317145 249.317145 0 0 1 -18.405870000000004 -31.654665000000005c6.358065 -6.074775 11.580975 -10.872750000000002 18.278190000000002 -16.4787l6.286245 8.76204 -1.685775 3.99c-0.424935 1.0194450000000002 9.91116 17.470215 11.53908 20.91159a83.201475 83.201475 0 0 1 -16.011870000000002 14.473725Z" fill="#191919" stroke-width="1"></path><path d="M374.38768500000003 258.597885c-1.72368 -1.8154500000000002 -14.000910000000001 -7.75656 -16.265235 -8.564535000000001 0.16957500000000003 -0.90573 0.736155 -5.187 0.22543500000000002 -5.661810000000001a70.162155 70.162155 0 0 0 -9.48423 -4.530645c-1.641885 0 -12.2094 22.162455 -11.325614999999999 22.90659 3.192 2.6852700000000005 24.488625000000003 16.628325000000004 28.46865 18.1545 1.2927600000000001 0.48678 9.36054 -21.272685000000003 8.380995 -22.304100000000002Zm-8.78997 19.39539c-2.180535 -1.414455 -24.053715 -15.501149999999999 -25.978890000000003 -16.1595 0.1995 -0.18354 8.494710000000001 -17.44029 9.81141 -19.81833a34.713 34.713 0 0 0 7.07826 3.65085 18.81285 18.81285 0 0 0 -0.09975 5.153085000000001c0 0.580545 13.264755000000001 7.36155 15.828330000000001 8.3391 -2.22243 6.250335000000001 -4.446855 12.606405 -6.63936 18.834795000000003Z" fill="#191919" stroke-width="1"></path><path d="M384.538245 200.555355c0 -1.41645 -10.38996 -4.247355000000001 -11.97 -4.813935a13.03932 13.03932 0 0 0 -0.5526150000000001 -3.7386300000000006c-0.5526150000000001 -1.1172000000000002 -9.04533 -4.247355000000001 -9.753555 -3.82242 -1.65585 0.8778 -5.21493 19.050255 -3.680775 19.892145000000003 2.611455 1.430415 20.49264 9.091215000000002 23.018310000000003 8.492715 1.42842 -0.33516 3.1800300000000004 -15.570975 2.9386350000000006 -16.009875Zm-3.90621 13.603905000000001c-6.89472 -2.37804 -13.747545 -5.13912 -20.584410000000002 -7.447335000000001l3.1002300000000003 -16.392915000000002 7.07826 2.7171900000000004c0.12768000000000002 0.891765 0.33915000000000006 3.9501000000000004 1.147125 4.247355000000001l11.02836 4.035885c-0.65436 3.9102 -1.769565 12.11763 -1.769565 12.839820000000001Z" fill="#191919" stroke-width="1"></path><path d="M382.104345 141.91632c-0.53466 -0.528675 -11.948055 -0.1995 -14.625345000000001 -0.28329l-3.608955 -3.369555c-1.2887700000000002 0 -7.82838 -0.31122 -8.424885 0.4668300000000001s3.7246650000000003 16.999395000000003 4.686255000000001 18.320085000000002c0.488775 0.67032 23.770425 0.6643350000000001 24.167430000000003 0a74.07036000000001 74.07036000000001 0 0 0 -2.1945 -15.134070000000001Zm-20.684160000000002 13.33458q-2.0388900000000003 -7.581 -4.019925000000001 -15.09018c1.769565 0 4.247355000000001 0.26932500000000004 5.9451 0.11172000000000001a17.46423 17.46423 0 0 0 3.29973 3.1301550000000002 118.552875 118.552875 0 0 0 13.859265 0.325185A83.41494 83.41494 0 0 0 382.74075 155.61c-6.936615 -0.017955 -14.369985000000002 -0.35910000000000003 -21.320565 -0.35910000000000003Z" fill="#191919" stroke-width="1"></path><path d="M352.72797 75.97159500000001c-0.7740600000000001 -0.7680750000000001 -12.65628 4.133640000000001 -14.1645 4.67229a18.128565000000002 18.128565000000002 0 0 0 -3.7525950000000003 -2.4079650000000004c-0.798 0 -9.474255 3.37155 -8.636355 4.913685 2.1945 4.023915 8.394960000000001 13.78944 12.10566 16.803885 1.197 0.97755 20.099625 -7.080255 21.43428 -8.309175 1.5620850000000002 -1.434405 -5.643855 -14.34006 -6.98649 -15.67272ZM339.15000000000003 98.18392500000002c-3.9361350000000006 -4.869795 -7.080255 -9.909165 -10.802925 -14.992425l6.158565 -2.703225c0.6663300000000001 0.41097 3.313695 2.3201850000000004 3.92217 2.164575a78.018465 78.018465 0 0 0 13.4064 -4.7700450000000005c1.897245 4.133640000000001 4.247355000000001 8.267280000000001 6.0867450000000005 12.400920000000001 -2.8109550000000003 1.41246 -18.770955 7.7007 -18.770955 7.900200000000001Z" fill="#191919" stroke-width="1"></path><path d="M2.05485 123.24312000000002c-0.36907500000000004 0.9975 1.1052300000000002 1.81146 1.5441300000000002 0.77805C14.092680000000001 99.30312 26.567415 83.02791 45.306450000000005 64.638c0.6643350000000001 -0.6523650000000001 -0.31122 -1.8553500000000003 -1.0633350000000001 -1.2608400000000002 0 -1.067325 -28.712040000000002 23.22978 -42.188265 59.86596Z" fill="#14bef0" stroke-width="1"></path><path d="M166.0239 140.102865c-3.96606 -4.159575 -10.252305000000002 -10.27824 -15.18993 -13.053285 -0.9236850000000001 -0.5167050000000001 -1.68777 0.8379 -0.97755 1.5162 4.788 4.56057 9.925125 8.125635 14.836815000000001 13.081215000000002 0.9236850000000001 0.9316650000000001 2.22243 -0.600495 1.3306650000000002 -1.5441300000000002Z" fill="#14bef0" stroke-width="1"></path><path d="M209.03211000000002 44.825655000000005c-7.898205000000001 -8.778 -25.625775000000004 -15.561 -35.3913 -16.987425a0.96558 0.96558 0 0 0 -0.28329 1.91121c17.69565 2.8708050000000003 24.512565000000002 9.115155 34.55739 16.420845 0.798 0.57855 1.6139550000000003 -0.77805 1.0613400000000002 -1.414455Z" fill="#14bef0" stroke-width="1"></path><path d="M83.40297 108.77338500000002c-2.47779 -0.08379 -6.02091 5.2847550000000005 -6.852825 7.07826 -0.44688000000000005 0.96558 1.175055 1.72767 1.69974 0.8079750000000001 2.0349 -3.569055 5.661810000000001 -5.9171700000000005 5.9730300000000005 -6.669285a0.90573 0.90573 0 0 0 -0.819945 -1.197Z" fill="#14bef0" stroke-width="1"></path><path d="M74.794545 67.27938c-10.455795 2.603475 -21.528045000000002 13.974975 -26.733 23.203845 -0.62244 1.1032350000000002 1.163085 1.8553500000000003 1.7955 0.77805a53.978715 53.978715 0 0 1 25.589865 -22.36794c0.8059800000000001 -0.33915000000000006 0.21147000000000002 -1.8294150000000002 -0.6523650000000001 -1.6139550000000003Z" fill="#14bef0" stroke-width="1"></path><path d="M68.127255 89.010915c0.835905 -0.241395 1.41645 0.9975 0.798 1.414455a27.11604 27.11604 0 0 0 -10.471755 11.694690000000001c-0.5426400000000001 1.12917 -2.1945 0.12568500000000002 -1.68378 -0.9975 1.7955 -4.02591 6.753075 -10.786965 11.325614999999999 -12.131595Z" fill="#14bef0" stroke-width="1"></path><path d="M37.905 153.9342c-4.23339 4.8678 -6.5037 14.97846 -6.539610000000001 21.25074 0 1.0753050000000002 1.8134550000000003 1.197 1.897245 0.11371500000000001 0.744135 -9.542085000000002 3.1521000000000003 -15.377460000000001 6.425895000000001 -20.159475 0.676305 -0.991515 -0.963585 -2.1506100000000004 -1.78353 -1.20498Z" fill="#14bef0" stroke-width="1"></path><path d="M25.103085 155.2509c-3.4533450000000006 4.813935 -5.025405 17.63979 -5.01144 23.572920000000003a0.9975 0.9975 0 0 0 1.969065 0 66.092355 66.092355 0 0 1 4.788 -22.836765c0.399 -0.9975 -1.0753050000000002 -1.697745 -1.741635 -0.77805Z" fill="#14bef0" stroke-width="1"></path><path d="M55.032075000000006 329.384475c-19.564965 -13.91712 -29.603805 -29.192835 -38.988285 -50.4735a0.8398950000000001 0.8398950000000001 0 0 0 -1.5720600000000002 0.5985c6.002955 19.81833 22.371930000000003 39.401250000000005 39.42718500000001 51.24756 0.935655 0.65037 2.080785 -0.708225 1.13316 -1.414455Z" fill="#14bef0" stroke-width="1"></path><path d="M379.22955 224.38164a0.82194 0.82194 0 0 0 -1.62792 0c-0.7321650000000001 5.187 -0.5566050000000001 7.834365000000001 -3.25584 12.642315 -0.5027400000000001 0.8957550000000001 1.0733100000000002 1.7955 1.596 0.90573 2.01894 -3.5311500000000002 4.237380000000001 -9.458295 3.28776 -13.548045000000002Z" fill="#14bef0" stroke-width="1"></path><path d="M368.54233500000004 222.512325c-1.3167000000000002 2.336145 -4.5885 14.683200000000001 -5.352585 17.398395 -0.321195 1.13316 1.41246 1.414455 1.7556 0.34114500000000003 0.85785 -2.6932500000000004 4.969545 -14.563500000000001 5.16705 -17.21685a0.83391 0.83391 0 0 0 -1.570065 -0.5226900000000001Z" fill="#14bef0" stroke-width="1"></path><path d="M323.67678 302.599605a0.9077250000000001 0.9077250000000001 0 0 0 1.0773000000000001 1.414455c4.911690000000001 -3.369555 13.717620000000002 -11.98995 15.487185 -17.955000000000002 0.26932500000000004 -0.90573 -0.947625 -1.81146 -1.41645 -0.891765 -0.696255 0.28329 -3.904215 9.143085000000001 -15.148035 17.43231Z" fill="#14bef0" stroke-width="1"></path><path d="M332.55453 277.271085c-0.94962 3.7905 -7.581 9.761535 -10.573500000000001 11.79444 -0.935655 0.63441 -1.745625 -0.798 -0.891765 -1.41645 6.858810000000001 -4.913685 7.98 -9.075255000000002 10.036845 -11.128110000000001 0.117705 -0.476805 1.62792 -0.349125 1.42842 0.75012Z" fill="#14bef0" stroke-width="1"></path><path d="M271.45167000000004 349.125a0.935655 0.935655 0 0 0 0.5246850000000001 1.7955c4.37703 -1.2887700000000002 16.803885 -5.931135 20.229300000000002 -9.414405 0.5985 -0.5985 -0.11371500000000001 -1.825425 -0.8778 -1.414455 -0.50673 -0.25935 -10.374 6.14859 -19.876185 9.03336Z" fill="#14bef0" stroke-width="1"></path><path d="M264.287625 338.50162500000005c-6.296220000000001 2.527665 -8.32314 5.03937 -16.181445000000004 4.788a0.9077250000000001 0.9077250000000001 0 0 0 -0.11371500000000001 1.7955 26.06268 26.06268 0 0 0 13.550040000000001 -2.691255c6.0648 -3.0603300000000004 3.624915 -4.24137 2.74512 -3.8922450000000004Z" fill="#14bef0" stroke-width="1"></path><path d="M278.44614 316.74216a77.70126 77.70126 0 0 1 -26.162430000000004 5.564055000000001c-1.0613400000000002 0.025935 -0.935655 1.65585 0.12768000000000002 1.641885 6.9825 -0.09576000000000001 20.548500000000004 -2.036895 26.770905000000003 -5.663805 0.86583 -0.504735 0.08379 -1.7556 -0.736155 -1.414455Z" fill="#14bef0" stroke-width="1"></path><path d="M195.484065 330.44581500000004c-9.06528 -0.5226900000000001 -12.299175 0.5446350000000001 -21.77343 -2.703225 -1.0753050000000002 -0.36907500000000004 -1.52817 1.30074 -0.4668300000000001 1.697745 6.344100000000001 2.37405 15.760500000000002 4.247355000000001 22.425795 2.5496100000000004a0.798 0.798 0 0 0 -0.185535 -1.5441300000000002Z" fill="#14bef0" stroke-width="1"></path><path d="M191.138955 348.58036500000003c-12.630345000000002 -0.6304200000000001 -19.92606 -0.357105 -32.30703 -5.16705 -1.0613400000000002 -0.41097 -1.897245 1.159095 -0.82194 1.596 9.308670000000001 3.81843 23.425290000000004 7.048335 33.426225 5.210940000000001 1.01745 -0.18354 0.580545 -1.596 -0.297255 -1.63989Z" fill="#14bef0" stroke-width="1"></path><path d="M79.9197 319.21995c-8.448825000000001 -3.87828 -13.687695 -5.839365000000001 -19.39539 -13.765500000000001 -0.72219 -0.9975 -2.224425 0.129675 -1.52817 1.13316 4.365060000000001 6.306195000000001 12.624360000000001 13.394430000000002 20.48466 14.242305000000002a0.84987 0.84987 0 0 0 0.4389 -1.609965Z" fill="#14bef0" stroke-width="1"></path><path d="M97.78692 309.01153500000004c0.12768000000000002 0 2.5935 3.525165 -6.17253 -0.26932500000000004a55.399155 55.399155 0 0 1 -14.880705 -9.540090000000001c-0.8897700000000001 -0.798 0.484785 -2.0169449999999998 1.41645 -1.2468750000000002 7.205940000000001 5.951085000000001 11.97 7.07826 19.70661 11.05629Z" fill="#14bef0" stroke-width="1"></path><path d="M107.412795 296.52483c-3.014445 -2.2922550000000004 -6.1426050000000005 -4.476780000000001 -9.2169 -6.69522 -0.9615900000000001 -0.69426 -1.893255 0.9017400000000001 -0.9336600000000002 1.596 3.0403800000000003 2.16657 6.016920000000001 4.402965 9.075255000000002 6.497715 0.798 0.5526150000000001 1.897245 -0.764085 1.0753050000000002 -1.41645Z" fill="#14bef0" stroke-width="1"></path><path d="M30.4836 252.51114a26.100585000000002 26.100585000000002 0 0 1 -3.6947400000000004 -17.286675c0.117705 -0.9316650000000001 -1.2787950000000001 -1.0912650000000002 -1.596 -0.22543500000000002 -2.052855 5.524155 0.620445 13.667745 3.680775 18.403875 0.63441 0.9895200000000001 2.248365 0.12369000000000001 1.609965 -0.891765Z" fill="#14bef0" stroke-width="1"></path><path d="M48.109425 249.325125a44.743860000000005 44.743860000000005 0 0 1 -5.536125 -12.518625000000002c-0.24738000000000002 -0.9316650000000001 -1.41645 0 -1.50024 0.8079750000000001 -0.09975 2.2922550000000004 4.24137 11.3316 5.408445 12.5685 0.815955 0.8738100000000001 2.3201850000000004 0.005985000000000001 1.62792 -0.85785Z" fill="#14bef0" stroke-width="1"></path><path d="M394.67484 161.70672a154.12771500000002 154.12771500000002 0 0 1 -4.869795 47.49696 0.851865 0.851865 0 0 0 1.641885 0.452865c3.6688050000000003 -13.13508 6.922650000000001 -34.343925 4.969545 -48.133365 0 -0.97356 -1.7955 -0.8538600000000001 -1.741635 0.18354Z" fill="#14bef0" stroke-width="1"></path><path d="M328.207425 50.587215c-0.81795 -0.798 -2.260335 0.293265 -1.414455 1.147125a137.93230499999999 137.93230499999999 0 0 1 16.448774999999998 20.470695c0.532665 0.798 1.897245 0 1.502235 -0.891765 0.492765 0 -5.356575 -9.68373 -16.536555 -20.726055Z" fill="#14bef0" stroke-width="1"></path><path d="M329.3745 67.83c0.5586000000000001 0.798 -0.6244350000000001 1.5580950000000002 -1.2748050000000002 0.9975 -4.253340000000001 -3.7146900000000005 -15.042300000000001 -16.468725000000003 -19.351499999999998 -21.432285 -0.6643350000000001 -0.7660800000000001 0.420945 -1.89525 1.131165 -1.13316 4.570545 4.8877500000000005 16.167479999999998 16.779945 19.495140000000003 21.567945Z" fill="#14bef0" stroke-width="1"></path><path d="M364.1673 104.867175a0.863835 0.863835 0 1 0 -1.41645 0.9975c6.3161700000000005 9.775500000000001 7.598955000000001 16.101645 9.514155 23.953965 0.237405 0.97755 1.596 0.580545 1.62792 -0.33915000000000006 0.32319000000000003 -7.295715 -9.085230000000001 -24.612315000000002 -9.725625 -24.612315000000002Z" fill="#14bef0" stroke-width="1"></path><path d="M355.247655 105.09261c-0.41097 -1.0753050000000002 -2.156595 -0.5985 -1.7556 0.5107200000000001 0.756105 2.0987400000000003 4.40895 13.001415000000001 5.586 14.637315000000001 0.43690500000000004 0.6104700000000001 1.621935 0.45486000000000004 1.5301650000000002 -0.4389 -0.301245 -2.82891 -4.17354 -11.60691 -5.360565 -14.709135000000002Z" fill="#14bef0" stroke-width="1"></path><path d="M381.38215500000007 169.7745c-0.12768000000000002 -0.819945 -1.64787 -1.197 -1.5720600000000002 -0.22543500000000002a105.601335 105.601335 0 0 1 -1.5561 21.67368c-0.1995 1.147125 1.52817 1.13316 1.78353 0a84.92316 84.92316 0 0 0 1.3446300000000002 -21.476175Z" fill="#14bef0" stroke-width="1"></path><path d="M154.11774 44.47254c-4.019925000000001 -2.731155 -13.39044 -1.7476200000000002 -17.853255 -0.11371500000000001 -1.24488 0.45486000000000004 -0.8079750000000001 2.4738 0.468825 2.024925 8.977500000000001 -3.16407 13.46226 -0.325185 16.903635 -0.26932500000000004a0.891765 0.891765 0 0 0 0.48079500000000003 -1.641885Z" fill="#14bef0" stroke-width="1"></path><path d="M278.47407000000004 102.47317500000001c-0.153615 -1.0892700000000002 -1.641885 -0.6783000000000001 -1.7556 0.22743000000000002 -1.28079 10.194450000000002 -0.81795 20.875680000000003 -2.336145 31.6407 -0.149625 1.0633350000000001 1.69575 1.3306650000000002 1.8693150000000003 0.26932500000000004 1.38852 -8.4987 3.3855150000000003 -23.88813 2.22243 -32.137455Z" fill="#14bef0" stroke-width="1"></path><path d="M217.92382500000002 32.269125c-0.8897700000000001 -0.798 -2.1945 0.44089500000000004 -1.3446300000000002 1.3167000000000002 18.29016 18.81285 24.007830000000002 33.344429999999996 29.725500000000004 49.84707 0.37905 1.0912650000000002 2.499735 0.55461 2.1945 -0.56658C242.7915 61.845000000000006 229.48086000000004 42.58128000000001 217.92382500000002 32.269125Z" fill="#14bef0" stroke-width="1"></path></svg>