<svg xmlns="http://www.w3.org/2000/svg" viewBox="0 0 3000 2400" width="3000" height="2400"><g transform="translate(1202.3999999999999 282.0) rotate(0.0 683.4 472.79999999999995) scale(1.524866094488593 1.523163980135725)"><svg width="896.341" height="620.813" viewBox="0 0 896.341 620.813"><path d="M48.451 2h799.44c25.637 0 46.451 20.814 46.451 46.451v570.363H2V48.451C2 22.814 22.814 2 48.451 2z" fill="#fff"/><path d="M894.341 620.813H2a2 2 0 0 1-2-2V48.451C0 21.735 21.735 0 48.451 0h799.44c26.716 0 48.45 21.735 48.45 48.451v570.363a2 2 0 0 1-2 2zM4 616.813h888.341V48.451c0-24.51-19.94-44.451-44.45-44.451H48.451C23.94 4 4 23.94 4 48.451v568.363z" fill="#190e64"/><path d="M48.451 2h799.44c25.637 0 46.451 20.814 46.451 46.451v9.802H2v-9.802C2 22.814 22.814 2 48.451 2z" fill="#fff"/><path d="M894.341 60.253H2a2 2 0 0 1-2-2V48.45C0 21.735 21.735 0 48.451 0h799.44c26.716 0 48.45 21.735 48.45 48.451v9.803a2 2 0 0 1-2 2zM4 56.253h888.341V48.45c0-24.51-19.94-44.451-44.45-44.451H48.451C23.94 4 4 23.94 4 48.451v7.803z" fill="#190e64"/><circle cx="144.797" cy="30.127" fill="#190e64" r="11.536"/><path d="M144.797 43.662c-7.463 0-13.536-6.072-13.536-13.536s6.072-13.536 13.536-13.536 13.536 6.072 13.536 13.536-6.072 13.536-13.536 13.536zm0-23.072c-5.258 0-9.536 4.278-9.536 9.536s4.278 9.536 9.536 9.536 9.536-4.278 9.536-9.536-4.278-9.536-9.536-9.536z" fill="#190e64"/><circle cx="101.236" cy="30.127" fill="#190e64" r="11.536"/><path d="M101.236 43.662c-7.463 0-13.536-6.072-13.536-13.536s6.072-13.536 13.536-13.536 13.536 6.072 13.536 13.536-6.072 13.536-13.536 13.536zm0-23.072c-5.258 0-9.536 4.278-9.536 9.536s4.278 9.536 9.536 9.536 9.536-4.278 9.536-9.536-4.278-9.536-9.536-9.536z" fill="#190e64"/><circle cx="57.674" cy="30.127" fill="#190e64" r="11.536"/><path d="M57.675 43.662c-7.464 0-13.536-6.072-13.536-13.536S50.211 16.59 57.675 16.59s13.536 6.072 13.536 13.536-6.072 13.536-13.536 13.536zm0-23.072c-5.258 0-9.536 4.278-9.536 9.536s4.278 9.536 9.536 9.536 9.536-4.278 9.536-9.536-4.278-9.536-9.536-9.536z" fill="#190e64"/><path d="M47.089 96.864h411.668v290.558H47.089z" fill="#fff"/><path d="M458.757 389.422H47.089a2 2 0 0 1-2-2V96.864a2 2 0 0 1 2-2h411.668a2 2 0 0 1 2 2v290.558a2 2 0 0 1-2 2zm-409.668-4h407.668V98.864H49.089z" fill="#190e64"/><circle cx="361.205" cy="172.667" fill="#ec535b" r="29.714"/><path d="M361.205 204.381c-17.487 0-31.714-14.227-31.714-31.714s14.227-31.714 31.714-31.714 31.714 14.227 31.714 31.714-14.227 31.714-31.714 31.714zm0-59.428c-15.281 0-27.714 12.433-27.714 27.714s12.433 27.714 27.714 27.714 27.714-12.433 27.714-27.714-12.433-27.714-27.714-27.714z" fill="#ec535b"/><path d="M458.756 291.309c-29.412-19.379-71.944-28.414-117.293-21.891-77.59 11.161-134.433 63.696-128.364 118.004h245.657z" fill="#fff"/><path d="M458.757 389.422H213.1a2 2 0 0 1-1.988-1.778c-3.011-26.943 8.867-54.245 33.443-76.875 24.427-22.493 58.743-37.881 96.624-43.33 44.332-6.377 87.587 1.715 118.679 22.2.562.37.899.998.899 1.67v96.113a2 2 0 0 1-2 2zm-243.845-4h241.845v-93.03c-30.221-19.521-72.065-27.171-115.008-20.994-37.09 5.335-70.646 20.363-94.484 42.313-23.071 21.244-34.509 46.64-32.353 71.71z" fill="#190e64"/><path d="M184.184 235.876c-49.788-14.954-98.58-15.973-137.096-5.538v157.084h285.608c6.792-58.098-56.26-123.838-148.512-151.546z" fill="#fff"/><path d="M332.696 389.422H47.089a2 2 0 0 1-2-2V230.339a2 2 0 0 1 1.477-1.93c40.584-10.996 89.663-9.024 138.194 5.552 92.467 27.772 156.92 93.846 149.923 153.694a2 2 0 0 1-1.986 1.768zm-283.607-4h281.806c2.486-27.154-10.51-56.829-36.745-83.774-27.204-27.939-66.461-50.617-110.54-63.856-47.236-14.188-94.935-16.275-134.521-5.916zm215.527 51.799H65.908a2 2 0 0 1 0-4h198.708a2 2 0 0 1 0 4zm81.756 30.991H65.908a2 2 0 0 1 0-4h280.464a2 2 0 0 1 0 4z" fill="#190e64"/><path d="M531.877 140.864h237.85v202.558h-237.85z" fill="#fff"/><path d="M769.726 345.422h-237.85a2 2 0 0 1-2-2V140.864a2 2 0 0 1 2-2h237.85a2 2 0 0 1 2 2v202.558a2 2 0 0 1-2 2zm-235.85-4h233.85V142.864h-233.85z" fill="#190e64"/><path d="M517.125 126.112h29.504v29.504h-29.504z" fill="#fff"/><path d="M546.629 157.616h-29.504a2 2 0 0 1-2-2v-29.504a2 2 0 0 1 2-2h29.504a2 2 0 0 1 2 2v29.504a2 2 0 0 1-2 2zm-27.504-4h25.504v-25.504h-25.504z" fill="#190e64"/><path d="M517.125 328.669h29.504v29.504h-29.504z" fill="#fff"/><path d="M546.629 360.174h-29.504a2 2 0 0 1-2-2V328.67a2 2 0 0 1 2-2h29.504a2 2 0 0 1 2 2v29.504a2 2 0 0 1-2 2zm-27.504-4h25.504V330.67h-25.504z" fill="#190e64"/><path d="M754.975 328.669h29.504v29.504h-29.504z" fill="#fff"/><path d="M784.478 360.174h-29.504a2 2 0 0 1-2-2V328.67a2 2 0 0 1 2-2h29.504a2 2 0 0 1 2 2v29.504a2 2 0 0 1-2 2zm-27.504-4h25.504V330.67h-25.504z" fill="#190e64"/><path d="M754.975 126.112h29.504v29.504h-29.504z" fill="#fff"/><g fill="#190e64"><path d="M784.478 157.616h-29.504a2 2 0 0 1-2-2v-29.504a2 2 0 0 1 2-2h29.504a2 2 0 0 1 2 2v29.504a2 2 0 0 1-2 2zm-27.504-4h25.504v-25.504h-25.504zm-26.72 28.031H562.369a2 2 0 0 1 0-4h167.885a2 2 0 0 1 0 4zm-25.753 41.664H562.369a2 2 0 0 1 0-4h142.132a2 2 0 0 1 0 4zm34.733 41.663h-92.923a2 2 0 0 1 0-4h92.923a2 2 0 0 1 0 4zm-112.382 0h-64.483a2 2 0 0 1 0-4h64.483a2 2 0 0 1 0 4zm40.534 41.664H562.369a2 2 0 0 1 0-4h105.017a2 2 0 0 1 0 4zm102.341 34.876v103.793l29.181-32.828 43.833 2.803z"/><path d="M769.726 447.307a2 2 0 0 1-2-2V341.515a2 2 0 0 1 3.422-1.407l73.015 73.768c.584.59.742 1.479.398 2.235s-1.126 1.213-1.948 1.167l-42.858-2.742-28.533 32.098a2.001 2.001 0 0 1-1.495.671zm2-100.928v93.668l25.687-28.896a2.01 2.01 0 0 1 1.623-.667l38.583 2.468z"/><rect height="40.377" rx="20.188" width="261.878" x="121.983" y="506.913"/><path d="M363.674 549.29H142.172c-12.235 0-22.188-9.954-22.188-22.188s9.954-22.188 22.188-22.188h221.502c12.234 0 22.188 9.954 22.188 22.188s-9.953 22.188-22.188 22.188zm-221.502-40.377c-10.029 0-18.188 8.159-18.188 18.188s8.159 18.188 18.188 18.188h221.502c10.028 0 18.188-8.159 18.188-18.188s-8.159-18.188-18.188-18.188z"/></g></svg></g><g transform="translate(94.8 1992.0) rotate(0.0 1423.1999999999998 37.200000000000045) scale(1.5249197734906967 1.5364916773367496)"><svg width="1866.59" height="48.422" viewBox="0 0 1866.59 48.422"><path d="M2 2h1862.59v44.422H2z" fill="#fff"/><path d="M1864.59 48.422H2a2 2 0 0 1-2-2V2a2 2 0 0 1 2-2h1862.59a2 2 0 0 1 2 2v44.421a2 2 0 0 1-2 2.001zM4 44.422h1858.59V4H4z" fill="#190e64"/></svg></g><g transform="translate(62.4 465.59999999999997) rotate(0.0 710.4 824.4000000000001) scale(1.5271934595532357 1.5260887312119762)"><svg width="930.334" height="1080.409" viewBox="0 0 930.334 1080.409"><path d="M553.125 8.595c57.87 15.93 113.36 62.735 113.341 129.85-.014 49.912-27.964 55.788-27.964 55.788s-72.54 4.49-105.594 46.601c-31.665 40.34-60.895 268.674-128.255 308.29-52.166 30.68-168.124 43.136-217.894 10.41s-45.152-106.86-23.329-150.507c36.079-72.159 127.16-72.799 158.136-180.565 11.414-39.711 8.949-110.967 67.669-175.997C428.421 9.07 489.883-8.813 553.125 8.595z" fill="#ec535b"/><path d="M273.233 580.861c-36.969 0-68.174-6.9-87.573-19.655-29.165-19.177-37.527-50.099-39.407-72.663-2.219-26.642 3.534-56.701 15.388-80.41 15.542-31.083 40.788-48.839 67.515-67.639 35.818-25.193 72.856-51.243 90.487-112.584 2.673-9.297 4.549-20.188 6.722-32.799 6.829-39.638 16.181-93.923 61.385-143.985C407.438 29.323 432.985 13.65 461.63 5.8c29.137-7.984 60.959-7.685 92.025.867 57.161 15.735 114.83 62.584 114.81 131.779-.004 14.583-2.524 34.74-14.506 47.954-7.34 8.096-14.735 9.726-15.046 9.791-.095.02-.191.033-.288.039-.717.044-72.037 4.935-104.145 45.84-11.663 14.857-23.172 56.425-36.5 104.556-22.094 79.792-49.591 179.097-92.314 204.223-25.723 15.129-68.149 26.338-110.723 29.254-7.414.507-14.669.758-21.71.758zM505.283 4.024c-14.562 0-28.886 1.877-42.595 5.634-27.908 7.647-52.794 22.914-71.969 44.149-44.428 49.202-53.666 102.828-60.412 141.983-2.193 12.727-4.086 23.717-6.819 33.226-18.021 62.696-55.646 89.159-92.031 114.75-26.303 18.501-51.148 35.976-66.238 66.156-11.541 23.08-17.14 52.347-14.979 78.289 1.806 21.678 9.798 51.36 37.618 69.653 22.377 14.714 61.31 21.36 106.813 18.248 41.993-2.876 83.747-13.878 108.968-28.711 41.327-24.306 68.585-122.745 90.487-201.843 13.442-48.545 25.051-90.471 37.208-105.958 17.405-22.174 45.615-33.872 66.214-39.78 21.079-6.046 38.744-7.435 40.659-7.571 2.144-.522 26.245-7.438 26.258-53.804.019-67.089-56.173-112.59-111.872-127.922-15.732-4.331-31.659-6.499-47.31-6.499z" fill="#ec535b"/><path d="M770.221 1002.069c-196.684-5.056-168.755-296.849-228.216-445.852-79.753-32.673-52.723-151.093 34.798-154.34 56.955-1.966 114.411 42.338 137.779 112.801 28.148 78.112 43.803 198.238 69.653 280.287 9.679 30.86 17.85 46.742 22.749 54.432 112.37 3.406 84.057 155.415-36.763 152.672z" fill="#fff"/><path d="M773.514 1004.106c-1.102 0-2.213-.012-3.338-.038h-.006c-63.253-1.626-109.112-32.892-140.197-95.585-27.295-55.051-40.158-126.945-52.598-196.474-10.24-57.23-19.915-111.307-36.916-154.269-34.99-14.724-53.25-48.43-46.553-86.109 6.115-34.413 34.097-69.945 82.823-71.753 59.311-2.043 116.779 44.901 139.752 114.17 15.215 42.22 26.935 97.389 38.268 150.741 9.596 45.172 19.519 91.881 31.394 129.575 9.151 29.179 16.912 44.893 21.971 53.07 54.069 2.09 72.381 37.245 71.595 66.879-.598 22.543-11.319 45.05-29.416 61.751-13.984 12.907-38.544 28.042-76.779 28.042zm-3.242-4.036c38.829.879 63.464-14.168 77.309-26.944 17.308-15.974 27.561-37.448 28.13-58.917.442-16.667-5.22-31.886-15.941-42.854-12.098-12.375-30.371-19.276-52.845-19.958a1.997 1.997 0 0 1-1.626-.925c-5.167-8.109-13.347-24.219-22.971-54.907-11.933-37.874-21.875-84.679-31.491-129.942-11.306-53.222-22.997-108.255-38.135-150.266-21.965-66.228-75.966-111.542-132.225-111.542-1.203 0-2.399.021-3.604.062-46.493 1.725-73.194 35.624-79.028 68.456-2.935 16.516-.694 33.337 6.31 47.365 7.742 15.505 21.093 27.493 38.61 34.67.501.205.898.605 1.099 1.109 17.345 43.465 27.11 98.045 37.449 155.829 12.39 69.252 25.203 140.861 52.245 195.401 14.532 29.309 31.751 51.025 52.642 66.39 23.522 17.3 51.023 26.123 84.072 26.973z" fill="#190e64"/><path d="M624.379 409.424c-29.224-10.274-58.217-17.686-110.762-23.98l-118.314-18.302c-60.406-2.244-152.662 3.713-195.299 45.454-58.674 57.442-35.98 222.898-15.22 267.49-8.887 130.573-20.046 204.952-43.267 321.982h470.326s-11.28-158.477 1.734-223.823c6.675-33.514 26.854-69.505 26.728-103.828-.098-26.807-18.756-95.557-18.756-95.557" fill="#fff"/><path d="M611.843 1004.069H141.517a2.002 2.002 0 0 1-1.962-2.389c22.429-113.031 34-186.31 43.199-321.218-5.284-11.557-10.583-30.657-14.568-52.546-4.521-24.821-7.141-51.351-7.579-76.721-.516-29.894 1.974-56.576 7.401-79.305 6.362-26.645 16.657-47.075 30.597-60.723 19.326-18.92 50.291-32.298 92.033-39.761 38.862-6.948 78.408-7.24 104.739-6.263.078.003.155.01.231.022l118.313 18.302c53.86 6.45 82.458 13.993 111.12 24.069a2 2 0 0 1-1.326 3.774c-28.406-9.986-56.771-17.465-110.336-23.88l-118.266-18.293c-128.583-4.752-178.302 29.806-193.709 44.889-57.671 56.459-35.418 220.94-14.806 265.218.143.306.205.643.183.979-9.097 133.657-21.091 210.073-42.828 319.846h465.75c-1.276-19.19-10.181-161.487 1.914-222.214 2.634-13.227 7.426-27.055 12.061-40.428 7.229-20.858 14.704-42.428 14.628-63.001-.096-26.237-18.5-94.355-18.686-95.041a2 2 0 0 1 1.406-2.454 2.006 2.006 0 0 1 2.454 1.407c.765 2.817 18.727 69.311 18.825 96.073.078 21.254-7.51 43.15-14.849 64.326-4.802 13.854-9.337 26.941-11.917 39.898-12.812 64.334-1.813 221.708-1.701 223.291a1.999 1.999 0 0 1-.532 1.505 1.991 1.991 0 0 1-1.463.638z" fill="#190e64"/><path d="m521.166 358.138-7.549 27.306 29.23 3.709c-15.182 36.196-44.708 50.16-86.043 48.534-45.728-1.798-90.15-27.401-98.868-70.725l37.367.18 36.402-126.159" fill="#fff"/><path d="M463.066 439.813c-2.079 0-4.188-.042-6.34-.127-23.566-.927-46.42-8.075-64.35-20.129-19.592-13.17-32.179-31.221-36.4-52.2a2.001 2.001 0 0 1 1.96-2.395h.01l35.854.173 35.983-124.707a2 2 0 0 1 3.843 1.109l-36.402 126.159a2 2 0 0 1-1.921 1.445h-.01l-34.87-.168c4.466 18.901 16.242 35.201 34.184 47.263 17.323 11.645 39.439 18.553 62.275 19.451 41.511 1.635 68.713-13.056 83.066-44.887l-26.584-3.373a1.997 1.997 0 0 1-1.676-2.516l7.549-27.306a2 2 0 1 1 3.855 1.065l-6.934 25.08 26.939 3.418a2 2 0 0 1 1.592 2.757c-14.058 33.524-40.798 49.886-81.623 49.888z" fill="#190e64"/><path d="M429.084 234.951c-29.496-25.429-45.979-76.694-37.727-112.714 12.715-55.497 76.046-88.338 141.454-73.353 23.829 5.459 44.641 16.518 60.863 31.049 32.2 24.564 50.683 82.847 43.231 147.2-9.347 80.706-55.729 138.554-104.08 133.322-38.753-4.194-59.863-40.119-67.541-52.67" fill="#fff"/><path d="M538.994 362.789c-2.12 0-4.248-.114-6.384-.345-38.877-4.207-60.402-39.476-68.505-52.753l-.526-.861a2 2 0 1 1 3.412-2.088l.529.866c7.822 12.817 28.602 46.865 65.521 50.86 22.8 2.465 45.842-9.495 64.879-33.683 19.404-24.653 32.544-59.415 36.999-97.88 7.191-62.098-9.871-120.522-42.457-145.38a1.675 1.675 0 0 1-.122-.101c-16.533-14.81-37.272-25.388-59.975-30.589-31.173-7.143-62.823-3.566-89.12 10.071-26.187 13.58-43.922 35.52-49.938 61.779-8.17 35.661 8.812 86.379 37.083 110.753a2 2 0 1 1-2.613 3.029c-29.765-25.661-46.978-77.104-38.37-114.676 6.283-27.423 24.749-50.307 51.996-64.436 27.138-14.073 59.759-17.773 91.854-10.419 23.334 5.346 44.665 16.224 61.692 31.457 33.628 25.71 51.285 85.562 43.941 148.973-8.999 77.723-52.18 135.422-99.896 135.423z" fill="#190e64"/><path d="M604.879 121.791c-35.749 46.365-81.719 81.23-149.847 74.032-14.485-1.531-38.215 26.191-38.215 26.191s-42.883-14.75-40.961-87.217c2.042-76.96 81.983-122.717 144.974-111.564 49.52 8.768 128.959 69.991 121.359 151.932-6.375-23.937-16.831-37.198-37.31-53.374z" fill="#ec535b"/><path d="M416.817 224.014c-.217 0-.437-.036-.65-.109-.459-.158-11.379-4.021-22.096-17.054-17.716-21.545-20.771-51.104-20.214-72.107.869-32.744 16.028-62.759 42.686-84.515 29.494-24.071 69.587-35.172 104.636-28.965 26.925 4.767 59.586 24.049 83.207 49.124 29.077 30.867 43.21 68.143 39.795 104.962a2.002 2.002 0 0 1-1.824 1.809 2.012 2.012 0 0 1-2.1-1.479c-5.753-21.603-14.683-34.694-35.039-51.062-43.836 56.132-91.675 79.403-150.395 73.194-11.024-1.158-30.073 18.015-36.486 25.503a2.004 2.004 0 0 1-1.52.699zm84.614-200.449c-28.776 0-58.983 10.685-82.359 29.763-25.741 21.009-40.378 49.961-41.216 81.523-1.681 63.33 31.582 81.682 38.403 84.769 1.996-2.235 6.887-7.532 12.92-12.783 10.712-9.323 19.486-13.695 26.062-13.001 5.962.63 11.814.947 17.555.947 49.883.001 91.716-23.913 130.498-74.211.327-.423.809-.698 1.339-.764s1.065.084 1.484.416c18.512 14.622 28.26 26.583 34.559 43.493-.228-31.938-13.9-63.724-39.204-90.584-23.068-24.488-54.86-43.301-80.992-47.928-6.214-1.103-12.596-1.64-19.049-1.64z" fill="#ec535b"/><path d="M434.884 251.167c-18.569 3.465-36.432-8.78-39.897-27.349s8.78-36.432 27.349-39.897c15.477-2.888 30.463 5.137 37.031 18.641" fill="#fff"/><g fill="#190e64"><path d="M428.595 253.751c-17.085 0-32.329-12.176-35.575-29.566-1.773-9.506.261-19.134 5.729-27.11s13.714-13.346 23.22-15.12c15.977-2.977 32.096 5.133 39.196 19.733a2 2 0 1 1-3.597 1.749c-6.315-12.985-20.653-20.2-34.866-17.55-8.456 1.578-15.791 6.354-20.654 13.449-4.864 7.095-6.673 15.659-5.096 24.115 3.258 17.455 20.107 29.007 37.564 25.75a2 2 0 0 1 .734 3.933 36.424 36.424 0 0 1-6.655.617z"/><path d="M431.843 242.829a8.348 8.348 0 0 1-3.072-.568c-2.911-1.151-5.011-4.037-5.352-7.352-.334-3.252 1.042-6.23 3.683-7.965 1.257-.826 2.768-1.515 4.368-2.244 5.909-2.694 11.491-5.238 7.964-14.719-2.372-6.376-9.605-8.299-15.525-6.904-5.72 1.348-12.038 6.284-11.022 15.759a2 2 0 1 1-3.977.427c-1.21-11.293 6.201-18.222 14.083-20.08 7.628-1.797 17.012.854 20.191 9.403 4.825 12.972-4.129 17.053-10.054 19.753-1.456.664-2.83 1.29-3.83 1.947-1.972 1.296-1.986 3.378-1.9 4.213.19 1.846 1.306 3.432 2.844 4.041 2.121.839 4.931-.123 7.91-2.71a1.999 1.999 0 1 1 2.623 3.019c-3.593 3.12-6.653 3.98-8.934 3.98zm128.396-6.444a2 2 0 0 1-1.986-2.254l3.171-24.743a2 2 0 0 1 3.967.509l-3.171 24.743a2 2 0 0 1-1.981 1.745zm55.048 8.383a2 2 0 0 1-1.986-2.254l3.171-24.743a2.005 2.005 0 0 1 2.238-1.729 2 2 0 0 1 1.729 2.238l-3.171 24.743a2 2 0 0 1-1.981 1.745zm-24.436 30.292a2 2 0 0 1-1.026-3.719c12.155-7.245 14.513-16.271 12.28-20.089-1.77-3.025-7.407-4.506-17.477 1.273a1.999 1.999 0 1 1-1.991-3.469c7.88-4.524 18.61-7.191 22.921.176 4.721 8.07-3.25 19.326-13.685 25.544a1.987 1.987 0 0 1-1.022.284zm-37.202 40.844a1.74 1.74 0 0 1-.125-.004c-7.512-.465-13.969-3.66-18.673-9.241-5.483-6.504-8.293-16.029-7.334-24.857a2 2 0 1 1 3.976.432c-.845 7.779 1.613 16.15 6.416 21.848 4.039 4.792 9.375 7.425 15.861 7.827a2 2 0 0 1-.121 3.995zm-100.258 72.687 11.48 40.259 29.974-41.803 31.207-17.838-.259 17.781 17.054 2.164s-13.529 51.135-86.043 48.534-93.02-44.513-98.868-70.725l37.367.18 8.105-30.081z"/><path d="M462.008 439.781c-1.723 0-3.481-.031-5.275-.096-32.463-1.164-57.944-10.266-75.735-27.052-15.622-14.74-22.225-32.735-25.013-45.236a2.001 2.001 0 0 1 1.953-2.436h.01l35.827.173 7.704-28.594a2.002 2.002 0 0 1 3.367-.873l49.983 51.529c.23.237.397.527.488.844l10.344 36.276 27.561-38.438c.167-.233.383-.428.633-.571l31.207-17.838a2.001 2.001 0 0 1 2.993 1.766l-.233 15.993 15.28 1.938a2 2 0 0 1 1.682 2.495c-.144.543-3.666 13.45-16.347 26.144-11.093 11.105-31.491 23.976-66.429 23.976zM360.47 368.975c2.961 11.776 9.378 27.638 23.273 40.75 17.063 16.1 41.669 24.836 73.133 25.964 28.974 1.042 52.693-6.759 68.572-22.552 9.009-8.96 13.188-18.202 14.727-22.307l-14.634-1.857a2 2 0 0 1-1.748-2.013l.208-14.275-27.785 15.882-29.72 41.448a2 2 0 0 1-3.549-.617l-11.342-39.775-47.182-48.642-7.189 26.682a2 2 0 0 1-1.931 1.479h-.01z"/></g><path d="M336.178 368.038c6.312 64.053 64.749 92.004 121.387 94.231 51.198 2.014 92.592-20.172 108.782-68.732l-23.499-4.385s-11.879 50.026-86.043 48.534c-80.398-1.617-94.96-55.2-98.868-70.725z" fill="#fff"/><path d="M464.026 464.398c-2.156 0-4.335-.043-6.54-.13-30.722-1.208-59.351-9.83-80.611-24.275-24.972-16.968-39.733-41.781-42.687-71.758a1.998 1.998 0 0 1 1.892-2.193l21.759-1.076a2.015 2.015 0 0 1 2.038 1.509c1.662 6.604 6.078 24.145 20.288 39.718 17.242 18.895 43.041 28.819 76.681 29.496 16.594.336 31.325-1.94 43.812-6.758 9.937-3.834 18.481-9.283 25.397-16.194 11.791-11.783 14.82-23.926 14.849-24.048a2.003 2.003 0 0 1 2.312-1.501l23.5 4.385a2 2 0 0 1 1.53 2.598c-8.012 24.032-22.185 42.338-42.125 54.409-17.359 10.508-38.222 15.818-62.095 15.818zm-125.633-94.467c3.316 28.187 17.011 50.637 40.729 66.753 20.65 14.031 48.536 22.408 78.521 23.587 25.819 1.013 48.163-4.07 66.405-15.114 18.501-11.2 31.833-28.042 39.654-50.079l-19.446-3.628c-1.317 4.026-5.336 14.011-15.2 23.939-20.732 20.867-50.762 24.726-72.292 24.297-34.779-.7-61.545-11.062-79.555-30.798-13.855-15.185-18.795-32.043-20.808-39.848z" fill="#190e64"/><path d="m494.846 387.047 31.206-17.838 24.036 21.295-19.69 82.745z" fill="#190e64"/><path d="M530.397 475.249a2 2 0 0 1-1.848-1.237l-35.552-86.202a2 2 0 0 1 .856-2.499l31.207-17.838a2.003 2.003 0 0 1 2.319.239l24.036 21.295c.552.489.79 1.243.62 1.96l-19.69 82.745a2.001 2.001 0 0 1-1.948 1.537zm-33.032-87.339 32.521 78.852 17.979-75.555-22.065-19.55zm-43.974.681-49.983-51.529-51.093 30.178 50.511 114.618z" fill="#190e64"/><path d="m402.827 483.858-.082-.001a2 2 0 0 1-1.749-1.192l-50.512-114.617a2 2 0 0 1 .813-2.529l51.094-30.179a2.002 2.002 0 0 1 2.453.33l49.983 51.529c.608.627.739 1.577.323 2.346l-50.565 93.267a2.002 2.002 0 0 1-1.758 1.046zm-47.966-115.799 48.151 109.26 47.921-88.39-47.863-49.344z" fill="#190e64"/><path d="M765.74 856.688c9.638-81.5-29.907-193.89-64.226-273.195 63.905-14.658 114.954-33.418 137.107-85.031 54.224 120.016 111.857 280.007 80.096 406.199-21.162 69.863-59.476 98.473-148.495 97.408" fill="#fff"/><path d="M775.058 1004.098c-1.607 0-3.221-.01-4.861-.029a2.001 2.001 0 0 1-1.976-2.023c.013-1.105.9-2.011 2.024-1.977 44.431.543 75.752-6.383 98.551-21.764 21.885-14.763 37.139-38.349 48.006-74.225 14.122-56.118 11.495-124.906-7.833-204.362-14.172-58.26-37.196-122.538-70.35-196.388-22.104 46.736-67.982 66.156-134.319 81.572 34.447 79.998 72.969 191.324 63.426 272.021a2 2 0 1 1-3.972-.47c9.526-80.56-29.586-192.471-64.076-272.167a2 2 0 0 1 1.388-2.743c68.286-15.663 114.809-35.157 135.716-83.871a1.999 1.999 0 0 1 1.819-1.211c.805.028 1.516.454 1.842 1.177 34.237 75.779 57.924 141.57 72.413 201.134 19.483 80.094 22.108 149.529 7.8 206.376-21.75 71.812-61.425 98.948-145.598 98.95z" fill="#190e64"/><path d="M759.637 859.14c5.853-48.269-48.899-172.646-53.316-198.302-3.658-21.242 2.662-38.993 5.555-52.79l-10.363-24.555c40.993.811 123.009-40.571 141.071-76.126l9.346 20.674c23.129.761 35.989 13.124 44.94 40.642 9.643 29.646 40.387 176.822 28.952 293.1" fill="#fff"/><path d="M925.823 863.783a1.999 1.999 0 0 1-1.992-2.196c11.527-117.212-19.497-263.491-28.863-292.286-8.838-27.17-21.326-38.545-43.104-39.262a1.999 1.999 0 0 1-1.756-1.175l-7.72-17.077c-9.783 15.863-32.101 33.928-60.808 49.049-28.134 14.818-57.246 24.086-77.058 24.642l9.197 21.792c.158.375.198.789.115 1.188-.543 2.593-1.199 5.294-1.894 8.153-2.921 12.028-6.556 26.998-3.647 43.887 1.347 7.825 7.526 25.167 15.349 47.122 17.753 49.826 42.067 118.065 37.982 151.761a2.007 2.007 0 0 1-2.226 1.744 2.001 2.001 0 0 1-1.745-2.227c3.972-32.759-21.153-103.274-37.779-149.936-7.887-22.137-14.117-39.621-15.523-47.786-3.049-17.706.695-33.122 3.703-45.509.632-2.603 1.231-5.071 1.736-7.421l-10.119-23.977a2 2 0 0 1 .187-1.899 2.034 2.034 0 0 1 1.695-.878c19.172.42 49.109-8.893 78.163-24.195 30.146-15.879 52.981-34.883 61.085-50.836a2.002 2.002 0 0 1 3.606.082l8.839 19.551c22.707 1.175 36.364 13.801 45.527 41.971 9.421 28.963 40.629 176.077 29.04 293.913a2.005 2.005 0 0 1-1.99 1.805z" fill="#190e64"/><path d="M701.513 583.492c-20.762-47.026-41.806-82.122-56.565-97.335-30.766-31.711-30-82.358 1.712-113.124 31.711-30.764 82.358-30 113.124 1.712 24.396 25.145 53.891 67.903 78.836 123.717" fill="#fff"/><path d="M701.514 585.494c-.768 0-1.5-.445-1.831-1.193-19.711-44.646-40.709-80.814-56.17-96.75-31.484-32.452-30.697-84.468 1.754-115.953 32.453-31.484 84.469-30.696 115.953 1.755 27.898 28.756 56.775 74.059 79.226 124.293a2 2 0 1 1-3.652 1.632c-22.267-49.824-50.859-94.707-78.445-123.14-29.948-30.869-79.427-31.617-110.296-1.669-30.868 29.949-31.617 79.428-1.668 110.296 15.773 16.258 37.066 52.863 56.958 97.92a2 2 0 0 1-1.829 2.809z" fill="#190e64"/><path d="M759.784 374.745c-19.282-20.026-49.083-47.584-72.921-53.888-11.005-2.91-50.694 29.181-54.087 39.347-4.564 13.677 19.682 48.385 24.674 56.962 13.01 22.356 50.582-.295 40.179-19.167-4.397-7.978-15.567-24.961-15.567-24.961l23.608 21.289" fill="#fff"/><path d="M673.536 428.43c-6.866 0-13.537-2.905-17.815-10.258-.737-1.267-1.906-3.119-3.385-5.464-8.957-14.2-25.63-40.63-21.457-53.137 2.025-6.068 14.313-17.49 24.874-25.535 6.877-5.239 23.722-17.198 31.621-15.112 23.773 6.287 53.282 33.072 73.851 54.435a2 2 0 1 1-2.882 2.774c-20.214-20.995-49.113-47.292-71.992-53.342-9.206-2.434-48.364 28.116-51.679 38.047-3.574 10.708 13.679 38.058 21.046 49.736 1.5 2.378 2.686 4.257 3.459 5.586 6.036 10.373 17.783 9.893 26.747 4.815 8.363-4.737 14.467-13.819 9.952-22.012-4.31-7.817-15.375-24.658-15.486-24.827a2.001 2.001 0 0 1 3.01-2.585l23.608 21.289a2 2 0 0 1-2.679 2.971l-12.472-11.246c2.815 4.466 5.714 9.188 7.521 12.468 5.769 10.465-1.411 21.717-11.483 27.423-4.332 2.455-9.397 3.973-14.359 3.974z" fill="#190e64"/><path d="M724.618 392.961c-19.282-20.026-41.778-40.611-65.616-46.915-11.005-2.91-50.694 29.181-54.087 39.347-4.564 13.676 19.682 48.385 24.674 56.962 13.01 22.356 50.582-.295 40.179-19.167-4.397-7.978-15.567-24.961-15.567-24.961l33.947 26.921" fill="#fff"/><path d="M645.675 453.618c-6.866 0-13.537-2.906-17.815-10.257-.737-1.267-1.906-3.119-3.385-5.464-8.957-14.2-25.63-40.63-21.457-53.137 2.025-6.068 14.313-17.49 24.874-25.535 6.877-5.239 23.723-17.2 31.621-15.112 24.649 6.518 47.472 27.65 66.546 47.461a2 2 0 1 1-2.882 2.774c-18.69-19.413-40.991-40.103-64.687-46.369-9.208-2.438-48.364 28.116-51.679 38.047-3.574 10.708 13.679 38.058 21.046 49.736 1.5 2.378 2.686 4.257 3.459 5.586 6.037 10.373 17.783 9.892 26.748 4.815 8.363-4.738 14.467-13.82 9.952-22.012-4.31-7.819-15.375-24.658-15.486-24.827a2 2 0 0 1 2.914-2.666l33.947 26.92a2 2 0 0 1 .324 2.81 1.998 1.998 0 0 1-2.81.324l-24.44-19.382c3.248 5.107 6.916 11.009 9.055 14.89 5.769 10.465-1.411 21.717-11.483 27.423-4.335 2.457-9.399 3.975-14.362 3.975z" fill="#190e64"/><path d="M706.687 426.301c-19.282-20.026-41.778-40.611-65.616-46.915-11.005-2.91-50.694 29.181-54.087 39.347-4.564 13.677 19.682 48.385 24.674 56.962 13.01 22.356 50.582-.295 40.179-19.167-4.397-7.978-15.567-24.961-15.567-24.961l25.976 23.424" fill="#fff"/><path d="M627.745 486.959c-6.866 0-13.537-2.906-17.815-10.258-.737-1.267-1.906-3.119-3.385-5.464-8.958-14.2-25.63-40.63-21.457-53.137 2.025-6.068 14.313-17.49 24.875-25.535 6.877-5.239 23.729-17.198 31.621-15.112 24.648 6.518 47.471 27.65 66.546 47.461a2 2 0 1 1-2.882 2.774c-18.69-19.413-40.992-40.103-64.687-46.369-9.208-2.442-48.364 28.116-51.679 38.047-3.573 10.708 13.679 38.057 21.046 49.736 1.5 2.379 2.686 4.258 3.459 5.587 6.037 10.373 17.784 9.892 26.747 4.815 8.363-4.737 14.467-13.819 9.952-22.012-4.31-7.819-15.375-24.658-15.486-24.827a2.001 2.001 0 0 1 3.01-2.585l25.976 23.424a2 2 0 0 1-2.679 2.971l-14.84-13.382c2.815 4.466 5.714 9.189 7.521 12.468 5.769 10.465-1.41 21.717-11.483 27.423-4.334 2.456-9.398 3.975-14.36 3.975z" fill="#190e64"/><path d="M686.965 460.079c-11.874-10.421-37.713-36.165-50.261-32.249-12.627 3.941-42.843 39.639-45.621 47.331-3.611 9.998 23.932 43.834 27.847 47.21 16.021 13.817 46.158-15.803 29.388-32.158l-7.587-8.754c7.587 8.754 10.856 11.904 19.952 24.931" fill="#fff"/><path d="M628.911 527.915c-4.381.001-8.333-1.483-11.286-4.029-3.089-2.665-32.646-37.707-28.422-49.404 2.807-7.773 33.168-44.274 46.906-48.561 11.069-3.455 29.223 11.882 46.868 27.887a451.203 451.203 0 0 0 5.307 4.768 2 2 0 0 1-2.639 3.007 465.04 465.04 0 0 1-5.356-4.812c-11.595-10.516-33.176-30.087-42.989-27.031-11.686 3.647-41.539 38.358-44.335 46.101-3.004 8.317 22.699 41.072 27.272 45.016 5.55 4.787 15.826 4.553 24.73-5.155 5.652-6.162 8.672-14.985 3.798-21.905-.533-.646-1.06-1.275-1.587-1.896-.084-.085-.169-.17-.256-.255a2.21 2.21 0 0 1-.115-.122l-7.587-8.754a1.999 1.999 0 1 1 3.022-2.621 785.132 785.132 0 0 0 3.64 4.163 398.493 398.493 0 0 1 4.272 4.913 18.562 18.562 0 0 1 1.596 1.903c2.912 3.524 6.008 7.58 10.571 14.117a2 2 0 0 1-3.28 2.29 327.823 327.823 0 0 0-3.796-5.332c-.097 5.044-2.241 10.652-7.332 16.203-6.148 6.704-12.98 9.509-19.002 9.509z" fill="#190e64"/><path d="M711.875 608.048c62.695-4.508 130.04-52.128 140.054-80.007-7.604-18.35-16.967-37.3-25.228-53.882-10.014 27.879-76.277 75.383-138.973 79.891 9.787 20.542 16.795 35.405 24.147 53.998z" fill="#fff"/><path d="M711.874 610.047a2 2 0 0 1-1.859-1.265c-7.18-18.154-13.892-32.464-24.093-53.872a2.001 2.001 0 0 1 1.662-2.855c37.959-2.729 71.635-20.522 88.331-30.886 24.841-15.419 44.037-34.138 48.904-47.687a2 2 0 0 1 3.672-.215c9.105 18.278 17.891 36.162 25.286 54.008.19.46.203.974.035 1.441-10.357 28.834-78 76.739-141.793 81.326a1.771 1.771 0 0 1-.145.005zm-21.095-54.241c9.296 19.531 15.684 33.249 22.411 50.134 60.342-4.994 125.999-50.758 136.589-77.861-6.764-16.241-14.695-32.558-22.959-49.191-14.467 28.57-76.587 71.417-136.041 76.918z" fill="#190e64"/><path d="M279.179 608.048c-62.75 78.608-147.17 188.19-67.292 298.959 37.789 52.403-14.813 142.723-76.313 139.502-93.43-8.367-132.35-129.744-133.543-213.056C-.008 690.98 96.917 520.33 200.005 412.597" fill="#fff"/><path d="M138.671 1048.589c-1.07 0-2.134-.028-3.201-.084-42.573-3.812-78.176-31.302-103.034-79.504C12.816 930.954.702 880.293.032 833.481-.92 767.036 19.75 689.448 59.806 609.104c35.497-71.198 84.773-141.477 138.754-197.89a2 2 0 1 1 2.89 2.766C62.998 558.67 2.535 728.902 4.032 833.424c.662 46.222 12.609 96.22 31.96 133.743 16.874 32.722 47.879 72.702 99.761 77.349 27.957 1.447 57.072-17.792 74.12-49.059 16.82-30.849 16.97-64.293.392-87.281-35.877-49.751-42.449-103.202-20.092-163.406 19.74-53.158 58.871-102.178 87.443-137.971a2.001 2.001 0 0 1 3.126 2.497c-58.805 73.666-147.673 184.992-67.232 296.541 17.487 24.249 17.439 59.323-.125 91.535-17.138 31.432-46.176 51.217-74.714 51.217z" fill="#190e64"/><path d="M196.827 905.83c44.338 46.137 234.737-92.924 303.724-109.592-57.454 13.881 8.042 110.832 40.005 155.737-137.378 55.482-303.947 192.905-459.846 73.523" fill="#fff"/><path d="M216.677 1074.789c-50.281.002-95.504-15.787-137.183-47.703a2 2 0 0 1 2.432-3.176c54.478 41.717 115.153 55.39 185.497 41.801 62.117-12 122.98-42.851 181.839-72.686 30.78-15.603 59.901-30.363 88.201-41.952-31.774-44.82-71.495-106.918-59.547-138.896 1.1-2.943 2.619-5.562 4.55-7.853-23.353 9.251-54.167 25.688-86.357 42.861-80.074 42.718-170.832 91.136-200.724 60.029a2 2 0 1 1 2.884-2.771c12.251 12.748 37.857 11.55 78.277-3.663 36.003-13.551 77.525-35.702 117.68-57.124 41.913-22.359 81.501-43.479 105.855-49.363a2 2 0 1 1 .94 3.889l-.06.015c-10.03 2.437-16.342 7.468-19.298 15.38-12.792 34.237 42.389 111.762 60.522 137.237a2.002 2.002 0 0 1-.88 3.015c-28.878 11.663-58.682 26.77-90.235 42.764-59.104 29.96-120.222 60.939-182.889 73.046-17.752 3.428-34.907 5.149-51.504 5.15z" fill="#190e64"/><path d="M638.966 788.628c8.974-.128 106.088 15.046 116.336 21.932 11.071 7.439 38.967 39.691 46.939 48.295 15.195 16.401-14.4 44.218-29.361 29.525s-37.694-36.369-37.694-36.369l-49.095-10.014c-10.111 19.843-29.422 38.668-67.065 34.086" fill="#fff"/><path d="M782.962 894.532c-4.383 0-8.307-1.604-11.484-4.725-13.671-13.426-34.092-32.932-37.256-35.951l-47.054-9.599c-13.785 25.896-37.396 37.586-68.384 33.811a2 2 0 0 1-1.744-2.227 2.007 2.007 0 0 1 2.227-1.744c30.128 3.673 52.012-7.438 65.041-33.009a1.996 1.996 0 0 1 2.182-1.052l49.095 10.015c.368.075.708.253.98.513.227.217 22.915 21.854 37.715 36.39 4.787 4.702 14.083 5.74 23.18-3.097 9.169-8.905 8.271-18.292 3.313-23.643-1.545-1.669-3.767-4.144-6.58-7.278-10.93-12.179-31.275-34.848-40.008-40.716-9.63-6.471-106.31-21.713-115.191-21.592-1.102-.017-2.013-.867-2.029-1.972a2 2 0 0 1 1.971-2.028l.108-.001c9.153 0 106.218 14.777 117.372 22.272 9.146 6.146 28.932 28.192 40.754 41.364 2.69 2.998 5.013 5.586 6.538 7.231 8.667 9.355 4.282 21.711-3.461 29.231-4.126 4.007-9.099 6.677-14.003 7.518a19.19 19.19 0 0 1-3.282.289z" fill="#190e64"/><path d="M500.551 796.238c59.347-20.716 120.77-32.631 184.693-17.524 42.998 10.161 69.618 53.256 59.457 96.254-8.631 36.521-41.025 61.227-76.935 61.615a80.103 80.103 0 0 1-19.319-2.158c-30.307-7.162-68.242 2.387-107.89 17.55-31.966-44.904-45.193-96.858-40.006-155.737z" fill="#fff"/><path d="M540.557 953.974a2 2 0 0 1-1.63-.84c-32.007-44.962-45.588-97.809-40.368-157.072a2.002 2.002 0 0 1 1.333-1.713c33.438-11.672 63.221-18.964 91.052-22.293 33.428-4 64.426-2.457 94.759 4.711 21.316 5.037 39.394 18.074 50.905 36.708 11.511 18.635 15.076 40.637 10.039 61.952-8.691 36.777-41.119 62.748-78.859 63.155a82.432 82.432 0 0 1-19.801-2.212c-25.734-6.082-59.644-.53-106.716 17.472a2.008 2.008 0 0 1-.714.132zm-38.124-156.273c-4.78 57.211 8.292 108.289 38.861 151.853 47.109-17.861 81.332-23.283 107.613-17.075a78.31 78.31 0 0 0 18.837 2.104c35.897-.388 66.743-25.092 75.01-60.075 4.792-20.276 1.4-41.204-9.549-58.93s-28.146-30.126-48.422-34.918c-54.757-12.94-111.043-7.688-182.35 17.041z" fill="#190e64"/><path d="M647.349 772.732c34.799 1.631 114.324 10.335 128.344 31.329 11.754 17.601 30.602 54.877 37.123 67.022 14.033 26.135-24.561 52.987-40.279 25.48-11.015-19.277-32.356-54.926-32.356-54.926l-51.138-11.021" fill="#fff"/><path d="M790.837 910.191c-8.766 0-15.952-5.487-20.036-12.636-10.002-17.504-28.765-48.918-31.891-54.146l-50.289-10.838a2 2 0 1 1 .842-3.91l51.138 11.021c.542.116 1.01.452 1.294.928.214.356 21.478 35.888 32.377 54.962 4.517 7.904 14.232 14.676 26.74 7.742 10.028-5.556 16.954-18.408 10.04-31.284-1.333-2.483-3.182-6.016-5.378-10.216-8.359-15.979-22.351-42.722-31.646-56.642-5.747-8.604-24.798-16.237-55.095-22.072-25.348-4.882-53.647-7.524-71.68-8.37a2 2 0 0 1-1.904-2.092c.052-1.104.997-1.943 2.092-1.904 1.119.053 112.108 5.556 129.913 32.218 9.415 14.097 23.468 40.959 31.864 57.009 2.188 4.184 4.03 7.703 5.358 10.177 4.725 8.799 3.464 16.591 1.575 21.579-2.372 6.26-7.184 11.763-13.201 15.097-4.248 2.353-8.329 3.376-12.113 3.377z" fill="#190e64"/><path d="M678.339 805.759c25.234 3.918 67.257 9.129 79.122 31.413 9.947 18.682 5.802 72.446 5.095 86.213-1.28 24.94-43.379 28.936-43.312-.509.054-23.763-1.204-52.469-1.204-52.469l-45.914-12.674" fill="#fff"/><path d="M739.359 945.546c-.235 0-.468-.003-.703-.01-9.901-.265-21.45-6.36-21.413-22.665.046-20.421-.89-44.791-1.141-50.924l-44.509-12.286c-1.064-.294-1.689-1.396-1.396-2.46s1.391-1.696 2.46-1.396l45.914 12.674a2 2 0 0 1 1.466 1.84c.013.288 1.259 29.024 1.206 52.562-.031 13.409 9.03 18.43 17.52 18.657 10.223.276 21.19-6.479 21.795-18.256.06-1.169.145-2.624.244-4.322 1.021-17.569 3.734-64.242-5.107-80.849-10.737-20.166-48.404-25.91-73.33-29.711-1.49-.227-2.938-.447-4.333-.664a2 2 0 1 1 .614-3.953c1.393.217 2.836.437 4.323.663 25.715 3.922 64.577 9.848 76.257 31.786 9.37 17.597 6.707 63.401 5.57 82.96a732.548 732.548 0 0 0-.242 4.295c-.717 13.942-13.246 22.058-25.195 22.059z" fill="#190e64"/><path d="M662.612 840.438c18.516 3.528 62.659 13.352 69.767 29.977 8.321 19.461-7.543 55.545-13.579 67.938-7.211 14.804-28.86 9.383-45.776 3.108-9.804-3.637-16.534-12.42-11.08-29.569 3.504-11.019 18.724-8.147 18.724-8.147l-33.624-12.768" fill="#fff"/><path d="M700.696 949.805c-10.929 0-22.853-4.424-28.367-6.47-7.51-2.786-19.094-10.654-12.291-32.051 1.733-5.451 6.04-8.111 10.553-9.228l-24.256-9.211a2 2 0 0 1 1.42-3.74l33.624 12.769a2 2 0 0 1 1.215 2.413 1.993 1.993 0 0 1-2.296 1.422c-.032-.006-3.601-.651-7.464-.033-4.765.765-7.787 3.06-8.983 6.821-4.359 13.709-.946 23.075 9.871 27.088 24.081 8.935 38.239 8.245 43.282-2.108 5.231-10.74 21.667-47.263 13.538-66.276-4.67-10.922-29.565-21.418-68.303-28.798a2 2 0 0 1 .749-3.93c23.546 4.485 64.11 14.498 71.232 31.155 3.761 8.798 3.317 21.565-1.32 37.95-3.761 13.287-9.32 25.533-12.3 31.65-3.917 8.037-11.625 10.577-19.904 10.577z" fill="#190e64"/><path d="M643.882 878.267c13.742 2.922 60.843 17.551 65.6 29.805 4.786 12.332-11.258 62.577-18.589 66.201-10.184 5.034-47.614-8.2-55.307-10.642-16.56-5.257-10.49-28.897-5.587-30.9 10.541 1.225 20.865 3.891 31.008 7.759-12.571-4.749-26.031-8.66-41.38-8.43" fill="#fff"/><path d="M684.229 977.395c-11.509 0-30.184-5.58-46.282-10.889-1.227-.404-2.232-.736-2.966-.969-7.526-2.39-11.865-8.518-12.216-17.255-.211-5.235 1.108-10.653 3.149-14.085a83.311 83.311 0 0 0-6.257-.139 1.985 1.985 0 0 1-2.03-1.97 2.001 2.001 0 0 1 1.97-2.03c15.606-.253 29.032 3.727 40.234 7.856.629.23 1.259.466 1.888.705a2 2 0 0 1-1.42 3.74c-.615-.232-1.239-.466-1.869-.698-9.405-3.436-18.814-5.743-28.005-6.866-1.428 1.223-3.932 6.702-3.665 13.325.197 4.902 1.993 11.242 9.43 13.604.744.236 1.763.572 3.008.982 42.335 13.961 48.711 10.808 50.807 9.772 2.423-1.198 8.009-12.478 12.808-28.612 4.853-16.318 6.738-30.085 4.803-35.072-1.779-4.583-12.094-10.876-28.299-17.265-14.776-5.826-29.833-10.027-35.852-11.308a1.999 1.999 0 0 1-1.54-2.372 1.996 1.996 0 0 1 2.372-1.54c7.471 1.589 61.358 16.379 67.047 31.037 5.148 13.263-11.15 64.558-19.567 68.718-1.867.926-4.448 1.331-7.548 1.331z" fill="#190e64"/><path d="M510.817 428.454c-.79 0-1.539-.472-1.854-1.249l-15.971-39.406a2 2 0 0 1 3.707-1.503l15.971 39.406a2 2 0 0 1-1.853 2.752zm-82.399 8.196a2 2 0 0 1-1.756-2.953l24.971-46.059a2 2 0 1 1 3.516 1.906l-24.971 46.059a1.998 1.998 0 0 1-1.76 1.047zM169.272 868.955c16.937 18.332 39.317 25.31 81.639 19.644 67.934-9.094 176.895-92.357 197.007-92.362 17.868-.004 29.031 8.023 29.031 8.023 7.131-2.884 14.808-5.408 23.601-8.023-5.082 55.013 10.938 106.474 40.005 155.737l-22.217 9.031s4.434 12.216-8.219 27.295c-11.475 13.674-220.816 145.359-387.071 63.442" fill="#fff"/><path d="M243.93 1080.318c-40.171.002-82.048-7.211-121.766-26.781a2 2 0 0 1 1.768-3.588c86.527 42.633 183.749 25.718 250.073 4.019 74.558-24.394 129.145-60.473 134.583-66.952 11.676-13.914 8.029-24.878 7.868-25.338a2.01 2.01 0 0 1 1.131-2.524l20.076-8.161c-30.42-52.251-43.31-102.024-39.355-151.991-8.367 2.543-14.809 4.769-20.607 7.114a2.004 2.004 0 0 1-1.917-.23c-.104-.074-10.91-7.646-27.848-7.646h-.016c-7.145.001-28.744 12.716-53.754 27.438-42.466 24.998-100.625 59.233-142.988 64.905-40.864 5.472-65.018-.402-83.374-20.27a2 2 0 1 1 2.938-2.715c17.354 18.784 40.504 24.295 79.905 19.02 41.561-5.564 99.317-39.562 141.489-64.388 27.604-16.249 47.549-27.989 55.783-27.991h.017c15.547 0 26.125 5.819 29.242 7.776 6.308-2.506 13.401-4.897 22.804-7.693a2.002 2.002 0 0 1 2.561 2.1c-4.687 50.729 8.312 101.277 39.736 154.536a2.003 2.003 0 0 1-.97 2.869l-20.606 8.377c.811 4.199 1.422 14.902-9.051 27.383-5.589 6.659-61.096 43.544-136.403 68.183-36.686 12.001-82.754 22.547-131.319 22.548z" fill="#190e64"/><path d="M476.95 804.26c-11.978 61.705 17.081 139.814 41.389 156.745 17.011-6.584 35.349-14.612 53.272-19.552-24.308-16.93-49.146-94.065-37.167-155.77-21.374 5.367-40.29 12.186-57.494 18.577z" fill="#fff"/><path d="M518.339 963.005c-.403 0-.803-.122-1.143-.358-12.696-8.843-26.135-32.849-35.074-62.649-5.849-19.496-14.552-57.909-7.135-96.118a2 2 0 0 1 1.267-1.494c17.459-6.485 36.296-13.267 57.703-18.643a2.001 2.001 0 0 1 2.451 2.32c-12.124 62.452 13.321 137.711 36.347 153.748a2 2 0 0 1-.612 3.569c-13.551 3.735-27.362 9.258-40.718 14.599a1225.455 1225.455 0 0 1-12.363 4.892 2.02 2.02 0 0 1-.723.134zm-39.635-157.262c-11.046 59.544 16.267 135.193 39.926 153.004 3.699-1.439 7.405-2.921 11.309-4.482 12.239-4.894 24.857-9.938 37.396-13.666-11.388-10.206-22.6-32.498-29.849-59.726-8.345-31.345-10.342-64.838-5.573-92.479-19.55 5.086-36.981 11.329-53.209 17.349z" fill="#190e64"/></svg></g><g transform="translate(1147.2 1524.0) rotate(-2.0699338906196023 67.19999999999993 216.5999999999999) scale(1.7418125737095147 1.7188088955898975)"><svg width="77.161" height="252.035" viewBox="0 0 77.161 252.035"><path d="m3.529 21.528-1.22-5.21C.842 10.049 4.734 3.777 11.003 2.31c6.269-1.468 12.541 2.425 14.008 8.694l1.22 5.21z" fill="#fff"/><g fill="#190e64"><path d="M3.53 23.528a2.004 2.004 0 0 1-1.948-1.544l-1.22-5.21C-1.354 9.441 3.214 2.079 10.547.362c7.337-1.718 14.695 2.852 16.412 10.185l1.22 5.21a2 2 0 0 1-1.491 2.403L3.986 23.475a1.965 1.965 0 0 1-.456.053zM13.66 4.001c-.727 0-1.464.083-2.201.255-5.186 1.214-8.416 6.42-7.202 11.605l.764 3.263 18.808-4.403-.764-3.263c-1.041-4.447-5.021-7.457-9.405-7.457z"/><path d="m3.53 21.53 22.702-5.314 48.922 209.016-22.703 5.313z"/><path d="M52.456 232.539a2 2 0 0 1-1.945-1.544L1.582 21.984a2 2 0 0 1 1.491-2.404l22.702-5.314a2 2 0 0 1 2.403 1.491l48.929 209.01a2 2 0 0 1-1.491 2.404l-22.702 5.314a1.942 1.942 0 0 1-.458.054zM5.933 23.02 53.95 228.135l18.808-4.403L24.741 18.617zm63.053 226.974a1.528 1.528 0 0 1-1.836-1.14l-1.71-7.304a1.528 1.528 0 1 1 2.976-.696l1.71 7.304a1.528 1.528 0 0 1-1.14 1.836z"/><path d="M68.638 252.035a3.535 3.535 0 0 1-3.436-2.724l-1.71-7.304a3.534 3.534 0 0 1 2.631-4.239 3.532 3.532 0 0 1 4.24 2.63l1.709 7.305a3.532 3.532 0 0 1-3.434 4.332zm.349-2.041h.01z"/></g><path d="m52.458 230.538 12.669 14.639 5.179-1.212 4.855-18.741z" fill="#fff"/><path d="M65.127 247.178a2.004 2.004 0 0 1-1.513-.691l-12.669-14.639a2 2 0 0 1 1.056-3.256l22.702-5.314a2.002 2.002 0 0 1 2.393 2.449l-4.854 18.741a2.002 2.002 0 0 1-1.48 1.446l-5.179 1.212a2.078 2.078 0 0 1-.456.052zm-8.991-15.446 9.713 11.223 2.824-.661 3.722-14.368z" fill="#190e64"/><path d="M57.791 202.173c-3.178.744-6.387-1.248-7.131-4.426l-10.532-44.989c-.744-3.178 1.248-6.387 4.426-7.131 3.178-.744 6.387 1.248 7.131 4.426l10.532 44.989c.744 3.178-1.248 6.387-4.426 7.131z" fill="#fff"/><path d="M56.435 204.33a7.905 7.905 0 0 1-4.177-1.2 7.88 7.88 0 0 1-3.545-4.928l-10.532-44.989a7.883 7.883 0 0 1 .99-5.989 7.87 7.87 0 0 1 4.927-3.545 7.871 7.871 0 0 1 5.988.99 7.88 7.88 0 0 1 3.546 4.927l10.532 44.989c.997 4.26-1.657 8.537-5.917 9.535a7.932 7.932 0 0 1-1.812.21zm1.356-2.157h.01zM45.903 147.47a3.9 3.9 0 0 0-3.333 1.864 3.907 3.907 0 0 0-.494 2.967l10.532 44.989a3.896 3.896 0 0 0 1.76 2.44 3.91 3.91 0 0 0 2.968.494 3.94 3.94 0 0 0 2.935-4.728l-10.532-44.989a3.9 3.9 0 0 0-1.761-2.44 3.94 3.94 0 0 0-2.075-.597z" fill="#190e64"/></svg></g><g transform="translate(181.2 1638.0) rotate(0.0 565.1999999999999 237.0) scale(1.5293800896467837 1.5265798813518927)"><svg width="739.123" height="310.498" viewBox="0 0 739.123 310.498"><g><path d="M118.117 135.918c44.338 46.137 234.737-92.924 303.724-109.592-57.454 13.881 8.042 110.832 40.005 155.737C324.468 237.545 157.899 374.968 2 255.586" style="fill:#fff"/><path d="M137.968 304.877c-50.281.001-95.505-15.787-137.184-47.703a2 2 0 1 1 2.432-3.176c122.038 93.453 252.358 27.396 367.336-30.884 30.78-15.602 59.901-30.363 88.201-41.952-31.774-44.82-71.494-106.918-59.547-138.896 1.1-2.943 2.619-5.563 4.551-7.853-23.353 9.25-54.166 25.689-86.356 42.861-80.073 42.718-170.831 91.139-200.726 60.03a2 2 0 0 1 2.885-2.772c12.253 12.749 37.856 11.55 78.278-3.663 36.003-13.551 77.525-35.703 117.68-57.125 41.913-22.359 81.501-43.479 105.854-49.363a2 2 0 0 1 .939 3.888c-10.064 2.432-16.396 7.468-19.358 15.396-12.792 34.237 42.39 111.762 60.523 137.237a2.002 2.002 0 0 1-.881 3.014c-28.879 11.663-58.682 26.77-90.235 42.764-59.104 29.959-120.222 60.939-182.89 73.045-17.751 3.429-34.906 5.15-51.503 5.15Z" style="fill:#190e64"/></g><g><g><path d="M560.256 18.717c8.974-.128 106.088 15.046 116.336 21.932 11.071 7.439 38.967 39.691 46.939 48.295 15.195 16.401-14.4 44.218-29.361 29.525-14.96-14.693-37.694-36.369-37.694-36.369l-49.095-10.014c-10.111 19.843-29.422 38.668-67.065 34.086" style="fill:#fff"/><path d="M704.234 124.587c-4.111 0-8.117-1.401-11.466-4.691-13.672-13.427-34.095-32.934-37.257-35.951l-47.054-9.598c-13.784 25.896-37.404 37.581-68.383 33.81a1.999 1.999 0 1 1 .483-3.971c30.131 3.667 52.013-7.438 65.041-33.008a1.998 1.998 0 0 1 2.182-1.051l49.095 10.014c.369.075.709.252.98.512.228.217 22.916 21.854 37.716 36.39 6.829 6.707 16.802 3.097 23.18-3.096 6.606-6.417 10.192-16.216 3.313-23.643-1.546-1.668-3.766-4.142-6.577-7.274-10.931-12.18-31.277-34.852-40.01-40.72-9.589-6.443-105.528-21.593-115.077-21.593-.051 0-.095.002-.145 0a2 2 0 0 1-.027-4h.107c9.153 0 106.221 14.779 117.372 22.272 9.146 6.146 28.934 28.195 40.757 41.368 2.688 2.996 5.01 5.583 6.533 7.228 8.668 9.355 4.283 21.71-3.46 29.23-4.776 4.639-11.157 7.771-17.303 7.771Z" style="fill:#190e64"/></g><g><path d="M421.841 26.326C481.188 5.61 542.611-6.305 606.534 8.802c42.998 10.161 69.618 53.256 59.457 96.254-8.631 36.522-41.025 61.227-76.935 61.615a80.103 80.103 0 0 1-19.319-2.158c-30.307-7.162-68.242 2.387-107.89 17.55-31.966-44.903-45.192-96.857-40.005-155.737Z" style="fill:#fff"/><path d="M461.847 184.063a2 2 0 0 1-1.63-.84c-32.008-44.961-45.59-97.808-40.368-157.072a2 2 0 0 1 1.333-1.713c33.438-11.672 63.221-18.964 91.052-22.293 33.43-3.999 64.426-2.458 94.76 4.711 21.315 5.037 39.394 18.074 50.905 36.708 11.511 18.634 15.075 40.636 10.038 61.952-8.691 36.777-41.12 62.747-78.86 63.155a82.626 82.626 0 0 1-19.8-2.212c-25.736-6.081-59.645-.529-106.716 17.472a2.004 2.004 0 0 1-.714.132ZM423.723 27.789c-4.78 57.211 8.292 108.29 38.861 151.853 47.106-17.862 81.329-23.288 107.612-17.075a78.293 78.293 0 0 0 18.837 2.104c35.897-.388 66.743-25.091 75.011-60.075 9.892-41.856-16.114-83.956-57.971-93.848-54.76-12.941-111.045-7.688-182.351 17.04Z" style="fill:#190e64"/></g><g><path d="M568.639 2.82c34.799 1.631 114.324 10.335 128.344 31.329 11.754 17.601 30.602 54.877 37.123 67.022 14.033 26.135-24.561 52.987-40.279 25.48-11.015-19.277-32.356-54.926-32.356-54.926l-51.138-11.021" style="fill:#fff"/><path d="M711.975 140.191c-7.334 0-14.759-3.576-19.885-12.547-10.003-17.505-28.765-48.917-31.891-54.146L609.911 62.66a2 2 0 0 1 .842-3.91l51.138 11.021a2 2 0 0 1 1.295.928c.214.357 21.478 35.887 32.377 54.961 7.226 12.647 18.922 12.073 26.741 7.742 10.027-5.556 16.953-18.408 10.04-31.284-1.334-2.484-3.183-6.018-5.381-10.219-8.359-15.978-22.35-42.72-31.645-56.638-12.392-18.557-82.604-28.373-126.774-30.442a2 2 0 0 1-1.904-2.092c.053-1.104 1.015-1.947 2.092-1.904 1.119.053 112.107 5.553 129.913 32.217 9.414 14.096 23.467 40.957 31.862 57.005 2.19 4.186 4.031 7.706 5.36 10.181 8.127 15.135.076 30.192-11.625 36.675-3.741 2.073-7.989 3.29-12.268 3.291Z" style="fill:#190e64"/></g><g><path d="M599.629 35.848c25.234 3.918 67.257 9.129 79.122 31.413 9.947 18.682 5.802 72.446 5.095 86.213-1.28 24.939-43.379 28.936-43.312-.509.054-23.763-1.204-52.469-1.204-52.469l-45.914-12.674" style="fill:#fff"/><path d="M660.649 175.634c-.235 0-.469-.003-.703-.009-9.9-.265-21.449-6.36-21.412-22.665.046-20.421-.891-44.792-1.142-50.924L592.883 89.75a2.001 2.001 0 0 1 1.064-3.856l45.914 12.673a2 2 0 0 1 1.466 1.84c.013.288 1.259 29.024 1.206 52.561-.03 13.409 9.029 18.43 17.52 18.657 10.228.291 21.19-6.479 21.795-18.255.06-1.168.145-2.625.243-4.322 1.021-17.57 3.734-64.243-5.107-80.848-10.737-20.167-48.405-25.911-73.331-29.712-1.489-.227-2.937-.448-4.331-.664a2 2 0 0 1-1.67-2.283 2.005 2.005 0 0 1 2.283-1.67c1.392.216 2.835.437 4.321.663 25.716 3.921 64.578 9.848 76.259 31.786 9.369 17.596 6.706 63.401 5.569 82.96a587.987 587.987 0 0 0-.242 4.295c-.716 13.942-13.244 22.057-25.193 22.058Z" style="fill:#190e64"/></g><g><path d="M583.902 70.527c18.516 3.528 62.659 13.352 69.767 29.977 8.321 19.461-7.543 55.545-13.579 67.938-7.211 14.804-28.86 9.383-45.776 3.108-9.804-3.637-16.534-12.42-11.08-29.57 3.504-11.019 18.724-8.146 18.724-8.146l-33.624-12.768" style="fill:#fff"/><path d="M621.986 179.894c-10.928 0-22.852-4.424-28.366-6.47-7.511-2.786-19.095-10.655-12.292-32.051 1.734-5.452 6.039-8.112 10.554-9.228l-24.257-9.211a2 2 0 0 1 1.42-3.74l33.624 12.768a2 2 0 0 1-1.081 3.835c-.547-.101-13.526-2.398-16.447 6.787-4.359 13.709-.946 23.076 9.87 27.089 24.084 8.935 38.239 8.245 43.282-2.108 5.231-10.74 21.667-47.262 13.538-66.276-4.67-10.922-29.565-21.418-68.303-28.798a2.001 2.001 0 0 1-1.591-2.339 2.003 2.003 0 0 1 2.339-1.59c23.546 4.486 64.11 14.498 71.232 31.155 8.557 20.012-6.675 55.34-13.62 69.6-3.914 8.036-11.623 10.576-19.902 10.576Z" style="fill:#190e64"/></g><g><path d="M565.173 108.356c13.742 2.922 60.843 17.551 65.6 29.805 4.786 12.332-11.257 62.577-18.589 66.201-10.184 5.034-47.614-8.2-55.307-10.642-16.56-5.257-10.49-28.897-5.587-30.9 10.541 1.225 20.865 3.891 31.008 7.759-12.571-4.749-26.031-8.66-41.38-8.43" style="fill:#fff"/><path d="M605.519 207.484c-11.508 0-30.182-5.58-46.28-10.888-1.229-.405-2.234-.737-2.969-.97-7.525-2.389-11.864-8.516-12.216-17.253-.211-5.236 1.108-10.654 3.149-14.086a83.87 83.87 0 0 0-6.257-.139c-1.083-.016-2.014-.865-2.03-1.97a2 2 0 0 1 1.97-2.03c15.631-.219 29.003 3.718 40.197 7.843.643.234 1.283.474 1.926.719a2 2 0 0 1-1.42 3.74c-.627-.237-1.262-.474-1.904-.711-9.392-3.429-18.788-5.732-27.969-6.854-1.428 1.223-3.932 6.704-3.665 13.327.197 4.902 1.993 11.241 9.43 13.602.744.236 1.765.573 3.011.983 10.471 3.453 42.335 13.961 50.805 9.772 2.424-1.198 8.01-12.478 12.808-28.612 4.854-16.318 6.739-30.084 4.804-35.072-4.104-10.572-47.367-25.003-64.151-28.572a2 2 0 1 1 .832-3.912c7.471 1.588 61.357 16.378 67.048 31.037 5.147 13.263-11.15 64.557-19.566 68.717-1.87.924-4.45 1.329-7.551 1.329Z" style="fill:#190e64"/></g></g><g><path d="M90.562 99.043c16.937 18.332 39.317 25.31 81.639 19.644 67.934-9.094 176.895-92.357 197.007-92.362 17.868-.004 29.031 8.023 29.031 8.023 7.131-2.884 14.808-5.408 23.601-8.023-5.082 55.013 10.938 106.474 40.005 155.737l-22.217 9.031s4.434 12.216-8.219 27.295c-11.475 13.674-220.816 145.359-387.071 63.442" style="fill:#fff"/><path d="M165.221 310.407c-40.171 0-82.048-7.212-121.766-26.782a2 2 0 1 1 1.768-3.588c86.525 42.633 183.75 25.716 250.072 4.019 74.558-24.393 129.146-60.472 134.583-66.952 11.676-13.914 8.028-24.878 7.867-25.338a2.01 2.01 0 0 1 1.131-2.525l20.076-8.16c-30.42-52.251-43.31-102.024-39.354-151.991-8.374 2.545-14.815 4.771-20.607 7.114-.639.259-1.36.17-1.918-.23-.104-.075-10.91-7.647-27.851-7.647h-.013c-7.144.002-28.742 12.716-53.752 27.438C272.99 80.764 214.831 115 172.468 120.671c-40.86 5.47-65.019-.402-83.374-20.27a2 2 0 0 1 2.937-2.715c17.354 18.784 40.502 24.295 79.905 19.02 41.563-5.564 99.319-39.563 141.491-64.388 27.604-16.249 47.547-27.989 55.78-27.991h.014c15.55 0 26.129 5.82 29.246 7.777 6.302-2.503 13.394-4.895 22.804-7.694a2 2 0 0 1 2.562 2.101c-4.686 50.728 8.312 101.277 39.736 154.537a2 2 0 0 1-.97 2.868l-20.606 8.376c.812 4.2 1.422 14.903-9.051 27.383-5.589 6.66-61.097 43.544-136.403 68.183-36.686 12.002-82.753 22.548-131.318 22.549Z" style="fill:#190e64"/></g><g><path d="M398.24 34.349c-11.978 61.705 17.08 139.814 41.389 156.745 17.011-6.584 35.349-14.612 53.272-19.552-24.308-16.93-49.146-94.065-37.167-155.77-21.374 5.368-40.289 12.187-57.494 18.578Z" style="fill:#fff"/><path d="M439.629 193.094c-.403 0-.803-.122-1.143-.359-12.696-8.842-26.136-32.848-35.075-62.648-5.849-19.497-14.552-57.909-7.134-96.119a2 2 0 0 1 1.267-1.494c17.459-6.485 36.296-13.267 57.702-18.643a1.998 1.998 0 0 1 2.45 2.321c-12.122 62.452 13.322 137.711 36.348 153.748a1.999 1.999 0 0 1-.611 3.569c-13.546 3.734-27.352 9.254-40.703 14.592a1205.124 1205.124 0 0 1-12.379 4.897c-.233.09-.479.135-.722.135ZM399.994 35.831c-11.046 59.545 16.268 135.194 39.926 153.004 3.704-1.441 7.415-2.925 11.325-4.488 12.234-4.892 24.846-9.934 37.381-13.661-11.388-10.206-22.6-32.498-29.849-59.725-8.345-31.345-10.342-64.837-5.574-92.479-19.55 5.086-36.98 11.33-53.209 17.349Z" style="fill:#190e64"/></g></svg></g><g transform="translate(1803.6 1094.3999999999999) rotate(0.0 546.5999999999999 450.6) scale(1.6804371719097062 1.6784810975314484)"><svg width="650.545" height="536.914" viewBox="0 0 650.545 536.914"><g fill="#190e64"><path d="M608.545 428.612H2L42 2h606.545z"/><path d="M608.545 430.612H2a2 2 0 0 1-1.991-2.186l40-426.612A2 2 0 0 1 42 0h606.545a2 2 0 0 1 1.992 2.186l-40 426.612a2.001 2.001 0 0 1-1.992 1.814zm-604.349-4h602.528L646.349 4H43.821z"/><path d="M352.489 534.914H246.186l10.144-106.302h106.302z"/><path d="M352.489 536.915H246.187a2.001 2.001 0 0 1-1.991-2.19l10.143-106.303a2 2 0 0 1 1.991-1.81h106.303a2.001 2.001 0 0 1 1.991 2.19L354.48 535.104a2 2 0 0 1-1.991 1.811zm-104.103-4h102.285l9.762-102.303H258.148z"/></g><path d="M256.929 534.914h-15.743l10.144-106.302h15.742z" fill="#fff"/><path d="M256.929 536.915h-15.742a2.001 2.001 0 0 1-1.991-2.19l10.143-106.303a2 2 0 0 1 1.991-1.81h15.742a2.001 2.001 0 0 1 1.991 2.19L258.92 535.105a2 2 0 0 1-1.991 1.81zm-13.543-4h11.724l9.762-102.303h-11.724z" fill="#190e64"/><path d="M457.199 534.914H152.576l1.908-19.918h304.623z" fill="#190e64"/><path d="M457.199 536.915H152.576a2.001 2.001 0 0 1-1.991-2.191l1.908-19.919a2 2 0 0 1 1.991-1.809h304.623a2.001 2.001 0 0 1 1.991 2.191l-1.908 19.919a2 2 0 0 1-1.991 1.809zm-302.422-4h300.604l1.525-15.919H156.302z" fill="#190e64"/><path d="M152.576 534.914H89.029l1.908-19.918h63.547z" fill="#fff"/><path d="M152.576 536.915H89.029a2.001 2.001 0 0 1-1.991-2.191l1.908-19.919a2 2 0 0 1 1.991-1.809h63.547a2.001 2.001 0 0 1 1.991 2.191l-1.908 19.919a2 2 0 0 1-1.991 1.809zm-61.346-4h59.529l1.525-15.919h-59.53z" fill="#190e64"/><path d="M21.159 428.612H2L42 2h19.159z" fill="#fff"/><path d="M21.159 430.612H2a2 2 0 0 1-1.991-2.186l40-426.612A2 2 0 0 1 42 0h19.159a2 2 0 0 1 1.991 2.186l-40 426.612a2 2 0 0 1-1.991 1.814zm-16.963-4h15.142L58.963 4H43.821z" fill="#190e64"/><path d="M362.632 430.612h-95.561a2 2 0 0 1 0-4h95.561a2 2 0 0 1 0 4zm-8.242 86.384h-95.561a2 2 0 0 1 0-4h95.561a2 2 0 0 1 0 4z" fill="#fff"/></svg></g><g transform="translate(970.8 1952.3999999999999) rotate(0.0 411.0 23.399999999999977) scale(1.521163042029994 1.5244299674267086)"><svg width="540.376" height="30.7" viewBox="0 0 540.376 30.7"><path d="M222.922 2h300.063c8.495 0 15.391 6.897 15.391 15.391V28.7H222.922z" fill="#fff"/><path d="M538.376 30.7H222.922a2 2 0 0 1-2-2V2a2 2 0 0 1 2-2h300.063c9.59 0 17.392 7.802 17.392 17.391V28.7a2 2 0 0 1-2 2zm-313.454-4h311.454v-9.309c0-7.384-6.008-13.391-13.392-13.391H224.922z" fill="#190e64"/><path d="M17.391 2h210.168c8.495 0 15.391 6.897 15.391 15.391V28.7H2V17.391C2 8.896 8.897 2 17.391 2z" fill="#fff"/><path d="M242.95 30.7H2a2 2 0 0 1-2-2V17.391C0 7.802 7.802 0 17.391 0h210.168c9.59 0 17.391 7.802 17.391 17.391V28.7a2 2 0 0 1-2 2zM4 26.7h236.95v-9.309C240.95 10.007 234.943 4 227.559 4H17.391C10.007 4 4 10.007 4 17.391z" fill="#190e64"/></svg></g></svg>