<svg viewBox="-0.5 -0.5 400 400" xmlns="http://www.w3.org/2000/svg" height="400" width="400"><path d="M52.44057000000001 226.90930500000002c-0.241395 -1.12917 -1.470315 -1.1251799999999998 -2.16258 -0.520695a0.8538600000000001 0.8538600000000001 0 0 0 -0.5985 -0.5985c-5.10321 -0.692265 -12.307155 -0.5246850000000001 -13.66575 5.536125a36.708 36.708 0 0 0 0.34713 11.50317c0.357105 3.02442 0.428925 6.749085 2.85285 8.99346 3.369555 3.1201800000000004 10.533600000000002 1.713705 13.4064 -1.641885 2.2344000000000004 -2.6094600000000003 1.5760500000000002 -6.747090000000001 1.470315 -9.94707a75.48681 75.48681 0 0 0 -1.649865 -13.324605000000002Zm-14.098665 8.129625c0.716205 -7.182 5.187 -7.307685 10.984470000000002 -7.439355000000001a1.27281 1.27281 0 0 0 0.5187 -0.17157c0 0.37506 0.399 2.53365 0.5187 3.192a134.00814 134.00814 0 0 1 -10.292205000000001 16.432815l-0.692265 -0.692265c-0.34513499999999997 -1.8154500000000002 -0.52668 -3.6309000000000005 -0.692265 -5.448345a31.90803 31.90803 0 0 1 -0.34513499999999997 -5.87328Zm13.059270000000001 10.810905c-0.576555 2.5935 -4.3231649999999995 6.054825000000001 -7.437360000000001 5.017425 -0.5985 -0.5985 -1.210965 -1.210965 -1.8174450000000002 -1.90323a61.34226 61.34226 0 0 0 8.90967 -14.364c0.173565 1.8154500000000002 0.34513499999999997 3.7186800000000004 0.432915 5.621910000000001a38.04864 38.04864 0 0 1 -0.08778 5.6278950000000005Z" fill="#14bef0" stroke-width="1"></path><path d="M86.42938500000001 226.47639c0.181545 -0.94962 -0.871815 -2.1745500000000004 -1.901235 -1.470315 -4.099725 2.80497 -6.08475 7.323645 -9.342585 10.984470000000002 -0.6104700000000001 0.68628 0.257355 1.995 1.039395 1.382535 2.9306550000000002 -2.260335 4.75608 -5.448345 7.263795 -8.041845 -0.5985 6.91866 0.9097200000000001 13.749540000000001 0.951615 20.670195000000003a1.08129 1.08129 0 0 0 2.16258 0c0 -7.870275 -1.661835 -15.728580000000001 -0.173565 -23.52504Z" fill="#14bef0" stroke-width="1"></path><path d="M133.39368000000002 250.17300000000003c2.2503599999999997 -2.5935 1.5760500000000002 -6.747090000000001 1.470315 -9.94707a79.650375 79.650375 0 0 0 -1.5561 -13.318620000000001c-0.22942500000000002 -1.131165 -1.470315 -1.1251799999999998 -2.16258 -0.5187a0.84987 0.84987 0 0 0 -0.5985 -0.5985c-5.10321 -0.692265 -12.30915 -0.5246850000000001 -13.66575 5.536125a36.646155 36.646155 0 0 0 0.34513499999999997 11.50317c0.357105 3.02442 0.428925 6.75108 2.854845 8.99346 3.2737950000000002 3.02841 10.459785000000002 1.63989 13.312635 -1.649865Zm-1.210965 -4.32516c-0.576555 2.5935 -4.3231649999999995 6.054825000000001 -7.437360000000001 5.017425 -0.5985 -0.5985 -1.210965 -1.210965 -1.8154500000000002 -1.90323a61.40011500000001 61.40011500000001 0 0 0 8.907675 -14.364 58.874445 58.874445 0 0 1 0.34513499999999997 11.2518Zm-12.967500000000001 -10.810905c0.716205 -7.182 5.187 -7.307685 10.984470000000002 -7.439355000000001a1.254855 1.254855 0 0 0 0.5187 -0.17157c0 0.37506 0.399 2.53365 0.5187 3.192a134.00814 134.00814 0 0 1 -10.292205000000001 16.432815l-0.6902699999999999 -0.692265c-0.34713 -1.8154500000000002 -0.488775 -3.6348900000000004 -0.692265 -5.448345a28.370895 28.370895 0 0 1 -0.353115 -5.871285Z" fill="#14bef0" stroke-width="1"></path><path d="M164.270295 229.33123500000002c-0.5985 6.91866 0.9097200000000001 13.749540000000001 0.951615 20.670195000000003a1.08129 1.08129 0 0 0 2.16258 0c0.04389 -7.870275 -1.661835 -15.728580000000001 -0.173565 -23.52504 0.181545 -0.94962 -0.871815 -2.1745500000000004 -1.901235 -1.470315 -4.099725 2.80497 -6.08475 7.323645 -9.342585 10.984470000000002 -0.6104700000000001 0.68628 0.25137000000000004 1.9790400000000001 1.039395 1.382535 2.910705 -2.200485 4.75608 -5.448345 7.263795 -8.041845Z" fill="#14bef0" stroke-width="1"></path><path d="M214.17522 250.17300000000003c2.2503599999999997 -2.5935 1.5760500000000002 -6.747090000000001 1.470315 -9.94707a79.650375 79.650375 0 0 0 -1.5561 -13.318620000000001c-0.22942500000000002 -1.131165 -1.470315 -1.1251799999999998 -2.16258 -0.5187a0.84987 0.84987 0 0 0 -0.5985 -0.5985c-5.10321 -0.692265 -12.30915 -0.5246850000000001 -13.66575 5.536125a36.646155 36.646155 0 0 0 0.34513499999999997 11.50317c0.357105 3.02442 0.428925 6.75108 2.854845 8.99346 3.2737950000000002 3.02841 10.459785000000002 1.63989 13.312635 -1.649865Zm-1.210965 -4.32516c-0.576555 2.5935 -4.3231649999999995 6.054825000000001 -7.437360000000001 5.017425 -0.5985 -0.5985 -1.210965 -1.210965 -1.8154500000000002 -1.90323a61.40011500000001 61.40011500000001 0 0 0 8.907675 -14.364 58.874445 58.874445 0 0 1 0.34513499999999997 11.2518Zm-12.967500000000001 -10.810905c0.716205 -7.182 5.187 -7.307685 10.984470000000002 -7.439355000000001a1.254855 1.254855 0 0 0 0.5187 -0.17157c0 0.37506 0.399 2.53365 0.5187 3.192a134.00814 134.00814 0 0 1 -10.292205000000001 16.432815l-0.6902699999999999 -0.692265c-0.34713 -1.8154500000000002 -0.52668 -3.6309000000000005 -0.692265 -5.448345a31.738455000000002 31.738455000000002 0 0 1 -0.353115 -5.871285Z" fill="#14bef0" stroke-width="1"></path><path d="M245.139615 229.33123500000002c-0.5985 6.91866 0.9077250000000001 13.749540000000001 0.951615 20.670195000000003a1.08129 1.08129 0 0 0 2.160585 0c0.04389 -7.870275 -1.65984 -15.728580000000001 -0.17157 -23.52504 0.181545 -0.94962 -0.8738100000000001 -2.1745500000000004 -1.90323 -1.470315 -4.099725 2.80497 -6.08475 7.323645 -9.34059 10.984470000000002 -0.6104700000000001 0.68628 0.25137000000000004 1.9790400000000001 1.0374 1.382535 2.910705 -2.200485 4.758075 -5.448345 7.26579 -8.041845Z" fill="#14bef0" stroke-width="1"></path><path d="M296.42707500000006 240.22792500000003a86.47527 86.47527 0 0 0 -1.5561 -13.318620000000001c-0.22942500000000002 -1.131165 -1.470315 -1.1251799999999998 -2.16258 -0.5187a0.84987 0.84987 0 0 0 -0.5985 -0.5985c-5.10321 -0.692265 -12.30915 -0.5246850000000001 -13.66575 5.536125a36.646155 36.646155 0 0 0 0.34513499999999997 11.50317c0.357105 3.02442 0.428925 6.749085 2.854845 8.99346 3.36756 3.1201800000000004 10.591455000000002 1.7635800000000001 13.4064 -1.641885 2.1865200000000002 -2.663325 1.526175 -6.753075 1.37655 -9.955050000000002Zm-15.654765000000001 -5.187c0.716205 -7.182 5.187 -7.307685 10.984470000000002 -7.439355000000001a1.254855 1.254855 0 0 0 0.5187 -0.17157c0 0.37506 0.399 2.53365 0.5187 3.192a134.00814 134.00814 0 0 1 -10.292205000000001 16.432815l-0.6902699999999999 -0.692265c-0.34713 -1.8154500000000002 -0.52668 -3.6309000000000005 -0.692265 -5.448345a31.738455000000002 31.738455000000002 0 0 1 -0.34713 -5.875275Zm13.061265 10.810905c-0.57855 2.5935 -4.32516 6.054825000000001 -7.439355000000001 5.017425 -0.5985 -0.5985 -1.210965 -1.210965 -1.8154500000000002 -1.90323a61.40011500000001 61.40011500000001 0 0 0 8.907675 -14.364c0.173565 1.8154500000000002 0.34713 3.7186800000000004 0.432915 5.621910000000001a38.04864 38.04864 0 0 1 -0.085785 5.6259Z" fill="#14bef0" stroke-width="1"></path><path d="M326.87277 250.00143a1.08129 1.08129 0 0 0 2.16258 0c0.041895 -7.870275 -1.661835 -15.728580000000001 -0.173565 -23.52504 0.181545 -0.94962 -0.8738100000000001 -2.1745500000000004 -1.90323 -1.470315 -4.099725 2.80497 -6.08475 7.323645 -9.34059 10.984470000000002 -0.6104700000000001 0.68628 0.257355 1.995 1.0374 1.382535 2.93265 -2.260335 4.758075 -5.448345 7.26579 -8.041845 -0.60648 6.91866 0.8598450000000001 13.749540000000001 0.951615 20.670195000000003Z" fill="#14bef0" stroke-width="1"></path><path d="M136.33431 278.62968c-0.2394 -1.12917 -1.470315 -1.1251799999999998 -2.16258 -0.5187a0.85785 0.85785 0 0 0 -0.5985 -0.5985c-5.10321 -0.6902699999999999 -12.307155 -0.5246850000000001 -13.66575 5.536125a36.64416 36.64416 0 0 0 0.34713 11.50317c0.357105 3.026415 0.428925 6.749085 2.85285 8.995455000000002 3.369555 3.118185 10.531605 1.71171 13.4064 -1.64388 2.232405 -2.607465 1.5760500000000002 -6.747090000000001 1.470315 -9.94707a75.512745 75.512745 0 0 0 -1.649865 -13.326600000000001Zm-14.010885 8.129625c0.716205 -7.182 5.187 -7.307685 10.984470000000002 -7.437360000000001a1.298745 1.298745 0 0 0 0.5187 -0.173565c0 0.37506 0.399 2.53365 0.5187 3.192a134.00814 134.00814 0 0 1 -10.292205000000001 16.432815l-0.692265 -0.692265c-0.34513499999999997 -1.8154500000000002 -0.48079500000000003 -3.6348900000000004 -0.692265 -5.448345a28.438725 28.438725 0 0 1 -0.34513499999999997 -5.87328Zm12.967500000000001 10.810905c-0.5985 2.5935 -4.32516 6.054825000000001 -7.437360000000001 5.017425 -0.5985 -0.5985 -1.210965 -1.210965 -1.8174450000000002 -1.90323a61.368195 61.368195 0 0 0 8.90967 -14.364 60.72780000000001 60.72780000000001 0 0 1 0.35112 11.249805Z" fill="#14bef0" stroke-width="1"></path><path d="M170.32512000000003 278.28454500000004c0.181545 -0.951615 -0.8738100000000001 -2.176545 -1.90323 -1.470315 -4.097729999999999 2.802975 -6.08475 7.323645 -9.34059 10.9725 -0.6104700000000001 0.688275 0.257355 1.995 1.0374 1.38453 2.93265 -2.260335 4.758075 -5.448345 7.26579 -8.043840000000001 -0.5985 6.91866 0.9077250000000001 13.751535 0.951615 20.67219a1.08129 1.08129 0 0 0 2.16258 0c0.04389 -7.8622950000000005 -1.661835 -15.716610000000001 -0.173565 -23.515065000000003Z" fill="#14bef0" stroke-width="1"></path><path d="M217.20363 278.62968c-0.241395 -1.12917 -1.470315 -1.1251799999999998 -2.16258 -0.5187a0.8598450000000001 0.8598450000000001 0 0 0 -0.5985 -0.5985c-5.10321 -0.6902699999999999 -12.307155 -0.5246850000000001 -13.663755000000002 5.536125a36.64416 36.64416 0 0 0 0.34513499999999997 11.50317c0.357105 3.026415 0.428925 6.749085 2.854845 8.995455000000002 3.36756 3.118185 10.531605 1.71171 13.404405 -1.64388 2.2344000000000004 -2.607465 1.6059750000000002 -6.747090000000001 1.470315 -9.94707a79.6005 79.6005 0 0 0 -1.649865 -13.326600000000001Zm-14.098665 8.129625c0.716205 -7.182 5.187 -7.307685 10.984470000000002 -7.437360000000001a1.298745 1.298745 0 0 0 0.5187 -0.173565c0 0.37506 0.399 2.53365 0.5187 3.192a134.00814 134.00814 0 0 1 -10.292205000000001 16.432815l-0.692265 -0.692265c-0.34513499999999997 -1.8154500000000002 -0.5226900000000001 -3.6309000000000005 -0.692265 -5.448345a31.81227 31.81227 0 0 1 -0.34513499999999997 -5.87328Zm12.967500000000001 10.810905c-0.5985 2.5935 -4.32516 6.054825000000001 -7.437360000000001 5.017425 -0.5985 -0.5985 -1.210965 -1.210965 -1.8174450000000002 -1.90323a61.368195 61.368195 0 0 0 8.90967 -14.364 60.72780000000001 60.72780000000001 0 0 1 0.35112 11.249805Z" fill="#14bef0" stroke-width="1"></path><path d="M251.10666 278.28454500000004c0.177555 -0.951615 -0.8738100000000001 -2.176545 -1.90323 -1.470315 -4.097729999999999 2.802975 -6.08475 7.323645 -9.34059 10.9725 -0.6104700000000001 0.688275 0.257355 1.995 1.0374 1.38453 2.93265 -2.260335 4.758075 -5.448345 7.26579 -8.043840000000001 -0.5985 6.91866 0.9077250000000001 13.751535 0.951615 20.67219a1.08129 1.08129 0 0 0 2.16258 0c0.04389 -7.8622950000000005 -1.6179450000000002 -15.716610000000001 -0.173565 -23.515065000000003Z" fill="#14bef0" stroke-width="1"></path><path d="M51.488955000000004 188.50755c2.232405 -2.6094600000000003 1.5740550000000002 -6.747090000000001 1.470315 -9.94707a79.65237 79.65237 0 0 0 -1.5580950000000002 -13.318620000000001c-0.22942500000000002 -1.131165 -1.470315 -1.1251799999999998 -2.16258 -0.5187a0.8538600000000001 0.8538600000000001 0 0 0 -0.5985 -0.5985c-5.10321 -0.692265 -12.307155 -0.5246850000000001 -13.66575 5.536125a36.64815 36.64815 0 0 0 0.34713 11.50317c0.357105 3.02442 0.428925 6.749085 2.85285 8.99346 3.36357 3.1122 10.439835 1.7057250000000002 13.314630000000001 -1.649865Zm-1.214955 -4.32516c-0.5985 2.5935 -4.32516 6.054825000000001 -7.439355000000001 5.017425 -0.5985 -0.5985 -1.210965 -1.210965 -1.8154500000000002 -1.90323a61.40011500000001 61.40011500000001 0 0 0 8.907675 -14.364 60.536280000000005 60.536280000000005 0 0 1 0.34713 11.249805Zm-12.967500000000001 -10.72512c0.73017 -7.182 5.187 -7.307685 10.984470000000002 -7.437360000000001a1.2787950000000001 1.2787950000000001 0 0 0 0.5187 -0.173565c0 0.37506 0.399 2.51769 0.5187 3.192a134.33930999999998 134.33930999999998 0 0 1 -10.292205000000001 16.432815l-0.692265 -0.6902699999999999c-0.34513499999999997 -1.8174450000000002 -0.52668 -3.632895 -0.692265 -5.450340000000001a32.5185 32.5185 0 0 1 -0.34513499999999997 -5.87328Z" fill="#14bef0" stroke-width="1"></path><path d="M82.451355 167.749575c-0.5985 6.91866 0.9077250000000001 13.751535 0.951615 20.670195000000003a1.08129 1.08129 0 0 0 2.16258 0c0.04389 -7.870275 -1.661835 -15.726585 -0.173565 -23.52504 0.181545 -0.94962 -0.8738100000000001 -2.1745500000000004 -1.90323 -1.470315 -4.097729999999999 2.80497 -6.08475 7.325640000000001 -9.34059 10.984470000000002 -0.6104700000000001 0.68628 0.257355 1.995 1.0374 1.38453 2.93265 -2.260335 4.758075 -5.448345 7.26579 -8.043840000000001Z" fill="#14bef0" stroke-width="1"></path><path d="M63.943740000000005 30.056670000000004c-0.241395 -1.127175 -1.470315 -1.1231849999999999 -2.16258 -0.5187a0.8538600000000001 0.8538600000000001 0 0 0 -0.5985 -0.5985c-5.10321 -0.692265 -12.307155 -0.5246850000000001 -13.66575 5.53413a36.708 36.708 0 0 0 0.34713 11.50317c0.357105 3.026415 0.428925 6.75108 2.85285 8.995455000000002 3.369555 3.118185 10.533600000000002 1.713705 13.4064 -1.64388 2.2344000000000004 -2.607465 1.596 -6.747090000000001 1.470315 -9.945075000000001a79.650375 79.650375 0 0 0 -1.649865 -13.326600000000001Zm-14.098665 8.13162c0.7321650000000001 -7.182 5.187 -7.309680000000001 10.984470000000002 -7.439355000000001a1.3047300000000002 1.3047300000000002 0 0 0 0.5187 -0.17157c0 0.37306500000000004 0.399 2.515695 0.5187 3.192a134.00814 134.00814 0 0 1 -10.292205000000001 16.432815l-0.692265 -0.692265c-0.34513499999999997 -1.8174450000000002 -0.52668 -3.632895 -0.692265 -5.448345a32.717999999999996 32.717999999999996 0 0 1 -0.34513499999999997 -5.87328Zm12.967500000000001 10.723125000000001c-0.5985 2.5935 -4.32516 6.054825000000001 -7.437360000000001 5.017425 -0.5985 -0.5985 -1.210965 -1.210965 -1.8174450000000002 -1.90323a61.396125 61.396125 0 0 0 8.90967 -14.364 60.69987 60.69987 0 0 1 0.35112 11.249805Z" fill="#14bef0" stroke-width="1"></path><path d="M94.99192500000001 32.47860000000001c-0.5985 6.920655 0.9097200000000001 13.751535 0.951615 20.67219a1.08129 1.08129 0 0 0 2.16258 0c0.04389 -7.872270000000001 -1.661835 -15.728580000000001 -0.173565 -23.52504 0.181545 -0.94962 -0.871815 -2.1745500000000004 -1.901235 -1.470315 -4.099725 2.80497 -6.08475 7.323645 -9.342585 10.984470000000002 -0.6104700000000001 0.68628 0.25137000000000004 1.9770450000000002 1.039395 1.382535 2.910705 -2.200485 4.75608 -5.448345 7.263795 -8.043840000000001Z" fill="#14bef0" stroke-width="1"></path><path d="M131.40466500000002 54.880455000000005c3.37155 3.1161900000000005 10.531605 1.71171 13.4064 -1.64388 2.232405 -2.607465 1.5740550000000002 -6.747090000000001 1.470315 -9.94707a79.88379 79.88379 0 0 0 -1.5561 -13.318620000000001c-0.23142000000000001 -1.131165 -1.470315 -1.1251799999999998 -2.16258 -0.5187a0.8598450000000001 0.8598450000000001 0 0 0 -0.5985 -0.5985c-5.10321 -0.6902699999999999 -12.307155 -0.5246850000000001 -13.66575 5.536125A36.708 36.708 0 0 0 128.63760000000002 45.885000000000005c0.357105 3.026415 0.4389 6.8348700000000004 2.767065 8.995455000000002Zm12.28122 -5.969040000000001c-0.5985 2.5935 -4.3231649999999995 6.054825000000001 -7.437360000000001 5.017425 -0.5985 -0.5985 -1.210965 -1.210965 -1.8174450000000002 -1.90323a61.330290000000005 61.330290000000005 0 0 0 8.90967 -14.364c0.173565 1.8154500000000002 0.34513499999999997 3.7186800000000004 0.432915 5.619915000000001a39.263595 39.263595 0 0 1 -0.08778 5.6298900000000005Zm-13.059270000000001 -10.723125000000001c0.7321650000000001 -7.182 5.187 -7.309680000000001 10.984470000000002 -7.439355000000001a1.294755 1.294755 0 0 0 0.5187 -0.17157c0 0.37306500000000004 0.399 2.515695 0.5187 3.192a134.00814 134.00814 0 0 1 -10.292205000000001 16.432815L131.67000000000002 49.517895c-0.34513499999999997 -1.8174450000000002 -0.52668 -3.632895 -0.692265 -5.448345a32.717999999999996 32.717999999999996 0 0 1 -0.35112 -5.88126Z" fill="#14bef0" stroke-width="1"></path><path d="M168.50967 40.52244c2.9925 -2.1945 4.75608 -5.448345 7.263795 -8.043840000000001 -0.5985 6.920655 0.9097200000000001 13.751535 0.951615 20.67219a1.08129 1.08129 0 0 0 2.16258 0c0.04389 -7.872270000000001 -1.661835 -15.728580000000001 -0.173565 -23.52504 0.181545 -0.94962 -0.871815 -2.1745500000000004 -1.901235 -1.470315 -4.099725 2.80497 -5.965050000000001 7.43337 -9.342585 10.984470000000002 -0.6743100000000001 0.708225 0.18753 2.00697 1.039395 1.382535Z" fill="#14bef0" stroke-width="1"></path><path d="M99.75 85.23837c0.181545 -0.94962 -0.8738100000000001 -2.1745500000000004 -1.90323 -1.470315C93.747045 86.583 91.77000000000001 91.0917 88.50618 94.7625c-0.6104700000000001 0.68628 0.257355 1.995 1.0374 1.382535 2.9306550000000002 -2.260335 4.758075 -5.448345 7.26579 -8.041845 -0.5985 6.91866 0.9077250000000001 13.749540000000001 0.951615 20.670195000000003a1.08129 1.08129 0 0 0 2.16258 0c0.041895 -7.880250000000001 -1.661835 -15.738555000000002 -0.173565 -23.535015Z" fill="#14bef0" stroke-width="1"></path><path d="M146.63250000000002 85.671285c-0.2394 -1.12917 -1.470315 -1.1251799999999998 -2.16258 -0.520695a0.851865 0.851865 0 0 0 -0.5985 -0.5985c-5.10321 -0.692265 -12.307155 -0.5246850000000001 -13.66575 5.536125a36.64815 36.64815 0 0 0 0.34713 11.50317c0.357105 3.02442 0.428925 6.749085 2.85285 8.99346 3.369555 3.1201800000000004 10.531605 1.713705 13.4064 -1.641885 2.2344000000000004 -2.6094600000000003 1.5760500000000002 -6.747090000000001 1.470315 -9.94707a75.488805 75.488805 0 0 0 -1.649865 -13.324605000000002Zm-14.09667 8.129625c0.716205 -7.182 5.187 -7.309680000000001 10.984470000000002 -7.439355000000001a1.3047300000000002 1.3047300000000002 0 0 0 0.5187 -0.17157c0 0.37306500000000004 0.399 2.515695 0.5187 3.192a134.492925 134.492925 0 0 1 -10.2942 16.440795l-0.692265 -0.692265c-0.34513499999999997 -1.8154500000000002 -0.52668 -3.6309000000000005 -0.692265 -5.448345a31.734465 31.734465 0 0 1 -0.349125 -5.88126Zm13.059270000000001 10.810905c-0.576555 2.5935 -4.32516 6.054825000000001 -7.437360000000001 5.01543 -0.5985 -0.5985 -1.210965 -1.20897 -1.8174450000000002 -1.901235A61.408095 61.408095 0 0 0 145.236 93.366c0.17157 1.8154500000000002 0.34513499999999997 3.7186800000000004 0.43092 5.621910000000001a38.04864 38.04864 0 0 1 -0.077805 5.623905000000001Z" fill="#14bef0" stroke-width="1"></path><path d="M180.617325 85.23837c0.181545 -0.94962 -0.8738100000000001 -2.1745500000000004 -1.90323 -1.470315 -4.097729999999999 2.8149450000000003 -6.08475 7.323645 -9.338595 10.994445 -0.6104700000000001 0.68628 0.257355 1.995 1.0374 1.382535 2.93265 -2.260335 4.758075 -5.448345 7.26579 -8.041845 -0.5985 6.91866 0.9077250000000001 13.749540000000001 0.951615 20.670195000000003a1.08129 1.08129 0 0 0 2.16258 0c-0.0019950000000000002 -7.880250000000001 -1.66383 -15.738555000000002 -0.17556 -23.535015Z" fill="#14bef0" stroke-width="1"></path><path d="M225.50682 30.056670000000004c-0.241395 -1.127175 -1.470315 -1.1231849999999999 -2.16258 -0.5187a0.8538600000000001 0.8538600000000001 0 0 0 -0.5985 -0.5985c-5.10321 -0.692265 -12.307155 -0.5246850000000001 -13.66575 5.53413a36.708 36.708 0 0 0 0.34713 11.50317c0.357105 3.026415 0.428925 6.75108 2.854845 8.995455000000002 3.36756 3.118185 10.531605 1.713705 13.404405 -1.64388 2.2344000000000004 -2.607465 1.5760500000000002 -6.745095 1.470315 -9.945075000000001a75.532695 75.532695 0 0 0 -1.649865 -13.326600000000001Zm-14.012880000000001 8.13162c0.7321650000000001 -7.182 5.187 -7.309680000000001 10.984470000000002 -7.439355000000001a1.28478 1.28478 0 0 0 0.5187 -0.17157c0 0.37506 0.399 2.53365 0.5187 3.192a134.00814 134.00814 0 0 1 -10.292205000000001 16.432815l-0.6902699999999999 -0.692265c-0.34713 -1.8174450000000002 -0.52668 -3.632895 -0.692265 -5.448345a32.717999999999996 32.717999999999996 0 0 1 -0.34713 -5.87328Zm12.967500000000001 10.723125000000001c-0.5985 2.5935 -4.3231649999999995 6.054825000000001 -7.437360000000001 5.017425 -0.5985 -0.5985 -1.210965 -1.210965 -1.8154500000000002 -1.90323a61.388145 61.388145 0 0 0 8.907675 -14.364 60.69987 60.69987 0 0 1 0.35112 11.249805Z" fill="#14bef0" stroke-width="1"></path><path d="M259.49563500000005 29.62575c0.181545 -0.94962 -0.871815 -2.1745500000000004 -1.901235 -1.470315 -4.099725 2.80497 -6.08475 7.323645 -9.342585 10.984470000000002 -0.6104700000000001 0.68628 0.257355 1.995 1.039395 1.382535 2.9306550000000002 -2.260335 4.75608 -5.448345 7.263795 -8.043840000000001 -0.5985 6.920655 0.9097200000000001 13.751535 0.951615 20.67219a1.08129 1.08129 0 0 0 2.16258 0c0.04389 -7.8642900000000004 -1.661835 -15.728580000000001 -0.173565 -23.52504Z" fill="#14bef0" stroke-width="1"></path><path d="M306.374145 30.056670000000004c-0.241395 -1.127175 -1.470315 -1.1231849999999999 -2.16258 -0.5187a0.851865 0.851865 0 0 0 -0.5985 -0.5985c-5.10321 -0.692265 -12.30915 -0.5246850000000001 -13.66575 5.53413a36.64416 36.64416 0 0 0 0.34513499999999997 11.50317c0.357105 3.026415 0.428925 6.75108 2.854845 8.995455000000002 3.36756 3.118185 10.531605 1.713705 13.4064 -1.64388 2.232405 -2.607465 1.6059750000000002 -6.747090000000001 1.470315 -9.945075000000001a79.861845 79.861845 0 0 0 -1.649865 -13.326600000000001Zm-14.106645 8.13162c0.7321650000000001 -7.182 5.187 -7.309680000000001 10.984470000000002 -7.439355000000001a1.28478 1.28478 0 0 0 0.5187 -0.17157c0 0.37506 0.399 2.53365 0.5187 3.192a134.00814 134.00814 0 0 1 -10.292205000000001 16.432815l-0.6902699999999999 -0.692265c-0.34713 -1.8174450000000002 -0.52668 -3.632895 -0.692265 -5.448345a32.717999999999996 32.717999999999996 0 0 1 -0.34713 -5.87328Zm12.967500000000001 10.723125000000001c-0.5985 2.5935 -4.3231649999999995 6.054825000000001 -7.437360000000001 5.017425 -0.5985 -0.5985 -1.210965 -1.210965 -1.8154500000000002 -1.90323a61.388145 61.388145 0 0 0 8.907675 -14.364 60.69987 60.69987 0 0 1 0.35910000000000003 11.249805Z" fill="#14bef0" stroke-width="1"></path><path d="M330.15853500000003 40.52244c2.9925 -2.1945 4.758075 -5.448345 7.26579 -8.043840000000001 -0.5985 6.920655 0.9077250000000001 13.751535 0.951615 20.67219a1.08129 1.08129 0 0 0 2.16258 0c0.041895 -7.872270000000001 -1.661835 -15.728580000000001 -0.173565 -23.52504 0.181545 -0.94962 -0.8738100000000001 -2.1745500000000004 -1.90323 -1.470315 -4.099725 2.80497 -5.965050000000001 7.43337 -9.34059 10.984470000000002 -0.6743100000000001 0.708225 0.185535 2.00697 1.0374 1.382535Z" fill="#14bef0" stroke-width="1"></path><path d="M340.017825 86.88225c-0.2394 -1.12917 -1.470315 -1.1251799999999998 -2.160585 -0.520695a0.8538600000000001 0.8538600000000001 0 0 0 -0.5985 -0.5985c-5.10321 -0.692265 -12.307155 -0.5246850000000001 -13.66575 5.536125a36.64815 36.64815 0 0 0 0.34713 11.50317c0.357105 3.02442 0.428925 6.749085 2.85285 8.99346 3.369555 3.1201800000000004 10.531605 1.713705 13.4064 -1.641885 2.2344000000000004 -2.6094600000000003 1.6079700000000001 -6.749085 1.470315 -9.94707a80.508225 80.508225 0 0 0 -1.65186 -13.324605000000002Zm-14.09667 8.21541c0.73017 -7.182 5.187 -7.307685 10.984470000000002 -7.437360000000001a1.30872 1.30872 0 0 0 0.5187 -0.173565c0 0.37506 0.399 2.53365 0.5187 3.192a134.249535 134.249535 0 0 1 -10.292205000000001 16.432815l-0.692265 -0.692265c-0.34513499999999997 -1.8154500000000002 -0.52668 -3.6309000000000005 -0.692265 -5.448345a32.5185 32.5185 0 0 1 -0.34513499999999997 -5.87328Zm12.967500000000001 10.72512c-0.5985 2.5935 -4.32516 6.054825000000001 -7.439355000000001 5.01543 -0.5985 -0.5985 -1.210965 -1.210965 -1.8154500000000002 -1.901235a61.33428 61.33428 0 0 0 8.907675 -14.364 60.536280000000005 60.536280000000005 0 0 1 0.353115 11.249805Z" fill="#14bef0" stroke-width="1"></path><path d="M373.92285000000004 86.53512c0.17556 -0.94962 -0.8738100000000001 -2.1745500000000004 -1.90323 -1.470315 -4.099725 2.80497 -6.08475 7.325640000000001 -9.34059 10.984470000000002 -0.6104700000000001 0.68628 0.257355 1.995 1.0374 1.38453 2.93265 -2.26233 4.758075 -5.450340000000001 7.26579 -8.043840000000001 -0.5985 6.91866 0.9077250000000001 13.751535 0.951615 20.670195000000003a1.08129 1.08129 0 0 0 2.16258 0c0.041895 -7.870275 -1.6179450000000002 -15.73656 -0.173565 -23.52504Z" fill="#14bef0" stroke-width="1"></path><path d="M303.77865 326.112675c-0.2394 -1.12917 -1.470315 -1.1251799999999998 -2.160585 -0.5187a0.863835 0.863835 0 0 0 -0.5985 -0.5985c-5.10321 -0.692265 -12.307155 -0.5246850000000001 -13.66575 5.536125a36.64416 36.64416 0 0 0 0.34713 11.50317c0.357105 3.026415 0.428925 6.749085 2.85285 8.995455000000002 3.369555 3.118185 10.531605 1.71171 13.4064 -1.64388 2.2344000000000004 -2.607465 1.5760500000000002 -6.747090000000001 1.470315 -9.94707a75.488805 75.488805 0 0 0 -1.65186 -13.326600000000001Zm-14.104650000000001 8.129625c0.73017 -7.182 5.187 -7.307685 10.984470000000002 -7.437360000000001a1.30872 1.30872 0 0 0 0.5187 -0.173565c0 0.37506 0.399 2.53365 0.5187 3.192a134.492925 134.492925 0 0 1 -10.292205000000001 16.432815l-0.692265 -0.692265c-0.34513499999999997 -1.8154500000000002 -0.52668 -3.6309000000000005 -0.692265 -5.448345a32.5185 32.5185 0 0 1 -0.34513499999999997 -5.87328Zm12.967500000000001 10.810905c-0.64239 2.5935 -4.32516 6.054825000000001 -7.439355000000001 5.017425 -0.5985 -0.5985 -1.210965 -1.210965 -1.8154500000000002 -1.90323a61.360215000000004 61.360215000000004 0 0 0 8.907675 -14.364 56.38668 56.38668 0 0 1 0.361095 11.249805Z" fill="#14bef0" stroke-width="1"></path><path d="M337.76946 325.67976c0.181545 -0.94962 -0.8738100000000001 -2.1745500000000004 -1.90323 -1.470315 -4.097729999999999 2.80497 -6.082755000000001 7.325640000000001 -9.34059 10.984470000000002 -0.6104700000000001 0.68628 0.257355 1.995 1.039395 1.38453 2.9306550000000002 -2.26233 4.75608 -5.450340000000001 7.263795 -8.043840000000001 -0.5985 6.91866 0.9077250000000001 13.751535 0.951615 20.670195000000003a1.08129 1.08129 0 0 0 2.16258 0c0.009975000000000001 -7.8603000000000005 -1.661835 -15.726585 -0.173565 -23.52504Z" fill="#14bef0" stroke-width="1"></path><path d="M234.58806 123.64012500000001c-0.25935 -1.729665 -2.76906 -1.210965 -2.854845 0.34513499999999997a15.100155 15.100155 0 0 0 0.25935 2.5935c0.301245 1.7216850000000001 2.94063 1.210965 3.026415 -0.432915 -0.20748 -0.19750500000000001 -0.007980000000000001 -0.61845 -0.43092 -2.50572Z" fill="#191919" stroke-width="1"></path><path d="M250.50217500000002 121.65111a1.514205 1.514205 0 0 0 -1.470315 1.470315 5.835375 5.835375 0 0 0 0.17157 3.192 1.5341550000000002 1.5341550000000002 0 0 0 1.729665 0.692265 1.3965 1.3965 0 0 0 0.951615 -1.90323l0.08778 0.085785a8.778 8.778 0 0 1 0.085785 -2.0748 1.661835 1.661835 0 0 0 -1.5561 -1.462335Z" fill="#191919" stroke-width="1"></path><path d="M245.65831500000002 143.877405a1.011465 1.011465 0 0 0 -0.25935 -1.995c-1.1251799999999998 -0.17157 -3.5471100000000004 0.08778 -4.498725 -0.5187a6.17253 6.17253 0 0 1 -1.1231849999999999 -2.767065 18.49764 18.49764 0 0 1 0.25935 -3.7186800000000004c0.2394 -2.85684 0.49476000000000003 -5.623905000000001 0.692265 -8.476754999999999 0.077805 -1.1251799999999998 -1.63989 -1.1231849999999999 -1.729665 0 -0.33316500000000004 4.15359 -1.5561 8.30319 -1.470315 12.454785000000001 0.08778 4.331145 4.04586 6.2563200000000005 8.129625 5.021415Z" fill="#191919" stroke-width="1"></path><path d="M376.777695 248.87625000000003a4.750095 4.750095 0 0 1 -0.692265 -0.5985 5.274780000000001 5.274780000000001 0 0 0 0.17157 -3.9780300000000004 33.80727 33.80727 0 0 0 8.30319 -16.432815 36.414735 36.414735 0 0 0 -5.01543 -26.986365 5.312685 5.312685 0 0 0 -0.5985 -3.1122c18.978435 -19.92606 8.778 -49.114905 -12.02187 -58.98616500000001a47.481 47.481 0 0 0 -36.84366 -0.86583c-1.729665 -8.129625 -9.859290000000001 -15.481200000000001 -18.1545 -16.865730000000003a16.4787 16.4787 0 0 0 -4.758075 -9.254805000000001 9.238845000000001 9.238845000000001 0 0 0 -1.470315 -8.99346c-1.7955 -2.5256700000000003 -7.870275 -4.239375 -10.810905 -2.68128a13.667745 13.667745 0 0 0 -1.995 -13.14705c-9.625875 -10.527615 -18.595395 -4.670295 -18.595395 -4.670295s-3.8922450000000004 -7.439355000000001 -17.210865000000002 -6.6593100000000005a17.422335 17.422335 0 0 0 -27.3315 1.729665 16.21536 16.21536 0 0 0 -14.184450000000002 1.641885 16.66623 16.66623 0 0 0 -6.6593100000000005 12.967500000000001A16.424835 16.424835 0 0 0 198.001755 114.912a13.651785 13.651785 0 0 0 -8.734110000000001 10.810905c-0.488775 3.636885 5.101215 9.177 5.187 9.177 0.085785 0.085785 -0.5985 2.94063 -0.86583 4.49673a19.812345 19.812345 0 0 0 -12.28122 16.692165000000003 18.180435 18.180435 0 0 0 -17.90313 -3.632895 4.11768 4.11768 0 0 0 -4.410945 -3.1122c-8.82189 -19.201875 -32.5185 -29.579865 -53.27847 -26.986365a4.474785 4.474785 0 0 0 -7.263795 -3.026415c-6.22839 -8.648325 -20.67219 -9.254805000000001 -29.061165000000003 -1.5561C68.95917000000001 101.67118500000001 49.6755 91.63833 34.713 95.361c-14.621355 3.628905 -28.528500000000005 17.556 -23.78838 33.553905 5.474280000000001 18.50163 30.357915000000002 14.457765 45.061065 14.70315a175.6398 175.6398 0 0 0 32.69406000000001 -1.641885c3.110205 -0.53466 7.11417 -0.7581 9.51216 -3.192a14.629335000000001 14.629335000000001 0 0 0 3.192 -9.775500000000001 6.465795000000001 6.465795000000001 0 0 0 -0.08778 -1.298745 4.15359 4.15359 0 0 0 4.151595 -3.1122A58.718835000000006 58.718835000000006 0 0 1 136.68144 130.473a42.06657 42.06657 0 0 1 19.72656 19.892145000000003 4.933635 4.933635 0 0 0 -1.210965 5.448345 70.39557 70.39557 0 0 0 -15.481200000000001 11.59095 1.0852800000000002 1.0852800000000002 0 0 0 -0.34513499999999997 0.5985c-21.968940000000003 -10.898685 -42.671055 27.624765 -25.861185 42.726915000000005 4.921665000000001 4.420920000000001 11.936085 4.05384 18.076695 4.3231649999999995 9.428370000000001 0.41496 66.682875 2.611455 85.88475 3.114195 37.448145000000004 0.9815400000000001 75.2514 2.731155 112.518 -1.90323 14.447790000000001 -1.7955 29.667645000000004 -4.237380000000001 41.861085 -12.714135a4.698225 4.698225 0 0 0 6.401955 -0.085785 34.36387500000001 34.36387500000001 0 0 1 3.6309000000000005 24.390870000000003 31.489080000000005 31.489080000000005 0 0 1 -7.351575 14.443800000000001 4.56057 4.56057 0 0 0 -6.312180000000001 1.1231849999999999c-17.274705 -8.396955 -33.039195 1.3286700000000002 -33.039195 15.22185 -8.30319 -5.448345 -17.466225 -8.977500000000001 -27.417285000000003 -5.10321 -6.914670000000001 2.6932500000000004 -14.9625 10.72512 -16.261245 18.76896a23.259705000000004 23.259705000000004 0 0 0 -20.410845000000002 -5.621910000000001c-11.848305 2.9306550000000002 -11.884215000000001 17.917095 -3.632895 27.93a4.6543350000000006 4.6543350000000006 0 0 0 3.114195 6.399960000000001c0.98553 28.574385000000003 -18.733050000000002 53.20665 -49.904925000000006 55.873965000000005a4.450845 4.450845 0 0 0 -0.77805 -2.336145c-0.08778 -0.085785 -0.7800450000000001 -0.863835 -0.7800450000000001 -0.863835a17.556 17.556 0 0 0 -7.182 -19.461225000000002 27.36342 27.36342 0 0 0 -33.64368 3.8922450000000004c-4.06581 -10.551555 -12.89169 -19.435290000000002 -24.390870000000003 -21.276675a27.51903 27.51903 0 0 0 -26.465670000000003 10.810905c-4.06581 -11.50317 -17.039295000000003 -19.551000000000002 -27.50307 -24.388875000000002 -30.134475000000002 -13.95303 -54.740805 -1.3585950000000002 -60.88939500000001 25.85919 -2.423925 10.72512 -1.64388 23.87217 6.5835 32.08758 7.263795 7.26579 18.507615 8.379000000000001 28.28112 8.65032 15.223845 0.416955 30.523500000000002 0.608475 45.839115 0.951615a564.6947250000001 564.6947250000001 0 0 0 58.900380000000006 -1.298745c8.560545000000001 -0.7042349999999999 17.306625000000004 -1.42044 25.861185 -2.767065a18.48168 18.48168 0 0 0 10.89669 -5.707695000000001 4.710195000000001 4.710195000000001 0 0 0 2.076795 0.085785 4.235385000000001 4.235385000000001 0 0 0 2.767065 -1.90323c13.492185000000001 0.34713 27.59484 -7.0004550000000005 36.84565500000001 -16.173465a56.42259 56.42259 0 0 0 16.25925 -42.120435 3.1760400000000004 3.1760400000000004 0 0 0 0.951615 -0.432915c10.032855 6.3141750000000005 24.045735000000004 7.936110000000001 35.02821 8.736105 18.77295 1.366575 50.248065000000004 2.3241750000000003 65.12677500000001 -9.34059s16.767975 -38.475570000000005 2.32617 -51.018135ZM98.53903500000001 132.02910000000003c-1.378545 6.419910000000001 -6.920655 6.9825 -12.54057 7.870275a170.654295 170.654295 0 0 1 -28.023765 1.38453c-8.476754999999999 -0.08379 -17.039295000000003 0.08977500000000001 -25.42827 -0.5985 -9.34059 -0.7740600000000001 -17.92707 -4.406955 -19.718580000000003 -14.61537 -1.5780450000000001 -8.991465 3.45534 -17.30463 10.551555 -22.401855 7.952070000000001 -5.71368 17.0373 -7.7805 26.379885 -4.670295 10.118640000000001 3.3735450000000005 18.200385 10.395945000000001 16.604385 21.88116 -0.24538500000000002 1.7775450000000002 2.76906 1.745625 2.76906 -0.17157 7.832370000000001 -8.169525 21.97692 -8.807925000000001 27.676635 1.0374a4.809945 4.809945 0 0 0 1.8154500000000002 5.276775000000001 11.834340000000001 11.834340000000001 0 0 1 -0.085785 5.0074499999999995Zm130.25355000000002 -23.7006a1.08129 1.08129 0 0 1 1.470315 -1.470315c6.896715 3.591 12.013890000000002 -3.257835 14.010885 -8.995455000000002a0.851865 0.851865 0 0 1 1.64388 0.432915 19.329555000000003 19.329555000000003 0 0 1 -3.026415 7.52514 9.599940000000002 9.599940000000002 0 0 0 4.670295 4.32516 10.7331 10.7331 0 0 0 7.437360000000001 0.863835 15.790425 15.790425 0 0 0 5.276775000000001 -2.42193 5.145105000000001 5.145105000000001 0 0 0 -0.08778 -3.9780300000000004c-0.399 -0.9615900000000001 1.043385 -1.3965 1.5580950000000002 -0.692265a6.02091 6.02091 0 0 1 -0.5985 7.698705c1.38453 7.956060000000001 3.93813 20.390895 10.810905 17.81535 1.197 -0.45087000000000005 0.77805 -4.3231649999999995 4.929645000000001 -3.1122 5.137125000000001 2.8329 4.526655000000001 8.42289 1.039395 10.032855a10.132605 10.132605 0 0 1 -3.192 0.34513499999999997 1.609965 1.609965 0 0 0 -1.5580950000000002 1.470315 7.26579 7.26579 0 0 0 0.25935 1.90323c0.25935 9.426375 2.42193 18.94053 3.99 28.109550000000002 0 0.085785 0.085785 0.085785 0.085785 0.17157 -1.8154500000000002 5.10321 -5.88126 7.698705 -11.329605 8.30319 -4.670295 0.5187 -9.94707 0.25935 -13.061265 -3.632895a75.23943 75.23943 0 0 0 -0.085785 -8.82189 25.075155000000002 25.075155000000002 0 0 0 18.248265 -7.0044450000000005c0.86583 -0.86583 -0.43690500000000004 -1.995 -1.29675 -1.29675 -9.737595 7.894215 -31.199805 9.24084 -37.7055 -3.4613250000000004 -4.341120000000001 -8.470770000000002 -4.410945 -18.88068 -4.410945 -29.492085 -0.25935 -3.9780300000000004 0.085785 -10.118640000000001 2.767065 -13.059270000000001a2.7590850000000002 2.7590850000000002 0 0 1 -1.8453750000000002 -1.5580950000000002Zm13.839315000000001 107.76591c-30.445695 -0.612465 -107.85369 -3.37155 -116.15688 -3.8044650000000004s-14.242305000000002 -3.8962350000000003 -15.654765000000001 -12.54057c-2.4598350000000004 -15.05826 10.958535000000001 -38.178315000000005 28.542465000000004 -29.3265a0.951615 0.951615 0 0 0 1.29675 -0.34713 1.159095 1.159095 0 0 0 1.210965 -0.43092 57.685425 57.685425 0 0 1 15.136065 -11.668755 4.34511 4.34511 0 0 0 6.226395 -2.336145 21.745500000000003 21.745500000000003 0 0 1 12.799920000000002 0.7800450000000001 26.316045000000003 26.316045000000003 0 0 1 9.775500000000001 12.28122c0.45087000000000005 0.943635 1.8174450000000002 0.25935 1.5580950000000002 -0.692265a20.9475 20.9475 0 0 0 -4.239375 -8.56254c0 -0.085785 0.085785 -0.173565 0.08778 -0.25935 0.133665 -8.32713 5.37453 -15.561 10.292205000000001 -17.298645a9.1371 9.1371 0 0 0 1.5561 4.239375c0.963585 1.374555 9.775500000000001 6.399960000000001 10.551555 3.285765a9.071265 9.071265 0 0 0 5.276775000000001 9.775500000000001 17.18094 17.18094 0 0 0 11.770500000000002 0.432915 8.5785 8.5785 0 0 0 1.38453 10.374 14.018865000000002 14.018865000000002 0 0 0 10.374 3.80646 42.294000000000004 42.294000000000004 0 0 0 11.158035 -2.16258c1.470315 -0.42693000000000003 4.063815 -1.1251799999999998 4.841865 -2.68128 0.08778 -0.085785 0.08778 -0.173565 0.173565 -0.34713 -0.085785 1.5580950000000002 -0.085785 3.02841 -0.25935 4.5885v0.08778c-20.1495 5.621910000000001 -42.132405 18.753 -53.104905 37.017225 -0.5187 0.863835 0.798 1.917195 1.470315 1.1231849999999999a130.913895 130.913895 0 0 1 15.481200000000001 -16.604385c11.134095000000002 -9.28473 23.87217 -14.53158 37.107000000000006 -19.979925 3.114195 4.5885 9.859290000000001 4.750095 14.9625 4.151595 5.967045000000001 -0.700245 11.070255000000001 -3.8922450000000004 12.54057 -9.775500000000001 20.1495 2.248365 37.56585 13.679715000000002 55.181700000000006 22.832775 0.85785 0.44688000000000005 1.63191 -0.84189 0.77805 -1.29675C317.107245 181.34550000000002 299.4495 169.652805 279.3 166.9815c-0.17157 -0.77805 -0.25935 -1.64388 -0.43092 -2.42193a8.56254 8.56254 0 0 0 8.474760000000002 -11.070255000000001c4.498725 0.43092 9.34059 0.43092 13.14705 -1.995s5.967045000000001 -7.870275 3.45933 -11.674740000000002a10.35006 10.35006 0 0 0 6.22839 -5.536125 19.193895 19.193895 0 0 0 1.995 -11.156039999999999c7.523145 1.995 12.626355 8.648325 15.481200000000001 15.654765000000001 -1.729665 0.77805 -3.36357 1.5740550000000002 -5.017425 2.507715a1.51221 1.51221 0 0 0 1.5580950000000002 2.5935c22.828785 -13.280715 55.86 -5.03139 61.408095 23.35347a32.08359 32.08359 0 0 1 -8.82189 28.62825 4.494735 4.494735 0 0 0 -5.969040000000001 5.187c-11.329605 7.956060000000001 -25.426275 10.475745000000002 -38.832675 12.369000000000002 -29.58186 4.16955 -59.68242 3.2737950000000002 -89.34807 2.675295Zm-50.77075500000001 149.45742c-45.316425 5.27079 -82.36955999999999 1.470315 -107.24721000000001 1.470315 -9.254805000000001 0 -19.0323 0.44688000000000005 -27.850200000000005 -2.5935 -23.191875 -8.001945000000001 -18.300135 -41.82318 -3.632895 -55.61262000000001 11.010405 -10.35006 26.992350000000002 -10.308165 40.47855 -5.448345 12.199425000000002 4.389 29.188845 13.935075000000001 32.08758 27.676635a1.3965 1.3965 0 0 0 2.507715 0.34513499999999997 24.71406 24.71406 0 0 1 26.465670000000003 -11.770500000000002c10.461780000000001 2.2683150000000003 18.354 10.890705 21.546000000000003 20.845755 0.5246850000000001 1.641885 3.02841 1.1231849999999999 2.854845 -0.432915 8.30319 -8.30319 21.655725 -10.773000000000001 31.82823 -4.06581a15.006390000000001 15.006390000000001 0 0 1 6.054825000000001 16.60638 4.125660000000001 4.125660000000001 0 0 0 -3.632895 6.6593100000000005c-5.384505 5.9171700000000005 -13.959015 5.454330000000001 -21.460215 6.3201600000000004Zm183.54000000000002 -69.53772000000001c-12.11364 12.11364 -42.116445000000006 12.239325000000001 -58.8126 11.417385000000001 -14.038815000000001 -0.692265 -29.54196 -1.226925 -40.909470000000006 -8.90967a4.61643 4.61643 0 0 0 -3.99 -6.832875 3.9481050000000004 3.9481050000000004 0 0 0 -2.507715 0.77805c-8.452815000000001 -11.142075 -5.129145 -23.47317 6.054825000000001 -23.610825000000002 5.88126 -0.07182 13.35054 2.394 16.432815 7.610925 0.612465 1.0334100000000002 2.623425 0.6902699999999999 2.507715 -0.692265 -0.7600950000000001 -9.099195 9.51615 -18.932550000000003 17.73156 -20.748 8.90967 -1.9790400000000001 16.432815 1.90323 23.52504 6.832875a22.725045 22.725045 0 0 0 2.94063 9.68772c0.5985 1.0473750000000002 1.995 0.08379 1.5561 -0.951615a34.5135 34.5135 0 0 1 -2.16258 -9.514155 1.9211850000000001 1.9211850000000001 0 0 0 -0.085785 -0.692265c-0.08778 -0.43092 -0.08778 -0.863835 -0.173565 -1.29675 0 -0.085785 0 -0.085785 -0.085785 -0.173565 0.085785 -12.28122 13.31064 -18.132555000000004 24.476655 -15.307635000000001a30.29208 30.29208 0 0 1 5.707695000000001 2.16258 4.5466050000000005 4.5466050000000005 0 0 0 6.747090000000001 4.410945c12.89967 11.359530000000001 13.607895000000001 33.26064 1.039395 45.82914Z" fill="#191919" stroke-width="1"></path><path d="M77.52171 124.15882500000001c-13.74156 -0.798 -27.499080000000003 -1.08129 -41.2566 -1.29675a1.2907650000000002 1.2907650000000002 0 0 0 -1.20897 1.20897c-0.173565 2.76906 -0.019950000000000002 5.544105 -0.34713 8.30319 -0.07182 0.608475 0.5985 1.1152050000000002 1.1251799999999998 1.1251799999999998 13.931085 0.25935 27.762420000000002 0.951615 41.6955 0.86583a1.1511149999999999 1.1511149999999999 0 0 0 1.1251799999999998 -1.1251799999999998c0 -2.248365 -0.173565 -4.5885 -0.25935 -6.832875a1.3585950000000002 1.3585950000000002 0 0 0 -0.8738100000000001 -2.248365ZM37.045155 131.25105000000002c0.17157 -1.995 0.17157 -3.9780300000000004 0.25935 -5.969040000000001 13.059270000000001 0.432915 26.20632 0.692265 39.265589999999996 1.298745l-0.25935 5.448345c-13.059270000000001 0.085785 -26.120535 -0.25935 -39.265589999999996 -0.77805Z" fill="#191919" stroke-width="1"></path><path d="M76.39653 132.02910000000003c0.08778 -1.8154500000000002 0.08778 -3.632895 0.25935 -5.448345 -13.059270000000001 -0.5985 -26.20632 -0.86583 -39.265589999999996 -1.298745 -0.085785 1.995 -0.085785 3.99 -0.25935 5.969040000000001 13.059270000000001 0.5187 26.120535 0.863835 39.265589999999996 0.77805Z" fill="#14bef0" stroke-width="1"></path><path d="M172.31413500000002 346.6113c-12.706155 -0.8778 -25.416300000000003 -1.514205 -38.22819 -1.8174450000000002a1.2887700000000002 1.2887700000000002 0 0 0 -1.210965 1.210965c-0.085785 1.729665 -0.085785 3.5471100000000004 -0.173565 5.276775000000001 -15.134070000000001 -0.432915 -30.270135000000003 0.25935 -45.320415 -0.34713a56.83555500000001 56.83555500000001 0 0 0 0 -11.50317c4.84386 0.08778 9.68772 0.04389 14.53158 0a1.147125 1.147125 0 0 0 1.1231849999999999 -1.1231849999999999c0 -2.248365 -0.17157 -4.5885 -0.25935 -6.832875a1.25685 1.25685 0 0 0 -0.863835 -2.076795c-13.765500000000001 -0.301245 -27.499080000000003 -1.08129 -41.2566 -1.29675a1.29675 1.29675 0 0 0 -1.210965 1.210965c-0.173565 2.767065 -0.019950000000000002 5.54211 -0.34513499999999997 8.30319 -0.07182 0.5985 0.5985 1.1132100000000003 1.1231849999999999 1.1251799999999998 8.394960000000001 0.17157 16.779945 0.5985 25.083135000000002 0.77805 0 4.237380000000001 -0.5985 8.474760000000002 -0.25935 12.626355a1.286775 1.286775 0 0 0 1.1231849999999999 1.1251799999999998c15.405390000000002 0.30324 31.05018 0.863835 46.531380000000006 -0.173565 0 1.470315 -0.085785 2.854845 -0.17157 4.32516 -0.08778 0.5985 0.5985 1.1231849999999999 1.1231849999999999 1.1231849999999999 12.8877 0.7800450000000001 25.685625 1.254855 38.57532 1.1251799999999998a1.1511149999999999 1.1511149999999999 0 0 0 1.1251799999999998 -1.1251799999999998c0 -3.192 -0.08778 -6.399960000000001 -0.26134500000000005 -9.685725000000001a1.3346550000000001 1.3346550000000001 0 0 0 -0.77805 -2.248365Zm-110.792325 -10.20642c0.17157 -1.995 0.17157 -3.9780300000000004 0.25935 -5.967045000000001 13.059270000000001 0.43092 26.20632 0.6902699999999999 39.265589999999996 1.29675l-0.25935 5.448345c-4.670295 0 -31.135965 -0.42693000000000003 -39.265589999999996 -0.77805Zm73.42996500000001 19.80636c0.25935 -2.94063 0.17157 -5.969040000000001 0.34513499999999997 -8.995455000000002 12.02187 0.5985 24.1395 0.951615 36.15339 1.729665a129.91040999999998 129.91040999999998 0 0 0 -0.25935 8.217405c-12.109650000000002 0.25935 -24.217305 -0.257355 -36.239175 -0.951615Z" fill="#191919" stroke-width="1"></path><path d="M100.7874 337.18293000000006c0.085785 -1.8154500000000002 0.085785 -3.632895 0.25935 -5.448345 -13.059270000000001 -0.5985 -26.20632 -0.86583 -39.265589999999996 -1.29675 -0.08778 1.995 -0.08778 3.9780300000000004 -0.25935 5.967045000000001 8.129625 0.35112 34.59529500000001 0.77805 39.265589999999996 0.77805Z" fill="#14bef0" stroke-width="1"></path><path d="M368.04159000000004 279.581295c-12.027855 -0.217455 -24.129525 -0.5187 -36.15339 -0.5985a1.179045 1.179045 0 0 0 -1.210965 1.210965c0 1.8174450000000002 0 3.5471100000000004 0.08778 5.36256h-4.06581c0 -0.432915 -0.085785 -0.863835 -0.085785 -1.29675a1.28478 1.28478 0 0 0 -0.951615 -2.076795c-13.753530000000001 -0.041895 -27.505065000000002 0 -41.342385 0a1.197 1.197 0 0 0 -1.210965 1.210965c-0.04389 2.76906 0.085785 5.536125 -0.085785 8.30319a1.0892700000000002 1.0892700000000002 0 0 0 1.1231849999999999 1.1251799999999998c13.925100000000002 0.04389 27.840225 -0.21546 41.6955 -0.5187a1.0992450000000002 1.0992450000000002 0 0 0 1.1251799999999998 -1.1251799999999998c-0.085785 -1.1231849999999999 -0.085785 -2.33415 -0.173565 -3.45933 1.298745 0 2.68128 -0.173565 3.99 -0.25935v4.06581a1.14912 1.14912 0 0 0 1.1231849999999999 1.1231849999999999c12.199425000000002 0.173565 24.293115 0.217455 36.49852500000001 -0.085785a1.1511149999999999 1.1511149999999999 0 0 0 1.1251799999999998 -1.1251799999999998 104.64972000000002 104.64972000000002 0 0 0 -0.5985 -9.685725000000001 1.310715 1.310715 0 0 0 -0.8897700000000001 -2.1705600000000005Zm-82.593 10.89669c0.173565 -1.995 0.08778 -3.9780300000000004 0.08778 -5.967045000000001 13.059270000000001 0 26.20632 -0.173565 39.265589999999996 0 0 0.34513499999999997 -0.085785 4.5885 0 5.448345 -13.15104 0.60648 -26.298090000000002 0.60648 -39.359355 0.512715Zm47.656560000000006 -0.17157c0.173565 -3.02841 0 -5.969040000000001 0 -8.995455000000002 11.329605 0.25935 22.743000000000002 0.173565 34.076595 0.692265 -0.085785 2.767065 0 5.53413 0 8.21541 -11.335590000000002 0.60648 -22.665195000000004 0.432915 -34.08258 0.08778Z" fill="#191919" stroke-width="1"></path><path d="M324.71019 289.959285v-5.448345c-13.061265 -0.25935 -26.20632 0 -39.267585000000004 0 0 1.995 0.08778 3.9780300000000004 -0.085785 5.967045000000001 13.14705 0.08778 26.2941 0.08778 39.35337 -0.5187Z" fill="#14bef0" stroke-width="1"></path><path d="M253.702155 152.09481c4.151595 1.64388 8.835855 -1.995 10.204425 -5.707695000000001 0.35112 -0.951615 -1.1231849999999999 -1.5580950000000002 -1.641885 -0.692265a8.179499999999999 8.179499999999999 0 0 1 -3.45933 3.545115 11.892195000000001 11.892195000000001 0 0 1 -4.84386 1.039395c-1.1251799999999998 0.17157 -1.29675 1.470315 -0.25935 1.8154500000000002Z" fill="#191919" stroke-width="1"></path><path d="M246.86928 119.574315c1.87131 0.15960000000000002 3.8703000000000003 -1.14114 7.437360000000001 0.432915a0.8538600000000001 0.8538600000000001 0 0 0 0.86583 -1.470315 9.576 9.576 0 0 0 -8.736105 -0.692265c-0.951615 0.34513499999999997 -0.432915 1.65585 0.432915 1.729665Z" fill="#191919" stroke-width="1"></path><path d="M229.824 119.83366500000001c1.1211900000000001 -0.35910000000000003 1.897245 -1.0593450000000002 3.02841 -1.382535a8.927624999999999 8.927624999999999 0 0 1 3.7186800000000004 0.085785c0.863835 0.09975 1.466325 -0.947625 0.5985 -1.470315 -2.256345 -1.3705650000000003 -7.0044450000000005 -1.0374 -8.379000000000001 1.5561a0.8817900000000001 0.8817900000000001 0 0 0 1.0334100000000002 1.210965Z" fill="#191919" stroke-width="1"></path><path d="M174.73606500000002 194.30103000000003c-7.381500000000001 3.51519 -24.538500000000003 3.35559 -29.14695 -5.187 -0.51471 -0.95361 -1.7955 -0.093765 -1.38453 0.77805 2.423925 5.0633099999999995 7.960050000000001 6.475770000000001 13.061265 7.52514 6.230385000000001 1.282785 12.714135 1.64388 18.507615 -1.5561 0.951615 -0.608475 0.009975000000000001 -2.05884 -1.0374 -1.5600900000000002Z" fill="#191919" stroke-width="1"></path><path d="M311.996055 150.024a21.75747 21.75747 0 0 0 -7.26579 23.00634 0.9037350000000001 0.9037350000000001 0 0 0 1.729665 -0.5187c-1.179045 -8.04783 0.492765 -15.59691 6.747090000000001 -21.276675 0.86184 -0.7880250000000001 -0.35511 -1.917195 -1.210965 -1.210965Z" fill="#191919" stroke-width="1"></path></svg>