<svg viewBox="-0.5 -0.5 400 400" xmlns="http://www.w3.org/2000/svg" height="400" width="400"><path d="M187.94496 335.309625c-0.35112 -1.051365 -1.051365 -1.995 -2.336145 -1.753605a30.812775000000002 30.812775000000002 0 0 1 -7.36155 0.468825 58.852500000000006 58.852500000000006 0 0 1 -6.783 -1.286775c-0.4668300000000001 -0.11571000000000001 -1.28478 -0.700245 -1.8693150000000003 -0.4668300000000001 -0.700245 0.23341500000000004 -1.167075 1.995 -1.633905 2.571555 -8.001945000000001 12.00192 -19.098135000000003 11.172 -27.690600000000003 17.174955 -2.10273 1.3965 -4.9077 4.438875 -3.1560900000000003 7.12614 1.5201900000000002 2.220435 4.9077 2.56956 7.36155 2.80497 9.91116 0.9276750000000001 18.080685000000003 -2.024925 27.457185000000003 -4.674285 8.229375000000001 -2.1466200000000004 11.102175 -1.554105 14.254275 -3.038385 3.505215 -1.5181950000000002 4.3231649999999995 -4.788 3.9720450000000005 -8.29521a74.235945 74.235945 0 0 0 -2.2144500000000003 -10.631355Zm-45.332385 24.652214999999998a8.977500000000001 8.977500000000001 0 0 1 -3.3915 -1.16907c-0.70224 -0.58254 -1.16907 -1.28478 -0.584535 -2.21844a14.802900000000001 14.802900000000001 0 0 1 7.12614 -5.492235000000001c0.23341500000000004 0.117705 6.783 3.3915 5.607945 8.99745a53.888940000000005 53.888940000000005 0 0 1 -8.758049999999999 -0.117705Zm10.28223 0c1.167075 -3.038385 -1.753605 -8.528625000000002 -5.37453 -9.576a122.17978500000001 122.17978500000001 0 0 0 12.734085 -5.725650000000001 21.40236 21.40236 0 0 0 9.576 -10.86477 25.905075 25.905075 0 0 0 8.29521 1.8693150000000003 20.837775 20.837775 0 0 0 7.59297 -0.81795 12.369000000000002 12.369000000000002 0 0 1 1.16907 3.505215c0.4668300000000001 1.7516100000000001 0.81795 3.3915 1.16907 5.13912a19.70661 19.70661 0 0 0 -3.1560900000000003 0.35112 8.5785 8.5785 0 0 0 -3.9720450000000005 2.336145 9.159045 9.159045 0 0 0 -2.45385 7.946085000000001c-10.066770000000002 1.673805 -18.69714 5.432385 -25.57989 5.837370000000001Zm33.765375000000006 -8.061795000000002a19.750500000000002 19.750500000000002 0 0 1 -6.425895000000001 1.8693150000000003 7.71666 7.71666 0 0 1 1.8693150000000003 -6.6593100000000005 8.680245000000001 8.680245000000001 0 0 1 6.074775 -2.220435c0.935655 3.505215 -0.23341500000000004 6.192480000000001 -1.5181950000000002 7.01043Z" fill="#191919" stroke-width="1"></path><path d="M244.61094 222.56220000000002a2.13864 2.13864 0 0 0 -1.753605 2.45385 38.210235 38.210235 0 0 1 0.584535 7.36155 58.758735 58.758735 0 0 1 -1.28478 6.783c-0.117705 0.468825 -0.700245 1.28478 -0.4668300000000001 1.8693150000000003 0.23341500000000004 0.70224 1.995 1.16907 2.56956 1.6359 11.90616 7.926135 11.28372 19.06422 17.174955 27.572895000000003 1.3965 2.104725 4.44087 4.9077 7.128135 3.154095 2.21844 -1.5162 2.56956 -4.905705 2.802975 -7.359555 1.175055 -12.5286 -4.223415 -21.71358 -6.5436 -35.63469a26.9325 26.9325 0 0 0 -1.3965 -6.07677c-1.5201900000000002 -3.505215 -4.788 -4.3231649999999995 -8.29521 -3.97005a91.78197 91.78197 0 0 0 -10.519635 2.2104600000000003Zm24.769920000000003 45.332385a9.08124 9.08124 0 0 1 -1.16907 3.3915c-0.584535 0.69825 -1.28478 1.167075 -2.220435 0.584535a14.82684 14.82684 0 0 1 -5.49024 -7.128135c0.11571000000000001 -0.23341500000000004 3.3915 -6.783 8.995455000000002 -5.60994a54.1443 54.1443 0 0 1 -0.11571000000000001 8.76204Zm0.11571000000000001 -10.28223c-3.038385 -1.16907 -8.528625000000002 1.87131 -9.576 5.386500000000001a138.054 138.054 0 0 0 -5.725650000000001 -12.62037c-4.67229 -7.477260000000001 -10.28223 -9.346575 -10.9725 -9.462285000000001a23.28963 23.28963 0 0 0 0.935655 -15.890175000000001 12.369000000000002 12.369000000000002 0 0 1 3.5032200000000002 -1.16907c1.753605 -0.4668300000000001 3.3915 -0.815955 5.141115 -1.167075a19.664715 19.664715 0 0 0 0.35112 3.1521000000000003 8.5785 8.5785 0 0 0 2.336145 3.97404 8.89371 8.89371 0 0 0 8.061795000000002 2.33814c1.78353 10.808910000000001 4.927650000000001 16.80588 5.9451 25.458195Zm-8.29521 -33.773355a24.656205 24.656205 0 0 1 1.995 6.4278900000000005 7.726635000000001 7.726635000000001 0 0 1 -6.6613050000000005 -1.87131 9.733604999999999 9.733604999999999 0 0 1 -2.336145 -6.074775 6.6034500000000005 6.6034500000000005 0 0 1 7.00245 1.5181950000000002Z" fill="#191919" stroke-width="1"></path><path d="M274.286565 226.30083000000002a24.538500000000003 24.538500000000003 0 0 1 -1.28478 2.45385 21.839265 21.839265 0 0 1 -5.02341 6.425895000000001c-0.6783000000000001 1.011465 0.241395 1.8653250000000001 0.9336600000000002 1.3965a18.340035 18.340035 0 0 0 5.607945 -8.528625000000002 9.40044 9.40044 0 0 0 0.1995 -1.596c0.005985000000000001 -0.41895 -0.093765 -0.6603450000000001 -0.432915 -0.15162Z" fill="#191919" stroke-width="1"></path><path d="M345.67365000000007 102.688635c9.230865 1.5181950000000002 18.81285 2.802975 27.106065 7.359555 7.36155 4.0897499999999996 13.320615 10.866765000000001 14.254275 19.513095000000003 1.051365 8.62638 -2.280285 19.58691 -5.141115 28.390845000000002 -15.684690000000002 48.863535 -57.23256 99.70012500000001 -66.128265 192.66313499999998 -0.117705 1.28478 1.7516100000000001 1.16907 1.8693150000000003 0 3.8703000000000003 -39.41322 13.82136 -73.21650000000001 29.208795000000002 -109.359915 14.563500000000001 -34.268115 32.332965 -62.186145 40.19127 -94.4034 3.7605750000000002 -14.669235 2.9127 -26.12253 -8.99745 -35.283570000000005a48.02763000000001 48.02763000000001 0 0 0 -25.001340000000003 -8.646329999999999c-2.45385 -0.23341500000000004 -4.788 -0.4668300000000001 -7.243845 -0.584535 -0.23341500000000004 0.005985000000000001 -0.23341500000000004 0.23341500000000004 -0.117705 0.35112Z" fill="#191919" stroke-width="1"></path><path d="M125.31991500000001 237.985545a16.676205 16.676205 0 0 0 -5.02341 18.808860000000003c2.80497 7.243845 10.048815000000001 11.333595 17.059245 13.787445 2.451855 0.81795 4.905705 1.6359 7.477260000000001 2.220435a39.77631 39.77631 0 0 0 3.9720450000000005 0.9336600000000002 14.874720000000002 14.874720000000002 0 0 0 3.9720450000000005 0.70224c0.81795 0 1.16907 -1.16907 0.4668300000000001 -1.5201900000000002 -2.818935 -1.25286 -24.167430000000003 -3.6548400000000005 -30.375870000000003 -15.187935000000001a16.47072 16.47072 0 0 1 3.154095 -19.152c0.23341500000000004 -0.12568500000000002 -0.35112 -0.943635 -0.70224 -0.592515Z" fill="#191919" stroke-width="1"></path><path d="M198.702 288.34134000000006c5.268795 1.270815 26.36991 4.22142 30.26016 4.67229 9.1371 1.1152050000000002 17.905125 0.65037 24.885630000000003 -5.256825a18.553500000000003 18.553500000000003 0 0 0 3.97404 -4.55658c0.9336600000000002 -1.6359 2.21844 -3.9720450000000005 1.7516100000000001 -5.84136a0.572565 0.572565 0 0 0 -1.051365 -0.117705 14.124600000000001 14.124600000000001 0 0 0 -0.935655 2.336145 14.17647 14.17647 0 0 1 -1.051365 2.33814 15.720600000000001 15.720600000000001 0 0 1 -3.2698050000000003 4.0877550000000005c-11.884215000000001 10.85679 -30.81876 3.114195 -54.447540000000004 1.6359 -0.47481 -0.11571000000000001 -0.592515 0.588525 -0.11571000000000001 0.70224Z" fill="#191919" stroke-width="1"></path><path d="M359.927925 128.041095c-12.22935 9.775500000000001 -25.83525 27.100080000000002 -34.46562 41.126925a206.59023000000002 206.59023000000002 0 0 0 -22.20036 48.955305 196.67508 196.67508 0 0 0 -6.52365 29.39433 165.07827 165.07827 0 0 0 -12.1695 1.214955 79.16958 79.16958 0 0 0 -12.736080000000001 2.45385c-0.4668300000000001 0 -0.468825 1.0374 0.23341500000000004 0.935655a221.21557500000003 221.21557500000003 0 0 1 22.5435 -2.92068 177.05824500000003 177.05824500000003 0 0 1 35.63469 1.28478 0.784035 0.784035 0 0 0 0.23341500000000004 -1.5181950000000002 9.825375 9.825375 0 0 0 -2.6852700000000005 -0.468825 181.59088500000001 181.59088500000001 0 0 0 -29.2467 -1.08129 220.65897 220.65897 0 0 1 5.528145 -25.673655 201.15585000000002 201.15585000000002 0 0 1 21.270690000000002 -48.95331c11.371500000000001 -18.9525 19.86222 -27.4113 32.82972 -41.944874999999996 0.7182000000000001 -0.798 1.502235 -1.65186 2.22243 -2.45385 0.31122 -0.34713 -0.117705 -0.584535 -0.468825 -0.35112Z" fill="#191919" stroke-width="1"></path><path d="M253.02186000000003 291.379725c-3.75459 7.507185 -12.239325000000001 31.69257 -17.174955 57.59964 -0.4668300000000001 2.451855 -1.051365 4.9077 -1.28478 7.36155 -0.11571000000000001 1.051365 1.5201900000000002 1.167075 1.753605 0.23341500000000004a338.35200000000003 338.35200000000003 0 0 1 12.734085 -50.94033c1.5201900000000002 -4.674285 3.3915 -9.230865 4.674285 -14.02086 0.2394 -0.4668300000000001 -0.4668300000000001 -0.81795 -0.70224 -0.23341500000000004Z" fill="#191919" stroke-width="1"></path><path d="M133.14829500000002 274.3125c-3.533145 8.899695000000001 -8.412915 35.876085 -8.412915 55.730325 0 3.2039700000000004 -0.029925 4.4847600000000005 0.013965000000000002 5.187 0.109725 1.7795400000000001 1.7955 3.0403800000000003 1.8553500000000003 0.189525 0.16359 -7.5151650000000005 0.047880000000000006 -12.111645 0.5506200000000001 -18.599385a246.939105 246.939105 0 0 1 4.007955 -28.837725000000002c0.9336600000000002 -4.554585 2.10273 -8.99745 2.92068 -13.552035000000002 0.11571000000000001 -0.46084500000000006 -0.7042349999999999 -0.69426 -0.935655 -0.117705Z" fill="#191919" stroke-width="1"></path><path d="M180.58341000000001 77.451885a21.546000000000003 21.546000000000003 0 0 0 -0.9336600000000002 -5.37453c-0.5985 -4.857825 -0.277305 -12.20142 -3.154095 -16.358999999999998 -0.468825 -0.584535 -1.6359 -0.23341500000000004 -1.286775 0.584535 2.7511050000000004 6.876765000000001 1.88727 7.1421 3.038385 16.358999999999998a9.414405 9.414405 0 0 0 1.5181950000000002 5.02341c0.35112 0.35112 0.70224 0.1197 0.81795 -0.23341500000000004Z" fill="#191919" stroke-width="1"></path><path d="M159.32070000000002 49.9947c10.16253 8.13162 10.098690000000001 12.88371 11.916135 14.02086a0.64239 0.64239 0 0 0 0.81795 -0.35112 6.767040000000001 6.767040000000001 0 0 0 -1.7516100000000001 -4.3231649999999995A32.79181500000001 32.79181500000001 0 0 0 163.87728 51.870000000000005a24.835755000000002 24.835755000000002 0 0 0 -4.0897499999999996 -2.687265c-0.35112 -0.005985000000000001 -0.935655 0.57855 -0.4668300000000001 0.8119649999999999Z" fill="#191919" stroke-width="1"></path><path d="M155.113245 52.681965000000005c1.3965 1.28478 3.1560900000000003 2.10273 4.55658 3.3915 0.81795 0.70224 1.5201900000000002 1.5201900000000002 2.220435 2.220435 0.4668300000000001 0.584535 1.16907 1.753605 1.995 1.753605 0.23341500000000004 0 0.4668300000000001 -0.117705 0.4668300000000001 -0.35112 0.23341500000000004 -0.4668300000000001 -0.23341500000000004 -1.051365 -0.4668300000000001 -1.3965a15.54105 15.54105 0 0 0 -3.038385 -3.3915A13.627845 13.627845 0 0 0 155.69778 51.870000000000005c-0.584535 0 -1.051365 0.46084500000000006 -0.584535 0.8119649999999999Z" fill="#191919" stroke-width="1"></path><path d="M152.076855 54.784695a44.43264 44.43264 0 0 1 7.477260000000001 6.6613050000000005c0.4668300000000001 0.4668300000000001 2.45385 1.995 2.220435 0.349125 -0.23541 -1.995 -2.9226750000000004 -3.620925 -4.3231649999999995 -4.67229a20.349 20.349 0 0 0 -4.788 -3.038385c-0.7042349999999999 -0.4668300000000001 -1.171065 0.35112 -0.58653 0.700245Z" fill="#191919" stroke-width="1"></path><path d="M149.738715 58.64103c10.942575000000001 6.533625 13.663755000000002 17.107125 20.21334 24.067680000000003 0.584535 0.70224 1.753605 -0.23341500000000004 1.28478 -0.9336600000000002 -0.700245 -1.16907 -1.6359 -2.33814 -2.45385 -3.505215 -4.72416 -6.75108 -9.356550000000002 -16.40289 -18.34203 -20.446755000000003 -0.70224 -0.35112 -1.286775 0.468825 -0.70224 0.81795Z" fill="#191919" stroke-width="1"></path><path d="M141.09438 71.84394a0.48678 0.48678 0 0 0 -0.935655 0 12.718125 12.718125 0 0 0 -0.584535 3.0363900000000004 35.652645 35.652645 0 0 1 -2.56956 8.99745 43.04611500000001 43.04611500000001 0 0 1 -4.20546 7.01043c0 -0.1995 1.995 -5.348595 -2.571555 -13.787445 -4.89174 -8.841840000000001 -15.423345000000001 -14.916615000000002 -22.89861 -15.539055a10.906665 10.906665 0 0 1 0.9336600000000002 -0.584535 28.77588 28.77588 0 0 0 6.074775 -6.425895000000001 38.856615000000005 38.856615000000005 0 0 0 6.783 -15.65676c7.40943 7.40943 10.98846 14.501655000000001 14.9625 24.4188 0.584535 1.286775 1.051365 2.687265 1.6359 3.97404 0.468825 1.28478 1.16907 2.56956 1.753605 3.9720450000000005 0.11571000000000001 0.349125 0.584535 0.23341500000000004 0.4668300000000001 -0.117705a93.790935 93.790935 0 0 0 -5.037375 -14.4837 59.157735 59.157735 0 0 0 -7.477260000000001 -13.202910000000001 23.618805000000002 23.618805000000002 0 0 0 -6.310185 -6.425895000000001c-1.6359 -0.9336600000000002 -1.8693150000000003 2.80497 -2.10273 3.7386300000000006a34.296045 34.296045 0 0 1 -4.20546 10.048815000000001A36.05164500000001 36.05164500000001 0 0 1 110.48310000000001 56.658c-1.051365 1.16907 -1.8693150000000003 2.33814 -2.92068 3.3915 -0.23341500000000004 0.23341500000000004 -2.80497 2.10273 -1.6359 2.336145 13.66575 2.9925 26.55744 13.621860000000002 25.585875 27.221775a18.753 18.753 0 0 1 -0.58254 3.3915c0 0.11571000000000001 -1.286775 3.154095 0.11571000000000001 1.985025 0.81795 -0.700245 1.6359 -1.3965 2.45385 -2.21844 4.446855 -5.196975 9.11715 -14.469735000000002 7.594965 -20.921565Z" fill="#14bef0" stroke-width="1"></path><path d="M69.23847 61.561710000000005c0.31521000000000005 -0.47082 0.27132000000000006 -1.294755 -1.466325 -0.361095 -0.911715 0.488775 -1.7955 1.131165 -2.739135 1.645875a37.76136 37.76136 0 0 1 -10.28223 3.8563350000000005c-2.10273 0.4668300000000001 -2.687265 1.051365 -1.167075 2.687265a12.768 12.768 0 0 1 3.154095 7.243845 13.03932 13.03932 0 0 1 -1.051365 6.6593100000000005 12.428850000000002 12.428850000000002 0 0 0 -0.81795 2.220435c-0.117705 0.23341500000000004 0.23341500000000004 0.584535 0.4668300000000001 0.35112 2.80497 -1.753605 3.2718 -6.4278900000000005 2.92068 -9.46428a12.686205000000001 12.686205000000001 0 0 0 -3.9720450000000005 -7.946085000000001c1.039395 0 10.24632 -2.1845250000000003 14.364 -6.30819a12.917625 12.917625 0 0 1 0.935655 5.141115c0 14.796915 -16.009875 20.694135 -24.30309 30.493575000000003 -2.56956 3.038385 -5.02341 6.783 -4.788 10.982475a0.55461 0.55461 0 0 0 0.117705 0.70224 17.08119 17.08119 0 0 0 1.7516100000000001 1.28478c2.854845 1.426425 12.81189 5.322660000000001 15.423345000000001 3.0363900000000004a0.548625 0.548625 0 0 0 -0.117705 -0.9336600000000002 9.047325 9.047325 0 0 0 -3.9720450000000005 -0.23341500000000004 27.00033 27.00033 0 0 1 -8.76204 -2.336145c-1.16907 -0.468825 -2.45385 -0.935655 -3.62292 -1.3965 2.962575 -7.4014500000000005 4.574535000000001 -10.20642 13.791435000000002 -17.64777 6.184500000000001 -4.9077 12.851790000000001 -9.93111 15.187935000000001 -17.877195a13.380465000000001 13.380465000000001 0 0 0 -1.051365 -11.800425Z" fill="#14bef0" stroke-width="1"></path><path d="M55.56873 92.05528500000001a14.763000000000002 14.763000000000002 0 0 0 -2.56956 9.34857 15.44529 15.44529 0 0 0 3.154095 9.22887c0.584535 0.70224 1.753605 -0.23341500000000004 1.28478 -1.051365a25.190865000000002 25.190865000000002 0 0 1 -1.995 -3.9720450000000005 18.008865 18.008865 0 0 1 0.9336600000000002 -13.085205 0.47481 0.47481 0 0 0 -0.8079750000000001 -0.468825Z" fill="#14bef0" stroke-width="1"></path><path d="M258.980925 94.04230500000001c0.08977500000000001 -0.45486000000000004 -0.584535 -0.4668300000000001 -0.700245 -0.117705 -0.819945 2.4598350000000004 0.07182 3.7765350000000004 1.596 4.235385000000001a4.69224 4.69224 0 0 0 4.7082 -1.66383c0.58254 -0.584535 -0.1197 -1.5201900000000002 -0.93765 -1.16907a7.213920000000001 7.213920000000001 0 0 1 -3.002475 1.30074c-1.382535 0.09177 -1.88328 -1.4782950000000001 -1.66383 -2.5855200000000003Z" fill="#191919" stroke-width="1"></path><path d="M279.19426500000003 99.767955c0.357105 -0.815955 -0.584535 -1.5201900000000002 -1.167075 -0.935655a8.205435000000001 8.205435000000001 0 0 1 -1.995 1.5201900000000002 2.7231750000000003 2.7231750000000003 0 0 1 -3.62292 -0.70224 2.5775400000000004 2.5775400000000004 0 0 1 -0.2394 -1.510215c0.077805 -1.596 -1.0633350000000001 -1.0314150000000002 -1.3965 -0.35910000000000003a3.3915 3.3915 0 0 0 2.499735 4.5885 5.16705 5.16705 0 0 0 5.92116 -2.60148Z" fill="#191919" stroke-width="1"></path><path d="M267.86066999999997 94.509135c0.23341500000000004 -0.4668300000000001 -0.35112 -0.81795 -0.700245 -0.35112a27.393345 27.393345 0 0 0 -4.0897499999999996 6.07677 5.196975 5.196975 0 0 0 -1.16907 3.0363900000000004c0.117705 1.05336 0.935655 2.104725 2.104725 1.753605 0.4668300000000001 -0.23341500000000004 0.700245 -0.935655 0.11571000000000001 -1.16907 -0.700245 -0.349125 -0.4668300000000001 -0.9336600000000002 -0.23341500000000004 -1.5181950000000002 2.6433750000000003 -4.981515 3.0962400000000003 -6.074775 3.9720450000000005 -7.82838Z" fill="#191919" stroke-width="1"></path><path d="M270.3225 107.59434000000002a9.775500000000001 9.775500000000001 0 0 1 -5.7855 2.308215 15.642795000000001 15.642795000000001 0 0 1 -4.26132 -0.4389 0.399 0.399 0 0 0 -0.349125 0.70224 6.417915000000001 6.417915000000001 0 0 0 4.72815 1.4782950000000001 9.655800000000001 9.655800000000001 0 0 0 6.721155 -2.647365c0.45685500000000007 -0.81795 -0.24339 -1.8653250000000001 -1.05336 -1.402485Z" fill="#191919" stroke-width="1"></path><path d="M287.25606 102.804345a17.396400000000003 17.396400000000003 0 0 0 3.038385 -11.21589 12.5685 12.5685 0 0 0 -5.959065000000001 -9.576c-6.783 -4.55658 -16.941540000000003 -5.725650000000001 -23.48514 -0.468825a12.877725000000002 12.877725000000002 0 0 0 -5.141115 10.866765000000001 1.0992450000000002 1.0992450000000002 0 0 0 0.117705 0.4668300000000001c-0.700245 1.753605 -1.3965 3.62292 -2.10273 5.37453 -2.064825 5.7855 -5.971035 13.589940000000002 -2.56956 18.57744a12.369000000000002 12.369000000000002 0 0 0 7.01043 4.438875 10.918635 10.918635 0 0 1 -2.22243 4.788c-0.4668300000000001 0.4668300000000001 -2.336145 2.21844 -1.5181950000000002 2.92068 1.995 1.5181950000000002 5.141115 -7.01043 5.258820000000001 -7.243845a23.802345 23.802345 0 0 0 11.098185 0.349125c0.935655 -0.23341500000000004 0.70224 -1.7516100000000001 -0.23341500000000004 -1.6359a28.642215 28.642215 0 0 1 -9.462285000000001 -0.349125 14.51961 14.51961 0 0 1 -8.063790000000001 -3.8563350000000005c-3.2478599999999997 -3.8603250000000005 -0.10773 -10.659285 2.104725 -17.057250000000003 0.58254 -1.753605 1.167075 -3.3915 1.7516100000000001 -5.141115 0.70224 -1.995 0.81795 -4.55658 2.45385 -6.184500000000001a6.24435 6.24435 0 0 1 6.184500000000001 -1.28478 30.45168 30.45168 0 0 1 4.20546 2.45385c4.534635000000001 2.667315 9.155055 0.133665 12.267255 2.802975 2.92068 2.687265 1.286775 6.892725 0.23341500000000004 10.048815000000001 -0.181545 0.36907500000000004 1.953105 0.63441 3.47529 1.87131 3.6727950000000003 2.9925 1.45635 8.999445000000001 -6.9825 7.124145a0.5386500000000001 0.5386500000000001 0 1 0 -0.23541 1.051365c0.468825 0.117705 1.753605 0.584535 1.995 0.584535a24.492615 24.492615 0 0 0 -2.336145 3.154095c-2.687265 3.7386300000000006 -5.725650000000001 9.230865 -5.258820000000001 14.02086a0.847875 0.847875 0 0 0 1.637895 0.23341500000000004c0.815955 -2.220435 0.9336600000000002 -4.788 1.7516100000000001 -7.01043 1.16907 -3.0363900000000004 5.258820000000001 -9.576 5.49024 -10.280235a6.423900000000001 6.423900000000001 0 0 0 2.104725 0 5.324655000000001 5.324655000000001 0 0 0 3.85434 -1.8693150000000003c3.042375 -3.9820200000000003 -0.46284000000000003 -7.83636 -0.46284000000000003 -7.954065000000001Z" fill="#191919" stroke-width="1"></path><path d="M281.41470000000004 78.385545a17.62383 17.62383 0 0 1 4.788 1.995 12.921615000000001 12.921615000000001 0 0 1 3.620925 3.505215c1.753605 2.687265 1.8693150000000003 6.425895000000001 4.9077 8.179499999999999 0.81795 0.468825 1.5181950000000002 -0.81795 0.81795 -1.28478 -3.29175 -2.1945 -1.88328 -8.03187 -8.879745 -11.800425a8.879745 8.879745 0 0 0 -5.021415 -1.175055c-0.468825 0 -0.584535 0.580545 -0.23341500000000004 0.580545Z" fill="#191919" stroke-width="1"></path><path d="M103.58838 159.70374c-3.99 0.8678250000000001 -7.826385 1.8693150000000003 -11.800425 2.92068a49.72737 49.72737 0 0 0 0.81795 -5.84136c0 -0.700245 -0.9336600000000002 -0.700245 -1.167075 -0.11571000000000001a66.11031 66.11031 0 0 0 -1.753605 6.892725c-0.11571000000000001 0.700245 0.35112 1.28478 1.051365 1.051365a537.58068 537.58068 0 0 0 13.202910000000001 -3.2718 0.84189 0.84189 0 1 0 -0.35112 -1.6359Z" fill="#14bef0" stroke-width="1"></path><path d="M74.26387500000001 178.63230000000001a13.266750000000002 13.266750000000002 0 0 0 -3.62292 0.23341500000000004c-2.91669 0.26533500000000004 -3.9580800000000003 0.36309 -9.813405 1.051365 0.4668300000000001 -1.16907 0.9336600000000002 -2.220435 1.3965 -3.3915 0.23541 -0.70224 -0.9336600000000002 -1.16907 -1.28478 -0.584535 -0.81795 1.5181950000000002 -1.5181950000000002 3.038385 -2.336145 4.55658 -0.23341500000000004 0.584535 0 1.3965 0.700245 1.28478 2.571555 -0.23341500000000004 5.025405 -0.584535 7.594965 -0.81795 1.28478 -0.11571000000000001 2.45385 -0.23341500000000004 3.7386300000000006 -0.4668300000000001a12.418875 12.418875 0 0 0 3.62292 -0.584535 0.6463800000000001 0.6463800000000001 0 0 0 0.0039900000000000005 -1.28079Z" fill="#14bef0" stroke-width="1"></path><path d="M46.80669 196.97433a92.597925 92.597925 0 0 0 -10.9725 4.9077c0.11571000000000001 -0.584535 0.11571000000000001 -1.051365 0.23341500000000004 -1.6359a11.722620000000001 11.722620000000001 0 0 0 0 -3.505215 0.608475 0.608475 0 0 0 -1.16907 0 15.934065 15.934065 0 0 0 -0.4668300000000001 3.2718c-0.11571000000000001 1.051365 -0.35112 2.220435 -0.4668300000000001 3.2718a0.855855 0.855855 0 0 0 1.28478 0.9336600000000002 87.63636 87.63636 0 0 1 12.151545 -5.49024c0.9236850000000001 -0.35112 0.57456 -2.10273 -0.59451 -1.753605Z" fill="#14bef0" stroke-width="1"></path><path d="M114.33744 170.57250000000002a34.467615 34.467615 0 0 0 7.946085000000001 3.2718c3.85434 1.3965 7.826385 2.687265 11.800425 3.7386300000000006a66.60906 66.60906 0 0 0 6.892725 1.7516100000000001c1.051365 0.117705 1.6359 -1.3965 0.4668300000000001 -1.7516100000000001 -4.438875 -1.3965 -9.11316 -2.571555 -13.552035000000002 -3.8563350000000005 -4.207455 -1.28478 -8.646329999999999 -3.62292 -13.0872 -4.3231649999999995a0.6324150000000001 0.6324150000000001 0 0 0 -0.4668300000000001 1.16907Z" fill="#191919" stroke-width="1"></path><path d="M58.958235 212.51538000000002a70.756665 70.756665 0 0 0 13.669740000000001 10.164525 59.810100000000006 59.810100000000006 0 0 0 14.9625 6.892725c0.9336600000000002 0.23341500000000004 1.6359 -1.16907 0.700245 -1.6359 -6.038865 -2.9286600000000003 -13.514130000000002 -4.686255000000001 -28.624260000000003 -16.239300000000004 -0.592515 -0.468825 -1.179045 0.353115 -0.708225 0.81795Z" fill="#191919" stroke-width="1"></path><path d="M86.0643 191.83521000000002a92.85129 92.85129 0 0 0 21.147000000000002 11.21589c1.3965 0.584535 5.141115 2.802975 6.5436 1.8693150000000003a0.428925 0.428925 0 0 0 0.23341500000000004 -0.584535c-0.584535 -1.753605 -3.8563350000000005 -2.336145 -5.37453 -2.80497 -6.4957199999999995 -1.893255 -15.888180000000002 -7.41741 -22.082655000000003 -10.51365 -0.584535 -0.468825 -1.0593450000000002 0.35910000000000003 -0.4668300000000001 0.81795Z" fill="#191919" stroke-width="1"></path><path d="M87.70020000000001 179.332545c-0.1995 -0.109725 -14.898660000000001 -10.360035 -19.750500000000002 -11.21589a0.35910000000000003 0.35910000000000003 0 0 0 -0.4668300000000001 0.4668300000000001c-1.5181950000000002 0.35112 -3.038385 0.70224 -4.55658 1.16907a62.71881 62.71881 0 0 0 -11.571 5.84136c-0.81795 0.4668300000000001 -1.995 1.051365 -2.336145 1.8693150000000003 -0.468825 1.051365 1.167075 1.753605 1.8693150000000003 2.336145a140.58166500000002 140.58166500000002 0 0 0 17.057250000000003 10.515645000000001c0.70224 0.35112 1.995 -0.81795 2.687265 -1.167075 6.30819 -3.281775 13.304655 -2.74512 17.877195 -9.34857a0.43690500000000004 0.43690500000000004 0 0 0 -0.101745 -0.5985c-0.357105 -0.249375 -0.508725 -0.007980000000000001 -0.708225 0.13167Zm-19.39539 9.46428a201.78627 201.78627 0 0 1 -17.292659999999998 -10.63335 59.967705 59.967705 0 0 1 12.384960000000001 -6.783c1.6359 -0.70224 3.154095 -1.5201900000000002 4.674285 -2.10273 2.10672 1.5800400000000001 4.57254 2.31021 11.800425 7.008435 0.4668300000000001 0.35112 6.425895000000001 4.44087 6.541605000000001 4.44087 -5.16705 4.630395000000001 -14.882700000000002 5.20695 -18.108615 8.069775Z" fill="#191919" stroke-width="1"></path><path d="M54.401655 194.52247500000001c-4.72815 -2.793 -10.411905 -6.892725 -11.333595 -7.479255a22.078665 22.078665 0 0 0 -3.3915 -2.336145 0.640395 0.640395 0 0 0 -0.935655 0.584535 32.095560000000006 32.095560000000006 0 0 0 -11.445315 13.210890000000001 30.086595 30.086595 0 0 0 -2.10273 5.37453c-1.011465 1.00947 1.897245 3.192 4.905705 6.184500000000001a57.456 57.456 0 0 0 15.18993 9.346575c2.53764 0.399 1.0593450000000002 -2.567565 6.892725 -11.68272a58.6131 58.6131 0 0 1 7.82838 -9.11316c0.40299000000000007 -1.20897 -4.9476 -3.5890050000000002 -5.607945 -4.0897499999999996ZM45.286500000000004 217.42108500000003s-4.44087 -1.995 -4.788 -2.21844a52.007655 52.007655 0 0 1 -10.866765000000001 -7.82838c-0.23341500000000004 -0.23541 -3.038385 -2.571555 -2.92068 -2.92068a39.778305 39.778305 0 0 1 12.500670000000001 -18.354c4.04586 3.876285 18.070710000000002 12.253290000000002 18.695145 12.500670000000001a40.36284 40.36284 0 0 0 -12.62037 18.82083Z" fill="#191919" stroke-width="1"></path><path d="M113.05266 154.32921000000002c-9.08124 -0.5985 -16.60239 -5.41443 -20.21334 -6.541605000000001a0.5985 0.5985 0 0 0 -0.700245 0.81795 50.93235000000001 50.93235000000001 0 0 1 -13.903155000000002 14.25228c-0.34713 0.133665 -0.34713 0.399 -0.133665 0.7521150000000001a18.970455 18.970455 0 0 0 4.339125 3.45534c8.468775 5.504205 10.260285 5.386500000000001 14.721105 8.061795000000002 0.81795 0.4668300000000001 2.220435 -0.584535 2.80497 -1.051365a31.53297 31.53297 0 0 0 11.10018 -11.333595 33.40827 33.40827 0 0 0 2.21844 -5.492235000000001c0.325185 -1.011465 1.16907 -2.92068 -0.23341500000000004 -2.92068Zm-3.038385 6.310185a28.937475000000003 28.937475000000003 0 0 1 -7.944090000000001 9.576 38.740905000000005 38.740905000000005 0 0 1 -4.55658 3.038385c-3.2718 -1.3965 -16.474709999999998 -8.879745 -17.526075000000002 -9.576a24.354960000000002 24.354960000000002 0 0 0 3.505215 -2.56956 36.271095 36.271095 0 0 0 7.243845 -8.179499999999999 26.48163 26.48163 0 0 0 1.995 -4.0877550000000005c1.6359 1.051365 8.412915 4.0877550000000005 10.04682 4.788a27.179880000000004 27.179880000000004 0 0 0 9.576 2.10273 42.878535 42.878535 0 0 1 -2.340135 4.9077Z" fill="#191919" stroke-width="1"></path><path d="M344.973405 114.95589000000001c-8.119650000000002 -15.50913 -29.911035000000002 -19.152 -45.332385 -22.43178a0.47082 0.47082 0 0 0 -0.584535 0.4668300000000001c0 0.4668300000000001 -3.62292 4.55658 -4.0877550000000005 5.607945 -0.468825 0.935655 -2.571555 6.074775 -1.5201900000000002 6.892725 6.6593100000000005 4.9077 12.618375 11.10018 19.628805000000003 15.423345000000001a15.934065 15.934065 0 0 0 3.9720450000000005 -1.6359c0.23341500000000004 -0.117705 0.4668300000000001 0.23341500000000004 0.23341500000000004 0.35112a47.407185000000005 47.407185000000005 0 0 1 -13.669740000000001 7.01043c-8.879745 3.0363900000000004 -18.810855 2.802975 -28.15743 4.55658 -7.944090000000001 1.5181950000000002 -16.474709999999998 3.620925 -23.016315000000002 -2.571555 -11.114145 -10.757040000000002 -19.421325 -11.213895 -28.626255 -15.30564a101.50560000000002 101.50560000000002 0 0 1 -37.970835 -29.675625 5.8254 5.8254 0 0 0 -6.425895000000001 -2.571555c-1.286775 0.23341500000000004 -11.800425 4.3231649999999995 -9.11316 6.783 9.69969 26.439735000000002 29.142960000000002 49.32837 50.23809 61.10485500000001a169.732605 169.732605 0 0 1 -3.3915 18.11061c-2.7610799999999998 10.834845000000001 -7.682745000000001 18.278190000000002 -18.69315 21.031290000000002a0.71022 0.71022 0 0 0 0.23341500000000004 1.3965c6.6593100000000005 -0.700245 10.515645000000001 5.725650000000001 13.78545 10.399935000000001 10.515645000000001 14.763000000000002 28.54047 11.054295000000002 44.74984500000001 15.539055a66.359685 66.359685 0 0 1 19.152 8.879745 0.69825 0.69825 0 0 0 0.935655 -0.23541c11.297685000000001 -15.42933 17.268720000000002 -36.29703 19.86222 -55.145790000000005 8.995455000000002 -4.674285 17.64378 -9.93111 26.054700000000004 -15.423345000000001 7.710675000000001 -5.02341 15.888180000000002 -10.164525 20.913585 -18.108615a19.910100000000003 19.910100000000003 0 0 0 0.82992 -20.44875Zm-127.0017 76.5282c-0.11571000000000001 -0.117705 0 -0.23341500000000004 0.117705 -0.23341500000000004 18.3141 10.461780000000001 37.695525 2.0428800000000003 53.276475 9.697695 0.700245 0.349125 0.23541 1.5181950000000002 -0.584535 1.28478a56.021595000000005 56.021595000000005 0 0 0 -12.384960000000001 -2.80497c-12.963510000000001 -1.254855 -30.36789 1.179045 -40.424685000000004 -7.944090000000001Zm31.195815000000003 0.11571000000000001c0.23341500000000004 0 0.23341500000000004 0.468825 0 0.584535a31.221750000000004 31.221750000000004 0 0 1 -19.277685 -1.6359c-0.35112 -0.11571000000000001 -0.117705 -0.700245 0.23341500000000004 -0.58254 7.5211500000000004 2.603475 13.791435000000002 0.82593 19.05225 1.633905Z" fill="#14bef0" stroke-width="1"></path><path d="M240.17007 222.911325a0.5985 0.5985 0 0 0 -0.349125 -0.815955 27.89409 27.89409 0 0 0 -4.674285 -1.87131 243.80695500000002 243.80695500000002 0 0 0 -77.22844500000001 -15.303645000000001 87.68224500000001 87.68224500000001 0 0 0 -10.9725 0.11571000000000001 0.4668300000000001 0.4668300000000001 0 0 0 0 0.9336600000000002c14.563500000000001 1.04139 39.7005 1.04139 71.85391500000001 10.984470000000002 14.05278 4.36107 17.699640000000002 6.2244 20.21334 6.892725 0.23341500000000004 1.16907 0.4668300000000001 2.220435 0.700245 3.3915a18.906615000000002 18.906615000000002 0 0 1 -0.700245 8.412915 19.750500000000002 19.750500000000002 0 0 1 -1.5201900000000002 3.620925 227.18860500000002 227.18860500000002 0 0 1 -87.04185000000001 -3.736635c-9.59595 -2.27031 -18.58143 -5.9131800000000005 -23.142 -14.605395l-1.3965 1.051365a27.770400000000002 27.770400000000002 0 0 0 1.5201900000000002 2.45385c5.7416100000000005 8.179499999999999 16.321095 11.658780000000002 26.052705 13.669740000000001a228.800565 228.800565 0 0 0 78.98205000000002 3.8563350000000005c1.8693150000000003 -0.23341500000000004 3.7386300000000006 -0.4668300000000001 5.607945 -0.81795a3.5271600000000003 3.5271600000000003 0 0 0 0.81795 -0.584535 18.084675 18.084675 0 0 0 2.80497 -8.879745 20.60835 20.60835 0 0 0 -1.52817 -8.768025Z" fill="#191919" stroke-width="1"></path><path d="M198.57631500000002 191.48409c0.35112 0 0.35112 -0.4668300000000001 0.117705 -0.584535 -12.474735 -2.6154450000000002 -28.6083 -4.091745 -41.478045 -2.45385 -0.349125 0.584535 -0.58254 1.28478 -0.9336600000000002 1.8693150000000003 13.42236 -1.8074700000000001 26.990355 0.14763 42.294000000000004 1.16907Z" fill="#191919" stroke-width="1"></path><path d="M248.46528 247.44783000000004a174.604395 174.604395 0 0 1 -20.797875 3.154095 235.39803 235.39803 0 0 1 -32.995305 -0.08379 25.19685 25.19685 0 0 0 -0.9975 -2.9526000000000003c-0.23341500000000004 -0.70224 -1.167075 -0.4668300000000001 -1.0493700000000001 0.349125a148.01703 148.01703 0 0 1 2.451855 15.65676c1.31271 19.800375000000003 -2.140635 38.082555 -7.59297 56.783685000000006 -0.81795 2.802975 -1.995 5.60595 -2.687265 8.412915a26.42976 26.42976 0 0 1 -6.184500000000001 1.3705650000000003 20.07768 20.07768 0 0 1 -8.536605 -1.254855c0 -4.722165 -6.16056 -27.778380000000002 -5.021415 -84.7077a0.37107 0.37107 0 0 0 -0.70224 -0.11571000000000001 108.79134 108.79134 0 0 0 -1.5201900000000002 16.123590000000004 308.768145 308.768145 0 0 0 2.571555 51.75828c0.17955000000000002 1.214955 1.3805399999999999 10.196445 2.220435 13.55403a12.724110000000001 12.724110000000001 0 0 0 0.935655 3.620925 1.039395 1.039395 0 0 0 0.584535 1.28478 23.11407 23.11407 0 0 0 13.200915 0.81795 20.654235 20.654235 0 0 0 3.341625 -1.2628350000000002c0.420945 -0.237405 1.09725 -0.724185 0.863835 -1.197a182.66419500000003 182.66419500000003 0 0 0 8.412915 -30.844695 117.52146 117.52146 0 0 0 2.104725 -32.831715 107.60232 107.60232 0 0 0 -1.929165 -12.768c13.93707 1.214955 41.39625 1.0892700000000002 53.687445000000004 -4.063815 0.349125 -0.33715500000000004 -0.007980000000000001 -0.9216900000000001 -0.361095 -0.8039850000000001Z" fill="#191919" stroke-width="1"></path><path d="M157.68480000000002 183.18888c5.31867 -10.63734 8.8977 -22.01682 7.710675000000001 -33.88308000000001 0.584535 -0.35112 0.11571000000000001 -1.167075 -0.4668300000000001 -1.051365 -4.398975 0.6583500000000001 -10.914645 3.146115 -28.97538 -0.81795 -23.880150000000004 -5.763555 -36.031695 -14.51961 -44.74984500000001 -19.277685a0.5605950000000001 0.5605950000000001 0 0 0 -0.700245 0.81795c-4.9077 13.669740000000001 -16.59042 22.89861 -28.97538 29.67762 -13.55403 7.475265 -28.50855 13.083210000000001 -39.72444 24.183390000000003a42.176294999999996 42.176294999999996 0 0 0 -11.800425 19.5111c-0.23341500000000004 1.05336 1.3965 1.5181950000000002 1.6359 0.468825 3.7386300000000006 -14.02086 15.539055 -23.718555 27.690600000000003 -30.61128C52.881465000000006 164.49573 67.83 159.00150000000002 79.28728500000001 148.138725a41.470065 41.470065 0 0 0 11.916135 -18.57744 67.83 67.83 0 0 0 12.736080000000001 7.826385c15.361500000000001 7.870275 36.309 15.040305 53.50989 13.671735a25.027275 25.027275 0 0 0 7.243845 -1.5201900000000002 74.01450000000001 74.01450000000001 0 0 1 -7.12614 30.026745000000002c-0.35112 0.819945 -0.81795 1.6359 -1.28478 2.571555a89.08074 89.08074 0 0 1 -15.072225 21.496125000000003c-17.157 17.817345 -47.41117500000001 32.62623 -59.11983 52.34481a23.163945000000002 23.163945000000002 0 0 0 -1.28478 2.336145c-4.371045 -2.0169449999999998 -10.120635000000002 -4.023915 -18.108615 -8.179499999999999C33.087075000000006 235.011 17.74353 215.023095 11.405415 209.47500000000002c-0.468825 -0.35112 -1.3965 0.117705 -0.935655 0.70224a86.5032 86.5032 0 0 0 9.346575 10.280235 164.74710000000002 164.74710000000002 0 0 0 39.834165 30.14445 125.99622000000001 125.99622000000001 0 0 0 21.264705000000003 9.11316 0.708225 0.708225 0 0 0 0.4668300000000001 -0.11571000000000001c0.11571000000000001 0 0.11571000000000001 -0.11571000000000001 0.23341500000000004 -0.23341500000000004 4.22541 -5.510190000000001 7.503195000000001 -11.022375000000002 17.40837 -19.513095000000003 20.769945 -18.208365 44.043615 -27.435240000000004 58.66098 -56.663985000000004Z" fill="#14bef0" stroke-width="1"></path></svg>