<svg width="765" height="262" viewBox="0 0 765 262" fill="none" xmlns="http://www.w3.org/2000/svg">
<path d="M121.049 262C117.036 262 112.933 261.681 108.739 261.042C104.635 260.403 100.623 259.08 96.7021 257.072C92.8723 255.064 89.2249 252.19 85.7599 248.448C82.386 244.707 79.4225 239.779 76.8693 233.665C74.3161 227.55 72.31 220.022 70.8511 211.078C69.3921 202.135 68.6626 191.458 68.6626 179.047V149.48C68.6626 137.251 69.3921 126.802 70.8511 118.133C72.4012 109.372 74.4529 102.026 77.0061 96.094C79.6504 90.1623 82.7052 85.4626 86.1702 81.9948C89.6352 78.4357 93.2827 75.7436 97.1124 73.9185C101.033 72.0021 105.046 70.7701 109.149 70.2226C113.252 69.5838 117.264 69.2644 121.185 69.2644C124.924 69.2644 128.799 69.5381 132.812 70.0857C136.824 70.6332 140.745 71.8196 144.574 73.6447C148.404 75.3786 152.006 78.0251 155.38 81.5841C158.845 85.0519 161.854 89.7517 164.407 95.6834C167.052 101.615 169.103 109.007 170.562 117.859C172.112 126.62 172.888 137.16 172.888 149.48V179.047C172.888 191.276 172.112 201.816 170.562 210.668C169.012 219.52 166.915 227.003 164.271 233.117C161.626 239.231 158.571 244.205 155.106 248.038C151.641 251.779 147.994 254.699 144.164 256.798C140.334 258.897 136.413 260.266 132.401 260.905C128.48 261.635 124.696 262 121.049 262ZM121.322 235.307C124.422 235.307 127.021 234.532 129.119 232.98C131.307 231.338 133.04 228.691 134.316 225.041C135.684 221.39 136.641 216.599 137.188 210.668C137.827 204.645 138.146 197.207 138.146 188.355V141.951C138.146 133.099 137.827 125.661 137.188 119.638C136.641 113.615 135.684 108.779 134.316 105.129C133.04 101.387 131.307 98.6949 129.119 97.0522C127.021 95.4096 124.422 94.5883 121.322 94.5883C118.04 94.5883 115.258 95.4096 112.979 97.0522C110.79 98.6949 108.967 101.387 107.508 105.129C106.049 108.779 105 113.615 104.362 119.638C103.723 125.661 103.404 133.099 103.404 141.951V188.355C103.404 197.207 103.723 204.645 104.362 210.668C105 216.599 106.049 221.39 107.508 225.041C108.967 228.691 110.79 231.338 112.979 232.98C115.258 234.532 118.04 235.307 121.322 235.307Z" fill="#1E293B"/>
<path d="M363.83 262C357.994 262 352.796 260.859 348.237 258.578C343.769 256.205 339.985 253.011 336.884 248.996C333.784 244.981 331.413 240.235 329.772 234.76C328.222 229.193 327.447 223.17 327.447 216.691C327.447 208.934 328.404 202.044 330.319 196.021C332.234 189.998 335.015 184.568 338.663 179.731C342.401 174.895 347.006 170.514 352.477 166.59C357.948 162.575 364.286 158.788 371.489 155.229C374.954 153.495 378.83 151.761 383.115 150.027C387.492 148.202 391.368 146.651 394.742 145.373V120.46C394.742 116.809 394.605 113.433 394.331 110.33C394.058 107.136 393.374 104.398 392.28 102.117C391.277 99.7443 389.726 97.9192 387.629 96.6416C385.532 95.2727 382.66 94.5883 379.012 94.5883C376.55 94.5883 374.134 95.0446 371.763 95.9572C369.483 96.8697 367.432 98.4211 365.608 100.611C363.875 102.801 362.462 105.722 361.368 109.372C360.365 113.022 359.863 117.54 359.863 122.924V131.137H333.465C332.644 127.578 332.006 124.338 331.55 121.418C331.185 118.406 331.003 115.441 331.003 112.52C331.003 105.494 332.188 99.288 334.559 93.9039C337.021 88.5197 340.395 84.0024 344.681 80.3521C349.058 76.7018 354.255 73.9641 360.274 72.139C366.292 70.2226 372.903 69.2644 380.106 69.2644C389.498 69.2644 397.295 70.3138 403.495 72.4128C409.696 74.4204 414.62 77.4775 418.267 81.5841C422.006 85.6907 424.605 90.8467 426.064 97.0522C427.614 103.258 428.389 110.513 428.389 118.817V259.947H402.675L400.213 243.794C396.474 249.178 391.459 253.559 385.167 256.935C378.967 260.312 371.854 262 363.83 262ZM379.149 235.307C382.067 235.307 384.894 234.577 387.629 233.117C390.456 231.566 392.827 229.695 394.742 227.505V168.507C392.918 169.237 390.866 170.104 388.587 171.108C386.307 172.111 383.845 173.435 381.201 175.077C378.739 176.629 376.322 178.499 373.951 180.69C371.581 182.88 369.438 185.481 367.523 188.492C365.699 191.504 364.195 194.926 363.009 198.759C361.915 202.5 361.368 206.698 361.368 211.352C361.368 218.561 362.781 224.356 365.608 228.737C368.435 233.117 372.948 235.307 379.149 235.307Z" fill="#1E293B"/>
<path d="M464.225 71.4545H490.897L494.043 91.5768V91.7137C496.778 87.4246 499.696 83.8656 502.796 81.0366C505.988 78.1163 509.27 75.7893 512.644 74.0554C516.018 72.3215 519.438 71.0895 522.903 70.3595C526.459 69.6294 529.97 69.2644 533.435 69.2644C544.468 69.2644 552.948 73.1428 558.875 80.8997C564.894 88.5653 567.903 100.109 567.903 115.532V259.947H533.298V116.764C533.298 108.459 532.021 102.71 529.468 99.5162C526.915 96.2309 523.176 94.5883 518.252 94.5883C514.787 94.5883 511.322 95.729 507.857 98.0105C504.483 100.292 501.474 103.44 498.83 107.456V259.947H464.225V71.4545Z" fill="#1E293B"/>
<path d="M649.149 262C641.033 262 633.83 260.494 627.538 257.483C621.337 254.471 616.094 249.772 611.808 243.383C607.523 236.995 604.286 228.828 602.097 218.881C599.909 208.843 598.815 196.797 598.815 182.743V147.153C598.815 135.198 599.681 124.977 601.413 116.49C603.237 107.912 605.562 100.748 608.389 94.999C611.307 89.1585 614.635 84.55 618.374 81.1735C622.204 77.7969 626.125 75.2417 630.137 73.5078C634.149 71.6827 638.115 70.542 642.036 70.0857C646.049 69.5381 649.742 69.2644 653.115 69.2644C659.316 69.2644 665.289 70.2226 671.033 72.139C676.778 73.9641 681.839 77.1581 686.216 81.721C690.593 86.1926 694.058 92.2156 696.611 99.79C699.255 107.364 700.577 116.809 700.577 128.125C700.577 131.958 700.441 135.837 700.167 139.761C699.985 143.685 699.711 147.563 699.346 151.396C698.982 155.138 698.48 158.788 697.842 162.347C697.295 165.906 696.702 169.191 696.064 172.203H633.556V191.367C633.556 199.58 633.875 206.516 634.514 212.173C635.152 217.74 636.201 222.257 637.66 225.725C639.21 229.102 641.261 231.566 643.815 233.117C646.459 234.577 649.742 235.307 653.663 235.307C655.76 235.307 657.812 234.897 659.818 234.075C661.824 233.163 663.556 231.703 665.015 229.695C666.565 227.687 667.796 225.041 668.708 221.755C669.62 218.379 670.076 214.227 670.076 209.299V203.413H698.936V210.668C698.936 228.554 694.65 241.604 686.079 249.817C677.599 257.939 665.289 262 649.149 262ZM668.298 148.932C668.389 147.928 668.48 146.605 668.571 144.962C668.663 143.228 668.708 141.449 668.708 139.624C668.799 137.799 668.845 136.019 668.845 134.285C668.845 132.46 668.845 130.909 668.845 129.631C668.845 117.22 667.386 108.277 664.468 102.801C661.55 97.326 657.219 94.5883 651.474 94.5883C648.465 94.5883 645.821 95.3184 643.541 96.7785C641.261 98.1473 639.392 100.52 637.933 103.897C636.474 107.182 635.38 111.562 634.65 117.038C633.921 122.513 633.556 129.312 633.556 137.434V148.932H668.298Z" fill="#1E293B"/>
<path d="M730.395 10.9509H765V259.947H730.395V10.9509Z" fill="#1E293B"/>
<path fill-rule="evenodd" clip-rule="evenodd" d="M205.714 26.1452H241.14C245.608 26.1452 250.486 26.3734 255.775 26.8297C261.155 27.1947 266.489 28.1529 271.778 29.7043C277.158 31.1644 282.31 33.4458 287.234 36.5486C292.249 39.6513 296.672 43.8948 300.501 49.279C304.331 54.5719 307.386 61.2337 309.666 69.2644C312.036 77.295 313.222 87.0596 313.222 98.558V106.771C313.222 119.273 312.128 129.996 309.939 138.939C307.842 147.791 305.015 155.274 301.459 161.389C297.903 167.412 293.754 172.248 289.012 175.899C284.362 179.549 279.483 182.332 274.377 184.249C269.362 186.074 264.255 187.306 259.058 187.945C253.951 188.492 249.119 188.766 244.559 188.766H241.14V259.947H205.714V26.1452ZM259.058 160.02C254.681 161.845 249.301 162.758 242.918 162.758H241.14V52.0167H242.918C249.574 52.0167 255.091 52.838 259.468 54.4807C263.845 56.032 267.31 58.4504 269.863 61.7356C272.508 65.0209 274.331 69.2187 275.334 74.3292C276.337 79.3483 276.839 85.3257 276.839 92.2612V113.342C276.839 122.102 276.246 129.631 275.061 135.928C273.967 142.133 272.097 147.244 269.453 151.259C266.9 155.183 263.435 158.103 259.058 160.02Z" fill="#1E293B"/>
<path d="M2.73556 71.4545H37.3404V259.947H2.73556V71.4545Z" fill="#1E293B"/>
<path d="M20.6535 44.488C14.2705 44.488 9.20973 42.5716 5.47112 38.7388C1.82371 34.906 0 29.2936 0 21.9018C0 17.7952 0.455927 14.373 1.36778 11.6353C2.37082 8.80634 3.7386 6.57053 5.47112 4.9279C7.29483 3.19401 9.48328 1.96203 12.0365 1.23197C14.5897 0.410658 17.5076 0 20.7903 0C27.6292 0 32.8267 1.73389 36.383 5.20167C39.9392 8.66945 41.7173 14.2362 41.7173 21.9018C41.7173 29.0199 39.8936 34.5866 36.2462 38.6019C32.69 42.526 27.4924 44.488 20.6535 44.488Z" fill="#00B0FC"/>
</svg>
