<svg xmlns="http://www.w3.org/2000/svg" viewBox="0 0 1127.24 285.09"><path d="M295.47,67.86V194.41a2.32,2.32,0,0,0,2.1,2.29,142.22,142.22,0,0,0,21.86,0c6.35-.49,14.1-1.4,23.67-2.78a35.23,35.23,0,0,0-.52,6.28,48.41,48.41,0,0,0,.57,6.78H267.84V67.89c1.43.12,3.28.35,5.57.66a23.21,23.21,0,0,0,8.82,0l6.77,0C291.58,68.21,293.71,68,295.47,67.86Zm90.28,6.92c-4,.56-6.69.57-8.62,0h-6.78c-2.39-.33-4.22-.54-5.59-.67V207H391V74.11C389.47,74.23,387.75,74.45,385.75,74.78Zm26-.77a41.25,41.25,0,0,1,.38,5.62,54.17,54.17,0,0,1-.34,6.39h4.38A256.64,256.64,0,0,1,447,83.65a2.3,2.3,0,0,1,2.31,2.3V207h25.43V86a2.31,2.31,0,0,1,2.31-2.3c5.81,0,14.13.54,24.74,1.58a79.75,79.75,0,0,0,8.5.75,21.75,21.75,0,0,1,0-6.3,15.39,15.39,0,0,1,.06-5.66H411.72Zm119.45,0V207H603a45.78,45.78,0,0,1-.54-6.4,36,36,0,0,1,.45-5.78c-4.89.75-10.34,1.34-16.18,1.74-6.79.55-16.15.81-27.83.81a2.3,2.3,0,0,1-2.3-2.31V143.65a2.3,2.3,0,0,1,2.3-2.29h19.22c6.4.37,11.55.75,16.71,1.12l3.8.26c-.11-.51-.23-1.08-.37-1.69l-.07-9.25a1.93,1.93,0,0,1,.12-.73c0-.18.11-.37.16-.54a158.29,158.29,0,0,1-20.35,1.2H558.91a2.31,2.31,0,0,1-2.3-2.3V86a2.3,2.3,0,0,1,2.3-2.3,372.54,372.54,0,0,1,44.28,2.75,27,27,0,0,1-.72-6A27.32,27.32,0,0,1,603.2,74Zm180,92.12c-.55-16.44-13.18-31-37.6-43.23-18.1-9.33-26.89-18.39-26.89-27.68,0-15,8.77-23.19,25.37-23.79,11.3,0,20,6,25.87,18,.61-2.1,1.47-4.79,2.59-8.18,1.36-3.58,2.51-6.58,3.48-9.07-8.68-5.17-19.15-8-31.13-8.56-30.13,1.6-45.33,15.48-46.37,42.43,0,18.15,11.51,32.74,34.21,43.29,19,8.62,28.59,18.5,28.59,29.34-1.2,15.23-10.28,23.21-27,23.81-16.54-.58-26.89-8.36-30.82-23.15h-.29a153.41,153.41,0,0,1-5,23.6,101.49,101.49,0,0,0,31.08,6.51C690.6,209.46,709,193.65,711.15,166.13ZM755.08,147a2.17,2.17,0,0,0-2.13,2.18V207h-26.4V74h47.56c27.22,0,40.72,10.41,41.22,31.79.19,11.64-3,20.9-9.5,27.52-9,9.11-24.61,13.73-46.54,13.73C757.94,147,756.6,147,755.08,147Zm-.24-6.7a23.72,23.72,0,0,0,3.22.22,39.62,39.62,0,0,0,11.11-1.85c12-3.43,18.63-13.17,19.75-29.1-1.12-18-8.18-27.95-21.14-29.7H755.16A2.21,2.21,0,0,0,753,82.07v56.05A2.19,2.19,0,0,0,754.84,140.29ZM920.92,74V207h72a48.29,48.29,0,0,1-.53-6.5,33.69,33.69,0,0,1,.47-5.88c-4.95.75-10.43,1.36-16.29,1.76-6.85.54-15.93.8-27.78.8a2.21,2.21,0,0,1-2.21-2.19V143.64a2.21,2.21,0,0,1,2.21-2.2h21.31c8,.49,15.3.94,22,1.4-.12-.55-.24-1.16-.41-1.83l-.07-9.2a1.8,1.8,0,0,1,.12-.71c.07-.23.14-.46.22-.67a186.49,186.49,0,0,1-21.82,1.2H948.74a2.21,2.21,0,0,1-2.21-2.2V86a2.21,2.21,0,0,1,2.21-2.2,373.27,373.27,0,0,1,44.34,2.77,26.89,26.89,0,0,1-.74-6.09,25.85,25.85,0,0,1,.77-6.5Zm134.24,133h-43.81V74h56.35c38,2.59,57.48,23,59.54,62.43C1124.69,180.67,1100.43,204.42,1055.16,207Zm42.53-70.44c0-36.56-16.42-55.11-48.77-55.11h-9.78a2.22,2.22,0,0,0-2.19,2.21v113.7a2.21,2.21,0,0,0,2.19,2.19h8.64c16.54,0,29.15-5.4,37.51-16S1097.69,157.22,1097.69,136.54ZM830.06,74V207H902a48.45,48.45,0,0,1-.54-6.5,34.69,34.69,0,0,1,.47-5.88c-5,.75-10.43,1.36-16.28,1.76-6.85.54-15.94.8-27.79.8a2.2,2.2,0,0,1-2.2-2.19V143.64a2.21,2.21,0,0,1,2.2-2.2h21.32c8,.49,15.29.94,22,1.4-.12-.55-.26-1.16-.41-1.83l-.07-9.2a2,2,0,0,1,.12-.71c.07-.23.14-.46.19-.67a185.51,185.51,0,0,1-21.8,1.2H857.86a2.21,2.21,0,0,1-2.2-2.2V86a2.21,2.21,0,0,1,2.2-2.2,373.4,373.4,0,0,1,44.34,2.77,27.47,27.47,0,0,1-.74-6.09,27.83,27.83,0,0,1,.76-6.5Z" fill="#002d73"/><path d="M217.77,138.43,152.19,72.87l-27.92,35.45,30.11,30.11a7.16,7.16,0,0,1,0,10.1l-8.71,8.71s5.87,8.79,6.14,9.32c1.36,2.72,1.68,9.1-2.16,12L81.16,231.15c0,17.64,0,53.92,0,53.94L217.77,148.53A7.18,7.18,0,0,0,217.77,138.43Z" fill="#3e8ede"/><path d="M65.47,146.68a7.16,7.16,0,0,1,0-10.09l8.72-8.72-6-8.56a9.39,9.39,0,0,1,2-12.75L138.7,54l0-53.91,0,0,0,0L2.08,136.59a7.15,7.15,0,0,0,0,10.1l65.56,65.57,27.93-35.45Z" fill="#002d73"/><path d="M173.22,31.93a3.55,3.55,0,0,1,3.12,2c1,2.15-.46,4.06-1.29,5.12l-60,76.18a3.18,3.18,0,0,0-.1,3.22c.33.47,32.41,47,33.51,48.59,1.58,2.27,1.43,8.12-1.71,10.5L50.22,251.58a5.94,5.94,0,0,1-3.76,1.62,3.71,3.71,0,0,1-3-1.94c-1-2.15.53-4.18,1.29-5.16l60-76.15a3.24,3.24,0,0,0,.12-3.24l-33.5-48.16a8.05,8.05,0,0,1,1.68-10.92l96.53-74.1a5.83,5.83,0,0,1,3.59-1.6m0-.25a6,6,0,0,0-3.75,1.65L73,107.43a8.28,8.28,0,0,0-1.73,11.26l33.49,48.17a3,3,0,0,1-.12,2.94l-60,76.14c-.79,1-2.43,3.15-1.31,5.43a4,4,0,0,0,3.16,2.08,6.21,6.21,0,0,0,3.93-1.67l96.51-74.08c3.33-2.53,3.35-8.57,1.77-10.84-1.12-1.61-33.51-48.59-33.51-48.59a2.93,2.93,0,0,1,.09-2.92l60-76.19c.79-1,2.44-3.07,1.32-5.38a3.82,3.82,0,0,0-3.35-2.1Z" fill="#3e8ede"/><path d="M145.18,167.74c.78,1.18,1.48,5.64-.48,7.11L48.19,249c-.82.62-1.34.92-1.57.9s-.09-.57.8-1.71l60-76.13a6.47,6.47,0,0,0,.23-7.19l-33.49-48.2S144.41,166.56,145.18,167.74Z" fill="#ffce00"/><path d="M145.18,167.74l-33-47.44a6.42,6.42,0,0,1,.21-7.15l60-76.18c.89-1.13,1.12-1.7.8-1.7a3.76,3.76,0,0,0-1.57.91L75.13,110.27a4.72,4.72,0,0,0-1,6.36Z" fill="#ffde6e"/></svg>
