<svg viewBox="-0.5 -0.5 400 400" xmlns="http://www.w3.org/2000/svg" height="400" width="400"><path d="M196.72695000000002 136.44204c-3.1600800000000002 3.4573350000000005 -5.871285 6.09672 -11.036340000000001 5.448345 -10.443825 -1.326675 -13.675725000000002 -15.299655 -15.523095 -23.69661a113.0766 113.0766 0 0 1 -2.822925 -16.610370000000003c0 -0.97356 -1.89126 -0.9177000000000001 -1.9770450000000002 0.09775500000000001 -0.5366550000000001 6.238365 3.7905 23.880150000000004 5.72964 29.270640000000004s5.759565 10.741080000000002 11.00841 12.857775000000002c-0.153615 5.432385 -0.9316650000000001 11.289705 -1.015455 12.941565a1.0453800000000002 1.0453800000000002 0 0 0 2.04687 0.2394 56.707875 56.707875 0 0 0 1.1012400000000002 -12.53259c5.276775000000001 1.12917 12.70017 -1.55211 14.338065000000002 -7.056315000000001 0.31122 -1.02942 -1.1152050000000002 -1.621935 -1.7775450000000002 -0.9037350000000001Zm1.6797900000000001 -25.248720000000002C193.31550000000001 105.735 191.81526 96.727575 191.121 92.099175c-13.206900000000001 4.36107 -21.945 6.350085 -28.23723 6.350085 -9.526125 0 -8.819895 -14.012880000000001 3.57105 -12.151545 -1.7775450000000002 -10.950555 15.52509 -15.0024 17.923080000000002 -7.168035000000001 2.4837750000000005 -6.054825000000001 13.45029 -5.7456000000000005 14.70714 2.9925 6.12465 -6.872775 14.705145000000002 6.310185 8.622390000000001 11.417385000000001 4.742115 0.86184 6.110685000000001 10.773000000000001 0.620445 13.68969a12.09369 12.09369 0 0 1 -3.4852650000000005 15.441300000000002 184.37989500000003 184.37989500000003 0 0 1 2.822925 32.319c0 1.410465 -2.4418800000000003 1.410465 -2.4977400000000003 0 -1.135155 -32.59431000000001 -3.62292 -32.72997 -1.9491150000000002 -34.3938 8.045835 -6.633375000000001 1.8214350000000001 -20.3091 -3.07629 -9.625875a1.0314150000000002 1.0314150000000002 0 0 1 -1.7356500000000001 0.18354Zm-4.30521 5.46231c4.09374 19.44726 -13.180965 15.52509 -14.43582 10.401930000000002a1.73166 1.73166 0 0 1 1.043385 -1.6239299999999999 13.2468 13.2468 0 0 0 6.8867400000000005 -2.94063 14.800905 14.800905 0 0 0 4.1496 -6.19647c0.4668300000000001 -0.98553 2.148615 -0.6304200000000001 2.3560950000000003 0.35910000000000003Zm-1.5840300000000003 3.006465c1.41246 9.48423 -5.64585 11.58696 -10.232355 7.551075000000001a14.523600000000002 14.523600000000002 0 0 0 10.232355 -7.551075000000001Zm-6.61941 -2.822925a0.9755550000000001 0.9755550000000001 0 0 1 1.25685 1.25685c-0.97356 2.695245 -9.2169 4.72815 -9.879240000000001 1.282785 -0.21147000000000002 -1.071315 0.9177000000000001 -1.05735 1.8214350000000001 -0.45087000000000005 2.34213 1.596 6.617415 -2.032905 6.8288850000000005 -2.088765ZM171.38047500000002 107.13150000000002c-0.720195 1.538145 -2.144625 0.97356 -2.04687 -0.36708a7.4054400000000005 7.4054400000000005 0 0 1 3.4713000000000003 -4.7141850000000005c1.7077200000000001 -0.676305 3.7905 0.6643350000000001 1.22892 2.394a12.61638 12.61638 0 0 0 -2.65335 2.687265Zm16.49865 -4.474785a8.32314 8.32314 0 0 0 -4.742115 -1.7775450000000002 1.326675 1.326675 0 0 1 -0.4389 -2.611455c2.3022299999999998 -0.7182000000000001 6.210435 1.1152050000000002 6.783 2.822925 0.005985000000000001 0.19750500000000001 0.84189 2.304225 -1.6019850000000002 1.5640800000000001ZM185.81829 107.5305c2.28627 -0.6643350000000001 2.1945 3.4713000000000003 0.8738100000000001 3.6548400000000005s-2.228415 -3.25584 -0.8738100000000001 -3.6548400000000005ZM174.36300000000003 109.72500000000001c2.05884 -0.33915000000000006 1.8613350000000002 3.99 0.7182000000000001 4.3750350000000005 -1.8753 0.5985 -2.144625 -4.107705 -0.7182000000000001 -4.347105Z" fill="#191919" stroke-width="1"></path><path d="M254.280705 101.11657500000001c-2.2443750000000002 -8.947575 -12.967500000000001 -6.5475900000000005 -13.01139 0.28329a0.97356 0.97356 0 0 0 1.91919 0.15561 4.33713 4.33713 0 0 1 7.12614 -2.7531c2.4837750000000005 2.1745500000000004 1.8054750000000002 8.608425 2.132655 12.0099 0.153615 1.596 3.591 2.25834 2.228415 -7.581a25.46019 25.46019 0 0 1 14.26824 -0.776055c0.408975 4.502715 0.564585 9.019395000000001 1.214955 13.492185000000001 0.831915 5.7855 4.021920000000001 4.347105 3.5550900000000003 3.134145 -1.538145 -4.06581 -1.7795400000000001 -11.150055000000002 -2.4398850000000003 -17.71161a29.982855 29.982855 0 0 0 -0.9177000000000001 -16.935555c-0.4389 -1.270815 -2.3022299999999998 -0.57855 -1.9491150000000002 0.6902699999999999a31.98783 31.98783 0 0 1 0.580545 14.437815l-3.4154400000000003 -0.309225c0.12568500000000002 -4.630395000000001 -1.17306 -17.204880000000003 -5.64585 -20.253239999999998a1.0314150000000002 1.0314150000000002 0 0 0 -1.41246 1.410465c3.4453650000000002 4.869795 4.70022 12.957525 4.558575 18.842775000000003l-3.3915 0.33715500000000004a33.829215000000005 33.829215000000005 0 0 0 -9.514155 -20.97144c-0.9017400000000001 -0.86184 -2.2423800000000003 0.5985 -1.494255 1.538145 6.872775 8.552565 6.110685000000001 10.471755 8.46678 19.96995a21.408345 21.408345 0 0 0 -2.822925 0.9975Zm3.9241650000000003 24.169425c0.9216900000000001 1.418445 -1.41246 2.822925 -2.3002350000000003 1.41246 -1.41246 -2.032905 -2.555595 -4.23339 -4.06581 -6.110685000000001 -1.905225 -2.4279150000000005 -6.20844 -0.720195 -9.103185 -7.495215000000001 -3.5271600000000003 -8.25531 0.07182 -8.750070000000001 0.5366550000000001 -7.056315000000001 1.0733100000000002 3.740625 1.7356500000000001 8.82189 5.943105 10.387965 5.7994650000000005 2.052855 5.607945 3.6548400000000005 8.98947 8.861790000000001Z" fill="#191919" stroke-width="1"></path><path d="M165.80644500000002 267.11454000000003a22.852725000000003 22.852725000000003 0 0 1 -8.01591 -4.8259050000000006 8.033865 8.033865 0 0 1 -2.28627 -7.59297 1.22892 1.22892 0 0 0 -2.3022299999999998 -0.81795 10.07475 10.07475 0 0 0 2.216445 9.879240000000001 25.16094 25.16094 0 0 0 9.470265 5.941110000000001 1.41246 1.41246 0 0 0 0.9177000000000001 -2.6094600000000003Zm-2.1745500000000004 21.16296a1.17306 1.17306 0 0 1 0 2.160585c-6.449835 2.1945 -26.489610000000003 -7.762545 -14.90265 -31.34544a1.0852800000000002 1.0852800000000002 0 0 1 1.995 0.81795c-3.541125 9.286725 -5.33463 20.378925000000002 4.841865 26.11056 3.9321450000000002 2.236395 5.779515 1.5461250000000002 8.065785 2.256345Zm3.3735450000000005 -6.463800000000001a13.566 13.566 0 0 1 -7.182 -1.34064c-5.386500000000001 -2.623425 -5.320665 -6.25233 -7.056315000000001 -5.320665 -3.146115 1.637895 7.056315000000001 10.9725 14.523600000000002 9.131115000000001a1.25685 1.25685 0 0 0 0.9077250000000001 -1.526175 1.27281 1.27281 0 0 0 -1.1930100000000001 -0.935655Zm0.11371500000000001 -7.339605c0.959595 0.736155 0.22543500000000002 2.1945 -1.22892 2.1585900000000002a16.57845 16.57845 0 0 1 -11.940075000000002 -7.056315000000001 1.197 1.197 0 0 1 1.9351500000000001 -1.410465c4.6004700000000005 6.294225 9.665775 5.220915000000001 11.233845 6.421905Z" fill="#191919" stroke-width="1"></path><path d="M195.09105000000002 164.787a24.692115 24.692115 0 0 1 -20.52855 -9.165030000000002c-0.353115 -0.42294000000000004 -1.1571 -0.325185 -1.7077200000000001 -0.28129499999999996 -32.057655 2.03091 -58.54128000000001 23.991870000000002 -77.120715 48.662040000000005 -12.702165 16.935555 -13.68969 28.889595 4.23339 42.056595a146.538735 146.538735 0 0 0 42.212205 22.22829c1.0872750000000002 0.32319000000000003 1.8074700000000001 -1.41246 0.748125 -1.8633300000000002A222.21108 222.21108 0 0 1 105.336 246.20095500000002c-17.63979 -12.251295 -21.97293 -20.64825 -8.283240000000001 -39.14988 34.74691500000001 -46.8825 66.415545 -47.774265 76.506255 -49.077000000000005 14.114625000000002 16.245285000000003 33.689565 9.965025 43.32741 -2.5536000000000003a257.14153500000003 257.14153500000003 0 0 1 48.478500000000004 18.022830000000003c1.0992450000000002 6.4917300000000004 2.172555 15.361500000000001 5.64585 20.73204 0.576555 0.8738100000000001 2.03091 0.09775500000000001 1.8194400000000002 -0.86184 -1.7516100000000001 -7.59297 -3.6269100000000005 -13.859265 -5.01144 -21.86121 -2.25834 -12.967500000000001 -5.643855 -26.489610000000003 -11.72661 -38.190285a150.63447000000002 150.63447000000002 0 0 1 21.691635 -8.552565 200.17431 200.17431 0 0 1 27.417285000000003 67.069905c5.771535 29.017275 -17.9949 35.058135 -39.900000000000006 24.839745 -11.70267 -5.448345 -24.883635 -10.782975 -36.865605 -15.13008 -1.410465 -0.50673 -2.032905 1.56807 -0.73416 2.1945 4.987500000000001 2.4139500000000003 10.118640000000001 4.57254 15.2418 6.73113 0.452865 22.058715000000003 0.353115 45.769290000000005 -0.9975 64.92129000000001a120.2985 120.2985 0 0 1 -67.12177500000001 4.6563300000000005c-1.31271 -0.26733 -1.995 1.637895 -0.66234 2.01894 16.935555 4.7700450000000005 48.197205000000004 4.4308950000000005 69.408045 -4.23339 0.9037350000000001 -0.36708 1.043385 -1.6658250000000001 1.02942 -2.4279150000000005 0 -6.407940000000001 2.70921 -43.975785 0.70623 -63.98962500000001 6.533625 2.822925 12.997425 5.64585 19.588905000000004 8.27127 24.528525000000002 9.6957 48.987225 3.174045 43.397235 -28.227255a188.194335 188.194335 0 0 0 -28.728 -68.08136999999999c-1.410465 -2.0748 -1.197 -1.6937550000000001 -3.7107000000000006 -0.959595 -6.930630000000001 2.060835 -16.62633 5.5181700000000005 -21.891135000000002 9.06129a1.414455 1.414455 0 0 0 -0.45087000000000005 1.6079700000000001c4.7700450000000005 12.602415 8.947575 24.1395 11.289705 37.44216 -7.12614 -4.6004700000000005 -41.152860000000004 -17.40039 -49.16877 -17.73954 -1.637895 0 -6.5835 11.050305 -20.592389999999998 12.023865ZM120.498 218.877435c2.96457 -4.558575 15.778455000000001 -14.579460000000001 22.058715000000003 -16.935555a78.54714 78.54714 0 0 1 -0.97356 -7.93212c-0.09775500000000001 -1.52418 2.2304100000000004 -1.9750500000000002 2.372055 -0.399 1.905225 19.644765 17.556 50.651055 16.779945 65.202585 0 1.410465 -2.060835 1.24089 -2.216445 0.08379 -2.3281650000000003 -17.52807 -12.369000000000002 -39.219705 -15.411375 -54.08046a66.371655 66.371655 0 0 0 -20.85972 16.073715c10.47375 11.79843 19.750500000000002 18.870705 31.275615000000002 28.69209a1.41246 1.41246 0 0 1 -1.596 2.2443750000000002c-12.181470000000001 -7.6907250000000005 -26.90058 -23.187885 -35.89005 -34.591305a1.171065 1.171065 0 0 1 1.8054750000000002 -1.482285 96.89715000000001 96.89715000000001 0 0 0 2.655345 3.1241700000000003ZM158.5227 297.255a71.339205 71.339205 0 0 0 0 8.313165c0.09975 1.24089 1.9491150000000002 0.94563 2.060835 -0.141645q0.4668300000000001 -4.5885 0.720195 -9.214905c0.21147000000000002 -4.107705 -2.639385 -2.822925 -2.822925 1.043385Zm90.174 -4.3750350000000005c0.33316500000000004 1.14513 1.410465 3.3017250000000002 -0.31122 3.8962350000000003s-2.144625 -1.877295 -2.4698100000000003 -3.02043a103.977405 103.977405 0 0 1 -3.3735450000000005 -12.702165 1.17306 1.17306 0 0 1 2.1745500000000004 -0.76209 100.51209 100.51209 0 0 1 3.9760350000000004 12.574485000000001Z" fill="#191919" stroke-width="1"></path><path d="M37.5459 302.92080000000004c-1.22892 0.8598450000000001 0.29526 2.822925 1.566075 2.116695 1.91919 -1.1571 28.95942 -18.50163 31.048185000000004 -20.85972 0.76209 -0.8877750000000001 0.12768000000000002 -2.70921 -1.24089 -2.2423800000000003 -3.00048 0 -27.325515 18.20637 -31.373370000000005 20.985405Zm316.6065 -5.3067c-5.200965000000001 -4.291245 -32.670120000000004 -18.164475000000003 -39.41721 -19.950000000000003a1.214955 1.214955 0 0 0 -0.8758050000000001 2.2443750000000002c10.048815000000001 5.165055000000001 29.879115000000002 16.526580000000003 39.12195 19.828305 1.17705 0.43092 2.0628300000000004 -1.3805399999999999 1.163085 -2.1226800000000003Zm34.000785 -82.6329c-8.277255 -1.6079700000000001 -41.66358 -1.02942 -49.170765 -0.309225a1.41246 1.41246 0 0 0 0 2.822925c12.546555 0.309225 37.506 1.197 48.845580000000005 -0.11371500000000001 1.218945 -0.15561 1.7955 -2.120685 0.317205 -2.3999850000000005Zm-50.28597 -57.2565c-0.62244 0.847875 0 2.56956 1.282785 1.9750500000000002 4.939620000000001 -2.3840250000000003 35.608755 -25.6557 37.795275000000004 -28.069650000000003a1.197 1.197 0 0 0 -1.24089 -1.905225c-2.910705 0 -35.34342 24.532515000000004 -37.84515 27.999825ZM60.98715000000001 155.919225c-5.27877 -3.712695 -27.237735 -14.579460000000001 -32.84169 -17.135055 -1.494255 -0.6902699999999999 -2.3142 1.554105 -0.94563 2.3022299999999998 10.020885 5.432385 22.102605000000004 12.997425 32.277105 17.52807a1.56807 1.56807 0 0 0 1.510215 -2.695245Zm-7.056315000000001 55.802145c-14.563500000000001 -1.28478 -35.325465 0.6643350000000001 -43.072050000000004 1.7635800000000001 -1.41246 0.18354 -0.9975 2.35809 0.32319000000000003 2.344125 3.2039700000000004 0 41.70547500000001 -1.538145 42.493500000000004 -1.7496150000000001 1.14912 -0.30523500000000003 1.386525 -2.35809 0.25536000000000003 -2.35809Z" fill="#14bef0" stroke-width="1"></path><path d="M123.31095 264.47715c15.52509 25.841235 41.154855000000005 59.373195 86.18400000000001 80.232915 42.343875000000004 -32.348925 65.489865 -76.382565 77.78505000000001 -116.32246500000001a28.338975 28.338975 0 0 0 16.58244 -6.080760000000001c-12.307155 47.5608 -45.994725 110.63073000000001 -92.27274000000001 142.456965 -44.93538 -20.857725000000002 -90.902175 -65.32827 -110.41926000000001 -112.69156500000001 6.417915000000001 5.19099 18.753 10.808910000000001 22.140510000000003 12.404910000000001ZM99.82780500000001 192.627225c-5.35059 -21.480165 -9.3765 -79.175565 -8.552565 -94.177965 24.570420000000002 -16.05975 88.360545 -42.53539500000001 103.74000000000001 -47.61666 16.865730000000003 4.5446100000000005 84.67977 29.63772 106.44123 43.04412000000001a472.60353000000003 472.60353000000003 0 0 1 -2.13066 58.922325c4.23339 10.71315 8.396955 22.01682 10.076745 31.05018 7.056315000000001 -33.250665000000005 8.94957 -85.98450000000001 7.056315000000001 -98.93404500000001 -39.516960000000005 -20.323065 -96.53406 -44.259075 -121.669065 -50.673 -20.083665 5.899215 -85.8648 35.29554 -119.283045 57.242535000000004C73.350165 133.66500000000002 80.97106500000001 186.67215 88.86129000000001 207.06504a98.882175 98.882175 0 0 1 10.966515000000001 -14.437815Z" fill="#14bef0" stroke-width="1"></path></svg>