<svg id="Layer_1" data-name="Layer 1" xmlns="http://www.w3.org/2000/svg" viewBox="0 0 112.67 112"><defs><style>.cls-1{fill:#e52454;}.cls-1,.cls-10,.cls-100,.cls-101,.cls-102,.cls-11,.cls-12,.cls-13,.cls-14,.cls-15,.cls-16,.cls-17,.cls-18,.cls-19,.cls-2,.cls-20,.cls-21,.cls-22,.cls-23,.cls-24,.cls-25,.cls-26,.cls-27,.cls-28,.cls-29,.cls-3,.cls-30,.cls-31,.cls-32,.cls-33,.cls-34,.cls-35,.cls-36,.cls-37,.cls-38,.cls-39,.cls-4,.cls-40,.cls-41,.cls-42,.cls-43,.cls-44,.cls-45,.cls-46,.cls-47,.cls-48,.cls-49,.cls-5,.cls-50,.cls-51,.cls-52,.cls-53,.cls-54,.cls-55,.cls-56,.cls-57,.cls-58,.cls-59,.cls-6,.cls-60,.cls-61,.cls-62,.cls-63,.cls-64,.cls-65,.cls-66,.cls-67,.cls-68,.cls-69,.cls-7,.cls-70,.cls-71,.cls-72,.cls-73,.cls-74,.cls-75,.cls-76,.cls-77,.cls-78,.cls-79,.cls-8,.cls-80,.cls-81,.cls-82,.cls-83,.cls-84,.cls-85,.cls-86,.cls-87,.cls-88,.cls-89,.cls-9,.cls-90,.cls-91,.cls-92,.cls-93,.cls-94,.cls-95,.cls-96,.cls-97,.cls-98,.cls-99{fill-rule:evenodd;}.cls-2{fill:#eb5379;opacity:0.86;}.cls-11,.cls-2,.cls-20,.cls-26,.cls-30,.cls-32,.cls-36,.cls-37,.cls-70,.cls-71,.cls-73,.cls-76,.cls-94,.cls-95{isolation:isolate;}.cls-3{fill:#fefdfe;}.cls-4{fill:#ee6b8c;}.cls-5{fill:#ee6d8d;}.cls-6{fill:#ef7593;}.cls-7{fill:#ee6f8f;}.cls-8{fill:#f1809b;}.cls-9{fill:#ec5c80;}.cls-10{fill:#ed6587;}.cls-11{fill:#ea4f75;opacity:0.09;}.cls-12{fill:#ee6c8c;}.cls-13{fill:#ef7391;}.cls-14{fill:#f1859f;}.cls-15{fill:#ef6e8c;}.cls-16{fill:#f084a0;}.cls-17{fill:#ef7492;}.cls-18{fill:#f290a9;}.cls-19{fill:#f0809c;}.cls-20{fill:#eb5378;opacity:0.87;}.cls-21{fill:#ed6788;}.cls-22{fill:#f5adc0;}.cls-23{fill:#f7b7c7;}.cls-24{fill:#f49ab0;}.cls-25{fill:#ef7191;}.cls-26{fill:#f69caf;opacity:0.74;}.cls-27{fill:#f2829c;}.cls-28{fill:#ef7594;}.cls-29{fill:#f395ad;}.cls-30,.cls-73{fill:#f9b1c0;}.cls-30{opacity:0.72;}.cls-31{fill:#f17893;}.cls-32{fill:#f9b1c1;}.cls-32,.cls-73{opacity:0.5;}.cls-33{fill:#ef7695;}.cls-34{fill:#f07793;}.cls-35{fill:#f497ad;}.cls-36{fill:#f9aabb;}.cls-36,.cls-37{opacity:0.7;}.cls-37{fill:#fab5c3;}.cls-38{fill:#f17a94;}.cls-39{fill:#f2829b;}.cls-40{fill:#f291aa;}.cls-41{fill:#ef7796;}.cls-42{fill:#f07794;}.cls-43{fill:#f186a1;}.cls-44{fill:#f17f9a;}.cls-45{fill:#f188a3;}.cls-46{fill:#f49eb5;}.cls-47{fill:#f4a4b9;}.cls-48{fill:#ef7493;}.cls-49{fill:#f1839d;}.cls-50{fill:#f4a6bb;}.cls-51{fill:#f5acbf;}.cls-52{fill:#f5a7bb;}.cls-53{fill:#f07a96;}.cls-54{fill:#ed6689;}.cls-55{fill:#f39bb1;}.cls-56{fill:#ed6a8c;}.cls-57{fill:#f07996;}.cls-58{fill:#f286a0;}.cls-59{fill:#f07390;}.cls-60{fill:#f28ba5;}.cls-61{fill:#f6b0c2;}.cls-62{fill:#ef7998;}.cls-63{fill:#f07b98;}.cls-64{fill:#f6a9bb;}.cls-65{fill:#f1849f;}.cls-66{fill:#f07795;}.cls-67{fill:#f6b1c3;}.cls-68{fill:#ef6e8a;}.cls-69{fill:#ef7a97;}.cls-70{fill:#fab4c2;}.cls-70,.cls-71{opacity:0.14;}.cls-71{fill:#fab1c0;}.cls-72{fill:#f287a1;}.cls-74{fill:#ef7390;}.cls-75{fill:#ef7795;}.cls-76{fill:#f9b2c2;opacity:0.27;}.cls-77{fill:#f07995;}.cls-78{fill:#ed6485;}.cls-79{fill:#f28ca5;}.cls-80{fill:#ef7392;}.cls-81{fill:#ef7090;}.cls-82{fill:#f085a0;}.cls-83{fill:#f291a9;}.cls-84{fill:#f07492;}.cls-85{fill:#f49cb2;}.cls-86{fill:#f187a2;}.cls-87{fill:#f185a0;}.cls-88{fill:#f07592;}.cls-89{fill:#ee6785;}.cls-90{fill:#ef708f;}.cls-91{fill:#f07f9b;}.cls-92{fill:#f07491;}.cls-93{fill:#f07c99;}.cls-94{fill:#ea4d73;opacity:0.18;}.cls-95{fill:#ea5076;opacity:0.01;}.cls-96{fill:#f394ad;}.cls-97{fill:#ee7190;}.cls-98{fill:#ed6688;}.cls-99{fill:#ef7291;}.cls-100{fill:#ef7290;}.cls-101{fill:#ee698a;}.cls-102{fill:#f393ab;}</style></defs><path class="cls-1" d="M95.58,16.21a61.78,61.78,0,0,1,23,27.14,1.29,1.29,0,0,0,.57,1.42,3,3,0,0,0,.85,2.54,1.7,1.7,0,0,0,.57,1.7,46.39,46.39,0,0,1,2,15,45.14,45.14,0,0,1-1.7,13.86,2,2,0,0,0-.57,2,7.24,7.24,0,0,1-1.14,3.39,1.28,1.28,0,0,0-.57,1.41,6,6,0,0,1-.85,2.27.69.69,0,0,0-.14-.57,57.55,57.55,0,0,1-23.47,26.3A52.47,52.47,0,0,1,66.28,120a52.47,52.47,0,0,1-27.87-7.35A62.79,62.79,0,0,1,14,84.64a3.8,3.8,0,0,0-1.13-2.82,6.25,6.25,0,0,0-1.14-4A44.84,44.84,0,0,1,10,64a44.77,44.77,0,0,1,1.71-13.86.62.62,0,0,0,.43-.28c.7-2.15,1.32-4.32,1.84-6.51.54-.2.63-.48.29-.84a3.14,3.14,0,0,1,.57-1.42.69.69,0,0,0,.14.57q2.93-5.83,6.11-11a.47.47,0,0,1,.29-.57Q25.22,26,29.6,21.72q3.65-2.87,7.39-5.51A52.89,52.89,0,0,1,66.28,8,52.93,52.93,0,0,1,95.58,16.21Z" transform="translate(-9.95 -8)"/><path class="cls-2" d="M37,16.21q-3.74,2.64-7.39,5.51Q25.22,26,21.35,30.06A49.75,49.75,0,0,1,37,16.21Z" transform="translate(-9.95 -8)"/><path class="cls-3" d="M77.37,21.86c2,.55,4.12,1,6.26,1.42A12.66,12.66,0,0,0,87,24.41q5.76,2.3,11.38,5.09a2.91,2.91,0,0,0,1.42,1,2.53,2.53,0,0,0-.57,1.27c-1.4,2.12-2.72,4.29-4,6.5l-.85.57L92.73,38h-.28a10,10,0,0,0-2.85-1.41,1.94,1.94,0,0,0-.85-.57h-.57a12.35,12.35,0,0,0-4-1.41,22.34,22.34,0,0,0-3.41-1.13l-2.28-.29A22,22,0,0,0,72,32a33.25,33.25,0,0,0-4.41-.28,28.25,28.25,0,0,0-6.4.57,4.33,4.33,0,0,0-2,.28,35.06,35.06,0,0,0-6.82,2,15,15,0,0,0-3.41,2,6,6,0,0,0-2.85,2,2,2,0,0,0-.85.56,3.12,3.12,0,0,0-1.42,1.7,3.15,3.15,0,0,0-1.43,1.7.75.75,0,0,0-.56.84.78.78,0,0,0-.57.85,1.87,1.87,0,0,0-.86,1.42,4.2,4.2,0,0,1-.85,2,3.2,3.2,0,0,0-.57,2,25.29,25.29,0,0,0-.28,8.76,3.55,3.55,0,0,0,.57,2.27,4.07,4.07,0,0,0,.85,2.54.46.46,0,0,1,.28.57,3.59,3.59,0,0,0,.86,1.69.77.77,0,0,0,.57.85,3.87,3.87,0,0,0,1.42,2,6.8,6.8,0,0,0,2.84,2.83,3.94,3.94,0,0,0,2,1.41,3.5,3.5,0,0,0,2,1.13.46.46,0,0,0,.57.29,3.25,3.25,0,0,0,2,.85A16.43,16.43,0,0,0,58,76.16a24.81,24.81,0,0,0,8,.28A17.26,17.26,0,0,0,73.68,75a3.09,3.09,0,0,0,2.56-1.7q1.7-3.24-1.71-4.81H74a7.47,7.47,0,0,0-4,0c-3.32.19-6.63.24-10,.15a28.29,28.29,0,0,1-6.26-1.28,17.35,17.35,0,0,1-5.12-4,5.7,5.7,0,0,0-1.71-2.12.64.64,0,0,0,.29-.42,13.55,13.55,0,0,0-.57-1.7,13.71,13.71,0,0,1,.28-9.9c-.39-.38-.3-.61.29-.7l-.29-.29a3.11,3.11,0,0,0,1.43-1.83l2.84-2.55a.86.86,0,0,0,.57-.57,32,32,0,0,0,3.7-2,41.21,41.21,0,0,1,11.37-2.26,45.63,45.63,0,0,1,14.79,2c.84.23,1.7.42,2.56.57A40.68,40.68,0,0,1,93.87,47h.28a2.18,2.18,0,0,0,1.43,1.13l2.27,2.26A3.19,3.19,0,0,0,99,51.56a.24.24,0,0,1,.28.28A2.13,2.13,0,0,0,100.69,53a1.22,1.22,0,0,0,1,1.41,2.82,2.82,0,0,1,.71,1.42,10.19,10.19,0,0,0,1.14,2,1.6,1.6,0,0,0,.57,1.13,12,12,0,0,1,1.7,4.81,7.54,7.54,0,0,0,.57,2.54,30.62,30.62,0,0,1,.57,5.09,11,11,0,0,1-.28,2.55,18.14,18.14,0,0,0-.57,3.67,13.49,13.49,0,0,0-.71,3.68,16.94,16.94,0,0,1-1.28,2.83,16.83,16.83,0,0,1-1.71,3.39,1.29,1.29,0,0,0-.57,1.42h-.28a.76.76,0,0,0-.57.84,10.4,10.4,0,0,1-1.71,2v.57a4.38,4.38,0,0,0-2,1.7.82.82,0,0,1-.57.56A5.05,5.05,0,0,0,95.29,96a.86.86,0,0,0-.57.56L89.6,100.2H89a6.89,6.89,0,0,0-2.27,1.41q-4.35,1.59-8.82,2.83h-.57q-3.57.82-7.11,1.41H62.59a16.71,16.71,0,0,0-2-.28H57.47a32.65,32.65,0,0,0-5.41-.85c-1.19-.41-2.42-.79-3.69-1.13h-.86a55.27,55.27,0,0,0-6-2.26.46.46,0,0,0-.57-.28l-6.82-3.68a2.16,2.16,0,0,0-.86-.57,2,2,0,0,0-1.13-.56,41.09,41.09,0,0,0-3.7-2.83.76.76,0,0,0-.85-.56,3.41,3.41,0,0,1-.29-.71,4.39,4.39,0,0,0,.57-1.27A2,2,0,0,0,29,89.45l2.84-3.39a3.8,3.8,0,0,1,1.42-1.56.79.79,0,0,1,.86.14,1.86,1.86,0,0,0,1.42.85,1.31,1.31,0,0,0,1.14,1.13.47.47,0,0,1,.57.29,23.43,23.43,0,0,0,7.39,4,13.14,13.14,0,0,0,4.55,1.69,41.45,41.45,0,0,0,22.47,1.7,10.94,10.94,0,0,0,3.41-.57,21.84,21.84,0,0,0,6-2,9.69,9.69,0,0,0,4-2,4,4,0,0,0,1.71-1.13,5.05,5.05,0,0,0,1.71-1.13.24.24,0,0,0,.28-.28,7.46,7.46,0,0,0,1.71-1.7,1.35,1.35,0,0,1,.85-1.13,47.4,47.4,0,0,0,2.84-4.52.31.31,0,0,0-.28-.29A25.16,25.16,0,0,1,95,76.73a2.83,2.83,0,0,0,.28-2.55,1.66,1.66,0,0,0,.29-.85,11.17,11.17,0,0,0-.29-5.65,25.83,25.83,0,0,0-5.12-10.19,16.21,16.21,0,0,0-7.39-4.8A22,22,0,0,0,78.23,51a1.72,1.72,0,0,1-.86-.28A79.49,79.49,0,0,0,64,50.28a23.06,23.06,0,0,0-4.27.85,1.2,1.2,0,0,0-.85.71A2.13,2.13,0,0,0,57.47,53a1.88,1.88,0,0,1-.57,1.56,4,4,0,0,1,.57,1.83,2.55,2.55,0,0,0,2.27,1.42q6.18.24,12.52,0c1.7.23,3.4.42,5.11.56a5.1,5.1,0,0,0,2,.57c1.45.77,2.88,1.62,4.26,2.54a7.66,7.66,0,0,1,1.71,1.7A24,24,0,0,1,87,66.26q3,9.51-4.26,16.12a10.11,10.11,0,0,0-2.28,1.7,31.8,31.8,0,0,0-3.69,1.7,3.19,3.19,0,0,0-2,.56,53.5,53.5,0,0,1-18.2.57,1.61,1.61,0,0,1-.85-.29H54.34a11.3,11.3,0,0,0-3.41-.84A39.7,39.7,0,0,1,40.4,80.4l-.57-.28A3.22,3.22,0,0,0,38.7,79a24.13,24.13,0,0,1-3.42-2.83,1.25,1.25,0,0,0-.85-1.41,2.11,2.11,0,0,0-1.14-1.42A9.94,9.94,0,0,0,31,70.22a.63.63,0,0,1,.28-.42,15.78,15.78,0,0,1-1.7-3,7.16,7.16,0,0,1-.86-2.27,3.05,3.05,0,0,0-.57-2,26.33,26.33,0,0,1-.85-11Q28,47.9,29,44.2a8.59,8.59,0,0,0,1.14-2.83,3.42,3.42,0,0,0,1.13-2,10.09,10.09,0,0,0,1.14-1.56l-.28-.28c1-1.21,1.92-2.38,2.84-3.54a3.44,3.44,0,0,0,2-2l1.42-1.13a1.34,1.34,0,0,0,.86-1.13.44.44,0,0,1,.56-.28,49.29,49.29,0,0,1,10.81-5.66,3.11,3.11,0,0,0,1.71-.56,14.12,14.12,0,0,0,4.26-1.14A55.53,55.53,0,0,1,77.37,21.86Z" transform="translate(-9.95 -8)"/><path class="cls-4" d="M77.37,21.86a18.86,18.86,0,0,1,6.26,1.42C81.49,22.88,79.41,22.41,77.37,21.86Z" transform="translate(-9.95 -8)"/><path class="cls-5" d="M56.61,22.14a14.12,14.12,0,0,1-4.26,1.14A13.83,13.83,0,0,1,56.61,22.14Z" transform="translate(-9.95 -8)"/><path class="cls-6" d="M50.64,23.84A49.29,49.29,0,0,0,39.83,29.5a.84.84,0,0,1,.29-.71A33.5,33.5,0,0,1,50.64,23.84Z" transform="translate(-9.95 -8)"/><path class="cls-7" d="M87,24.41A39,39,0,0,1,98.42,29.5Q92.81,26.7,87,24.41Z" transform="translate(-9.95 -8)"/><path class="cls-8" d="M39.27,29.78a1.34,1.34,0,0,1-.86,1.13C38.3,30.21,38.58,29.83,39.27,29.78Z" transform="translate(-9.95 -8)"/><path class="cls-9" d="M98.42,29.5c1.87.21,2.16,1,.85,2.26a2.53,2.53,0,0,1,.57-1.27A2.91,2.91,0,0,1,98.42,29.5Z" transform="translate(-9.95 -8)"/><path class="cls-10" d="M72,32c-3.61,0-7.21.05-10.81.29a28.25,28.25,0,0,1,6.4-.57A33.25,33.25,0,0,1,72,32Z" transform="translate(-9.95 -8)"/><path class="cls-11" d="M95.58,16.21A53.81,53.81,0,0,1,117.9,41.09a11,11,0,0,1,.71,2.26A61.78,61.78,0,0,0,95.58,16.21Z" transform="translate(-9.95 -8)"/><path class="cls-12" d="M72,32a22,22,0,0,1,6.54,1.13C76.28,32.88,74.1,32.51,72,32Z" transform="translate(-9.95 -8)"/><path class="cls-13" d="M61.16,32.33a11.29,11.29,0,0,1-1.7.56.32.32,0,0,1-.29-.28A4.33,4.33,0,0,1,61.16,32.33Z" transform="translate(-9.95 -8)"/><path class="cls-14" d="M37,32a3.44,3.44,0,0,1-2,2A3.44,3.44,0,0,1,37,32Z" transform="translate(-9.95 -8)"/><path class="cls-15" d="M80.79,33.46a22.34,22.34,0,0,1,3.41,1.13A15.37,15.37,0,0,1,81.36,34,.62.62,0,0,1,80.79,33.46Z" transform="translate(-9.95 -8)"/><path class="cls-16" d="M52.35,34.59a7.83,7.83,0,0,1-3.41,2A15,15,0,0,1,52.35,34.59Z" transform="translate(-9.95 -8)"/><path class="cls-17" d="M84.2,34.59a12.35,12.35,0,0,1,4,1.41A8.4,8.4,0,0,1,84.2,34.59Z" transform="translate(-9.95 -8)"/><path class="cls-18" d="M88.75,36a1.94,1.94,0,0,1,.85.57A.67.67,0,0,1,88.75,36Z" transform="translate(-9.95 -8)"/><path class="cls-5" d="M89.6,36.57A10,10,0,0,1,92.45,38,5.15,5.15,0,0,1,89.6,36.57Z" transform="translate(-9.95 -8)"/><path class="cls-19" d="M48.94,36.57a11.73,11.73,0,0,1-2.85,2A6,6,0,0,1,48.94,36.57Z" transform="translate(-9.95 -8)"/><path class="cls-20" d="M21.06,30.63q-3.18,5.19-6.11,11a.69.69,0,0,1-.14-.57A41.57,41.57,0,0,1,21.06,30.63Z" transform="translate(-9.95 -8)"/><path class="cls-17" d="M92.73,38l1.71.85.85-.57a.74.74,0,0,1-.85.85A2.13,2.13,0,0,1,92.73,38Z" transform="translate(-9.95 -8)"/><path class="cls-21" d="M66.85,39.11a39.24,39.24,0,0,1,14.22,1.42.61.61,0,0,1,.57.56A45.63,45.63,0,0,0,66.85,39.11Z" transform="translate(-9.95 -8)"/><path class="cls-22" d="M45.24,39.11a3.16,3.16,0,0,1-1.42,1.7A3.12,3.12,0,0,1,45.24,39.11Z" transform="translate(-9.95 -8)"/><path class="cls-23" d="M31.3,39.4a3.42,3.42,0,0,1-1.13,2A3.42,3.42,0,0,1,31.3,39.4Z" transform="translate(-9.95 -8)"/><path class="cls-24" d="M43.82,40.81a2.49,2.49,0,0,1-1.43,1.7A3.15,3.15,0,0,1,43.82,40.81Z" transform="translate(-9.95 -8)"/><path class="cls-25" d="M84.2,41.66A29,29,0,0,1,93.3,46a1.09,1.09,0,0,1,.57,1A40.68,40.68,0,0,0,84.2,41.66Z" transform="translate(-9.95 -8)"/><path class="cls-26" d="M14.24,42.51c.34.36.25.64-.29.84A.81.81,0,0,1,14.24,42.51Z" transform="translate(-9.95 -8)"/><path class="cls-27" d="M30.17,41.37A8.59,8.59,0,0,1,29,44.2a2.26,2.26,0,0,0,0-1.41A4.07,4.07,0,0,1,30.17,41.37Z" transform="translate(-9.95 -8)"/><path class="cls-28" d="M55.48,41.37a32,32,0,0,1-3.7,2A7.13,7.13,0,0,1,55.48,41.37Z" transform="translate(-9.95 -8)"/><path class="cls-29" d="M42.39,42.51a.76.76,0,0,1-.56.84A.75.75,0,0,1,42.39,42.51Z" transform="translate(-9.95 -8)"/><path class="cls-30" d="M118.61,43.35a1.69,1.69,0,0,1,.57,1.42A1.29,1.29,0,0,1,118.61,43.35Z" transform="translate(-9.95 -8)"/><path class="cls-10" d="M51.21,43.92l-2.84,2.55A4.68,4.68,0,0,1,51.21,43.92Z" transform="translate(-9.95 -8)"/><path class="cls-31" d="M41.26,44.2a1,1,0,0,1-.86,1.42A1.87,1.87,0,0,1,41.26,44.2Z" transform="translate(-9.95 -8)"/><path class="cls-32" d="M119.18,44.77a4.07,4.07,0,0,1,.85,2.54A3,3,0,0,1,119.18,44.77Z" transform="translate(-9.95 -8)"/><path class="cls-33" d="M66.28,46.18c.53,0,.62.23.29.57A.53.53,0,0,1,66.28,46.18Z" transform="translate(-9.95 -8)"/><path class="cls-34" d="M94.15,47a1.54,1.54,0,0,1,1.43,1.13A2.18,2.18,0,0,1,94.15,47Z" transform="translate(-9.95 -8)"/><path class="cls-35" d="M29,44.2q-1,3.7-1.71,7.36a47.11,47.11,0,0,1,1-6.79A.74.74,0,0,1,29,44.2Z" transform="translate(-9.95 -8)"/><path class="cls-36" d="M14,43.35c-.52,2.19-1.14,4.36-1.84,6.51a.62.62,0,0,1-.43.28A23.13,23.13,0,0,1,14,43.35Z" transform="translate(-9.95 -8)"/><path class="cls-37" d="M120,47.31a3,3,0,0,1,.57,1.7A1.7,1.7,0,0,1,120,47.31Z" transform="translate(-9.95 -8)"/><path class="cls-38" d="M39.55,47.6a2.06,2.06,0,0,1-.57,2A3.2,3.2,0,0,1,39.55,47.6Z" transform="translate(-9.95 -8)"/><path class="cls-39" d="M97.85,50.42A1,1,0,0,1,99,51.56,3.19,3.19,0,0,1,97.85,50.42Z" transform="translate(-9.95 -8)"/><path class="cls-40" d="M77.37,50.71a1.72,1.72,0,0,0,.86.28C77.82,51.38,77.53,51.29,77.37,50.71Z" transform="translate(-9.95 -8)"/><path class="cls-41" d="M58.89,51.84A2.13,2.13,0,0,1,57.47,53,2.13,2.13,0,0,1,58.89,51.84Z" transform="translate(-9.95 -8)"/><path class="cls-42" d="M99.27,51.84A1.21,1.21,0,0,1,100.69,53,2.13,2.13,0,0,1,99.27,51.84Z" transform="translate(-9.95 -8)"/><path class="cls-43" d="M82.78,52.69a16.21,16.21,0,0,1,7.39,4.8A48,48,0,0,0,82.78,52.69Z" transform="translate(-9.95 -8)"/><path class="cls-44" d="M102.4,55.8a1.48,1.48,0,0,1,1.14,2A10.19,10.19,0,0,1,102.4,55.8Z" transform="translate(-9.95 -8)"/><path class="cls-45" d="M57.47,56.36l2.27,1.42A2.55,2.55,0,0,1,57.47,56.36Z" transform="translate(-9.95 -8)"/><path class="cls-13" d="M72.26,57.78a1,1,0,0,1,.71-.29,25.76,25.76,0,0,1,4.4.85C75.66,58.2,74,58,72.26,57.78Z" transform="translate(-9.95 -8)"/><path class="cls-46" d="M103.54,57.78a1,1,0,0,1,.57,1.13A1.6,1.6,0,0,1,103.54,57.78Z" transform="translate(-9.95 -8)"/><path class="cls-47" d="M38.7,58.34a5.05,5.05,0,0,1,.57,2.27A3.55,3.55,0,0,1,38.7,58.34Z" transform="translate(-9.95 -8)"/><path class="cls-48" d="M79.37,58.91a11.26,11.26,0,0,1,3.12,1.27,1.79,1.79,0,0,1,1.14,1.27C82.25,60.53,80.82,59.68,79.37,58.91Z" transform="translate(-9.95 -8)"/><path class="cls-49" d="M46.66,59.19a13.55,13.55,0,0,1,.57,1.7A1.19,1.19,0,0,1,46.66,59.19Z" transform="translate(-9.95 -8)"/><path class="cls-50" d="M39.27,60.61a6.76,6.76,0,0,1,.85,2.54A4.07,4.07,0,0,1,39.27,60.61Z" transform="translate(-9.95 -8)"/><path class="cls-51" d="M28.17,62.59a3.05,3.05,0,0,1,.57,2A3.16,3.16,0,0,1,28.17,62.59Z" transform="translate(-9.95 -8)"/><path class="cls-52" d="M105.81,63.72a4.08,4.08,0,0,1,.57,2.54A7.54,7.54,0,0,1,105.81,63.72Z" transform="translate(-9.95 -8)"/><path class="cls-53" d="M40.4,63.72a1.41,1.41,0,0,1,.86,1.69A3.59,3.59,0,0,1,40.4,63.72Z" transform="translate(-9.95 -8)"/><path class="cls-54" d="M85.34,63.15a5.8,5.8,0,0,1,2,2.83.32.32,0,0,1-.29.28A24,24,0,0,0,85.34,63.15Z" transform="translate(-9.95 -8)"/><path class="cls-55" d="M41.26,65.41a.78.78,0,0,1,.57.85A.77.77,0,0,1,41.26,65.41Z" transform="translate(-9.95 -8)"/><path class="cls-56" d="M48.65,63.43a17.35,17.35,0,0,0,5.12,4,9.45,9.45,0,0,1-5-3.11A1.47,1.47,0,0,1,48.65,63.43Z" transform="translate(-9.95 -8)"/><path class="cls-57" d="M70,68.52a7.47,7.47,0,0,1,4,0C72.71,68.57,71.38,68.57,70,68.52Z" transform="translate(-9.95 -8)"/><path class="cls-58" d="M74.53,68.52q3.41,1.58,1.71,4.81a5.9,5.9,0,0,0,.14-2.54A23.66,23.66,0,0,0,74.53,68.52Z" transform="translate(-9.95 -8)"/><path class="cls-59" d="M29.6,66.83a15.78,15.78,0,0,0,1.7,3,.63.63,0,0,0-.28.42A4.61,4.61,0,0,1,29.6,66.83Z" transform="translate(-9.95 -8)"/><path class="cls-60" d="M43.25,68.24a10.34,10.34,0,0,1,2.84,2.83A10.34,10.34,0,0,0,43.25,68.24Z" transform="translate(-9.95 -8)"/><path class="cls-61" d="M95.29,67.68a11.17,11.17,0,0,1,.29,5.65C95.57,71.44,95.47,69.56,95.29,67.68Z" transform="translate(-9.95 -8)"/><path class="cls-62" d="M48.08,72.48a3.53,3.53,0,0,1,2,1.13A3.5,3.5,0,0,1,48.08,72.48Z" transform="translate(-9.95 -8)"/><path class="cls-63" d="M50.64,73.9a3.19,3.19,0,0,1,2,.85A3.25,3.25,0,0,1,50.64,73.9Z" transform="translate(-9.95 -8)"/><path class="cls-64" d="M33.29,73.33a2.11,2.11,0,0,1,1.14,1.42A1.23,1.23,0,0,1,33.29,73.33Z" transform="translate(-9.95 -8)"/><path class="cls-65" d="M76.24,73.33A3.09,3.09,0,0,1,73.68,75Z" transform="translate(-9.95 -8)"/><path class="cls-66" d="M34.43,74.75a1.25,1.25,0,0,1,.85,1.41A1.26,1.26,0,0,1,34.43,74.75Z" transform="translate(-9.95 -8)"/><path class="cls-67" d="M95.29,74.18A2.83,2.83,0,0,1,95,76.73C95.06,75.87,95.16,75,95.29,74.18Z" transform="translate(-9.95 -8)"/><path class="cls-68" d="M106.67,73.9a6.26,6.26,0,0,1-.57,3.67A18.14,18.14,0,0,1,106.67,73.9Z" transform="translate(-9.95 -8)"/><path class="cls-69" d="M58,76.16a.44.44,0,0,1,.42-.28,40.49,40.49,0,0,0,7.54.56A24.81,24.81,0,0,1,58,76.16Z" transform="translate(-9.95 -8)"/><path class="cls-70" d="M11.68,77.86a6.25,6.25,0,0,1,1.14,4A16,16,0,0,1,11.68,77.86Z" transform="translate(-9.95 -8)"/><path class="cls-71" d="M120.89,77.86a3.2,3.2,0,0,1-.57,2A2,2,0,0,1,120.89,77.86Z" transform="translate(-9.95 -8)"/><path class="cls-72" d="M38.7,79a3.22,3.22,0,0,1,1.13,1.13,5.55,5.55,0,0,1-1.42-.71A.64.64,0,0,0,38.7,79Z" transform="translate(-9.95 -8)"/><path class="cls-73" d="M12.82,81.82A3.8,3.8,0,0,1,14,84.64,8.39,8.39,0,0,1,12.82,81.82Z" transform="translate(-9.95 -8)"/><path class="cls-74" d="M93.87,79.55a.31.31,0,0,1,.28.29,47.4,47.4,0,0,1-2.84,4.52,2.3,2.3,0,0,1,.14-1.13Z" transform="translate(-9.95 -8)"/><path class="cls-75" d="M40.4,80.4a39.7,39.7,0,0,0,10.53,5.38,29.65,29.65,0,0,1-10-4.39A1.13,1.13,0,0,1,40.4,80.4Z" transform="translate(-9.95 -8)"/><path class="cls-75" d="M82.78,82.38a3.55,3.55,0,0,1-2.28,1.7A10.11,10.11,0,0,1,82.78,82.38Z" transform="translate(-9.95 -8)"/><path class="cls-76" d="M119.18,83.23a1.66,1.66,0,0,1-.57,1.41A1.28,1.28,0,0,1,119.18,83.23Z" transform="translate(-9.95 -8)"/><path class="cls-77" d="M34.15,84.64a.79.79,0,0,0-.86-.14,3.8,3.8,0,0,0-1.42,1.56,1.75,1.75,0,0,1,1.57-2A.76.76,0,0,1,34.15,84.64Z" transform="translate(-9.95 -8)"/><path class="cls-78" d="M104.11,84.08a5.24,5.24,0,0,1-1,3.11.81.81,0,0,1-.71.28A16.83,16.83,0,0,0,104.11,84.08Z" transform="translate(-9.95 -8)"/><path class="cls-79" d="M35.57,85.49a1.23,1.23,0,0,1,1.14,1.13A1.31,1.31,0,0,1,35.57,85.49Z" transform="translate(-9.95 -8)"/><path class="cls-80" d="M76.81,85.78a3.19,3.19,0,0,1-2,.56A3.19,3.19,0,0,1,76.81,85.78Z" transform="translate(-9.95 -8)"/><path class="cls-81" d="M50.93,85.78a11.3,11.3,0,0,1,3.41.84A7.57,7.57,0,0,1,50.93,85.78Z" transform="translate(-9.95 -8)"/><path class="cls-82" d="M90.46,85.49a7.46,7.46,0,0,1-1.71,1.7A2.56,2.56,0,0,1,90.46,85.49Z" transform="translate(-9.95 -8)"/><path class="cls-29" d="M55.76,86.62a1.61,1.61,0,0,0,.85.29C56.2,87.3,55.92,87.2,55.76,86.62Z" transform="translate(-9.95 -8)"/><path class="cls-53" d="M31.87,86.06,29,89.45a9.79,9.79,0,0,1,2-3.39Z" transform="translate(-9.95 -8)"/><path class="cls-83" d="M88.47,87.47a5.05,5.05,0,0,1-1.71,1.13A1.86,1.86,0,0,1,88.47,87.47Z" transform="translate(-9.95 -8)"/><path class="cls-84" d="M102.4,87.47a1.29,1.29,0,0,1-.57,1.42A1.29,1.29,0,0,1,102.4,87.47Z" transform="translate(-9.95 -8)"/><path class="cls-85" d="M101.55,88.89a.76.76,0,0,1-.57.84A.76.76,0,0,1,101.55,88.89Z" transform="translate(-9.95 -8)"/><path class="cls-86" d="M37.28,86.91l7.39,4A23.43,23.43,0,0,1,37.28,86.91Z" transform="translate(-9.95 -8)"/><path class="cls-87" d="M85.05,89.73a9.69,9.69,0,0,1-4,2A20.24,20.24,0,0,1,85.05,89.73Z" transform="translate(-9.95 -8)"/><path class="cls-88" d="M101,89.73a1.73,1.73,0,0,1-1.71,2A10.4,10.4,0,0,0,101,89.73Z" transform="translate(-9.95 -8)"/><path class="cls-17" d="M44.67,90.87a21.93,21.93,0,0,1,4.55,1.69A13.14,13.14,0,0,1,44.67,90.87Z" transform="translate(-9.95 -8)"/><path class="cls-89" d="M27.89,90.87a4.39,4.39,0,0,1-.57,1.27,3.41,3.41,0,0,0,.29.71h-.86A1.47,1.47,0,0,1,27.89,90.87Z" transform="translate(-9.95 -8)"/><path class="cls-90" d="M99.27,92.28a2.33,2.33,0,0,1-2,1.7A4.38,4.38,0,0,1,99.27,92.28Z" transform="translate(-9.95 -8)"/><path class="cls-91" d="M28.46,93.41a41.09,41.09,0,0,1,3.7,2.83A7,7,0,0,1,28.46,93.41Z" transform="translate(-9.95 -8)"/><path class="cls-92" d="M75.1,93.69a10.94,10.94,0,0,1-3.41.57c1-.31,2-.6,3.12-.85A.32.32,0,0,1,75.1,93.69Z" transform="translate(-9.95 -8)"/><path class="cls-93" d="M96.71,94.54A1.29,1.29,0,0,1,95.29,96,5.05,5.05,0,0,1,96.71,94.54Z" transform="translate(-9.95 -8)"/><path class="cls-94" d="M117.76,86.91a53.84,53.84,0,0,1-23.61,25.73,57.55,57.55,0,0,0,23.47-26.3A.69.69,0,0,1,117.76,86.91Z" transform="translate(-9.95 -8)"/><path class="cls-95" d="M14,84.64a62.79,62.79,0,0,0,24.46,28A52.25,52.25,0,0,1,14,84.64Z" transform="translate(-9.95 -8)"/><path class="cls-96" d="M33.29,96.8a2.16,2.16,0,0,1,.86.57A.68.68,0,0,1,33.29,96.8Z" transform="translate(-9.95 -8)"/><path class="cls-97" d="M34.15,97.37,41,101.05a42,42,0,0,1-6-2.69A1.5,1.5,0,0,1,34.15,97.37Z" transform="translate(-9.95 -8)"/><path class="cls-48" d="M94.72,96.52a1.09,1.09,0,0,1-.57,1,18.32,18.32,0,0,1-4.55,2.69Z" transform="translate(-9.95 -8)"/><path class="cls-42" d="M89,100.2a2.51,2.51,0,0,1-2.27,1.41A6.89,6.89,0,0,1,89,100.2Z" transform="translate(-9.95 -8)"/><path class="cls-5" d="M41.54,101.33a55.27,55.27,0,0,1,6,2.26A19.15,19.15,0,0,1,41.54,101.33Z" transform="translate(-9.95 -8)"/><path class="cls-98" d="M48.37,103.59c1.27.34,2.5.72,3.69,1.13A6.05,6.05,0,0,1,48.37,103.59Z" transform="translate(-9.95 -8)"/><path class="cls-99" d="M86.76,101.61a24.57,24.57,0,0,1-8.82,2.83Q82.41,103.2,86.76,101.61Z" transform="translate(-9.95 -8)"/><path class="cls-100" d="M77.37,104.44a.76.76,0,0,1-.71.57,34.42,34.42,0,0,1-6.4.84Q73.8,105.26,77.37,104.44Z" transform="translate(-9.95 -8)"/><path class="cls-101" d="M52.06,104.72a32.65,32.65,0,0,1,5.41.85A17.75,17.75,0,0,1,52.06,104.72Z" transform="translate(-9.95 -8)"/><path class="cls-102" d="M60.6,105.57a16.71,16.71,0,0,1,2,.28A1.75,1.75,0,0,1,60.6,105.57Z" transform="translate(-9.95 -8)"/></svg>